<?xml version="1.0" encoding="UTF-8" standalone="no"?>
<svg
   width="40"
   height="40"
   version="1.1"
   id="svg7"
   sodipodi:docname="ant_insect_animal_wildlife.svg"
   inkscape:version="1.4.2 (f4327f4, 2025-05-13)"
   inkscape:export-filename="ant_insect_animal_wildlife.png"
   inkscape:export-xdpi="96"
   inkscape:export-ydpi="96"
   xmlns:inkscape="http://www.inkscape.org/namespaces/inkscape"
   xmlns:sodipodi="http://sodipodi.sourceforge.net/DTD/sodipodi-0.dtd"
   xmlns:xlink="http://www.w3.org/1999/xlink"
   xmlns="http://www.w3.org/2000/svg"
   xmlns:svg="http://www.w3.org/2000/svg">
  <sodipodi:namedview
     id="namedview7"
     pagecolor="#ffffff"
     bordercolor="#000000"
     borderopacity="0.25"
     inkscape:showpageshadow="2"
     inkscape:pageopacity="0.0"
     inkscape:pagecheckerboard="0"
     inkscape:deskcolor="#d1d1d1"
     inkscape:zoom="8.2033834"
     inkscape:cx="54.12401"
     inkscape:cy="21.881216"
     inkscape:window-width="1366"
     inkscape:window-height="697"
     inkscape:window-x="-8"
     inkscape:window-y="-8"
     inkscape:window-maximized="1"
     inkscape:current-layer="svg7" />
  <defs
     id="defs1">
    <linearGradient
       id="linearGradient1731"
       y2="36.679493"
       xlink:href="#linearGradient1516"
       x2="82.295784"
       y1="62.792912"
       x1="78.081146"
       gradientTransform="scale(0.97849166,1.0219811)"
       gradientUnits="userSpaceOnUse" />
    <linearGradient
       id="linearGradient1729"
       y2="21.441387"
       xlink:href="#linearGradient1516"
       x2="121.77932"
       y1="32.605637"
       x1="116.25881"
       gradientTransform="scale(0.95810507,1.0437269)"
       gradientUnits="userSpaceOnUse" />
    <linearGradient
       id="linearGradient1734"
       y2="23.25679"
       xlink:href="#linearGradient1516"
       x2="96.058624"
       y1="50.143665"
       x1="87.936951"
       gradientTransform="scale(1.0353159,0.96588874)"
       gradientUnits="userSpaceOnUse" />
    <linearGradient
       id="linearGradient1519"
       y2="4.6641002"
       x2="-4.6240001"
       y1="0.0078130001"
       x1="0.75199997">
      <stop
         id="stop1781"
         stop-opacity="0"
         offset="0" />
      <stop
         id="stop1783"
         offset="1" />
    </linearGradient>
    <linearGradient
       id="linearGradient1515"
       y2="42.421249"
       xlink:href="#linearGradient1516"
       x2="54.702244"
       y1="74.473595"
       x1="52.397373"
       gradientTransform="scale(0.94610342,1.0569669)"
       gradientUnits="userSpaceOnUse" />
    <linearGradient
       id="linearGradient1516">
      <stop
         id="stop1517"
         stop-color="#f7f7f7"
         stop-opacity="0"
         offset="0" />
      <stop
         id="stop1518"
         stop-color="#fff"
         offset="1" />
    </linearGradient>
    <radialGradient
       id="radialGradient1578"
       cy="71.937263"
       cx="64.958572"
       r="34.085274"
       gradientTransform="scale(0.94544106,1.0577074)"
       fx="64.958572"
       fy="71.937263"
       gradientUnits="userSpaceOnUse">
      <stop
         id="stop2729"
         stop-color="#f7f7f7"
         stop-opacity="0"
         offset="0" />
      <stop
         id="stop2731"
         stop-color="#fbfbfb"
         stop-opacity=".073"
         offset=".45062" />
      <stop
         id="stop2730"
         stop-color="#fff"
         stop-opacity=".785"
         offset="1" />
    </radialGradient>
  </defs>
  <g
     stroke-width="1.891"
     stroke="#000000"
     fill="none"
     id="g1"
     transform="matrix(0.2788277,0,0,0.2788277,-0.88109911,-1.1668195)"
     style="fill-rule:evenodd">
    <path
       id="path924"
       d="m 109.6,25.55 -14.028,-6.4455 23.886,-3.4123 1.8957,2.654" />
    <path
       id="path923"
       d="m 116.3,39.487 4.1706,15.166 12.133,-20.474" />
  </g>
  <path
     id="path909"
     stroke-width="0.348535"
     fill="#7c5a08"
     d="m 17.916349,18.412462 c 0,0 -4.186319,-1.794061 -6.055022,1.121305 -1.868815,2.915423 -2.3920909,6.727834 -0.971798,8.222908 1.42032,1.495046 6.055022,0.448522 7.026736,-1.495074 0.971799,-1.943569 1.943569,-5.905571 1.495075,-6.877285 -0.448523,-0.971799 -1.495075,-0.971799 -1.495075,-0.971799 z"
     style="fill-rule:evenodd" />
  <g
     stroke-width="2.875"
     fill="#3e3e3e"
     id="g2"
     transform="matrix(0.2788277,0,0,0.2788277,-0.88109911,-1.1668195)"
     style="fill-rule:evenodd">
    <path
       id="path1569"
       d="m 105.38,64.802 -0.4423,0.0931 -12.734,2.7702 -3.9874,-4.9421 -2.7072,2.4776 6.0661,4.5363 0.3492,0.1862 0.3725,-0.0931 12.617,-2.747 15.574,10.383 0.3259,0.2095 0.419,-0.0466 18.181,-2.4676 -0.0898,-0.7914 -17.975,1.094 -15.597,-10.406 -0.3725,-0.2561 z" />
    <path
       id="path1568"
       d="m 85.38,67.643 -1.9521,4.0742 0.3725,9.6609 0.0233,0.3957 0.2561,0.2794 8.6367,9.5678 c -0.0031,0.39489 -0.04657,5.8016 -0.04657,11.71 0,3.0596 0.01085,6.1461 0.04657,8.5202 0.01784,1.1871 0.03793,2.1838 0.06982,2.9332 0.01595,0.3747 0.02448,0.68365 0.04656,0.93118 0.01103,0.12376 0.02949,0.24166 0.04655,0.34919 0.01708,0.10753 -8.7e-4,0.1612 0.13969,0.44231 0.08156,0.16311 0.1362,0.24393 0.25606,0.4423 0.11989,0.19837 0.26757,0.47102 0.4656,0.7915 0.39603,0.64096 0.94258,1.5146 1.583,2.5374 1.2808,2.0457 2.9502,4.7022 4.6093,7.333 3.3182,5.2617 6.588,10.406 6.588,10.406 l 1.4367,1.1342 c 0,0 -2.892,-7.4444 -6.2089,-12.704 -1.6585,-2.6298 -3.3309,-5.2678 -4.6093,-7.3097 -0.63922,-1.021 -1.1678,-1.9032 -1.5597,-2.5374 -0.19595,-0.31711 -0.37548,-0.55731 -0.48888,-0.74493 -0.06865,-0.11362 -0.06308,-0.13417 -0.09311,-0.18624 -0.0046,-0.0363 -0.01765,-0.0765 -0.02328,-0.13968 -0.01681,-0.18845 -0.0314,-0.45856 -0.04656,-0.81477 -0.03032,-0.71242 -0.05215,-1.71 -0.06983,-2.8866 -0.03539,-2.3533 -0.04657,-5.4429 -0.04657,-8.497 0,-6.1082 0.04657,-12.128 0.04657,-12.128 v -0.41904 l -0.2794,-0.3026 -8.6599,-9.5445 -0.5388,-13.293 z" />
    <path
       id="path1567"
       d="m 77.598,71.899 -0.9444,7.9651 -0.0466,0.1397 v 9.2187 l -8.8229,18.926 -0.0698,0.163 -0.0233,0.1862 -2.0951,23.908 v 0.23279 l 0.0931,0.2561 4.7257,11.942 1.6229,1.4834 -4.2767,-13.984 2.0486,-23.442 8.8229,-18.996 0.1164,-0.2095 v -9.3816 l 2.7936,-8.9395 -3.9443,0.5322 z" />
  </g>
  <g
     stroke-width="1.25"
     id="g3"
     transform="matrix(0.2788277,0,0,0.2788277,-0.88109911,-1.1668195)"
     style="fill-rule:evenodd">
    <path
       id="path919"
       d="m 94.628,34.965 c 0.07799,3.2302 0.31724,4.1665 1.6086,5.63 l 8.0429,9.1153 c 1.2798,1.4504 3.421,1.74 5.7641,0.67025 2.5038,-1.1432 7.9298,-8.0828 8.9813,-11.93 1.0722,-3.9237 1.9556,-10.566 0.13406,-11.93 -1.7368,-1.3012 -7.9806,-3.2944 -12.735,-0.93834 -4.8056,2.3816 -11.877,6.0236 -11.796,9.3834 z" />
    <path
       id="path1143"
       fill="url(#linearGradient1729)"
       d="m 98.805,35.638 c -1.1614,-7.7426 17.421,-14.711 20.131,-8.1298 2.7099,6.5813 -5.6134,18.389 -9.2912,19.744 -3.6778,1.355 -9.7426,-4.2996 -10.84,-11.614 z"
       style="fill:url(#linearGradient1729)" />
  </g>
  <g
     stroke-width="2.875"
     fill="#3e3e3e"
     id="g4"
     transform="matrix(0.2788277,0,0,0.2788277,-0.88109911,-1.1668195)"
     style="fill-rule:evenodd">
    <path
       id="path1571"
       d="m 39.22,62.684 -0.419,0.419 -15.341,15.341 -10.512,4.2835 -0.0333,0.7448 11.384,-3.0263 0.2794,-0.0698 0.2095,-0.2095 15.108,-15.132 28.614,4.4097 0.4889,-2.0719 -29.196,-4.5494 -0.582,-0.1397 z" />
    <path
       id="path1572"
       d="m 29.097,33.738 -0.6783,0.3591 5.3077,8.7065 0.2561,0.419 0.4656,0.0931 12.501,2.2581 0.1164,0.0233 h 0.09311 l 20.044,-0.3492 -1.3968,13.199 -0.0931,0.9079 0.8846,0.2328 7.1933,1.9089 2.0753,-2.6406 -7.8486,-1.1074 1.42,-13.479 0.1397,-1.2105 -1.2105,0.0233 -21.161,0.3725 -11.919,-2.165 -6.1891,-7.5524 z" />
    <path
       id="path1570"
       d="m 89.73,7.3258 -0.4355,0.0931 0.3957,7.3563 v 0.04656 l -1.8623,11.616 -0.0233,0.0931 -2.9798,11.523 -7.8917,13.13 -0.2328,0.3957 0.1397,0.4656 0.9511,5.5007 3.5652,-0.6285 -2.328,-5.0584 7.7055,-12.85 0.0931,-0.1397 0.0233,-0.1397 3.0496,-11.756 v -0.09312 l 1.9089,-11.756 0.0233,-0.1164 -0.0233,-0.1164 -2.0786,-7.5658 z" />
  </g>
  <g
     stroke-width="1.112"
     stroke="#000000"
     fill="none"
     id="g5"
     transform="matrix(0.2788277,0,0,0.2788277,-0.88109911,-1.1668195)"
     style="fill-rule:evenodd">
    <path
       id="path925"
       d="m 119.46,33.244 c 0,0 4.5498,-0.56873 4.9289,-6.0664" />
    <path
       id="path926"
       d="m 113.39,24.903 c 0,0 0.37914,-3.0332 6.8246,-2.2749" />
  </g>
  <g
     stroke-width="1.25"
     id="g6"
     transform="matrix(0.2788277,0,0,0.2788277,-0.88109911,-1.1668195)"
     style="fill-rule:evenodd">
    <path
       id="path911"
       fill="#3c2b00"
       d="m 60.897,69.182 c 1.095,-1.3687 8.3951,-4.0564 10.004,-3.5202 1.6086,0.53619 0.66071,-7.2386 7.8993,-9.1153 5.3429,-3.962 2.7999,-7.8287 5.454,-11.052 0.75829,-1.8957 6.8655,-7.0927 11.861,-5.6031 5.1129,1.5245 8.2976,9.684 5.0804,14.778 -3.2172,5.0938 -5.63,4.0214 -5.63,4.0214 0,0 1.0724,3.4853 -5.0939,5.362 -6.1662,1.8767 -5.63,5.63 -5.63,5.63 0,0 -4.0215,4.8258 -8.311,3.7534 -4.2896,-1.0724 -2.9434,3.1085 -3.9015,4.2035 l -11.732,-8.4581 z" />
    <path
       id="path1730"
       fill="url(#linearGradient1731)"
       d="m 73.747,66.448 c -2.4637,-3.0112 3.9693,-10.813 8.8967,-6.9805 4.9274,3.8324 3.0112,10.539 -1.095,11.634 -4.1062,1.095 -5.2822,-1.5743 -7.8017,-4.6536 z"
       style="fill:url(#linearGradient1731)" />
    <path
       id="path1733"
       fill="url(#linearGradient1734)"
       d="m 84.834,49.75 c -1.0722,-2.0531 0.54749,-4.7221 2.4637,-6.1592 1.9162,-1.4372 6.8208,-3.4674 9.0336,-2.4637 2.2128,1.0037 4.6765,6.0224 4.243,8.4861 -0.43343,2.4637 -4.2202,6.2733 -6.8436,6.2961 -2.6234,0.02282 -7.8245,-4.1062 -8.8967,-6.1592 z"
       style="fill:url(#linearGradient1734)" />
    <path
       id="path2381"
       fill="url(#radialGradient1578)"
       d="m 43.043,81.71 c 0,0 -5.562,15.032 0.05852,19.907 5.4456,4.7226 19.41,6.1634 27.361,-10.858 7.9512,-17.021 -18.303,-32.734 -27.419,-9.049 z"
       style="fill:url(#radialGradient1578)" />
    <path
       id="path910"
       fill="url(#linearGradient1515)"
       d="m 58.62,74.099 c -6.0202,0.57656 -10.181,9.2307 -12.36,16.012 -1.2094,0.51833 -1.0476,-6.8264 -0.52924,-8.0358 0.51832,-1.2094 2.3222,-7.9799 5.2051,-9.9618 2.7644,-1.9005 6.6543,-2.0002 9.6768,-0.91637 2.9935,1.0734 3.7658,2.3509 -1.9922,2.9023 z"
       style="fill:url(#linearGradient1515)" />
  </g>
</svg>
