<?xml version="1.0" encoding="UTF-8" standalone="no"?>
<svg
   id="图层_1"
   xml:space="preserve"
   height="40"
   viewBox="0 0 40.000001 40.000001"
   width="40"
   version="1.1"
   y="0px"
   x="0px"
   enable-background="new 0 0 283.46 283.46"
   sodipodi:docname="apple_fruit_red_apple_1.svg"
   inkscape:version="1.4.2 (f4327f4, 2025-05-13)"
   inkscape:export-filename="fruta_manzana_roja.png"
   inkscape:export-xdpi="96"
   inkscape:export-ydpi="96"
   xmlns:inkscape="http://www.inkscape.org/namespaces/inkscape"
   xmlns:sodipodi="http://sodipodi.sourceforge.net/DTD/sodipodi-0.dtd"
   xmlns="http://www.w3.org/2000/svg"
   xmlns:svg="http://www.w3.org/2000/svg"><defs
   id="defs5" /><sodipodi:namedview
   id="namedview5"
   pagecolor="#ffffff"
   bordercolor="#000000"
   borderopacity="0.25"
   inkscape:showpageshadow="2"
   inkscape:pageopacity="0.0"
   inkscape:pagecheckerboard="0"
   inkscape:deskcolor="#d1d1d1"
   inkscape:zoom="4.9392206"
   inkscape:cx="55.47434"
   inkscape:cy="16.298118"
   inkscape:window-width="1366"
   inkscape:window-height="697"
   inkscape:window-x="-8"
   inkscape:window-y="-8"
   inkscape:window-maximized="1"
   inkscape:current-layer="图层_1" />
	
	
	
	
	<g
   id="g5"
   transform="matrix(0.13537521,0,0,0.13537521,0.9256881,0.70223221)"><path
     stroke="#7c5441"
     stroke-width="2"
     stroke-miterlimit="10"
     d="m 73.611,268.7 c 0,0 36.312,33.2 62.249,0 0,0 37.35,26.975 71.587,0 0,0 132.45,-117.94 -7.614,-225.84 l -58.785,35.982 c 0,0 -67.582,-65.523 -101.22,4.225 -0.018,0.003 -67.014,96.383 33.771,185.63 z"
     fill="#da2839"
     id="path1" /><path
     d="m 227.73,208.62 c 0,0 53.337,-84.518 -33.643,-146.06 l -32.002,13.129 c 0,-0.005 81.23,9.022 65.64,132.93 z"
     fill="#ea5766"
     id="path2" /><path
     d="m 45.566,107.69 c 0,0 -32.823,63.184 25.438,138.68 0,0 27.694,33.643 70.056,11.488 0,0 34.977,21.335 52.208,4.103 0,0 -45.131,-4.103 -55.799,-32.002 0,-0.01 -71.39,48.4 -91.904,-122.27 z"
     fill="#a41f2a"
     id="path3" /><path
     stroke="#7c5441"
     stroke-width="2"
     stroke-miterlimit="10"
     d="m 128.44,87.172 c 0,0 -4.103,-52.516 19.694,-86.159 l 19.694,13.129 c 0,0 -19.899,0.821 -26.771,73.03 h -12.61 z"
     fill="#729439"
     id="path4" /><path
     stroke="#7c5441"
     stroke-width="2"
     stroke-miterlimit="10"
     d="m 240.04,23.168 c 0,0 -53.542,-36.925 -98.981,64.004 0,0 92.42,-0.82 98.98,-64.004 z"
     fill="#a6b84b"
     id="path5" /></g>
</svg>
