<?xml version="1.0" encoding="UTF-8" standalone="no"?>
<svg
   viewBox="0 0 40.000001 40"
   version="1.1"
   id="svg7"
   sodipodi:docname="beetle_insect_bug_146618.svg"
   width="40"
   height="40"
   inkscape:version="1.4.2 (f4327f4, 2025-05-13)"
   inkscape:export-filename="escarabajo.png"
   inkscape:export-xdpi="96"
   inkscape:export-ydpi="96"
   xmlns:inkscape="http://www.inkscape.org/namespaces/inkscape"
   xmlns:sodipodi="http://sodipodi.sourceforge.net/DTD/sodipodi-0.dtd"
   xmlns="http://www.w3.org/2000/svg"
   xmlns:svg="http://www.w3.org/2000/svg">
  <defs
     id="defs7" />
  <sodipodi:namedview
     id="namedview7"
     pagecolor="#ffffff"
     bordercolor="#000000"
     borderopacity="0.25"
     inkscape:showpageshadow="2"
     inkscape:pageopacity="0.0"
     inkscape:pagecheckerboard="0"
     inkscape:deskcolor="#d1d1d1"
     inkscape:zoom="7.0815109"
     inkscape:cx="45.32931"
     inkscape:cy="9.1082258"
     inkscape:window-width="1366"
     inkscape:window-height="697"
     inkscape:window-x="-8"
     inkscape:window-y="-8"
     inkscape:window-maximized="1"
     inkscape:current-layer="svg7" />
  <g
     transform="matrix(0.14055625,0,0,0.14055625,-19.41239,-31.847145)"
     id="g7"
     style="stroke-width:7.11459">
    <path
       d="m 231.8837,507.63672 c -6.23054,-8.39367 0.58923,-22.55044 0.36726,-32.93827 0.51753,-8.63933 3.17252,-23.30939 -8.25348,-20.72396 5.08788,-5.95694 -4.72263,-6.70613 -1.72826,-13.99127 -6.35138,-2.985 -3.44909,-18.53451 -4.17272,-26.75155 2.73983,-12.69996 17.05293,-16.9613 10.65373,-31.42157 -1.81729,-9.1575 2.2036,-21.20864 -7.66649,-26.59991 -7.80896,1.08507 -10.12611,16.70724 -13.4009,23.79989 -1.939,5.30441 -9.73408,15.80949 -5.79547,3.2244 -8.91034,1.92877 -22.87718,10.84776 -33.57063,15.93038 -4.98912,4.46649 -2.82597,-2.06876 -8.02309,0.26953 5.70789,-6.80435 18.02187,-7.49882 25.41307,-13.40268 8.18985,-1.66968 7.11058,-7.8175 6.99538,-12.23998 8.00623,-8.67006 16.36883,-16.10195 24.58312,-25.48619 4.44081,-10.17258 21.83488,0.26907 14.2877,-13.46646 -1.79684,-10.22546 -0.37517,-20.5997 0.60755,-30.83404 -7.69384,-6.84224 -11.75222,-17.07609 -13.69012,-26.50802 -2.01688,-4.91341 5.42443,-6.7848 -0.69454,-11.54932 8.01617,-4.83871 7.63251,-2.39993 2.59859,-9.80309 5.83896,-3.20483 11.18378,-2.0404 3.47623,-7.72737 -2.98789,-10.9966 -14.18192,-9.65698 -17.02948,-17.49561 5.46815,-1.55102 12.73399,6.63051 20.44858,13.24944 5.38916,3.47767 2.4412,12.76556 9.06811,11.05375 8.41567,-7.75698 -1.57978,10.82059 -1.53343,15.20371 -1.3529,3.94653 -0.91146,26.9426 4.25313,17.78825 5.42807,-9.97491 15.22479,-16.52113 21.2991,-25.76941 -3.45985,-0.1071 -16.21739,-0.40707 -9.31171,-10.35064 7.99401,-7.03308 2.78967,13.68812 14.03853,6.52277 5.37958,-6.16644 10.49873,-9.63704 17.50407,-4.08899 7.71719,0.89554 12.75171,-8.15451 18.89249,0.93276 7.17125,12.08557 10.818,-4.76074 15.0233,-4.08922 8.73457,9.26739 -15.09709,10.34216 -1.3018,17.23999 0.31674,6.4592 12.22579,13.38 15.8042,14.47976 6.78253,-7.68837 -1.76773,-22.51133 2.7112,-27.11505 5.20729,5.32413 4.90475,-10.02665 8.50742,-10.12993 5.62192,-4.93397 9.51763,-7.58224 15.96531,-9.65434 10.9974,-1.85344 -6.44338,4.52275 -6.74283,9.65568 -6.45633,0.0357 -8.17858,9.07876 -0.1288,9.81584 -7.76517,5.94114 -0.61641,6.3512 3.0101,10.29265 -8.65884,2.34828 4.9423,12.57418 -6.28636,12.50252 -5.17788,10.21204 -14.72208,20.19982 -10.43191,32.40262 2.0882,10.93494 -3.25501,21.63616 -2.65609,32.2563 4.57057,-3.35653 11.97991,-2.28995 11.26863,0.19465 8.17541,-0.22558 17.00557,12.7423 19.91358,19.7536 8.56685,2.71945 0.60678,7.11988 7.15384,11.85189 -9.05663,3.95978 8.99749,11.50927 11.85695,16.49836 2.77831,4.30072 19.62111,8.28227 13.04325,12.32133 -10.38763,-5.36836 -21.09991,-10.99585 -28.7352,-19.6887 -4.87933,-8.32706 -2.68541,0.80823 -5.5147,1.47028 -7.99412,-7.72707 -3.36342,-17.04753 -10.6362,-26.44075 -2.86892,-16.45487 -15.7793,3.70015 -11.92147,12.95566 1.86741,7.70793 -4.07457,20.77204 -1.76529,25.46863 14.4081,-0.66968 10.80905,18.08589 10.38265,27.41688 -3.58645,8.60867 -2.91838,17.07813 -6.43359,23.15654 -4.41454,0.62861 -3.60096,12.29774 -9.77289,4.68571 -3.94483,10.16191 -5.37074,22.95441 -1.32425,32.03813 3.98021,4.47142 4.12281,23.62665 -1.48468,16.54282 0.78919,-10.99505 -6.95134,-19.90208 -6.41346,-31.1407 -3.90288,-5.95045 12.29624,-27.08252 -0.11674,-15.56934 -0.81461,-5.89876 4.23553,-15.20529 9.8118,-22.20373 5.29435,-5.63029 11.58921,-22.18462 -2.56489,-14.34172 -9.38317,15.52211 -20.10231,33.78672 -39.16545,38.15507 -16.15229,2.67393 -33.21809,-4.34198 -42.58244,-17.76587 -7.61875,-5.78481 -12.39242,-27.39395 -23.97319,-19.23282 0.629,12.15343 11.45474,19.68796 14.37351,30.32625 3.21382,8.56029 -0.4518,5.01283 -4.91218,2.99125 3.69845,10.72395 2.26133,23.93764 -0.29056,35.22208 -3.15455,6.19429 2.11414,19.17324 -1.219,21.33202 l -2.06809,-0.48088 z m 115.32895,-97.99115 c -4.19244,-0.37035 0.92191,8.84175 0,0 z m -91.54596,-11.59653 c -1.90154,-4.23588 -1.07149,5.14647 0,0 z m -5.08519,-15.044 c 1.7674,-6.80776 1.74564,-22.12698 -5.48468,-14.21391 -1.90389,6.63294 -3.3666,-16.73838 -5.25584,-3.93743 -1.28774,6.85929 -1.83328,16.27955 4.9802,10.50365 -0.34614,3.59664 2.12169,25.60039 4.82522,15.6146 0.51303,-2.62732 0.77565,-5.29718 0.9351,-7.96691 z m 6.97435,9.73468 c 2.15308,-11.17245 -1.53551,-12.93588 -2.69334,-24.23468 -0.47435,4.68804 -6.32126,26.41614 2.69334,24.23468 z m 2.04834,-17.96384 c -1.98685,1.82061 1.35416,3.83162 0,0 z m 78.89584,-4.27084 c -3.06647,-3.21517 -0.31599,3.44575 0,0 z m -0.89584,-5.72916 c -1.98685,1.82061 1.35416,3.83162 0,0 z m -86.1169,-1.91409 c 2.05428,0.42949 -22.13879,-18.5348 -9.98727,-5.93211 5.10875,3.11592 5.42046,8.60607 9.98727,5.93211 z m -14.8831,-4.08591 c -1.98685,1.82062 1.35417,3.8316 0,0 z m 96.51718,-14.98941 c -2.71878,0.0862 2.26874,9.00448 0,0 z m -73.19315,-3.11475 c -2.13249,-4.37778 6.06935,-6.10627 2.38159,-10.69037 9.38886,2.91185 -5.7763,11.22877 2.36957,14.37483 -3.31742,-4.45794 5.40584,-9.70503 6.44035,-10.20689 -10.87288,-4.29993 10.59591,-17.7495 -3.14542,-18.94072 -3.42745,-2.55309 0.1931,-14.12846 -3.38221,-3.83452 -5.51037,3.91935 2.19475,-9.86869 -4.0367,-2.38581 -4.14541,3.5999 -6.88592,2.99424 -9.26163,1.2604 -2.24673,5.34463 -1.77322,11.6617 -5.29375,8.7564 0.89285,5.20805 2.65584,16.83949 2.13452,21.29201 3.49656,-6.17657 11.91889,11.6368 11.79368,0.37467 z m -6.28982,-2.66668 c 3.49373,-4.74523 2.44507,5.46284 0,0 z m -2.1283,-3.48368 c -0.0205,-8.19086 5.73182,1.96013 0,0 z m 4.48993,-0.90933 c 5.7262,-7.41147 4.92785,4.56904 0,0 z m -6.78184,-4.26151 c 4.79099,-5.08858 2.6757,4.58155 0,0 z m 5.78183,-0.26214 c 3.13252,-5.20057 2.84798,4.08384 0,0 z m 4.00001,-2.02432 c 2.52251,-3.91599 2.75401,2.10216 0,0 z m -10.00001,-1.89234 c 3.28116,-8.53175 2.97743,5.68128 0,0 z m 15.33958,-1.22415 c -9.41316,-4.39984 7.27235,-1.61587 0.73764,1.12535 l -0.73765,-1.12535 z m -9.33958,-0.38351 c 1.89106,-4.82579 2.58253,3.30187 0,0 z m 12.08937,-1.89206 c -2.2461,-11.34895 7.05629,4.679 -10e-6,10e-6 z m -15.08937,-1.63559 c 3.26866,-3.68393 1.97294,4.56234 0,0 z m 6.00001,-1.94803 c 3.13252,-5.20057 2.84795,4.08385 0,0 z m 4,-2.08334 c 3.73205,-5.83969 3.73194,5.83971 0,0 z m -10.00001,-0.55903 c 4.62363,-4.52793 3.25187,3.6178 0,0 z m 6.00001,-1.94097 c 3.74751,-4.09845 3.74735,4.09847 0,0 z m 11.28973,26 c -0.0498,-8.98842 -2.61773,7.8846 0,0 z m -22.92575,-5.22007 c -4.2888,-0.91308 -1.61426,7.46753 0,0 z m 30.0933,1.15097 c -2.69882,-2.92162 -0.37211,4.74879 0,0 z m 0.54272,-3.9309 c -2.48805,-3.89313 -2.48801,3.89315 0,0 z m -4.48727,-2.26551 c 5.57711,-13.89526 -7.43485,8.55579 0,0 z m -2.0962,-18.09137 c -5.37453,-7.08383 1.59809,7.24897 0,0 z m -12.02194,-4.22906 c 1.12481,-12.21796 -8.00701,7.96567 0,0 z m 66.10541,-25.41406 c -3.06647,-3.21517 -0.31599,3.44575 0,0 z m -2.5,-1.47666 c -6.09017,-5.28733 -14.95364,-3.94143 -4.75001,-0.87075 1.06828,-0.41699 3.76378,2.1183 4.75001,0.87075 z m -55,-3.58237 c -2.03308,-2.19461 -2.26404,3.34626 0,0 z"
       fill="#aca49e"
       id="path1"
       style="stroke-width:7.11459" />
    <path
       d="m 230.13855,505.20407 c -0.67467,-9.98424 2.71476,-17.2611 2.88888,-26.1919 7.71538,-2.72012 -4.60249,3.25465 1.78056,4.49515 -1.94734,7.27269 -0.31489,17.41418 -4.16653,23.22453 l -0.50291,-1.52779 z m 102.75433,-6.51932 c -0.56179,-4.826 -7.2116,-17.59442 -3.82238,-18.77176 2.79988,3.38922 8.69742,19.00287 3.82238,18.77176 z m -6.67804,-20.57183 c -3.93855,-8.52083 10.20912,-5.86098 0,0 z m -93.33671,-2.44233 c -1.3002,-8.98025 8.64712,-7.15433 1.87667,0.12811 -0.10359,0.38006 -4.12849,1.25367 -1.87667,-0.12811 z m 93.00484,-4.41555 c -2.02907,-8.48694 4.74125,-16.69104 3.36283,-22.11801 -10.87016,9.18978 3.30698,-15.91854 7.7213,-19.98881 3.4296,-5.26685 10.11154,-18.73661 -1.96399,-13.85603 -11.77053,9.03934 -17.57895,28.58362 -33.14404,35.88337 -11.4457,6.32941 -27.20639,5.06756 -38.21311,-1.81423 -9.79626,-4.85022 -15.21616,-15.04189 -21.89627,-23.6067 0.59849,-10.09773 -21.07424,-15.53789 -14.97633,-2.07691 2.76078,10.84172 13.94789,18.34585 13.47664,29.78643 -10.53671,-10.4341 2.95978,21.09458 -7.21127,11.40258 -0.64769,-5.53416 1.62669,-16.03742 -7.23442,-10.08516 0.74108,-4.63829 -3.09063,-12.81938 -4.43434,-15.16859 -2.57711,-6.26775 -3.85061,-22.19835 -0.98987,-32.02349 3.13945,-8.50626 14.95897,-10.09535 9.09211,-20.9592 -1.23103,-8.23807 0.0132,-17.19804 -1.4459,-25.17368 -6.59322,-12.31451 -15.81861,-2.47019 -17.34363,7.72541 -0.11171,3.49596 -9.57761,23.76827 -8.89163,14.71703 0.34263,-9.50333 -10.68327,4.22336 -15.62127,4.70577 -4.96329,5.3184 -17.05268,3.7724 -5.30257,0.21384 8.43231,-2.34446 13.18792,-9.93216 14.02152,-16.31362 6.23976,-8.06399 14.64694,-16.73369 23.17719,-24.43433 3.01819,-11.9552 21.57484,1.65046 14.15624,-13.13153 -1.97111,-10.52668 -1.31547,-21.37487 0.94631,-31.79706 -7.05679,-5.42999 -10.01529,-13.07346 -12.78812,-21.23045 -3.18947,-7.39912 0.88044,-11.89964 -1.22802,-17.98751 8.33386,-1.74242 4.00778,-4.59136 1.28355,-8.34247 4.83071,-4.28855 18.29837,-0.24577 17.91896,0.1879 -4.09343,10.54368 -6.61389,22.06153 -2.80696,33.08183 0.83642,8.00377 5.30912,-6.04118 8.31985,-7.34822 3.16569,-6.53474 19.67147,-17.14039 15.31874,-21.196 8.40059,-2.53578 14.67727,-13.85947 24.45391,-6.22244 7.07194,-1.00416 11.3267,-6.42674 17.16745,0.73641 5.84428,6.93353 11.72649,5.04345 13.42898,-3.49785 9.73711,1.24603 -3.5601,9.37042 -3.55749,11.77175 11.0806,5.68387 -6.92906,17.01378 6.00329,17.68226 -8.70013,3.82287 6.91922,2.52845 7.39223,9.03702 2.55468,1.97549 -1.26328,5.67942 4.74346,4.44695 -2.96741,2.85629 -2.45816,7.41824 0.88459,3.91134 5.01297,7.20243 0.23638,-9.45297 -2.70409,-12.47662 0.61346,-5.08431 -18.59698,-14.02024 -6.88696,-10.57629 5.1794,4.84292 12.65199,14.20057 13.18818,1.18706 4.18893,-7.50041 -6.19891,-22.66991 4.24799,-20.37997 -1.85606,-7.49839 16.3371,-16.35757 6.9452,-7.09841 -3.63728,7.13922 12.68478,3.78813 2.52762,10.78421 0.46342,4.10387 10.47081,3.71623 3.08476,8.94047 4.62388,8.86964 -9.70382,13.22051 -10.3472,23.21223 -8.361,9.90449 -0.33123,22.11259 -3.34507,33.55188 1.91267,8.6306 -10.18077,21.42709 -4.34301,25.87882 2.63844,-2.22465 2.57873,13.66973 4.08149,18.17711 0.63228,10.64642 4.44762,-9.79933 1.48617,-13.39196 -6.91957,-8.06577 -0.16942,-18.36903 7.85534,-15.3616 -0.98678,8.10813 -0.21526,2.2227 3.96839,2.41216 0.78049,8.31957 3.34511,-1.78367 6.87786,6.39553 6.46786,8.10143 12.92475,14.46419 14.66046,21.57778 4.57269,3.07795 -7.30962,7.70973 2.92215,10.0875 6.70505,8.26594 17.54173,12.88739 24.47879,20.42858 -9.89093,-4.75342 -19.73779,-10.00037 -27.58289,-17.51608 -3.6463,-7.06563 -4.20014,-5.84845 -7.07761,-0.47078 -5.93,-8.85147 -5.0937,-20.07401 -10.85707,-29.02922 -2.24118,-9.36578 -10.53402,0.23801 -11.8198,4.97593 0.1125,12.18279 0.13897,24.49489 -2.8749,36.35342 14.33298,0.24456 12.85464,18.82927 10.92313,28.86934 -4.14265,9.78262 -2.25243,18.9722 -8.32146,25.10276 -1.97909,5.65443 -12.08176,-0.86379 -10.7024,9.69855 -2.73225,3.09638 2.15583,14.494 -4.20499,11.75 z m -90.27878,-10.47916 c -1.98685,1.82062 1.35417,3.8316 0,0 z M 342.13376,432.9361 c 2.89924,-6.57972 6.91811,-20.90861 3.67822,-24.13614 -0.40273,8.99604 -3.88102,21.18796 -6.85512,27.46226 l 1.53417,-1.14001 1.64274,-2.18612 z M 223.50002,413.50504 c -0.63519,-3.30792 -3.77354,3.42735 0,0 z m 33.50001,-3.05903 c -2.03308,-2.19461 -2.26404,3.34626 0,0 z m -31.00001,-2.44097 c -4.06318,-6.96942 -1.39868,5.8819 0,0 z m 40.66667,-1.01902 c -4.19033,-2.63049 -3.68882,5.64986 0,0 z m -6.66666,0.51902 c -2.39493,-3.99515 -1.59481,3.71894 0,0 z m 85.41653,-3.64313 c 1.32592,-5.75819 -4.07895,5.3444 0,0 z m -80.41653,-0.29785 c -1.89108,-4.82579 -2.58255,3.30187 0,0 z m -8.7587,-5.57703 c 2.57823,-2.88816 7.49706,-18.59127 1.01046,-27.67222 -2.79515,0.21131 -3.10117,-7.6742 2.24656,-4.80707 -6.71241,-2.39978 -16.12758,-11.10072 -22.42918,-13.58602 -0.04,5.01394 -2.18204,6.08848 -3.25828,5.75913 0.62666,5.56677 3.06607,10.26674 3.94388,1.68554 3.78454,4.06489 -2.18777,10.81939 0.16858,14.80568 -3.48324,12.73946 8.83959,-4.52164 6.02338,6.33297 0.98426,5.7879 2.30232,25.09108 7.76841,13.24118 4.11409,-3.89267 1.35251,17.92677 4.52619,4.24081 z m -5.24131,-11.92297 c 1.80572,-5.41511 2.27207,3.92031 0,0 z m -0.8125,-4.62152 c 3.60477,-5.31667 2.17947,3.21891 0,0 z m 2.14437,-13.51505 c 2.00371,-10.83904 2.85645,5.80012 0,0 z m -8.64492,-1.79587 c 0.39743,-8.72893 5.15833,0.84171 0,0 z m 19.91722,29.64426 c -1.98685,1.82061 1.35416,3.83162 0,0 z m 0.68594,-3.27222 c -0.41716,-5.54174 -2.50362,6.46689 0,0 z m 3.49106,-6.28741 c 0.16689,-7.68023 -7.24315,-11.28442 -4.07928,-4.0784 4.1022,-3.0175 -5.53797,6.78344 2.70935,3.63312 -5.89927,2.99264 2.65162,5.76337 1.36993,0.44528 z m 68.823,-2.44037 c -1.98685,1.82061 1.35416,3.83162 0,0 z m -3.60416,0.67013 c -2.03308,-2.19461 -2.26404,3.34626 0,0 z m 2.60416,-9.67013 c -1.98685,1.82061 1.35416,3.83162 0,0 z M 217.00002,352.8826 c -3.09038,-1.87194 -2.94545,5.81738 0,0 z m 44.00001,-0.93659 c 2.71771,-4.34625 7.95874,-10.51854 8.29812,-3.78368 6.41655,-2.15305 -4.26224,-9.77269 3.70187,-7.84842 3.05391,8.97987 3.38703,-5.08095 8.92105,-5.66728 -2.33886,1.27032 -8.40933,0.30583 -3.42847,-5.91484 1.01714,-7.27485 -7.18098,6.43199 -3.48471,-2.47675 4.18223,-3.13524 6.90708,-16.09548 1.3465,-7.35951 -3.21553,8.10637 -6.90535,4.02061 -1.97585,-1.38563 2.9834,-8.08456 -1.9547,-3.24846 -4.16705,-8.73624 -5.61599,-1.87104 7.02543,-4.86386 -1.77229,-4.87699 0.7056,-2.66412 -7.23742,4.88872 -2.73293,-1.78737 -0.99047,-4.10921 -9.78404,-2.55916 -10.24938,4.05066 -4.05093,-0.45605 0.8705,-7.4087 -5.93124,-0.66466 -9.00823,3.25811 0.38389,3.47137 -5.94131,9.54596 -1.44004,4.76664 0.69569,6.73033 -2.89901,11.3197 4.35079,3.86023 -4.14519,8.53467 3.31469,8.51768 -3.7314,4.80077 2.4444,4.58981 -0.25734,9.38441 5.779,-5.23068 2.05801,8.9312 9.60703,3.3857 1.42368,4.95525 2.28845,2.52639 7.28042,-0.6948 -0.207,1.60273 -4.10024,11.82037 0.3699,4.99206 z m -11.40686,-6.29025 c 2.18644,-5.80091 10.8676,0.74567 2.84748,-1.42573 -0.46101,1.40595 -1.2689,3.50276 -2.84748,1.42573 z m 10.40686,-1.65072 c 3.22152,-5.13253 2.00451,4.78372 0,0 z m 5,-3.5 c 1.49296,-3.16018 2.25677,3.43448 0,0 z m -11.00001,-1.94098 c 2.15099,-3.6249 2.78407,2.21244 0,0 z m -7.875,-1.93402 c 2.45469,-3.56333 1.52626,2.81812 0,0 z m 21.87501,-0.066 c 2.15103,-3.62493 2.784,2.21245 0,0 z m 3.63837,-0.55902 c 3.51453,-4.8537 1.49345,5.0936 0,0 z m -8.63837,-0.5 c 2.48804,-3.89312 2.48794,3.89314 0,0 z m -6,-2 c 2.48804,-3.89312 2.48794,3.89314 0,0 z m 14.60629,-1.41645 c 3.69389,-5.01627 0.86542,4.1877 0,0 z m -2.60629,-4.52453 c 2.15103,-3.62493 2.784,2.21245 0,0 z m -1,-6 c 2.15103,-3.62493 2.784,2.21245 0,0 z m 3,-6.0196 c 2.23949,-6.31911 2.53425,4.52226 0,0 z m -9,0.5196 c 2.52251,-3.91599 2.75401,2.10216 0,0 z m -14.00001,-1.93659 c 3.3404,-5.289 2.80866,2.88826 0,0 z m 18.473,-0.66611 c 1.54287,-3.35937 7.14109,2.20987 0,0 z m -13.473,-2.33389 c 3.97869,-6.41911 4.25052,2.27275 0,0 z m 9.63838,-1.12243 c 3.51453,-4.8537 1.49345,5.0936 0,0 z m -15.13838,-0.5 c 0.92804,-6.5965 7.41334,4.25658 0,0 z m 11.09657,-0.84379 c 0.52304,-5.82391 4.86626,1.61631 0,0 z m 1.01394,-5.58355 c 4.87004,-5.21004 1.80187,4.59022 0,0 z m 6.3895,48.92734 c -2.1513,-4.87251 -2.15128,4.87252 0,0 z m -43.41161,-5.24494 c -4.44011,-0.34924 2.4207,7.38622 0,0 z m 13.4116,2.24494 c -1.21676,-4.74199 -1.98761,4.97536 0,0 z m 46.00001,-26.69031 c -2.83866,-2.97089 -4.39937,5.83058 0,0 z m 51.60416,-8.53885 c -1.98685,1.82061 1.35416,3.83161 0,0 z m 0.7774,-2.82279 c -0.21624,-4.21438 -2.69781,5.20752 0,0 z m -0.72665,-6.90493 c -6.57655,-5.96894 0.62848,7.39237 0,0 z m -104.36518,-13.5431 c -3.86656,-6.73215 -0.36875,6.21669 1e-5,0 z m -3.86785,-12.4552 c -5.34446,-7.17994 1.5649,9.15107 0,0 z m 115.18228,-6.27396 c -3.24503,3.6267 -2.80477,13.98483 -0.39234,3.19452 l 0.3634,-1.50104 0.0289,-1.69349 z m -81.18015,2.47916 c 0.8783,-11.32718 -7.07913,11.00365 -0.45716,2.02672 z m 6.1181,4.18182 c 6.01783,0.13059 4.90681,-10.00819 10.16413,-5.27588 3.2074,-6.19431 3.36924,-5.50615 -1.88627,-3.85861 -3.2033,1.77093 -4.27657,2.12941 -7.22865,-1.18207 0.43703,3.05247 -7.43053,3.93069 -3.67211,8.43467 -2.19469,1.66611 1.58198,4.36221 2.6229,1.88189 z m 0.45789,-3.3728 c 2.52251,-3.91599 2.75401,2.10216 0,0 z m -2,-2.5 c 2.15103,-3.62493 2.784,2.21245 0,0 z m 24.68713,-0.14615 c 9.43249,2.95922 -2.26643,-6.02797 -4.46222,0.2473 1.30941,1.00075 3.33617,1.10535 4.46222,-0.2473 z m -8.19723,-0.92917 c -4.85724,-2.20397 -1.17324,3.64015 0,0 z m -53.48991,-0.9837 c -2.48804,-3.89313 -2.48797,3.89314 0,0 z m 113.28974,-5 c -2.66269,-6.5141 -0.20974,6.6013 0,0 z m -109.28974,-3.05903 c -2.11811,-6.24588 -1.4045,7.22846 0,0 z m 109.00001,-2 c -2.03308,-2.19461 -2.26404,3.34626 0,0 z m 3,-3 c -2.03308,-2.19461 -2.26404,3.34626 0,0 z m -26.5,-1.94097 c -3.06647,-3.21517 -0.31599,3.44575 0,0 z M 166.01534,398.1893 c 2.22867,-8.77088 9.23949,-2.91298 0,0 z m 5.98468,-4.68426 c 2.48803,-3.89313 2.48799,3.89315 0,0 z m 79.02977,-133.94437 c -4.87229,-12.97321 11.24741,-8.96424 3,0.69371 -1.0851,1.56697 -2.62443,0.4453 -3,-0.69371 z m -23.56704,-9.71318 c -8.6835,-4.75757 0.0606,-9.35145 2.23538,-1.34749 -1.03748,1.2549 -1.40846,6.17957 -2.23538,1.34749 z m 120.20034,-6.77809 c 3.3517,-10.02332 6.69649,5.4395 0,0 z m -127.07962,-2.20749 c -0.003,-7.43733 4.81438,5.53694 0,0 z m -4.63279,-3.91631 c 0.0951,-4.98303 6.8916,3.52024 0,0 z"
       fill="#c09869"
       id="path2"
       style="stroke-width:7.11459" />
    <path
       d="m 230.72102,503.54617 c -1.58381,-6.23862 4.60396,-21.28026 2.09007,-6.91515 0.11821,0.76928 0.15589,13.80486 -2.09007,6.91515 z m 103.35796,-5.45779 c 0.79363,-5.07503 0.9614,4.06254 0,0 z m -2.58142,-7.83334 c -3.18805,-10.79609 2.74647,-3.86228 0.54378,1.06836 l -0.54379,-1.06836 z m -98.49754,-4.12757 c -0.72866,-4.29894 5.71998,-1.05161 0,10e-6 z m 96.00001,-4.62243 c 1.49296,-3.16018 2.25677,3.43448 0,0 z m -95.50001,-2 c 3.55517,-3.40277 1.83179,3.56412 0,0 z m 0.64118,-5.73621 c 0.39598,-16.00598 6.79681,6.18992 0,0 z m 93.35883,0.95926 c 2.90305,-7.10458 3.00129,4.61233 0,0 z m -1.24295,-5.46045 c 0.71186,-5.08557 2.38759,6.56344 0,0 z m 2.40961,0.57074 c -5.85818,-5.87765 5.90792,1.4394 0,0 z m -95.32466,-5.58334 c 0.58151,-7.14128 0.32643,-14.74899 -7.35743,-9.79139 1.41332,-7.60413 -4.7376,-7.7697 -3.42224,-15.52765 -5.04297,3.22175 0.42256,-6.46551 -3.26947,-7.93728 1.54436,-7.9509 -3.18501,-23.56822 6.47379,-30.89115 10.104,-4.76104 1.68877,-18.81812 3.42915,-28.02653 -0.64967,-4.64188 1.23996,-10.36529 -3.48019,-13.27347 -10.94525,-12.18081 -14.69553,11.96069 -18.09963,19.02992 -2.685,6.33191 -7.83824,13.69755 -5.81207,2.80933 -2.02044,-3.20027 -13.49761,9.92422 -13.53248,4.87353 3.13539,-5.93267 11.79766,-1.94637 5.65318,-7.94329 -1.1762,-9.35572 11.90811,-13.8868 16.21832,-22.1881 7.53108,-7.99539 3.41976,-1.10286 2.73831,1.82351 4.91072,-7.2713 10.47073,-19.42535 20.61548,-14.48672 -2.87773,-13.03973 -2.21392,-26.44417 -0.83939,-39.58795 -8.9037,-6.8741 -10.45354,-18.70887 -14.34821,-28.68873 4.87478,-5.90507 -3.90941,-11.3998 6.59531,-13.71066 -11.16461,-7.476 6.22343,-8.95643 9.63868,-4.28392 9.90158,-7.40057 -1.92002,11.5973 -1.04731,16.3199 -0.48857,4.00831 1.09376,20.58782 4.264,18.03826 3.73352,-5.97999 9.22996,-14.7854 14.86149,-14.98249 -1.88052,-5.81903 8.81745,-12.82154 11.31391,-16.78771 5.49272,-0.98487 8.11836,-12.58493 14.01378,-6.95636 8.54865,6.50911 16.37155,-6.48682 23.21512,2.91195 5.66006,7.45806 12.59154,4.03435 14.23673,-4.10357 7.38459,5.32021 -12.33445,10.10243 -1.16965,16.2718 5.94714,6.33891 -15.643,15.43775 -1.62322,12.19716 11.58264,-0.16387 -7.51109,6.07518 4.81946,4.25698 1.29493,5.22443 4.53222,0.40109 5.78277,5.88463 2.7434,2.89724 3.34988,6.82656 3.27229,9.63807 6.39334,-1.68065 1.85389,14.19989 7.45552,5.30148 -2.49736,-11.36844 -6.70093,-24.42775 -18.29301,-29.59395 6.28451,-5.84504 14.41645,20.01539 17.28411,4.44606 4.60699,-6.18552 -2.26043,-22.04073 1.0968,-22.7627 5.38191,2.18501 7.59765,-15.05923 10.97879,-3.4581 12.82721,-0.82145 -5.55822,10.50115 7.37013,10.31508 -1.35746,3.40225 -1.96673,7.68864 -1.2197,11.96347 -8.69304,6.75985 -15.23874,19.93641 -15.62176,31.26975 3.11611,10.36395 1.02248,23.71597 -3.05181,34.2369 -1.84957,7.14181 -3.37682,11.84022 -5.04224,11.57552 7.62184,-0.56316 7.37285,13.49356 7.91659,17.363 -1.36501,16.23521 7.14402,-6.83699 2.6441,-12.2387 -5.47701,-7.38784 -1.92894,-21.49881 6.64609,-15.78198 -1.16445,9.0721 5.87219,-4.99712 5.03261,5.59734 4.53561,-5.41299 14.18955,10.45681 15.57124,15.32131 3.47315,2.43449 7.09334,2.33396 3.35481,6.70536 10.10653,3.61768 -5.93188,7.68574 4.92376,11.83647 6.20672,0.76894 9.2978,14.00774 2.47148,5.62345 -4.76683,0.18065 -11.64015,-18.60987 -11.27691,-2.73366 -5.73801,-9.60279 -6.20845,-22.44212 -12.72309,-31.00173 -2.60608,-7.52064 -11.1236,3.16694 -10.83606,7.60688 -0.28072,12.6015 -1.15796,25.44164 -3.1337,37.67669 13.95562,-5.58676 13.31404,17.50021 11.08158,26.29261 -4.1377,9.67439 -2.27171,19.6387 -8.53031,25.2701 -2.69571,4.77421 -10.21,0.4978 -12.52489,10.03128 1.81842,-5.52837 4.88492,-17.69139 -3.15598,-7.69448 2.75368,-12.03208 14.47803,-23.35094 17.85532,-36.44463 -4.91598,-4.22123 -14.0204,-0.33399 -15.44562,7.65816 -8.25879,13.09692 -18.61052,27.46859 -34.53376,31.10091 -16.85822,3.3589 -33.91054,-5.18499 -43.68438,-18.86333 -7.87355,-6.55637 -9.51225,-24.67838 -23.09088,-19.25857 -1.26181,13.96234 13.28875,23.42843 14.56003,36.77392 -8.62844,-7.36532 -5.00725,9.02996 -3.3055,11.66999 -0.062,4.01107 -3.9745,2.0958 -3.91384,-0.69197 z m 106.08586,-25.8667 c -3.07065,-2.01958 -5.18719,8.62292 0,0 z m -26.08579,-0.33237 c -0.99003,-4.06021 -2.85791,4.4071 0,0 z m 29.10123,-3.77344 c 1.69417,-6.4238 8.38278,-24.21658 3.43786,-25.48985 -0.28758,9.27034 -5.28948,20.17948 -6.46355,27.71236 l 1.49475,-0.65286 1.53093,-1.56965 z m -64.83914,-2.50665 c -1.98685,1.82061 1.35416,3.83162 0,0 z m -1.75916,-5.27084 c -3.02569,-13.00118 -1.73912,11.25984 0,0 z m -21.84501,1.5 c -2.40534,-5.57814 -1.09616,5.29905 0,0 z m 13.28974,-1.5 c -3.2085,-6.28422 -0.16709,6.21052 0,0 z m -13.8903,-3.59855 c -1.83399,-4.17723 -6.63304,6.80154 0,10e-6 z m 17.60057,0.53952 c -5.00002,-4.1608 -2.39273,5.53436 0,0 z m -48.39288,-0.41204 c -1.81167,-6.42083 -1.69061,4.87488 0,0 z m 36.97619,-0.52893 c 5.81874,6.6967 1.22565,-11.68874 -2.08332,-7 -2.44775,-1.29932 2.09063,6.40412 -4.8606,3.86823 5.21356,-0.56774 2.68263,7.29621 6.94392,3.13177 z m 8.02085,-1.58915 c 4.5955,-6.80077 -9.15175,-5.88417 -1.34915,2.01266 1.14956,0.42984 1.95868,-1.13585 1.34915,-2.01266 z m -43.60417,-8.01785 c -3.67551,-4.86596 -3.05727,6.39462 0,0 z m 40.50001,0.607 c -3.06647,-3.21517 -0.31599,3.44575 0,0 z m 3.09033,-2.75715 c -4.19251,-2.81961 3.54928,7.1991 0,0 z m -7.24527,1.21402 c -3.18255,-4.29782 0.92004,5.16063 0,0 z m -3.34506,-1.39785 c -1.37657,-8.50111 -4.9009,-1.22922 -0.31182,0.65183 l 0.31181,-0.65183 z m -31.36941,-3.57926 c -4.6292,-3.79258 1.07795,5.95657 0,0 z m 40.85192,0.49195 c 2.26523,-6.40997 -7.73838,5.25139 0,0 z m -5.48251,0.26882 c -4.19471,-6.66872 -4.55455,2.54606 0,0 z m 74.60416,-1.96969 c -1.98685,1.82061 1.35416,3.83162 0,0 z m -87.38379,-2.319 c -1.21346,-8.66397 -2.54661,9.08168 0,0 z m 97.74783,-0.82428 c -3.48987,-1.44657 -2.78852,7.86286 0,0 z m -94.71651,-3.70218 c 3.2935,-14.83406 0.51499,11.19664 4.74831,3.57462 3.6092,-3.14292 4.57224,3.76984 4.12755,-3.69196 -2.5345,-0.51201 3.74161,-20.09206 2.55858,-7.60555 -1.99082,7.86832 3.12108,19.15065 2.64388,6.67426 4.79885,0.33435 2.41296,-16.71743 -0.57883,-23.98513 -3.05887,3.44671 -1.75583,18.20267 -4.18214,5.01382 1.94526,-8.66435 -5.9299,-11.65463 -1.52691,-13.88889 -7.93949,-3.48324 -15.86335,-9.96341 -22.17238,-13.80307 -0.84398,3.42684 -7.67984,6.32389 -1.50147,5.97101 -4.41879,8.97308 -1.33316,10.7902 3.41644,13.14443 -11.4728,-5.99323 -1.72534,17.04681 -3.29449,2.60947 0.0961,-5.61211 2.29602,8.90901 2.04664,8.38529 1.05875,3.74689 0.45158,11.17486 2.41575,7.82566 0.17773,5.39819 -0.47339,15.87215 2.01931,3.91534 1.82212,-4.31345 -2.50206,-16.89957 2.02806,-15.96468 -1.02988,6.36521 -0.14485,19.68347 6,25.47305 0.19454,5.71438 1.38599,-2.77296 1.2517,-3.64767 z m -0.17276,-12.84204 c 0.79366,-5.07497 0.96142,4.0625 0,0 z m -0.0789,-5.02432 c 1.89651,-4.83281 2.30181,3.52028 0,0 z m 1.5427,-13.48993 c 0.72372,-6.82946 3.00484,4.26588 0,0 z m -8.47241,-1.76007 c 2.22015,-8.41035 1.19405,4.56498 0,0 z m -7.10609,-1.14466 c 4.66704,-5.75461 -2.52766,6.20264 0,0 z m 50.63997,30.10648 c -1.98685,1.82061 1.35416,3.83162 0,0 z m 49.31024,-10.27084 c -2.711,0.41184 -1.22583,7.15723 0,0 z m -3.9144,0 c -2.16211,-3.79026 -4.19408,4.0003 0,0 z m 1,-14.55903 c -2.77954,-1.90998 -1.95952,3.53546 0,0 z m -124.00001,-6 c -2.77953,-1.90997 -1.95949,3.53545 0,0 z m 51.00001,-12 c 2.08861,-5.87606 12.74345,-10.25394 3.83023,-1.94549 -4.80557,7.70056 13.52735,-5.8729 5.4255,-8.63599 5.78408,-5.66364 2.05683,15.80422 6.30031,4.13187 -2.5309,-7.81955 8.09949,-10.55764 3.74557,-3.09867 6.1489,-6.50633 0.76674,-10.48477 -1.99853,-8.60635 3.89672,-4.81352 8.05624,-12.03206 0.27327,-13.73065 7.97015,-4.13674 -4.18152,-15.65652 -9.57636,-17.4487 -5.78528,-4.45049 -12.5099,-6.22894 -13.46652,3.47714 -4.28096,1.26877 1.07586,-10.73483 -5.03885,-1.3588 -6.10034,1.60251 -8.92876,6.68177 0.25141,2.9439 -5.12691,3.3392 -8.2793,9.88229 -8.79055,15.22568 -2.12145,0.91501 -0.35203,11.99212 -0.60474,11.71259 6.06906,-3.24843 -2.59743,7.08082 3.43446,4.56233 -4.69187,10.23349 5.66814,-1.30686 2.81769,8.75035 4.16348,5.21831 6.8559,-3.60617 7.1781,3.26204 7.38102,-7.17091 4.76214,-2.42101 4.63389,2.97102 1.0559,-0.10155 1.59151,-1.28173 1.58512,-2.21227 z m -11.43526,-6.33618 c 2.1096,-5.57294 4.04647,3.73939 0,0 z m 5.43525,-1.04577 c 2.151,-3.6249 2.78406,2.21244 0,0 z m 5.00001,-0.55902 c 3.22152,-5.13253 2.00451,4.78372 0,0 z m 5,-3.5 c 1.49296,-3.16018 2.25677,3.43448 0,0 z m -11.00001,-1.94098 c 2.15099,-3.6249 2.78407,2.21244 0,0 z m -7.875,-1.93402 c 2.45469,-3.56333 1.52626,2.81812 0,0 z m 25.87501,-0.066 c 2.15103,-3.62493 2.784,2.21245 0,0 z m -8.5,-1.05902 c -0.21053,-4.03188 4.10909,3.76579 0,0 z m 8.5,-3.44098 c 2.52251,-3.91599 2.75401,2.10216 0,0 z m 2,-3.55902 c 2.16211,-3.79025 4.19401,4.00028 0,0 z m -5,-0.94098 c 2.15103,-3.62493 2.784,2.21245 0,0 z m 10,-1.59421 c -9.71742,-0.8129 6.97601,-3.87493 1.49999,1.53519 l -1.05938,-0.45096 -0.44062,-1.08422 z m -6.875,-3.33981 c 2.4547,-3.56333 1.5262,2.81813 0,0 z m -4.125,-1.06598 c 2.15103,-3.62493 2.784,2.21245 0,0 z m 6.22916,-3.24652 c 3.62423,-5.07844 1.23059,3.9288 0,0 z m -12.22916,-2.25348 c 2.52251,-3.91599 2.75401,2.10216 0,0 z m 9,-0.5 c 2.15103,-3.62493 2.784,2.21245 0,0 z m -23.00001,-1.43659 c 3.3404,-5.289 2.80866,2.88826 0,0 z m 27.51008,0.39389 c 1.01136,-3.59716 4.96494,2.13967 0,0 z m -8.51007,-0.9573 c 2.15103,-3.62493 2.784,2.21245 0,0 z m 5.47614,-2.0976 c -0.20707,-7.38666 6.8822,1.7466 0,0 z m -18.47615,-0.9024 c 1.89106,-4.8258 2.58253,3.30187 0,0 z m 8.63838,-0.55902 c 3.51453,-4.8537 1.49345,5.0936 0,0 z m -3.63837,-1.94098 c 1.89651,-4.83281 2.30177,3.52029 0,0 z m 9,0.13131 c 3.01426,-6.45411 3.29194,3.74 0,0 z m -3,-4.19033 c 2.15128,-4.8725 2.15123,4.87253 0,0 z m -4.77106,-0.68683 c 3.19354,-4.72658 2.78914,2.63691 0,0 z m -23.82045,45.03878 c -5.63431,1.76865 -1.62081,8.23591 0,0 z m -13.8201,-1.59689 c -4.44011,-0.34924 2.4207,7.38622 0,0 z m 130.41161,2.74494 c -2.39493,-3.99515 -1.59481,3.71894 0,0 z m -18.54272,-35.0691 c -2.69882,-2.92162 -0.37211,4.74879 0,0 z m -0.0957,-3.4309 c -0.33518,-5.4929 -2.96261,5.18102 0,0 z m -82.82052,-9.56653 c 1.08577,-4.54564 -4.64026,3.79458 0,0 z m -21.84722,-9.93347 c -6.26431,-9.31688 2.49085,9.18363 0,0 z m 107.30611,-6 c -2.48805,-3.89313 -2.48801,3.89315 0,0 z m -110.00001,-0.94098 c -1.89106,-4.8258 -2.58252,3.30187 0,0 z m -1.57811,-6.51422 c -5.34446,-7.17994 1.5649,9.15107 0,0 z m 114.48028,-0.69401 c 2.92481,-10.57682 -2.9606,-2.00684 -2.03518,3.14921 l 0.9845,-0.92508 1.05068,-2.22414 z m -80.43289,-2.53869 c 2.87885,-6.01281 4.49314,-13.37592 -0.84889,-4.18802 -3.93981,2.16691 -1.97816,14.07283 0.84888,4.18803 z m 8.51883,3.44879 c 5.35771,0.17898 2.57889,-10.3353 6.89922,-4.12284 6.14158,-6.75058 2.53205,-6.11537 -0.8888,-5.13805 -1.13171,-2.2303 -5.42002,5.89017 -7.0119,-1.5 -2.40437,2.77777 -11.85339,14.58798 1.00148,10.76089 z m -1.9881,-3.20187 c 2.52251,-3.91599 2.75401,2.10216 0,0 z m -2,-2.5 c 2.15103,-3.62493 2.784,2.21245 0,0 z m 17,-0.55902 c 9.15031,-3.60104 -2.63584,-4.93181 -3.3609,1.43968 1.1976,0.13257 3.14904,0.20858 3.3609,-1.43968 z m 8.19791,-0.17911 c 4.84161,-6.56313 -14.80614,3.28795 -1.91432,1.07082 z m 3.80209,0.67911 c -3.74749,-4.09844 -3.74743,4.09846 0,0 z m -66.00001,-1.94098 c -1.89106,-4.8258 -2.58252,3.30187 0,0 z m 114.08714,-4.37189 c -1.07269,-8.93168 -3.7415,-5.66686 -1.35417,1.34908 0.52497,1.70064 3.13924,-0.55383 1.35417,-1.34908 z M 230.9847,262.25502 c -2.60279,-5.74117 -1.23518,9.00568 0,0 z m 112.01532,-4.80903 c -2.03308,-2.19461 -2.26404,3.34626 0,0 z m -15.45731,207.12812 c -1.3154,-9.81645 6.04106,3.35937 0,0 z m 67.95731,-65.06909 c 0.63518,-3.30792 3.77352,3.42734 0,0 z m -4,-2 c 1.83181,-3.56411 3.55511,3.40278 0,0 z m -224.50001,-1.37757 c 3.97869,-6.41912 4.25053,2.27275 0,0 z m 218.91297,-2.39593 c -11.78518,-6.44143 10.39112,2.93209 0,-10e-6 z M 178.00001,391.5402 c 3.88445,-6.20348 12.27431,-1.17294 0,0 z m 73.39024,-131.21277 c -4.28747,-7.38398 6.62354,-15.78861 4.50622,-3.48182 0.18931,1.80413 -2.672,5.497 -4.50622,3.48182 z m 2.21393,-7.55159 c -1.98684,1.82062 1.35415,3.83165 0,0 z m 90.39584,-6.77082 c 4.22571,-4.35997 11.02244,-6.37894 3.99999,0.11663 0.15842,1.74419 -6.62331,2.20206 -3.99999,-0.11663 z"
       fill="#b35138"
       id="path3"
       style="stroke-width:7.11459" />
    <path
       d="m 231.00002,504.50504 c 1.49296,-3.16019 2.25682,3.43448 0,0 z m 3,-25 c 1.49296,-3.16019 2.25682,3.43448 0,0 z m 0,-6.5 c 2.40533,-5.57814 1.09617,5.29904 0,0 z m 2.14324,-2.39032 c -2.76439,-4.87179 5.35712,2.76846 0,0 z m -2.14324,-4.01862 c 3.96071,-7.90502 4.11391,2.40039 0,0 z m 0.13685,-8.98532 c 1.82947,-6.0534 -6.08998,-3.94083 -8.20465,-2.86269 1.6022,-7.68067 -4.66104,-8.08471 -3.36986,-15.81209 -5.04297,3.22175 0.42256,-6.46551 -3.26947,-7.93728 1.54436,-7.9509 -3.18501,-23.56822 6.47379,-30.89115 10.104,-4.76104 1.68877,-18.81812 3.42915,-28.02653 -0.64967,-4.64188 1.23996,-10.36529 -3.48019,-13.27347 -10.94525,-12.18081 -14.69553,11.96069 -18.09963,19.02992 -2.69592,6.34581 -7.82992,13.69237 -5.81916,2.79725 -1.84434,-3.77664 -17.25245,12.97815 -9.4873,0.85359 10.51518,4.07107 -5.17595,-8.13523 4.11489,-9.68519 4.59684,-8.58119 12.31189,-14.01405 19.29253,-20.91449 -2.65237,4.15117 -5.68511,10.16884 0.4479,2.77179 0.96976,-8.57458 10.63532,-14.17025 17.33188,-10.93469 -2.87773,-13.03973 -2.21392,-26.44417 -0.83939,-39.58795 -8.9037,-6.8741 -10.45354,-18.70887 -14.34821,-28.68873 4.87478,-5.90507 -3.90941,-11.3998 6.59531,-13.71066 -11.16461,-7.476 6.22343,-8.95643 9.63868,-4.28392 9.90158,-7.40057 -1.92002,11.5973 -1.04731,16.3199 -0.48857,4.00831 1.09376,20.58782 4.264,18.03826 3.73352,-5.97999 9.22996,-14.7854 14.86149,-14.98249 -1.88052,-5.81903 8.81745,-12.82154 11.31391,-16.78771 5.49272,-0.98487 8.11836,-12.58493 14.01378,-6.95636 8.5797,6.49271 16.40378,-6.49337 23.28101,2.94602 3.67614,2.49835 6.97597,6.04583 10.1527,4.13109 -1.35101,6.42172 8.13711,14.17562 -2.59538,19.31336 -6.74081,3.19047 15.80665,-0.74222 5.09465,4.02848 -3.03942,1.00094 6.42512,1.73944 6.11803,4.12244 2.14369,-0.40249 8.4665,8.46338 5.53777,11.93867 7.63259,-1.36052 2.28054,12.46135 7.95966,7.24448 -0.92909,-10.79435 -5.31854,-24.97857 -16.59003,-29.6844 -1.79614,-6.86481 11.12896,5.57431 12.85894,9.15238 8.44571,-6.98903 1.86628,-25.30538 4.16319,-28.8876 6.87559,5.01288 6.03464,-14.70586 10.33822,-3.69359 7.91676,0.0824 6.06444,4.06601 2.5386,8.33602 4.43262,1.64899 8.72601,3.4797 3.29922,7.51965 4.38014,8.79195 -9.57376,13.43249 -10.47666,23.36759 -8.50175,10.30014 0.14223,22.18106 -3.38804,33.97755 -1.21322,12.06759 -6.37345,24.40975 -15.62571,32.34679 -5.30153,2.83002 0.57656,8.99375 -5.88291,10.61488 -3.21563,10.81616 -2.74858,12.37289 -0.15693,22.65546 -1.0057,10.23224 5.75615,0.50302 6.78195,3.50102 4.92493,1.12343 10.32627,-7.86406 13.60119,-13.70415 -4.41355,-5.78075 1.12325,-4.62228 0.97125,-4.43475 7.28079,-10.13375 -0.41293,-22.9228 -0.56331,-33.4826 5.44372,-3.59262 10.7738,-4.96333 10.2962,2.53472 3.06726,-9.83103 4.04292,7.15771 6.24563,-0.81645 8.91244,5.45044 10.73858,16.98844 18.60715,20.6563 -6.92367,3.64921 8.59578,8.48198 -1.28087,9.08171 0.90612,4.67603 2.74433,10.67722 -1.77292,2.36499 -4.51258,-0.32177 -1.44384,13.31481 -5.53995,0.80848 -3.96549,-9.55419 -5.1839,-21.05955 -12.46966,-28.12852 -4.3103,2.75668 -9.44662,7.23242 -8.37341,13.0505 -0.20869,11.86965 -1.25698,23.95345 -3.04833,35.46444 13.95562,-5.58676 13.31404,17.50021 11.08158,26.29261 -4.1377,9.67439 -2.27171,19.6387 -8.53031,25.2701 0.47177,5.3103 -11.7037,2.74541 -9.86657,-1.35378 -4.14826,1.57114 -9.22644,6.65639 -3.35255,-1.4826 1.63078,-11.9892 17.68734,-21.71318 13.61941,-33.51414 -13.56936,-1.15551 -14.17552,16.27464 -24.00869,24.154 -8.29651,11.28991 -22.22355,20.16605 -36.78592,17.09233 -13.29324,-0.0876 -23.29398,-11.13233 -30.63892,-18.80054 -8.4086,-6.29768 -9.6715,-25.06787 -23.54695,-19.56593 -1.26181,13.96234 13.28875,23.42843 14.56003,36.77392 -8.83354,-7.56586 -3.50697,4.81834 -6.4245,4.33376 z m 42.48511,-12.30307 c -2.0401,0.56155 5.56223,-4.19423 2.29984,-9.351 -0.11101,-4.61214 -2.01326,-17.59837 -7.67291,-14.01291 -1.67074,-6.20442 -6.40543,-18.32361 -3.51371,-5.3459 -6.69721,-8.55985 -0.82433,5.33051 -9.21397,-1.80748 -3.57947,1.41561 -2.74497,3.02896 -7.87137,4.44823 -5.24078,7.64549 -1.0852,10.82149 3.03907,15.57243 4.03705,5.73043 13.86105,11.28818 22.93305,10.49663 z m -12.62195,-4.74365 c 2.15103,-3.62493 2.784,2.21245 0,0 z m 42,2.0776 c 9.63772,-0.19091 -2.67157,-4.58517 6.9099,-3.4794 5.08849,-2.58581 14.62703,-18.62074 8.66425,-15.09835 -2.7519,-6.74854 -7.94372,-13.44086 -10.04789,-5.43187 -1.1878,-14.40742 -12.12953,7.04052 -12.71369,12.873 -3.20891,10.7707 -1.4719,15.69412 7.18743,11.13662 z m -4.43573,-5.42975 c 3.77851,-4.98049 -1.2666,4.5744 0,0 z m 6.93573,-0.70687 c -4.97827,-5.16021 7.71236,-3.32964 0,0 z m 2.5,-14.5 c 2.40535,-5.57814 1.09613,5.29905 0,0 z m 27.92609,18.08902 c 1.7167,-5.88263 -5.42806,4.72229 0,0 z m 2.7478,-4.36631 c 3.25563,-7.54187 8.32187,-22.19692 4.62997,-27.77349 -0.51975,9.23265 -6.40058,21.27477 -6.35409,28.601 l 1.72411,-0.82751 z M 222.60715,423.03397 c -1.81167,-6.42083 -1.69061,4.87488 0,0 z m 1.39287,-10.45749 c -4.5624,-4.00253 -2.64089,8.39316 0,-1e-5 z m 36.34507,-0.61457 c -3.18255,-4.29782 0.92004,5.16063 0,0 z m -3.34506,-1.39785 c -5.28074,-7.56236 8.15187,2.32969 2.60872,-6.60758 2.14769,-2.59426 1.86483,-8.42651 2.80145,-0.10424 7.0459,0.28278 5.16825,-7.90718 5.90293,-10.65501 1.78451,-6.65909 -5.62045,-28.43258 -6.09607,-11.11554 -1.27531,-6.20431 -2.99411,-14.68651 -4.87013,-15.99702 3.44381,-3.73426 -15.58189,-7.59648 -17.91773,-14.14706 -7.43052,-11.28962 -8.47088,13.08418 -7.98451,19.3359 -2.16675,6.10058 2.30833,8.54869 4.06485,8.92843 -5.15543,1.42323 7.52652,10.34024 4.04001,16.95747 0.44379,7.00481 2.59361,-5.53672 5.18137,-0.4364 -0.70875,6.10115 7.06657,14.03535 4.71157,8.10595 3.08216,-1.91354 3.38231,-11.10003 4.57828,-0.97079 0.49138,0.81916 0.13915,10.64689 2.97926,6.70589 z m 3.55249,-15.30902 c -0.86074,-13.66355 5.13476,4.35758 0,0 z m -9.5525,-0.75 c 4.19414,-4.0003 2.16204,3.79028 0,0 z m 0.0789,-8.41666 c 0.79366,-5.07497 0.96142,4.0625 0,0 z m -8.31706,-2.3859 c 0.32529,-8.15587 3.02121,4.46437 0,0 z m 8.23812,-2.63842 c 1.89651,-4.83281 2.30181,3.52028 0,0 z m -8.55385,-2.64615 c 0.0386,-7.68676 3.60896,4.02727 0,0 z m 1.71174,-12.91287 c 0.66317,-5.11639 0.66317,5.11641 0,0 z m -7.15789,-1.44098 c 2.52249,-3.91596 2.75406,2.10213 0,0 z m 97.50001,46.44098 c -3.06647,-3.21517 -0.31599,3.44575 0,0 z m -84.50001,-1.607 c -3.43344,-2.28442 -4.39597,3.84201 0,0 z m -24.3694,-1.91324 c -4.6292,-3.79258 1.07795,5.95657 0,0 z m 40.85192,0.49195 c 2.26523,-6.40997 -7.73838,5.25139 0,0 z m 69.12165,-1.70087 c -1.98685,1.82061 1.35416,3.83162 0,0 z m 10.36404,-3.14328 c -3.48987,-1.44657 -2.78852,7.86286 0,0 z m -57.60657,-6.62756 c -0.33518,-5.4929 -2.96261,5.18102 0,0 z m 22.24253,-10.22916 c -1.98685,1.82061 1.35416,3.83162 0,0 z m 26.31024,-1.27084 c -2.711,0.41184 -1.22583,7.15723 0,0 z M 210.00002,363.94601 c -2.77953,-1.90997 -1.95949,3.53545 0,0 z m 51.00001,-12 c 2.08861,-5.87606 12.74345,-10.25394 3.83023,-1.94549 -4.80557,7.70056 13.52735,-5.8729 5.4255,-8.63599 5.78408,-5.66364 2.05683,15.80422 6.30031,4.13187 -2.5309,-7.81955 8.09949,-10.55764 3.74557,-3.09867 6.1489,-6.50633 0.76674,-10.48477 -1.99853,-8.60635 3.89672,-4.81352 8.05624,-12.03206 0.27327,-13.73065 8.07007,-4.20356 -4.17452,-15.62322 -9.57636,-17.4487 -5.78528,-4.45049 -12.5099,-6.22894 -13.46652,3.47714 -4.28096,1.26877 1.07586,-10.73483 -5.03885,-1.3588 -6.10034,1.60251 -8.92876,6.68177 0.25141,2.9439 -5.12691,3.3392 -8.2793,9.88229 -8.79055,15.22568 -2.12145,0.91501 -0.35203,11.99212 -0.60474,11.71259 6.06906,-3.24843 -2.59743,7.08082 3.43446,4.56233 -4.69187,10.23349 5.66814,-1.30686 2.81769,8.75035 3.88224,5.55872 7.49072,-4.37606 6.82732,3.88117 3.69025,-3.55861 9.29844,-7.77827 4.29347,0.76714 -0.85981,3.03841 2.77855,1.11355 2.27632,-0.62752 z m -11.43526,-6.33618 c 2.1096,-5.57294 4.04647,3.73939 0,0 z m 5.43525,-1.04577 c 2.151,-3.6249 2.78406,2.21244 0,0 z m 5.00001,-0.55902 c 3.22152,-5.13253 2.00451,4.78372 0,0 z m 5,-3.5 c 1.49296,-3.16018 2.25677,3.43448 0,0 z m -11.00001,-1.94098 c 2.15099,-3.6249 2.78407,2.21244 0,0 z m -7.875,-1.93402 c 2.45469,-3.56333 1.52626,2.81812 0,0 z m 25.87501,-0.066 c 2.15103,-3.62493 2.784,2.21245 0,0 z m -8.5,-1.05902 c -0.21053,-4.03188 4.10909,3.76579 0,0 z m 8.5,-3.44098 c 2.52251,-3.91599 2.75401,2.10216 0,0 z m 2,-3.55902 c 2.16211,-3.79025 4.19401,4.00028 0,0 z m -5,-0.94098 c 2.15103,-3.62493 2.784,2.21245 0,0 z m 10,-1.59421 c -9.71742,-0.8129 6.97601,-3.87493 1.49999,1.53519 l -1.05938,-0.45096 -0.44062,-1.08422 z m -6.875,-3.33981 c 2.4547,-3.56333 1.5262,2.81813 0,0 z m -4.125,-1.06598 c 2.15103,-3.62493 2.784,2.21245 0,0 z m 6.22916,-3.24652 c 3.62423,-5.07844 1.23059,3.9288 0,0 z m -12.22916,-2.25348 c 2.52251,-3.91599 2.75401,2.10216 0,0 z m 9,-0.5 c 2.15103,-3.62493 2.784,2.21245 0,0 z m -23.00001,-1.43659 c 3.3404,-5.289 2.80866,2.88826 0,0 z m 27.51008,0.39389 c 1.01136,-3.59716 4.96494,2.13967 0,0 z m -8.51007,-0.9573 c 2.15103,-3.62493 2.784,2.21245 0,0 z m 5.47614,-2.0976 c -0.20707,-7.38666 6.8822,1.7466 0,0 z m -18.47615,-0.9024 c 1.89106,-4.8258 2.58253,3.30187 0,0 z m 8.63838,-0.55902 c 3.51453,-4.8537 1.49345,5.0936 0,0 z m -3.63837,-1.94098 c 1.89651,-4.83281 2.30177,3.52029 0,0 z m 9,0.0166 c 2.7631,-5.8862 3.79894,3.2472 0,0 z m -3,-4.07559 c 2.15128,-4.8725 2.15123,4.87253 0,0 z m -4.77106,-0.68683 c 3.19354,-4.72658 2.78914,2.63691 0,0 z m -37.64055,43.44189 c -4.44011,-0.34924 2.4207,7.38622 0,0 z m 130.41161,2.74494 c -2.39493,-3.99515 -1.59481,3.71894 0,0 z m -18.54272,-35.0691 c -2.69882,-2.92162 -0.37211,4.74879 0,0 z m -0.0957,-3.4309 c -0.33518,-5.4929 -2.96261,5.18102 0,0 z m -82.82052,-9.56653 c 1.08577,-4.54564 -4.64026,3.79458 0,0 z m -21.84722,-9.93347 c -6.26431,-9.31688 2.49085,9.18363 0,0 z m 107.30611,-6 c -2.48805,-3.89313 -2.48801,3.89315 0,0 z m -110.00001,-0.94098 c -1.89106,-4.8258 -2.58252,3.30187 0,0 z m -1.57811,-6.51422 c -5.34446,-7.17994 1.5649,9.15107 0,0 z m 114.12915,-0.0127 c 3.78306,-11.39612 -2.85543,-2.6745 -2.107,3.46787 l 0.89036,-1.01869 1.21663,-2.44919 z m -80.08176,-3.22003 c 2.87885,-6.01281 4.49314,-13.37592 -0.84889,-4.18802 -3.93981,2.16691 -1.97816,14.07283 0.84888,4.18803 z m 8.51883,3.44879 c 5.35771,0.17898 2.57889,-10.3353 6.89922,-4.12284 6.14158,-6.75058 2.53205,-6.11537 -0.8888,-5.13805 -1.13171,-2.2303 -5.42002,5.89017 -7.0119,-1.5 -3.08922,3.12215 -8.25025,6.66735 -4.13704,11.72932 1.76237,-0.0765 3.3767,-0.88741 5.13852,-0.96843 z m -1.9881,-3.20187 c 2.52251,-3.91599 2.75401,2.10216 0,0 z m -2,-2.5 c 2.15103,-3.62493 2.784,2.21245 0,0 z m 17,-0.55902 c 9.15031,-3.60104 -2.63584,-4.93181 -3.3609,1.43968 1.1976,0.13257 3.14904,0.20858 3.3609,-1.43968 z m 8.19791,-0.17911 c 4.84161,-6.56313 -14.80614,3.28795 -1.91432,1.07082 z m 3.80209,0.67911 c -3.74749,-4.09844 -3.74743,4.09846 0,0 z m -66.00001,-1.94098 c -1.89106,-4.8258 -2.58252,3.30187 0,0 z m 113.93089,-4.64231 c -0.0459,-9.26961 -3.41904,-5.00394 -1.27918,1.68031 0.88629,1.7695 2.96845,-0.85778 1.27918,-1.68031 z m -109.9462,-3.66671 c -2.60279,-5.74117 -1.23518,9.00568 0,0 z m 112.01532,-4.75 c -2.48805,-3.89313 -2.48801,3.89315 0,0 z m 43.87244,136.25 c -3.07601,-4.58698 6.08471,5.79729 0,0 z m -205.87245,-4.19098 c 2.15099,-3.6249 2.78407,2.21244 0,0 z m 191.0153,-6.80902 c 4.14964,-9.05982 0.15224,6.68591 0,0 z M 251.39026,260.32745 c -4.28747,-7.38398 6.62354,-15.78861 4.50622,-3.48182 0.18931,1.80413 -2.672,5.497 -4.50622,3.48182 z m 2.21393,-7.55159 c -1.98684,1.82062 1.35415,3.83165 0,0 z m 59.74795,5.53579 c 2.35783,-4.79818 2.2914,3.36973 0,0 z m 2.64789,-5.80661 c -3.7983,-7.37403 5.52871,7.20774 0,0 z m 28.2691,-6.30732 c 4.45792,-4.60806 4.04605,4.52461 0,0 z m 5.2309,-2.69268 c -0.21053,-4.03188 4.10909,3.76579 0,0 z"
       fill="#695e5a"
       id="path4"
       style="stroke-width:7.11459" />
    <path
       d="m 234.33334,456.04904 c 1.90156,-4.23586 1.0715,5.14645 0,0 z m 46.35633,-1.68112 c -13.31559,-0.12303 -25.25527,-9.85117 -31.13576,-19.95008 -7.27787,-3.84673 -12.60705,-27.39989 -24.55389,-16.67041 0.44835,12.64229 11.33304,20.70734 14.58876,32.25761 0.87285,3.9498 -9.78896,0.27444 -13.06171,4.21958 2.00669,-6.60141 -4.3913,-9.1698 -3.26833,-15.51552 -5.0773,1.77878 0.15017,-6.94816 -3.77651,-6.85185 2.79173,-7.70274 -4.47103,-22.78625 5.90464,-31.15125 11.69783,-2.34929 1.29063,-19.55486 3.86637,-28.64126 -1.03382,-4.14136 1.43053,-10.11124 -2.26852,-12.85946 -8.40352,-1.95123 1.98265,-11.53621 -6.40499,-11.78969 5.05811,7.89794 -9.3572,9.96575 -9.73886,19.48013 -2.15536,5.69779 -6.66478,25.45024 -10.44958,11.9628 -4.13932,4.01861 -10.1156,-5.08028 -3.00974,-7.73749 5.08658,-7.6689 12.12604,-13.8505 18.61847,-19.99325 -3.95297,2.57389 -13.73381,22.82473 -5.48482,11.30816 7.31171,-6.88008 7.02901,-21.0287 19.38208,-19.91935 10.94472,7.11434 -1.26152,-11.85047 1.96704,-17.57009 0.31489,-9.19355 1.25163,-21.28131 -1.45686,-27.69146 -5.99655,-1.23945 -12.5092,-18.75232 -10.59071,-24.80268 2.68983,-4.78028 -4.91218,-10.4558 6.18327,-10.87589 -6.48307,-3.82396 -5.0745,-9.84814 3.38026,-7.42478 4.56175,3.87196 11.59451,2.09227 6.07493,9.87618 -3.51689,6.80194 -3.1712,27.67595 1.89057,27.74971 5.68808,-10.12532 12.2569,-19.25298 23.05639,-12.76754 6.56721,2.41594 11.10702,-3.90564 14.15306,0.98058 -7.09758,-11.71728 21.45329,-3.08382 17.77878,-8.48558 -1.85793,-5.18967 -5.33154,0.52726 -8.50916,-3.43802 -6.65236,3.17332 -7.16448,5.0079 -4.14924,-1.45161 -5.33636,4.22801 -5.7817,4.02308 -6.1662,-0.0504 -2.8988,3.68116 -4.99416,5.52424 -3.21981,-0.42913 -11.85879,5.03797 -3.51285,-0.60067 -3.92716,-2.20839 -6.32391,-0.39367 -17.9186,19.8344 -11.58485,5.77061 9.24163,-8.56795 16.9247,-24.56395 30.34512,-14.95356 10.13527,-7.88518 20.03644,2.75366 26.95242,11.01351 12.09578,7.47831 -21.23097,20.45471 -3.22694,14.30393 4.56531,-3.15505 8.92392,2.99736 2.15183,1.7406 7.53126,7.57946 9.94548,9.22718 14.5,17.79797 4.41723,1.03834 -1.42814,12.6831 3.27473,4.43474 -3.07215,7.0344 6.12394,2.65187 -0.33375,8.46977 -2.82476,3.87423 7.70815,-4.91361 4.53986,4.01887 3.34191,3.54034 1.92368,-12.16217 4.13662,-2.50918 -0.56277,16.58885 -4.264,36.45449 -19.731,45.58655 1.9472,3.59365 2.23835,10.43046 -3.03547,6.66265 -2.00481,10.87574 -1.48377,20.14028 0.77299,30.40456 3.59895,2.14751 5.68061,-7.11863 6.86265,-0.16345 6.83181,-3.25847 10.31808,-11.71636 14.45091,-18.55643 -0.0758,-0.47276 -3.21989,22.69843 1.22303,9.61949 0.67732,-11.62385 2.64871,-23.34907 -0.79555,-35.09746 -7.10886,-7.6986 7.45916,-17.60153 8.21084,-6.48504 6.79333,-7.95485 4.27872,7.30494 -2.27397,9.55671 -3.5519,2.99182 -1.18784,8.60389 -2.1412,12.74663 -0.16253,11.69872 -1.74194,23.2969 -4.39071,34.67684 2.90719,-13.28362 19.61763,2.57513 8.96376,5.98083 -0.58236,11.05664 -17.25215,-0.27634 -17.32614,13.13346 -2.14971,4.48753 -11.41144,17.03073 -11.85271,14.80713 3.75693,-5.65271 12.60376,-14.58359 4.39206,-14.73752 -2.22544,-6.15637 -7.14534,-10.42031 -8.92068,-3.51764 -0.34105,-14.55044 -12.05075,6.59501 -12.69485,11.73704 -3.61854,8.06944 -1.73162,19.88632 8.9334,12.13596 14.6263,-4.55494 -10.12127,13.87671 -16.76482,11.75125 -3.40015,0.59394 -6.89033,0.39413 -10.31035,0.11163 z m -46.68965,-7.42191 c -2.77953,-1.90997 -1.95949,3.53545 0,0 z m 44.72203,-1.82965 c 2.35421,-8.81829 -0.51721,-25.49739 -7.72203,-24.17706 -3.52636,-12.34792 -2.06386,-25.62461 -1.90538,-38.35653 -0.57996,-3.30139 -4.02019,-8.89953 -5.13294,-13.07773 -3.24106,-6.91487 -16.54126,-10.04408 -24.28166,-17.4836 -7.24991,-13.72918 -9.74825,14.83377 -8.40556,20.66478 0.0275,8.69807 4.10266,12.41632 7.36108,20.72155 -0.0447,5.41545 2.15311,9.75884 3.00801,2.79109 5.72257,-0.87968 5.46917,23.02683 9.78517,9.81478 0.38504,-7.41265 1.45977,-11.23031 2.31444,-2.09305 0.32069,6.08212 -0.064,9.05247 4.52967,8.51974 -1.95288,6.96776 -5.77081,5.47601 -7.52506,-0.71157 1.65366,8.76175 -8.55861,18.36334 3.44194,24.8516 5.03948,3.78473 10.01305,6.11342 17.02753,9.26734 2.48514,0.14537 5.173,0.36556 7.50479,-0.73134 z m -17.42234,-29.03903 c -1.9511,-4.32364 1.16234,-17.63246 2.11252,-6.34931 4.60092,-0.58171 4.20866,7.84008 0.46404,2.12053 -2.1685,1.14815 1.89988,9.00896 -2.57656,4.22878 z m -6.29969,-8.01327 c 2.52248,-3.91596 2.75406,2.10212 0,0 z m 6.00001,-8 c 1.80572,-5.41514 2.27205,3.92032 0,0 z m -0.39462,-5.14496 c 0.49475,-11.17798 2.86775,5.93939 0,0 z m -9.60539,0.14496 c 2.52249,-3.91596 2.75406,2.10213 0,0 z m -8.5,-12.55902 c -0.21047,-4.03187 4.10905,3.76576 0,0 z m -0.5,-5 c 2.48803,-3.89313 2.48799,3.89315 0,0 z m 19.23164,-1.47202 c -1.09084,-15.26978 4.8763,6.09708 0,0 z m -17.1527,-10.94464 c 0.79366,-5.07497 0.96142,4.0625 0,0 z m -21.67659,54.78488 c 2.08496,-5.38016 -0.33896,-12.82794 -1.37623,-2.73964 -1.03709,5.63642 1.86007,12.59085 1.37623,2.73965 z m 66.59766,-3.36822 c -1.83812,-11.88654 -1.32895,12.73725 0,0 z m -15.03043,-0.25 c -1.92218,-8.27651 -1.37378,9.47912 0,0 z m 0.42344,-5.33179 c 3.40914,-5.14529 -2.4942,-8.88649 -1.93686,-3.59489 3.65631,0.39812 -3.38941,7.94807 1.93686,3.59489 z m 60.62063,0.33179 c 3.36348,-8.9109 -3.1959,-3.7917 -1.12206,1.25 l 0.78683,-0.36719 z m -108.41261,-3.20343 c -6.96365,-8.70918 0.61939,9.24153 0,0 z m 6.52305,-2.81324 c -2.98619,-1.57589 2.71879,4.44421 0,0 z m 112.84263,-2.63833 c -2.72221,-2.12105 -6.01088,9.56472 -0.564,1.65817 l 0.56401,-1.65816 z m -57.50409,-10.78513 c 0.59072,-6.05071 -0.85148,-12.88323 -1.16419,-2.23285 -0.78208,5.72337 0.39998,20.74745 1.01962,6.478 l 0.0822,-2.06129 0.0624,-2.18386 z m -14.38138,4.94013 c 1.82098,-6.72129 -1.62566,-10.13968 -1.89183,-1.74247 -0.80735,2.4683 1.71394,7.13389 1.89183,1.74247 z m 61.90344,-2.05903 c -3.2825,-1.98577 -1.29393,7.83421 0,0 z m -53.98468,-4.75 c -2.30185,-3.52025 -1.8965,4.83283 0,0 z m 29,-3.5 c -2.01583,-4.94194 -3.66116,-2.19028 -0.0569,1.44716 l 0.0569,-1.44715 z m -38,-1.05899 c -2.76842,-1.7288 -1.6041,4.56609 0,0 z m 2,-3.94101 c -2.58258,-3.30184 -1.89105,4.82581 0,0 z m -69.39584,-8.67013 c -1.98684,1.82062 1.35416,3.83161 0,0 z m 83.39584,0.67013 c -2.58258,-3.30184 -1.89105,4.82581 0,0 z m -16.27039,-6.41427 c -3.14426,-2.14466 -10.33887,1.14621 -1.14526,0.67342 l 1.14527,-0.67341 z m 43.27039,-5.96826 c -4.63662,-0.58179 -4.88151,4.2576 0,0 z m -51.90054,-5.30844 c 0.6564,-4.20946 9.53785,3.00708 4.40901,-3.16039 1.97416,-1.54083 11.12908,3.85253 6.9945,-3.60975 2.4352,-5.46912 7.35323,7.49637 8.49702,-3.13069 2.00263,-3.67955 7.07098,-10.87295 -0.40636,-3.86318 0.16323,-1.60532 -0.54028,-17.27296 3.46437,-16.39213 7.67024,-3.16922 -10.31491,-1.5117 -1.90254,-5.24586 4.32179,-9.37223 -9.70527,5.31586 -2.52048,-3.8162 2.51119,-6.53177 1.85331,-4.9579 -2.19013,-4.51829 0.13652,-9.17767 -8.3329,-4.45659 -9.11492,-12.19419 -7.76121,4.24552 2.22782,-4.76511 -6.75851,-4.89075 -3.89134,-2.43157 4.50268,6.46826 -3.10525,3.18047 -6.12019,-1.83026 -8.83688,-1.11881 -5.46618,3.13431 -4.08255,-10.00731 -10.08955,2.7876 -12.26234,7.08911 1.36887,7.4046 -8.72777,15.92088 -3.62539,24.27533 -3.28781,6.89272 7.18867,-1.04232 0.12159,6.55415 6.69978,1.26011 -0.42206,8.59933 6.44544,7.82896 0.24653,9.62266 9.08887,3.03845 11.5207,4.7091 -3.02366,5.50138 5.66904,6.84814 3.91759,-0.77268 2.36046,0.53739 -1.04521,11.64005 1.98188,4.82268 z m 1.90054,-4.19098 c 2.15103,-3.62493 2.784,2.21245 0,0 z m 5.52603,-0.0169 c -1.60179,-6.24192 4.10954,-10.8461 1.82114,-1.22921 0.88992,1.39003 -1.37292,2.6205 -1.82114,1.22921 z m 9.05692,-2.90793 c -1.16323,-5.30336 3.46627,1.78344 0,0 z m -14.58295,-2.07519 c 1.89106,-4.82579 2.58249,3.30188 0,0 z m 4,-5 c 2.15103,-3.62493 2.784,2.21245 0,0 z m 4,-12.5 c 2.52251,-3.91599 2.75401,2.10216 0,0 z m 5,-3 c 2.52251,-3.91599 2.75401,2.10216 0,0 z m -3,-1.5 c 2.15103,-3.62493 2.784,2.21245 0,0 z m -4,-2 c 2.15103,-3.62493 2.784,2.21245 0,0 z m -31.00001,-1.5 c 1.61478,-3.27686 4.20505,2.16448 0,0 z m 7,-7 c 2.52249,-3.91596 2.75406,2.10213 0,0 z m 24.69099,-2.25 c -0.38307,-6.77113 4.46957,0.18988 0,0 z m -18.69099,-1.25 c 2.15099,-3.6249 2.78407,2.21244 0,0 z m 9.00001,0 c 2.15103,-3.62493 2.784,2.21245 0,0 z m -14.48993,-1.0427 c 1.01136,-3.59716 4.96495,2.13967 0,0 z m 10.48993,-1.4573 c 2.52251,-3.91599 2.75401,2.10216 0,0 z m 9.5,-0.55902 c 3.77358,-3.42733 0.63512,3.30794 0,0 z m -14.50001,-1.88196 c 1.60409,-4.56612 2.76841,1.72876 0,0 z m 11.00001,-1.05902 c 2.15103,-3.62493 2.784,2.21245 0,0 z m 23.52069,26.58731 c 4.88051,-3.2138 -6.45141,-2.9195 -2.60062,0.68181 l 1.30993,-0.68368 1.29069,0.002 z m -46.12768,-18.22812 c 2.49447,-8.54513 -5.11594,2.41918 -0.69102,1.11714 l 0.69101,-1.11714 z m 45.60699,-1.91821 c -1.21677,-4.74199 -1.98764,4.97536 0,0 z m -57.00001,-16.85077 c -2.61929,-13.63498 -9.88021,-2.11823 0,0 z m -4.45874,-11.39923 c 0.5116,-7.16342 -5.60891,-9.35997 -2.37449,-0.78698 0.13544,2.26913 2.53203,6.19088 2.37449,0.78698 z m 58.95875,1.10916 c -7.15956,-3.72872 -10.74499,0.87065 -1.2925,0.3381 -0.69843,0.0173 2.78282,0.0199 1.2925,-0.3381 z m 0.066,-4.46592 c 7.82124,1.26036 -6.98901,-4.83555 -2.07711,1.07983 l 1.18904,-0.32757 0.88806,-0.75226 z m -6.56598,-1.95227 c -2.03308,-2.19461 -2.26404,3.34626 0,0 z m -52.00001,-7.44097 c -2.15129,-4.87251 -2.15125,4.87252 0,0 z m -2.51008,-4.5163 c -4.85724,-2.20397 -1.1733,3.64016 0,0 z m 6.32345,-2.2337 c -3.24815,-9.52163 -1.57562,10.45576 -1e-5,0 z m 105.33816,188.55627 c -16.09172,-5.01577 -0.75685,-17.96814 3.5119,-26.7771 1.75393,-6.6832 7.42518,-13.08729 3.56632,-2.241 -0.13037,7.31559 -15.11262,21.51187 -4.42227,22.38571 -3.80367,-3.9106 8.53421,-14.38122 7.61958,-23.37138 0.72704,-5.78894 3.59698,-19.87958 3.20424,-5.51037 -0.32787,10.7893 -5.17818,19.56223 -5.0741,27.78283 -3.85098,0.64934 -4.52396,11.82013 -8.40567,7.73131 z m -10.65152,-1.30627 c 5.99868,-6.09575 -3.2018,6.28571 0,0 z M 301.5643,437.21191 c 3.77851,-4.98049 -1.2666,4.5744 0,0 z m 6.94769,-1.45687 c 1.63351,-9.55038 2.06799,6.58186 0,0 z m 2.48804,-13.75 c 2.40535,-5.57814 1.09613,5.29905 0,0 z M 191.00002,383.55777 c 3.13807,-4.00374 7.34705,2.52972 0,0 z m 172.34999,-3.05273 c -4.29588,-7.87312 -5.67962,-18.61964 -9.8559,-26.36389 -3.38302,-3.94626 6.96422,1.1433 0.51647,-4.85515 -2.77737,-5.48231 11.73739,8.7051 11.75104,13.98704 4.61816,3.02918 2.81771,7.84036 6.49052,10.94417 -9.14647,-3.81165 -6.37447,15.31785 -8.90213,6.28783 z m 1.15002,-13 c -2.0325,-4.34333 -9.83465,-20.39166 -5.11237,-6.42656 1.13385,1.27187 2.25526,9.68532 5.11237,6.42656 z m 4.71213,12.9681 c -3.93781,-8.50936 4.6961,5.63294 0,0 z m -34.97601,-75.4681 c 1.85078,-7.66437 -6.87867,-15.78759 -6.1399,-20.85975 4.80001,10.61092 7.00899,-15.01363 6.07805,-20.20861 -1.33108,-7.19521 -2.79776,-6.94704 2.63115,-6.45319 3.36711,-7.09794 18.76329,-4.45646 9.64239,3.3657 5.76807,2.84025 9.75988,2.74298 3.29313,7.88788 5.1188,8.70373 -9.69499,11.48386 -9.42519,21.78516 -5.67552,3.81568 -4.54637,13.28829 -5.6704,16.24844 l -0.40925,-1.76563 z m 2.25173,-20.51963 c -4.31466,-1.27481 0.39822,6.07667 0,0 z m 4.10822,-8.64081 c 2.89489,-3.80475 3.88399,-3.72609 2.60434,-8.66075 -7.51042,-0.9691 3.17818,-11.46808 1.82918,-10.57181 -13.2366,1.01072 -3.27061,16.13178 -7.96215,24.68858 2.19695,-0.43219 3.03131,-3.54614 3.52863,-5.45602 z m -18.59607,15.66044 c 7.2786,-3.3704 -2.62755,3.96045 0,0 z m -2.69421,-14.4361 c -8.52774,-4.72728 4.59984,-2.32855 1.86345,1.34603 l -1.86346,-1.34604 z m -58.30579,-6.50488 c 2.15103,-3.62493 2.784,2.21245 0,0 z m -10.00001,-11.13044 c 2.24978,-3.35715 4.64517,-8.34967 0.0318,-4.59679 4.43216,-14.32583 7.24033,9.14994 -0.0318,4.59679 z m 62.00001,-0.36956 c 2.52251,-3.91599 2.75401,2.10216 0,0 z m 28.66666,-8.2257 c -2.05058,-5.37421 5.7865,2.45556 0,0 z m 3.83334,-5.33332 c 0.63518,-3.30792 3.77352,3.42734 0,0 z"
       fill="#584830"
       id="path5"
       style="stroke-width:7.11459" />
    <path
       d="m 226.68016,451.08871 c -0.722,-5.39836 -4.30222,-12.14821 -5.41157,-14.12384 1.82389,-7.43524 3.24974,-20.52709 0.75036,-25.97153 -5.48247,-5.8941 9.28148,-10.43977 8.79376,-15.3736 -1.2155,-11.39819 -1.34121,-22.865 -1.3835,-34.31591 -9.21925,-3.81501 -1.83764,-11.2676 -8.79425,-14.93133 5.01948,9.46443 -9.63829,10.27837 -10.03519,21.03449 -2.07083,5.60354 -5.84109,23.99936 -10.25139,10.68936 -7.25981,4.67585 -8.31503,-5.61434 -2.76211,-7.07895 2.63555,-7.26238 10.51816,-9.50991 13.81544,-15.98265 -0.47477,4.70317 -11.73909,19.27118 -1.24047,8.67097 7.9515,-8.0795 9.43377,-28.25842 24.74845,-18.4647 -3.82866,-14.82465 -2.46137,-30.12478 -1.87771,-45.23598 -8.63537,-3.6506 -11.87317,-15.2612 -11.96883,-23.95427 -7.2751,-0.17241 5.5965,-7.07461 -1.58699,-10.3696 1.00067,-4.14896 11.71099,-4.21883 2.32628,-8.32043 -0.71739,-6.06184 16.21552,-1.72377 14.57526,2.66403 -4.11576,10.07234 -4.59121,25.0867 0.19826,33.40186 5.34678,-9.08791 12.08919,-21.98782 22.79345,-13.81254 6.95466,1.88282 15.83536,-5.11913 12.63061,3.05762 2.61169,-9.68448 13.69801,-9.45594 22.37676,-9.96529 -2.93152,-7.15738 -6.87831,-2.75441 -12.74582,-4.71483 -3.225,5.04908 -2.29197,-6.58974 -7.33467,2.46126 0.65781,-8.20493 -7.15443,-2.0654 -7.86672,-6.55915 -6.20106,-1.46826 -16.69113,18.38278 -12.03861,6.30682 9.47396,-7.10036 16.46034,-25.65082 29.54498,-15.30791 7.16897,-1.02436 12.20742,-7.05807 18.24414,1.576 11.18276,5.45375 17.08208,19.91404 1.19015,23.81463 -7.95479,4.66739 14.97913,-3.09465 10.55479,1.4718 -7.27581,-1.7641 4.78953,9.32605 6.7525,11.36846 2.80553,4.23151 4.88439,8.4162 6.40244,9.83213 -2.99512,9.16883 3.82136,-3.6813 1.40384,5.59472 2.82512,4.50489 -3.63582,5.4369 3.35093,4.9256 1.87505,14.42968 4.41354,-11.39601 4.99781,1.4409 0.30465,6.43113 -0.23473,19.19262 -4.14448,11.5273 4.98913,9.26666 -3.50618,20.78982 -9.54711,29.09255 -3.49329,2.56577 -18.15247,10.4228 -6.39444,6.44117 1.46803,4.66445 2.40137,7.2128 -2.68635,2.55413 0.27037,9.47308 -2.74303,18.65919 0.4918,27.22304 -1.88116,12.12726 11.14831,0.58853 13.11531,0.91445 3.75346,-3.22875 7.76371,-14.51287 6.78682,-3.04958 -1.29052,7.61976 1.64264,9.51609 2.5144,1.38513 2.05925,-13.27461 2.62439,-27.07712 -0.0541,-40.28609 -6.95479,-8.47276 10.06922,-13.75287 9.07715,-3.99388 5.91167,-9.60995 2.12894,7.87502 -4.11497,9.54233 -1.92737,4.26283 -0.62216,9.96189 -1.30204,14.77897 -0.44282,22.19865 -6.61453,44.44784 -20.24591,62.19939 -9.15845,9.84689 14.94784,-23.55278 1.61464,-9.27281 -1.53119,0.0534 -7.17611,-18.46786 -9.66749,-5.13833 -1.87016,-16.6953 -11.81931,6.65682 -14.05554,12.75826 -1.99263,7.18235 -3.93446,20.06935 6.79155,11.21103 5.35646,-1.11212 12.41261,-3.57237 4.82072,2.5061 -1.82355,6.44758 -12.18689,1.95553 -8.36746,5.87177 -10.60989,4.02226 -22.5264,4.20801 -32.47165,-0.0281 -3.403,-3.0839 -15.79605,-5.41413 -15.99336,-14.29883 3.37397,2.22273 7.48278,2.12831 10.84699,7.12355 2.74697,-3.21893 6.89877,4.59987 9.15301,2.36002 9.08086,3.29277 8.1348,-12.15088 5.62446,-17.42083 -0.53488,-5.13241 -6.39621,-11.12329 -1.41997,-12.63521 -3.86362,-3.13667 -0.50295,-18.77551 -5.66473,-7.96624 0.58421,4.02195 1.72811,20.8997 -2.09646,8.41146 -0.44372,-10.23054 -0.51924,-22.01801 0.94588,-32.54864 2.8455,-4.92117 -7.71861,-5.48525 -3.32008,-10.13116 1.26155,-2.34002 -3.70058,-5.40016 -5.30824,-7.21965 5.63241,-3.00627 -13.18151,-5.8996 -16.75906,-10.67772 -6.4486,-3.28341 -10.75844,-15.91057 -12.78044,-1.97869 -1.87721,10.1824 -2.16523,27.45651 3.01115,32.51492 2.43847,2.97761 3.57729,10.81118 5.48634,14.01821 2.66181,-6.39467 5.73253,-3.2 1.64545,1.11083 5.82277,2.62014 4.05225,11.93252 8.67863,12.81922 -3.50773,7.4301 -5.36547,14.9874 0.7786,21.60622 -8.37592,-2.74486 -9.58051,-17.71054 -17.85468,-20.06477 -16.79178,-5.54379 -5.16389,18.18069 1.16187,23.63008 2.80426,6.22574 8.48118,14.80574 -1.12872,10.71193 -1.68471,1.25264 -9.66058,6.88543 -7.31986,0.57038 z m 7.31986,-4.08367 c -2.15129,-4.87251 -2.15125,4.87252 0,0 z m -6.39583,-5.22916 c -1.98685,1.82062 1.35417,3.8316 0,0 z m -0.22261,-4.82279 c -0.21622,-4.21438 -2.69779,5.20751 0,0 z m 61.50972,-41.00314 c -0.21385,-5.66481 0.48848,-23.73236 -1.06191,-21.78677 -0.60894,15.41883 -1.25597,30.96428 0.054,46.34186 1.21475,-8.0827 0.78643,-16.39603 1.0079,-24.55509 z m -53.80416,14.24222 c -4.4095,-14.19301 -0.47822,6.84456 0,0 z m -7.79696,-1.46915 c -3.05144,-10.78735 -6.24462,3.36783 0.23634,1.50339 l -0.23634,-1.5034 z m 13.5167,-4.74444 c -2.26981,0.66451 -1.87525,5.47534 0,0 z m 33.69425,-8.49311 c 1.47471,-6.50882 2.30704,-7.38365 -2.37058,-8.73457 5.66968,-2.85649 0.78196,-10.6044 -0.62933,-1.6042 -0.27689,4.70244 0.16458,14.49496 1.56602,17.69112 1.10282,-2.29877 1.22237,-4.8671 1.43389,-7.35235 z m 6.9989,7.01957 c -3.06647,-3.21517 -0.31599,3.44575 0,0 z m 1.5,-2.3852 c -1.67614,-9.07732 -5.22688,-3.36244 -0.30148,0.57314 l 0.30147,-0.57313 z m -0.24301,-11.19113 c -5.06484,-0.1981 -1.22819,6.66984 0,0 z m 28.24301,-2.11481 c -2.94245,-12.68346 -3.2241,14.5466 0,0 z m -35.8125,-8.99197 c -6.14876,-1.00308 1.85754,1.93453 0,0 z m -69.18751,-3.87592 c -2.30183,-3.52024 -1.89647,4.83283 0,0 z m 69.53254,-6.24176 c -6.80739,-4.3082 -13.684,1.21927 -2.27775,0.49923 l 1.33979,-0.10367 0.93795,-0.39557 z m 34.46747,-3.25824 c -2.03308,-2.19461 -2.26404,3.34626 0,0 z m -46,-8.5 c 3.31987,-1.62332 14.39649,0.38454 14.07199,-3.98547 -6.77814,-8.95039 6.58503,5.25885 6.09109,-6.11873 2.40573,-3.1539 8.00056,-10.14115 -0.74537,-4.61012 -0.22264,-5.23055 7.96985,-3.90306 3.43296,-7.72665 8.33022,-1.9579 0.85517,-7.72075 1.50028,-12.58548 -11.10361,6.43511 5.1041,-7.63825 -4.76385,-4.70398 0.24113,-5.2648 8.24887,-1.20207 3.4433,-6.96054 -5.23199,1.20441 -10.71098,-0.13166 -6.61441,-6.60838 -4.76878,-4.24674 -1.72187,4.57307 -5.67613,-3.45362 -3.14611,-3.10572 -10.80126,6.22979 -5.19789,-1.50235 -2.85378,-5.14169 -8.80012,-2.11554 -6.38334,1.04867 -7.21043,-10.16817 -17.26543,3.80475 -20.72959,9.79693 -2.38172,2.47017 -0.25459,8.91066 -3.23926,12.46875 -0.51622,6.94141 1.03841,13.24663 1.47249,20.75 5.51041,-3.60557 0.0446,6.00688 5.80805,7.3967 1.15349,10.01494 12.64548,-2.07269 11.15702,7.64707 5.328,1.1051 4.33073,-11.04666 4.84549,0.63296 0.32453,1.78483 1.82091,-0.95922 1.52717,-1.48576 z m 8.07895,-6.85763 c 0.79362,-5.07504 0.9614,4.06255 0,0 z m -6.07895,-2.52432 c 1.89106,-4.82579 2.58249,3.30188 0,0 z m -25.00001,-9.94098 c 1.60409,-4.56612 2.76841,1.72876 0,0 z m 43.60701,-7.69983 c -0.90228,-10.31901 4.71397,4.47661 -2e-5,0 z m -4.607,-9.35919 c 2.15103,-3.62493 2.784,2.21245 0,0 z m -36.41591,-7.41758 c 3.98465,-5.05718 0.30063,3.34056 0,0 z m 10.4159,-1.58242 c 2.15099,-3.6249 2.78407,2.21244 0,0 z m 9.00001,0 c 2.15103,-3.62493 2.784,2.21245 0,0 z m 5,-2.5 c 2.52251,-3.91599 2.75401,2.10216 0,0 z m -14.00001,-2.5 c 2.15099,-3.6249 2.78407,2.21244 0,0 z m 19.00001,-2.05902 c 2.16211,-3.79025 4.19401,4.00028 0,0 z m 14.98468,42.69097 c -3.67964,-1.1479 -1.02971,7.13674 0,0 z m 46.01532,-25.69097 c -2.48805,-3.89313 -2.48801,3.89315 0,0 z m -50.8125,-14.68311 c -6.14875,-1.00309 1.85754,1.93454 0,0 z m -33.58986,-7.05258 c -4.55011,-0.26052 -3.55201,4.59486 0,1e-5 z m -19.31348,-7.92682 c -6.99389,-11.20394 -3.68889,8.75018 0.44082,2.34095 l -0.44082,-2.34094 z m -3.48417,-8.84741 c -3.5146,-14.08098 -5.15442,-3.37413 -1.49892,3.97793 2.01005,0.82593 0.8889,-3.90423 1.49892,-3.97793 z m 60.75802,1.60379 c -3.8313,-2.7392 -17.91437,-2.18237 -6.82771,0.88511 2.06259,-0.23523 5.15148,0.48264 6.82771,-0.88511 z m 6.95206,-0.11017 c 9.8508,-5.34001 -14.631,2.96743 0,-1e-5 z m -2.16806,-3.30835 c 0.40401,-3.17265 -5.12565,0.97461 -8.62419,-2.98837 -6.10155,4.30986 6.55568,3.51909 8.62419,2.98837 z m 3.65799,-0.67535 c -2.48805,-3.89313 -2.48801,3.89315 0,0 z m -16,-2.107 c -3.92912,-3.97221 -3.74927,5.54399 0,0 z m -50.63618,-2.38727 c -4.63246,-4.10209 1.08772,5.13092 0,0 z m -2.0994,-3.10351 c 0.1626,-8.8138 -7.60043,1.65127 0,0 z m -2.26443,-5.90222 c -5.38194,-5.47553 -2.04659,4.13447 0,0 z m 6.5587,-1.91581 c -4.3745,-13.9254 -4.34996,10.40422 0,0 z m -2.5587,-6.64322 c -2.03307,-2.19462 -2.26403,3.34628 0,0 z m 108.42579,194.72626 c -8.38858,-2.08142 -11.43385,-7.96751 -5.59086,-14.62226 5.22187,-5.25253 8.2414,-14.46503 11.87161,-19.18727 2.21884,9.77382 -15.18513,22.11095 -6.62084,28.40964 2.01474,-7.24934 9.01046,-16.00374 9.79422,-26.39147 0.42886,-5.57339 3.46959,-17.5346 2.62136,-4.53902 0.39847,10.88909 -6.2144,19.73616 -5.02286,29.32132 -5.67913,-1.30649 -3.41006,10.4367 -7.05263,7.00906 z m -12.42578,-1.0448 c 4.83891,-6.57484 2.23274,1.93887 0,0 z M 301.5643,437.21191 c 3.77851,-4.98049 -1.2666,4.5744 0,0 z m 7.19098,-2.20687 c 2.994,-7.7496 0.16947,7.693 0,0 z m -89.21256,-2.43091 c 0.72372,-6.82945 3.00484,4.26587 0,0 z m 0.3393,-6.31909 c -1.31962,-5.47451 0.91763,-20.54659 1.118,-6.30902 -0.0974,-0.10337 0.18177,11.24615 -1.118,6.30902 z m 32.68079,-12.267 c -1.07281,-7.60525 2.15052,-3.86128 3.03035,-1.27254 5.86191,-6.85172 -2.84909,11.36125 -3.03035,1.27253 z m 9.18722,2.94589 c -2.67123,-4.07513 1.76295,-19.08313 0.88507,-6.5819 5.15781,2.99604 4.25873,1.7045 0.51714,2.26936 -0.69439,0.88155 0.17753,4.27563 -1.40221,4.31254 z m 71.25,-1.9234 c 4.72741,-4.13474 1.58038,-17.00288 8.52115,-16.91293 14.66781,1.72593 2.69002,19.45188 -7.71335,17.07745 l -0.80781,-0.16453 z m 11.42856,-9.07691 c 7.74116,-11.68721 -8.83935,5.42672 0,0 z m -93.05885,-0.67858 c 2.40104,-20.37986 2.80117,9.8674 0,0 z m 9.86229,-11.75 c 0.59896,-7.14287 0.59894,7.14289 0,0 z m 58.27807,1.01632 c 1.01136,-3.59716 4.96494,2.13967 0,0 z m -128.51008,-10.4573 c 2.52249,-3.91596 2.75406,2.10213 0,0 z m 172.60701,-2.14081 c -2.12114,-8.62437 -8.24976,-18.48211 -7.46025,-28.09504 -0.58985,-4.90356 -3.3172,-5.95517 2.37696,-0.82317 3.1518,8.19018 11.96069,9.79698 10.21707,18.02681 10.91881,3.32621 -10.02067,4.58981 -4.50696,12.18835 l -0.62684,-1.29695 z m 1.85028,-7.48731 c -2.69882,-2.92162 -0.37211,4.74879 0,0 z m -1.90451,-4.84549 c 1.63857,-3.54759 -4.00215,-17.54587 -6.44105,-12.96535 2.22409,2.77562 4.24465,14.21036 6.44105,12.96535 z m -27.82157,9.83442 c 2.51949,-5.76126 -0.43768,6.73061 0,0 z m 32.72766,0.0136 c -1.5975,-5.46652 3.49137,3.97409 0,0 z m -126.45887,-1.37445 c 2.52249,-3.91596 2.75406,2.10213 0,0 z m 18.76484,-4.00891 c 2.81155,-10.11973 3.39132,7.9583 0,0 z m 91.77786,-20.48102 c 0.72372,-6.82946 3.00485,4.26588 0,0 z m -139.5427,-0.44666 c 4.83893,-6.57484 2.23277,1.93886 0,0 z m 120.66667,-51.28909 c -3.47583,-7.45919 3.93343,1.50128 0,0 z m 0.82324,-6.34964 c -9.15103,-4.29215 -0.0417,-12.10167 -0.067,-21.55417 -3.62519,-9.78792 5.16202,-26.40792 15.04084,-18.04827 -10.00143,7.67805 9.7047,6.39245 0.12514,13.66665 4.76285,7.77242 -9.40936,10.13236 -8.74851,19.5474 -1.89277,1.2404 -3.15934,10.07026 -6.35051,6.38839 z m 2.5101,-10.67484 c -4.0791,-3.68084 -2.92104,10.66888 -10e-6,1e-5 z m 3.27039,-7.55886 c 5.25911,-1.99797 4.63933,-16.31311 2.7296,-13.25 -2.46533,4.55318 -1.70953,-7.02291 2.37865,-7.89457 -14.3716,0.68122 -4.48595,16.591 -7.54988,25.39457 1.38844,-1.02519 1.83555,-2.74413 2.44163,-4.25 z m -22.02039,-1.1099 c -7.49833,-6.6574 9.63053,3.94713 -10e-6,-1e-5 z M 269.6384,269.005 c 3.47816,-4.84354 0.2464,4.74723 0,0 z m -17.63838,-9.47236 c 3.5177,-4.87298 1.29352,-6.27485 -0.93063,-5.67403 4.03953,-11.17817 6.81843,8.07094 0.93063,5.67403 z m 89.50001,-9.02764 c 1.83181,-3.56411 3.55511,3.40278 0,0 z"
       fill="#4f2e25"
       id="path6"
       style="stroke-width:7.11459" />
    <path
       d="m 226.91388,453.67841 c -0.18338,-6.58849 -4.34641,-14.16015 -5.61122,-16.71354 3.12191,-7.79216 2.72533,-18.92475 1.54801,-25.87218 -7.33658,-3.39403 9.99207,-19.81289 8.97761,-5.40773 4.78294,9.26845 2.93361,11.09776 -4.64398,9.48019 -6.88461,6.4833 2.88,17.35466 6.26349,24.16769 1.4618,5.14975 2.68066,-2.66292 3.9903,6.40526 3.27722,3.65011 -8.37181,5.87037 -10.52421,7.94031 z m 7.27016,-6.62561 c -1.43009,-7.58257 -7.85499,-1.06588 -2.35535,2.25939 l 1.38131,-1.2029 0.97404,-1.0565 z m -4.93084,-5.6706 c 1.2434,-5.18836 -3.62189,-10.22808 -3.7225,-2.2243 6.5061,-1.87596 -1.87033,9.81659 3.7225,2.2243 z m -2.82489,-8.62716 c -2.64449,-7.15748 -3.07778,4.38072 0,0 z m 1.31058,-22.5 c -0.96098,-6.75195 -3.34421,-10.84419 -5.04765,-1.53083 2.02369,0.13013 4.25703,7.90948 5.04765,1.53083 z m 49.75104,43.2337 c -7.54469,-1.59482 -10.04325,-3.58215 -15.12273,-6.6265 3.49775,1.63231 -12.39848,-5.47739 -8.5226,-8.43274 7.02836,6.09437 18.28733,12.21628 27.28266,6.95838 -0.80769,-6.98927 -0.60855,-14.18891 -2.3639,-20.99768 -4.75548,-3.85652 -0.98854,-7.75021 -3.8887,-12.90272 3.97727,-7.09071 -0.62643,-10.7697 0.5916,-15.46425 -0.52107,-6.29054 1.68698,-14.9849 0.19424,-19.18176 -3.78292,2.26021 -5.80588,10.19268 -5.50286,1.42119 -7.40087,3.22056 6.46733,-5.4748 -4.56909,-6.22342 -0.42767,-6.50283 18.93576,-2.24787 5.17299,-6.06375 -5.14738,-2.19752 -9.2275,6.16827 -7.04118,-0.64996 -10.10703,-4.83187 -22.48042,-7.87672 -26.82614,-19.32711 -8.24285,0.0879 -2.73967,21.89627 -8.79926,14.60157 -6.93079,-1.18595 -1.63193,-20.25963 -7.71009,-12.30131 4.71755,5.87483 -6.4028,8.35775 -0.56061,1.56664 -5.31284,-7.96372 14.04658,-6.57306 15.38801,-6.46149 -5.04621,-13.865 -1.24839,-29.03544 -3.35726,-43.39879 -7.17808,-6.16556 -14.50599,-21.13362 -11.0428,-28.25798 5.1713,-2.21145 -7.11995,-10.13551 3.85876,-9.3269 1.57361,-3.5295 6.61482,-7.1217 0.32905,-5.53756 -6.18995,3.90092 -1.20744,-6.49423 4.86473,-1.52217 4.33046,5.25622 9.83137,0.32405 4.97104,9.64909 -3.24611,9.76157 -0.88989,20.14329 0.71105,29.99552 4.47535,-6.35024 8.17075,-14.57051 15.15626,-18.07668 -5.17413,6.34132 7.18402,-1.48865 10.79692,3.75042 5.64722,3.57381 4.23586,-3.58574 9.07421,-1.50652 6.95098,-2.75011 -8.81192,4.78472 0.69484,3.66269 5.03989,-4.43171 6.87187,-12.39909 16.67426,-9.16428 11.39461,3.45337 4.53553,-10.53255 -1.58422,-4.43429 -1.73481,-3.268 -9.91505,-4.06643 -12.27494,0.35679 1.30294,-7.74434 -7.7664,-0.79094 -5.80198,-5.8565 -14.61389,3.58354 6.05977,-18.90481 10.43486,-9.45472 9.12174,5.19868 15.28492,-9.44776 22.50316,2.00324 6.15734,5.3255 18.9473,11.60935 8.66776,20.03757 -3.05688,2.30122 -21.62732,7.99881 -9.09144,6.4082 4.25339,3.93827 12.4101,-8.60668 10.64714,1.10158 5.95553,7.15691 11.06917,11.85121 11.0989,19.04734 3.6959,0.76994 0.96285,9.08648 6.0855,2.84804 -4.71949,5.19569 -1.47059,9.29068 3.36334,8.02611 -1.18334,11.21435 4.3817,17.43774 0.50261,25.38135 -3.37419,13.57898 -15.22038,20.7298 -26.494,26.36339 5.50096,1.46876 12.91353,-7.57433 7.54749,3.45665 -1.17719,6.28359 -9.66633,19.76895 -3.54749,23.4906 2.56383,0.009 3.17603,-11.72377 3.47468,-1.65398 -2.21801,16.09735 15.06242,0.69785 18.24245,1.18488 1.90939,-10.04201 4.15756,11.12911 2.53287,9.9024 -0.63826,5.27668 -3.63934,15.4585 -9.23452,24.28447 -4.32348,7.32542 7.21254,-18.01224 -1.26568,-4.84116 -3.22398,-0.44615 -8.87944,-9.16185 -11.86822,-9.06759 -8.63136,-0.80442 -9.29745,12.18469 -14.73837,17.77652 -2.88728,9.10815 -0.58945,22.95231 8.23539,13.90366 4.78077,-0.0918 12.22818,-5.61281 4.53789,1.06982 -8.69521,7.76803 -21.07042,11.22579 -32.42657,8.48369 z m 2.04455,-2.22437 c -6.52173,-2.08477 3.48181,4.51321 0,0 z m 6.46555,0.78672 c -5.16451,-4.44802 -4.06279,5.18229 0,0 z m 4.42996,0.56726 c -1.23401,-6.54961 -3.77205,2.76496 0,0 z m 3.02732,-2.18241 c -2.69882,-2.92162 -0.37211,4.74879 0,0 z m -19.95728,0.0691 c -3.06647,-3.21517 -0.31599,3.44575 0,0 z m 28.5,-1 c -2.48805,-3.89313 -2.48801,3.89315 0,0 z m -12.9025,-48.09202 c -0.75913,-7.38937 1.62722,-28.14171 -1.47665,-27.93283 -0.52983,18.38729 -1.15201,36.96577 0.53232,55.27167 1.15669,-9.04398 0.76869,-18.23722 0.94433,-27.33884 z m -6.55639,13.02549 c 1.08578,-4.54564 -4.64026,3.79458 0,0 z m 46.91617,-1.00257 c -2.69882,-2.92162 -0.37211,4.74879 0,0 z m -47.51563,-16.03991 c 0.86965,-4.05726 -0.66668,-14.09762 -1.81769,-4.6072 -0.34115,5.52409 -0.64607,22.52 2.08917,7.14771 z m -5.33749,-5.62015 c -1.98685,1.82061 1.35416,3.83162 0,0 z m 4,-7 c -1.98685,1.82061 1.35416,3.83162 0,0 z m 13.64584,-16.93311 c -5.12546,-0.8842 -0.81836,1.64109 0,0 z m 4.9375,-1.02084 c -6.14876,-1.00308 1.85754,1.93453 0,0 z m -22.1875,-7.87592 c -2.77954,-1.90998 -1.95952,3.53546 0,0 z m -13.07791,-1.89282 c 1.81837,3.09444 0.39037,-5.40202 4.8309,0.39327 5.31284,-4.38338 10.45274,-0.78945 15.36907,-9.23158 1.46695,-6.68412 11.22891,-10.7875 4.50293,-11.74631 -6.78069,-3.51817 8.77073,-5.29548 0.47088,-9.42645 0.38428,-5.68587 5.3789,-8.40317 -2.60493,-5.69069 2.78726,-2.4928 4.498,-17.02309 0.32117,-16.13058 6.70216,4.97101 -8.30058,6.76561 -3.05368,0.34915 -2.87028,-3.45152 -11.56106,-9.93992 -15.94704,-10.94828 -4.00578,2.4787 -4.38489,-6.58063 -5.90021,1.37289 -4.57391,-7.45632 -10.87815,3.74721 -14.82656,2.93384 -3.02688,4.0205 -9.39219,10.54929 -6.66181,16.24458 1.73688,1.02928 -4.42322,9.18773 -3.16874,11.11218 -0.46791,3.90906 -1.47175,8.07705 2.45432,4.00282 0.46324,7.63414 -4.97896,6.03462 0.2916,9.97443 0.37888,4.02168 5.94069,-2.8731 2.65483,4.74912 -1.17811,11.56772 12.94659,7.17418 16.34517,12.32634 1.06351,1.55045 3.64713,0.275 4.9221,-0.28473 z m -19.3794,-8.47906 c 0.72372,-6.82946 3.00484,4.26588 0,0 z m 21.45731,-2.01007 c 2.15103,-3.62493 2.784,2.21245 0,0 z m 18,-7.47568 c 3.13252,-5.20057 2.84795,4.08385 0,0 z m -43.00001,-2.52432 c 2.15099,-3.6249 2.78407,2.21244 0,0 z m 43.50001,-10.05902 c 3.77358,-3.42733 0.63512,3.30794 0,0 z m -0.031,-11.05021 c -0.93966,-4.85485 4.6976,2.30634 0,0 z m -30.46897,-4.89077 c 2.15099,-3.6249 2.78407,2.21244 0,0 z m 25.21058,-3.45407 c 5.71241,-3.31493 -1.47295,4.6281 0,0 z m -5.93976,-3.20911 c 3.25755,-1.10207 2.68941,1.85691 0,0 z m -6.27081,-3.33682 c 1.89106,-4.82579 2.58249,3.30188 0,0 z m 21.74292,51.70358 c -1.22699,-5.69135 -1.15162,7.20036 0,0 z m -1.71817,-3.3277 c 3.09482,-9.65704 -6.49893,9.00648 -10e-6,0 z m 43.57941,-11.16406 c -1.98685,1.8206 1.35416,3.83162 0,0 z m -37.60416,-14.86191 c -4.16086,-0.0993 -2.84914,4.51654 0,0 z m 39,-0.96796 c -2.77954,-1.90998 -1.95952,3.53546 0,0 z m -94.00001,-3.44097 c -3.38558,-8.82686 -0.0559,8.2198 0,0 z m 53.98469,-2.25 c -1.37766,-5.0993 -2.31793,6.68964 0,0 z m -61.30226,-19.1352 c 5.22817,-4.20346 -3.81484,-14.39298 -4.98263,-7.76252 0.69018,1.34801 5.62344,12.42467 4.98263,7.76252 z m 5.31757,0.44422 c -1.89106,-4.8258 -2.58252,3.30187 0,0 z m -5.79799,-12.59388 c 1.66424,1.27662 -1.66023,-10.00765 -3.21832,-1.97522 1.04823,-6.813 -9.01389,-12.8494 -3.39813,-2.8523 -0.23915,6.93814 1.626,5.80046 6.61645,4.82752 z m 63.61136,-1.01678 c 1.22989,-2.14775 -8.00857,-2.58857 0.86122,-3.54032 4.51811,-4.07291 -7.65457,-1.54456 -9.78745,-3.70245 -8.90747,1.70997 7.09993,7.68489 -3.46111,4.82044 -16.01441,1.23368 2.47331,5.19626 8.98109,2.9611 l 2.03171,-0.2432 1.37455,-0.29557 z m -61.81337,-2.44836 c -1.0734,-6.4196 -1.86209,6.58692 0,0 z m 48.00001,-4.42856 c -4.98178,-2.7524 -4.35484,7.74596 0,0 z m -50.87971,-2.85114 c -4.76636,-1.6064 1.97189,7.91653 0,0 z m 2.8797,0.7797 c -2.40536,-5.57814 -1.09615,5.29905 0,0 z m -5,-3 c 0.65918,-12.62303 -7.4702,5.88214 0,0 z m 5.24346,-4.31806 c 2.66414,-8.03883 -6.54448,-10.19579 -4.21346,-1.72214 3.05613,4.26301 0.81654,9.78378 4.21346,1.72214 z m 65.75655,1.75903 c -2.03308,-2.19461 -2.26404,3.34626 0,0 z m -72.53102,-2.8908 c -3.97126,-7.73012 -6.87726,4.08008 0,0 z m 9.13518,-5.77933 c -1.98685,1.82062 1.35417,3.8316 0,0 z m 61.05075,-5.72771 c -4.66119,-5.47874 0.83782,6.23608 0,0 z M 239.079,451.08838 c 0.79367,-5.07494 0.96142,4.06248 0,0 z m 97.92107,-0.14237 c -17.58938,-3.40158 -0.02,-17.5627 3.59613,-26.94097 6.76689,-14.91282 -1.20174,12.8848 -6.38315,16.10536 -0.6151,10.95886 3.61781,6.48846 6.29676,1.92686 4.39453,-8.37118 5.30934,-20.82034 8.74192,-29.60388 0.13106,10.07302 -2.90023,21.47307 -5.75852,28.97908 1.16295,4.31987 -3.84398,7.87134 -6.03971,11.04352 l -0.45344,-1.50996 z m -4.39584,-8.17013 c -1.98685,1.82061 1.35416,3.83162 0,0 z m -7.60416,8.47406 c 3.76527,-5.28691 3.78696,-1.1937 0,0 z M 249.5101,435.52136 c 1.01136,-3.59716 4.96495,2.13967 0,0 z m -29.96738,-2.94723 c 0.72372,-6.82945 3.00484,4.26587 0,0 z m 25.2073,-2.53861 c -6.46951,-9.77877 -10.15243,-21.03612 -13.24146,-32.22151 -0.93462,-7.8329 -3.05324,-25.31648 -0.68327,-27.34503 -1.66005,10.4432 5.04865,17.77547 8.17473,26.58403 0.33515,6.12934 5.6782,1.00611 0.33409,8.13774 2.57335,-0.25643 8.52995,-3.10688 7.12431,5.17488 4.12944,6.67157 -1.1653,16.73322 -0.18248,21.52799 l -1.52592,-1.85811 z m -24.59211,-4.53048 c 0.66317,-5.11639 0.66317,5.11641 0,0 z m 49.93151,-8.25 c 0.47498,-5.37855 -2.80486,-20.26626 1.70871,-20.37385 -0.76437,6.93892 1.54942,17.38195 -0.94548,22.00034 z m -17.03621,-2.21485 c -1.44337,-10.11766 2.52179,-5.81831 1.9434,0.96485 0.1362,1.49076 -2.8562,2.2791 -1.9434,-0.96485 z m 7.94682,-2.03515 c 5.34408,-11.60214 1.6033,8.69228 0,0 z m 74.68411,-4.65806 c -1.78876,-11.07013 12.53992,-14.92232 13.22453,-2.58829 -4.91721,4.52546 -6.5257,10.49089 -15.54038,9.69202 z m 10.8107,-5.85031 c -5.46737,-2.56622 -6.05224,11.89725 -0.34133,1.42831 l 0.34133,-1.42832 z m -85.33694,5.00837 c 0.66319,-5.11639 0.66318,5.11641 0,0 z m -8.99999,-3 c 0.66317,-5.11639 0.66317,5.11641 0,0 z m 84.34102,-12 c 2.92982,-12.29453 4.20237,-25.16317 1.39451,-37.70963 -6.55298,-5.43825 1.71329,-19.34876 6.30668,-10.93687 2.15684,8.24125 3.79124,-5.4452 5.41609,3.86774 -3.24697,4.77421 -10.41796,8.09322 -8.89469,14.84343 -0.51349,11.664 0.18895,23.91634 -4.31927,34.8367 -0.57303,-1.59677 0.0597,-3.28734 0.0967,-4.90137 z m -66.51913,2 c -1.40617,-5.58451 0.76974,-14.7504 1.49858,-3.96345 l -0.41965,2.13897 -1.07894,1.82448 z m 62.8891,-8.34202 c 2.90125,-9.13385 1.07613,5.5782 0,0 z m -130.26477,-6.54293 c -2.91509,0.22875 -13.90953,-3.20883 -7.10411,-6.11505 2.2052,-2.23942 8.24843,-13.4216 10.31547,-2.81983 2.13968,0.11025 5.91998,-10.03326 3.53477,-0.64523 -1.06591,2.71057 -1.83655,15.15196 -6.74613,9.58011 z m 3.68563,-5.11505 c -1.41046,-6.5903 -3.40286,6.32252 0,0 z m 156.71027,4.05902 c -2.66989,-6.8909 -6.6637,-17.32974 -7.16236,-23.05525 3.46212,4.15386 8.39155,25.25241 8.17823,9.99623 -9.07804,-10.22192 9.64524,-0.67132 4.08119,4.32881 9.5564,6.21112 -1.00146,2.33773 -4.31525,4.62131 0.18811,0.27742 0.15063,10.36863 -0.78181,4.1089 z m -96.92105,-3.47568 c 0.79362,-5.07504 0.9614,4.06255 0,0 z m -4.496,-1.44913 c -1.16323,-5.30336 3.46627,1.78344 0,0 z m -59.56764,-8.93622 c 4.28567,-3.50491 12.33188,-12.4374 5.62764,-1.40036 -2.57332,2.69124 -4.44854,0.22227 -5.62764,1.40036 z m 10.05723,-4.11267 c 11.8091,-15.8809 -5.40391,13.23724 0,0 z m 147.6377,-4.08532 c -1.15315,-6.55964 5.58891,6.95872 0,0 z m -25.71024,-29 c 2.48804,-3.89312 2.48794,3.89314 0,0 z m 1.24896,-4.32343 c -1.37586,-6.03259 1.16813,-16.89697 1.73146,-4.72023 0.269,0.76579 -0.40341,10.31884 -1.73146,4.72023 z m -7.24896,-12.61755 c 2.15103,-3.62493 2.784,2.21245 0,0 z m -2,-8 c 2.15103,-3.62493 2.784,2.21245 0,0 z m 7,-3.05902 c 1.49296,-3.16018 2.25677,3.43448 0,0 z m -12.54114,-3.06653 c -0.23396,-5.81026 5.29218,3.93137 0,0 z m 13.42948,-2.14206 c -9.95338,-7.6578 7.23851,-20.76666 0.62439,-32.54141 -0.5769,-9.04607 22.96405,-10.58615 11.1652,-1.37356 3.24788,3.6975 10.66658,2.90791 3.47312,8.03588 4.6725,8.65858 -8.60878,12.25279 -9.38849,21.89449 -1.56497,1.8974 -3.25608,9.82781 -5.87422,3.9846 z m 2.63302,-6.81504 c 3.40548,-9.99463 -8.00922,5.71327 1e-5,0 z m 3.905,-10.30233 c 2.93076,-4.83816 5.90587,-1.44144 4.63275,-9.67404 1.49912,-0.43977 2.60552,0.0221 -1.50022,-4.40294 -3.09753,4.81715 -3.37317,-3.84751 1.85704,-6.33136 -13.3975,-2.89138 -5.22353,15.8573 -8.06249,23.89161 1.03391,2.82836 3.06022,-2.80427 3.07292,-3.48327 z m -27.42636,3.32596 c 1.49296,-3.16018 2.25677,3.43448 0,0 z m 3.5,-6 c 0.63518,-3.30792 3.77352,3.42734 0,0 z m -64.10699,-1.58179 c 1.29361,-5.19322 12.14347,-7.04616 2.86074,-1.809 0.5081,2.21274 -2.38024,5.69866 -2.86074,1.809 z m 7.24536,-7.91821 c 2.84635,-4.84455 0.20209,5.00453 0,0 z m -7.63838,-4.91709 c 2.26215,-2.59177 3.32307,-10.53471 -0.96937,-6.08291 2.44349,-10.33704 7.48388,6.78613 0.96937,6.08291 z"
       fill="#161114"
       id="path7"
       style="stroke-width:7.11459" />
  </g>
</svg>
