<?xml version="1.0" encoding="UTF-8" standalone="no"?>
<svg
   width="40"
   height="40"
   version="1.1"
   id="svg1"
   sodipodi:docname="hammer_tool_equipment_carpenter.svg"
   inkscape:version="1.4.2 (f4327f4, 2025-05-13)"
   inkscape:export-filename="martillo.png"
   inkscape:export-xdpi="96"
   inkscape:export-ydpi="96"
   xmlns:inkscape="http://www.inkscape.org/namespaces/inkscape"
   xmlns:sodipodi="http://sodipodi.sourceforge.net/DTD/sodipodi-0.dtd"
   xmlns="http://www.w3.org/2000/svg"
   xmlns:svg="http://www.w3.org/2000/svg">
  <sodipodi:namedview
     id="namedview1"
     pagecolor="#ffffff"
     bordercolor="#000000"
     borderopacity="0.25"
     inkscape:showpageshadow="2"
     inkscape:pageopacity="0.0"
     inkscape:pagecheckerboard="0"
     inkscape:deskcolor="#d1d1d1"
     inkscape:zoom="8.4003868"
     inkscape:cx="13.868409"
     inkscape:cy="26.963044"
     inkscape:window-width="1366"
     inkscape:window-height="697"
     inkscape:window-x="-8"
     inkscape:window-y="-8"
     inkscape:window-maximized="1"
     inkscape:current-layer="svg1" />
  <defs
     id="defs1">
    <linearGradient
       id="linearGradient2794"
       y2="100.23354"
       x2="552.8725"
       y1="99.221092"
       x1="704.75336"
       gradientTransform="scale(0.44738033,2.2352346)"
       gradientUnits="userSpaceOnUse">
      <stop
         id="stop10390"
         stop-color="#3e3e3e"
         stop-opacity=".837"
         offset="0" />
      <stop
         id="stop10396"
         stop-color="#505050"
         stop-opacity=".908"
         offset=".5" />
      <stop
         id="stop10392"
         stop-color="#3e3e3e"
         stop-opacity=".806"
         offset="1" />
    </linearGradient>
    <linearGradient
       id="linearGradient2790"
       y2="49.712425"
       x2="289.77118"
       y1="19.818237"
       x1="277.44751"
       gradientTransform="scale(0.72542408,1.378504)"
       gradientUnits="userSpaceOnUse">
      <stop
         id="stop10400"
         stop-color="#7a7a7a"
         offset="0" />
      <stop
         id="stop10406"
         stop-color="#4b4b4b"
         offset=".086957" />
      <stop
         id="stop10402"
         stop-color="#7a7a7a"
         offset="1" />
    </linearGradient>
    <radialGradient
       id="radialGradient2792"
       gradientUnits="userSpaceOnUse"
       cy="202.56"
       cx="601.62"
       gradientTransform="matrix(0.49821,0.0013862,-8.8482e-4,0.31822,206.54,34.892)"
       r="167.85001">
      <stop
         id="stop10410"
         stop-color="#5b5b5b"
         offset="0" />
      <stop
         id="stop10412"
         stop-color="#b4b4b4"
         offset="1" />
    </radialGradient>
  </defs>
  <g
     id="layer1"
     transform="matrix(0.06422572,-0.04575187,0.04887199,0.06012538,-3.7730419,12.227791)">
    <g
       id="g8836">
      <g
         id="g2784"
         transform="matrix(1.3476,0,0,1.3476,-170.99,-28.717)">
        <path
           id="path1942"
           fill="url(#linearGradient2790)"
           stroke="#000000"
           d="m 243.56,432.45 c -0.16623,-2.299 -0.11282,-9.3479 0.11862,-15.664 0.23144,-6.3164 0.62116,-25.016 0.86603,-41.554 0.24487,-16.538 0.80624,-42.73 1.2475,-58.205 0.44122,-15.474 0.8479,-43.21 0.90375,-61.636 0.0558,-18.426 0.60812,-46.949 1.2273,-63.386 0.6192,-16.437 1.1102,-42.571 1.0911,-58.076 -0.0191,-15.505 0.1824,-30.428 0.44784,-33.163 1.1433,-11.779 0.42072,-16.818 -3.0118,-21.003 -1.8106,-2.2075 -4.5821,-4.647 -6.159,-5.4211 -1.5769,-0.77412 -10.945,-1.3729 -20.819,-1.3307 -15.672,0.06703 -18.522,0.44589 -22.44,2.9835 -4.4217,2.8635 -10.956,4.8709 -19.784,6.0783 -4.2141,0.57633 -4.6468,0.36138 -6.842,-3.3995 -5.4406,-9.3206 -6.3726,-24.849 -2.0768,-34.602 1.6341,-3.7103 2.8517,-5.3748 3.4226,-4.6788 0.65216,0.79514 0.93323,0.60418 1.0644,-0.72304 0.13113,-1.3272 1.3119,-1.6809 4.4711,-1.3393 2.3611,0.25529 6.7258,0.37458 9.6992,0.26506 2.9734,-0.10952 5.984,0.50519 6.69,1.366 0.89002,1.0851 10.53,0.29819 31.435,-2.566 50.17,-6.8741 76.844,-3.9969 103.3,11.143 12.399,7.0944 35.081,24.786 47.799,37.283 4.6655,4.5846 4.9357,5.0965 3.2353,6.1286 -1.3223,0.80267 -4.6356,-0.3971 -11.531,-4.1756 -23.648,-12.958 -34.83,-17.084 -53.37,-19.696 -9.4702,-1.3342 -13.509,-0.21631 -20.927,5.793 -3.2554,2.6372 -3.5882,3.8478 -4.5988,16.732 -0.96735,12.332 -0.0421,38.473 3.2239,91.086 0.56168,9.0492 1.6368,35.214 2.389,58.144 0.75214,22.93 2.281,56.096 3.3975,73.703 3.1778,50.113 3.9783,56.633 10.88,88.618 2.8457,13.187 5.1001,24.921 5.0099,26.076 -0.1359,1.7385 -2.0485,2.9861 -11.098,7.239 -6.0138,2.8261 -12.583,5.4894 -14.599,5.9184 -12.719,2.7066 -31.76,1.671 -40.792,-2.2185 -3.345,-1.4404 -3.5928,-1.806 -3.8757,-5.7187 z"
           style="fill:url(#linearGradient2790)" />
        <path
           id="path1940"
           opacity="0.88"
           fill="url(#radialGradient2792)"
           d="m 244.04,431.34 c 0.0927,-2.9305 0.36414,-9.833 0.60321,-15.339 0.2391,-5.5058 0.4852,-15.399 0.54688,-21.984 0.0617,-6.5856 0.16943,-13.358 0.23941,-15.049 0.07,-1.6912 0.2167,-10.074 0.32596,-18.627 0.10928,-8.5539 0.30926,-17.123 0.44443,-19.043 0.13519,-1.9195 0.27249,-6.4688 0.30518,-10.11 0.0327,-3.6408 0.26581,-15.172 0.51813,-25.626 0.50165,-20.782 0.61112,-31.466 0.61942,-60.447 0.003,-10.54 0.0725,-20.622 0.15433,-22.405 0.0819,-1.7825 0.21518,-6.9713 0.29623,-11.531 0.0811,-4.5593 0.34674,-10.201 0.59039,-12.537 0.24365,-2.3359 0.50479,-7.8388 0.58032,-12.229 0.0755,-4.3898 0.29218,-13.179 0.48151,-19.532 0.1893,-6.3529 0.30524,-23.215 0.2576,-37.471 -0.0476,-14.256 0.34131,-27.296 0.86426,-28.978 0.52298,-1.6817 0.84552,-6.0834 0.71677,-9.7815 -0.19769,-5.6781 -0.8128,-7.4294 -3.9552,-11.261 -5.0906,-6.2067 -8.6011,-7.4147 -21.094,-7.2586 -5.9075,0.07381 -14.68,0.05355 -19.495,-0.04501 -8.7065,-0.17822 -8.7529,-0.19669 -8.615,-3.43 0.0763,-1.788 -0.49985,-7.9123 -1.2804,-13.61 -0.78049,-5.6972 -1.2416,-10.876 -1.0248,-11.509 0.78503,-2.2897 57.103,-9.9088 68.369,-9.2495 11.438,0.66941 31.733,3.0615 38.461,4.5331 15.042,3.2903 33.897,14.5 55.908,33.24 21.837,18.592 22.968,21.164 4.9684,11.301 -15.872,-8.697 -25.716,-12.608 -38.382,-15.248 -17.077,-3.5604 -21.303,-3.4664 -27.781,0.61864 -7.6093,4.7986 -9.1946,7.479 -9.9978,16.904 -0.99469,11.672 -0.90738,14.425 2.1803,68.742 1.5224,26.782 3.2838,65.104 3.9141,85.161 1.3431,42.732 4.5943,97.208 7.2408,121.32 1.028,9.3678 4.327,28.358 7.3311,42.2 3.004,13.842 5.4338,25.452 5.3994,25.8 -0.0659,0.6665 -12.85,6.2394 -21.02,9.1632 -8.5479,3.0591 -24.673,3.8691 -35.545,1.7857 -5.6672,-1.086 -10.977,-2.2385 -11.8,-2.561 -0.83899,-0.32898 -1.4217,-2.9258 -1.3271,-5.9146 z M 169.212,73.58 c -2.9275,-8.1718 -3.6978,-23.799 -1.1609,-23.548 0.55154,0.0545 0.97903,3.32 0.94995,7.2568 -0.0693,9.3744 1.0585,14.216 4.4082,18.925 1.6484,2.3172 2.3005,4.2197 1.6342,4.7675 -1.417,1.165 -3.885,-1.9669 -5.8314,-7.4004 z"
           style="fill:url(#radialGradient2792)" />
        <path
           id="path1938"
           fill="#424242"
           d="m 243.74,435.86 c 0.1788,-0.24869 0.6507,-0.8028 1.0486,-1.2314 0.39798,-0.42844 0.85822,-4.8996 1.0228,-9.9359 0.48801,-14.934 1.1387,-47.377 1.2722,-63.423 0.0684,-8.2249 0.23914,-17.054 0.37946,-19.619 0.71173,-13.013 1.7262,-69.8 1.6443,-92.047 -0.0961,-26.119 1.8692,-77.694 2.0831,-86.647 0.21399,-8.9525 0.31964,-24.408 0.23477,-34.345 -0.0848,-9.9371 -0.35568,-23.084 -0.1087,-24.738 0.43265,-2.8958 0.61996,-3.0035 5.1232,-2.9469 2.5708,0.0324 23.144,3.3177 24.375,2.7516 2.4492,-1.1266 5.326,0.21729 5.4048,2.5248 0.0305,0.89256 1.2279,22.048 2.6609,47.013 1.433,24.965 3.183,62.962 3.8887,84.439 2.5018,76.133 6.9429,132.5 12.092,153.46 1.5029,6.1192 3.6386,16.064 4.7459,22.099 1.1072,6.0353 2.5994,11.829 3.3159,12.875 0.77545,1.1321 0.66672,2.3484 -0.26858,3.0051 -0.8642,0.60675 -2.4351,1.7279 -3.4907,2.4916 -1.0555,0.76373 -1.9905,0.85745 -2.0776,0.2085 -0.0871,-0.64905 -3.3425,0.32214 -7.2342,2.1582 -12.178,5.7453 -24.3,7.4569 -39.418,5.5654 -5.2332,-0.65472 -10.322,-1.7077 -11.309,-2.3399 -0.9866,-0.63223 -1.956,-0.67645 -2.1543,-0.0983 -0.19818,0.57825 -1.0792,0.64215 -1.9577,0.14212 -0.87857,-0.50012 -1.451,-1.1127 -1.2723,-1.3615 z" />
        <path
           id="path1936"
           opacity="0.885"
           fill="url(#linearGradient2794)"
           d="m 243.81,435.4 c 0.18033,-0.52588 1.0187,-0.23236 1.8631,0.65228 1.826,1.9132 1.5547,2.4359 -0.62167,1.1971 -0.8631,-0.49127 -1.4217,-1.3235 -1.2414,-1.8494 z m 6.0226,-10.101 c -0.0366,-4.3599 0.22339,-10.922 0.57776,-14.584 1.0156,-10.494 1.3929,-22.003 0.74704,-22.791 -0.32468,-0.39587 -0.13437,-3.8308 0.42288,-7.6333 0.55728,-3.8025 0.724,-7.2662 0.37048,-7.6972 -0.35352,-0.431 -0.3837,-4.1348 -0.0671,-8.2307 0.31662,-4.0959 0.17658,-7.9336 -0.31122,-8.5283 -0.48776,-0.59473 -0.60464,-1.8472 -0.25977,-2.7834 0.34491,-0.93613 0.63861,-6.0558 0.65265,-11.377 0.0141,-5.3212 0.2334,-11.889 0.4874,-14.595 0.86295,-9.1936 1.036,-17.802 0.37412,-18.609 -0.36282,-0.44241 -0.24899,-1.5259 0.25299,-2.4078 0.50201,-0.88193 0.62317,-1.9565 0.26932,-2.388 -0.35388,-0.43146 -0.21442,-5.9657 0.30991,-12.298 0.52432,-6.3326 0.61731,-11.923 0.20664,-12.424 -0.41064,-0.5007 -0.57516,-3.4884 -0.36557,-6.6394 0.7258,-10.911 0.90665,-19.864 0.41336,-20.465 -0.59524,-0.72577 -0.63483,-2.8818 -0.22946,-12.503 0.16962,-4.0261 0.0775,-7.6018 -0.2048,-7.9459 -0.28229,-0.34416 -0.0573,-3.7369 0.49997,-7.5393 0.55725,-3.8025 0.73587,-7.2517 0.39694,-7.6649 -0.62717,-0.76466 -0.47284,-4.351 0.99204,-23.057 0.45325,-5.7877 0.67479,-11.412 0.49237,-12.497 -0.46243,-2.752 -0.29703,-14.773 0.33391,-24.266 0.29135,-4.3837 0.28326,-11.728 -0.018,-16.32 -0.30122,-4.5922 -0.36235,-12.288 -0.13583,-17.102 0.22647,-4.8138 0.21964,-9.8284 -0.0152,-11.144 -0.24526,-1.3734 0.65256,-3.409 2.1095,-4.7828 2.0898,-1.9706 4.3967,-2.2449 13.1,-1.5577 5.8099,0.45875 10.934,0.53058 11.386,0.1596 1.5416,-1.2644 2.795,1.7208 2.5338,6.0344 -0.30884,5.0995 1.1667,31.339 1.9598,34.852 l 0.3105,6.4773 -0.1957,3.9745 c -0.1077,2.186 0.13782,5.9564 0.54562,8.3788 0.40778,2.4223 0.66394,6.2968 0.56924,8.61 -0.0946,2.3132 0.33694,9.6694 0.95898,16.347 0.62213,6.6778 1.0621,13.893 0.97788,16.034 -0.0843,2.1408 0.14139,5.7987 0.50156,8.1287 0.36017,2.33 0.4061,4.4404 0.10199,4.6898 -0.73242,0.60074 -0.0898,23.334 0.68628,24.281 0.80713,0.98407 -0.32398,7.3932 -1.3807,7.8236 -0.45929,0.18704 -0.36917,0.90799 0.2001,1.6021 0.56928,0.69411 1.3521,8.9827 1.7398,18.419 0.38754,9.4364 1.0048,17.523 1.3714,17.97 0.85397,1.0412 -0.21497,7.4519 -1.3174,7.9008 -0.4592,0.18704 -0.28824,1.0067 0.38,1.8215 0.66827,0.81479 1.463,5.8582 1.7661,11.208 0.30304,5.3494 0.8122,10.045 1.1314,10.434 0.31928,0.38928 0.46726,3.4284 0.32886,6.7536 -0.1384,3.3252 0.1698,10.831 0.685,16.68 0.51514,5.8489 0.32513,11.519 -0.42224,12.599 -1.0488,1.5167 -0.94461,1.9176 0.457,1.7574 1.4063,-0.1608 2.001,1.9469 2.6374,9.3474 0.45194,5.2553 1.4939,11.887 2.3155,14.737 l 1.6362,7.1031 2.2036,9.056 c 1.9805,8.1394 1.9909,10.675 3.6388,19.273 0.90646,4.7297 1.645,8.8754 1.6412,9.2127 -0.012,1.0423 -17.667,8.5494 -22.686,9.6464 -2.6112,0.57071 -5.8108,0.67871 -7.1104,0.2399 -1.2996,-0.43881 -2.8854,-0.0784 -3.5239,0.80096 -1.1558,1.5915 -15.234,1.3853 -16.57,-0.24271 -0.36435,-0.44424 -1.9304,-0.64371 -3.48,-0.44315 -1.8295,0.23669 -3.1534,-0.36545 -3.775,-1.7169 -0.52655,-1.1447 -1.3196,-1.7844 -1.7622,-1.4213 -1.4082,1.155 -1.7744,-0.57355 -1.8425,-8.6982 z m 9.2043,-19.618 c 0.73251,-0.60083 0.84033,-1.6917 0.2395,-2.4243 -1.1372,-1.3866 -2.495,-0.90033 -2.6787,0.95935 -0.18375,1.8596 1.0526,2.6022 2.4392,1.4649 z m -4.0541,-45.688 c 0.48834,-0.40054 0.56021,-1.1278 0.15967,-1.6162 -0.40054,-0.48837 -1.1278,-0.56021 -1.6162,-0.15967 -0.48837,0.40054 -0.56024,1.1278 -0.15967,1.6162 0.40051,0.48837 1.1278,0.56021 1.6162,0.15967 z M 260.8751,321 c 0.73254,-0.60083 0.84033,-1.6917 0.2395,-2.4243 -1.1372,-1.3866 -2.495,-0.90033 -2.6787,0.95932 -0.18372,1.8596 1.0526,2.6022 2.4392,1.465 z m -1.5247,-58.901 c 0.24081,-0.70236 0.12946,-1.653 -0.24741,-2.1126 -0.37695,-0.45953 -1.0849,-0.50781 -1.5732,-0.10727 -0.48837,0.40054 -0.37701,1.3512 0.24741,2.1126 0.62448,0.76138 1.3324,0.80963 1.5732,0.10727 z m 30.702,32 c 0.48834,-0.40051 0.54086,-1.1514 0.1167,-1.6686 -0.42416,-0.51718 -0.96829,-0.36566 -1.2091,0.3367 -0.24081,0.70236 -0.29334,1.4532 -0.1167,1.6686 0.1766,0.21536 0.72067,0.0638 1.2091,-0.3367 z m -28.864,-116.68 c 0.24081,-0.70236 0.12942,-1.653 -0.24744,-2.1126 -0.37692,-0.45955 -1.0849,-0.50781 -1.5732,-0.10727 -0.48834,0.40054 -0.37701,1.3512 0.24744,2.1126 0.62445,0.76135 1.3324,0.80963 1.5732,0.10725 z m 24.876,24.897 c 0.4884,-0.40054 0.54092,-1.1514 0.1167,-1.6686 -0.42419,-0.51718 -0.96823,-0.36566 -1.209,0.3367 -0.24088,0.70236 -0.29334,1.4532 -0.1167,1.6686 0.1766,0.21536 0.72067,0.0638 1.209,-0.3367 z m -26.844,-83.434 c 0.48834,-0.40054 0.56018,-1.1278 0.15964,-1.6162 -0.40054,-0.48836 -1.1278,-0.56021 -1.6162,-0.15968 -0.48837,0.40054 -0.56018,1.1278 -0.15967,1.6162 0.40057,0.48836 1.1278,0.56021 1.6162,0.15967 z"
           style="fill:url(#linearGradient2794)" />
      </g>
    </g>
  </g>
</svg>
