<?xml version="1.0" encoding="UTF-8" standalone="no"?>
<svg
   width="40"
   height="40"
   version="1.1"
   id="svg1"
   sodipodi:docname="hammer_tool_metal_hardware.svg"
   inkscape:version="1.4.2 (f4327f4, 2025-05-13)"
   inkscape:export-filename="combo.png"
   inkscape:export-xdpi="96"
   inkscape:export-ydpi="96"
   xmlns:inkscape="http://www.inkscape.org/namespaces/inkscape"
   xmlns:sodipodi="http://sodipodi.sourceforge.net/DTD/sodipodi-0.dtd"
   xmlns:xlink="http://www.w3.org/1999/xlink"
   xmlns="http://www.w3.org/2000/svg"
   xmlns:svg="http://www.w3.org/2000/svg">
  <sodipodi:namedview
     id="namedview1"
     pagecolor="#ffffff"
     bordercolor="#000000"
     borderopacity="0.25"
     inkscape:showpageshadow="2"
     inkscape:pageopacity="0.0"
     inkscape:pagecheckerboard="0"
     inkscape:deskcolor="#d1d1d1"
     inkscape:zoom="5.2773261"
     inkscape:cx="40.171859"
     inkscape:cy="31.360579"
     inkscape:window-width="1366"
     inkscape:window-height="697"
     inkscape:window-x="-8"
     inkscape:window-y="-8"
     inkscape:window-maximized="1"
     inkscape:current-layer="svg1" />
  <defs
     id="defs1">
    <linearGradient
       id="linearGradient16132"
       y2="442.05423"
       x2="303.42459"
       y1="539.29822"
       x1="214.51128"
       gradientTransform="scale(0.98521153,1.0150104)"
       gradientUnits="userSpaceOnUse">
      <stop
         id="stop24570"
         stop-color="#fff"
         offset="0" />
      <stop
         id="stop24572"
         stop-color="#fff"
         stop-opacity="0"
         offset="1" />
    </linearGradient>
    <linearGradient
       id="linearGradient16130"
       y2="433.73428"
       x2="298.06567"
       y1="473.87772"
       x1="255.74686"
       gradientTransform="scale(0.98749847,1.0126598)"
       gradientUnits="userSpaceOnUse">
      <stop
         id="stop4467"
         offset="0" />
      <stop
         id="stop4469"
         stop-opacity="0"
         offset="1" />
    </linearGradient>
    <linearGradient
       id="linearGradient16134"
       y2="393.47516"
       xlink:href="#WhiteTransparent"
       x2="234.09048"
       y1="344.73453"
       x1="201.95329"
       gradientTransform="scale(1.0123342,0.9878161)"
       gradientUnits="userSpaceOnUse" />
    <linearGradient
       id="linearGradient16138"
       y2="408.42596"
       xlink:href="#WhiteTransparent"
       x2="219.17116"
       y1="431.68759"
       x1="277.33557"
       gradientTransform="scale(1.0053704,0.99465829)"
       gradientUnits="userSpaceOnUse" />
    <linearGradient
       id="WhiteTransparent">
      <stop
         id="stop4462"
         stop-color="#fff"
         offset="0" />
      <stop
         id="stop4464"
         stop-color="#fff"
         stop-opacity="0"
         offset="1" />
    </linearGradient>
    <linearGradient
       id="linearGradient16136"
       y2="404.87039"
       xlink:href="#WhiteTransparent"
       x2="251.40553"
       y1="363.64551"
       x1="219.36928"
       gradientTransform="scale(1.0107647,0.98934991)"
       gradientUnits="userSpaceOnUse" />
  </defs>
  <g
     id="layer1"
     transform="matrix(0.12004857,-0.02612232,0.02442061,0.10958849,0.23278188,3.7943392)">
    <g
       id="g23004"
       transform="matrix(1.0495,0.32141,-0.32141,1.0495,-41.239,-423.14)">
      <path
         id="path23006"
         stroke-width="2.143"
         stroke="#000000"
         d="m 431.75,626.16 c -1.0672,-0.42889 -5.687,-5.8461 -10.266,-12.038 -8.4002,-11.359 -22.244,-26.194 -76.413,-81.884 -16.314,-16.772 -43.309,-44.64 -59.989,-61.928 -16.68,-17.289 -35.218,-35.464 -41.194,-40.391 -5.9762,-4.9262 -12.344,-11.348 -14.15,-14.272 -1.8066,-2.9232 -4.0397,-5.3148 -4.9623,-5.3148 -0.9227,0 -7.9981,6.1982 -15.723,13.774 -15.276,14.981 -15.441,15.036 -25.885,8.7153 -6.4105,-3.8798 -12.338,-11.071 -15.819,-19.192 -3.1842,-7.4285 -1.3202,-7.194 -1.4894,-7.2027 16.23,-13.307 29.351,-31.229 44.596,-46.087 10.73,-10.289 27.532,-28.016 31.783,-29.269 5.9998,-1.4165 30.645,22.891 30.659,25.835 0.007,1.5365 -4.0255,7.2094 -12.814,16.171 -7.5184,7.6667 -13.67,14.443 -13.67,15.058 0,0.61551 4.2649,5.361 9.4776,10.546 5.2127,5.1845 13.493,14.397 18.401,20.473 11.878,14.704 151.04,155.08 168.88,170.35 15.7,13.442 16.753,16.006 9.911,24.137 -4.7307,5.6222 -15.26,13.595 -17.721,13.419 -0.91742,-0.0659 -2.5411,-0.47064 -3.6083,-0.89954 z" />
      <path
         id="path23008"
         fill="#7f7f7f"
         d="m 431.75,626.16 c -1.0672,-0.42889 -5.687,-5.8461 -10.266,-12.038 -8.4002,-11.359 -22.244,-26.194 -76.413,-81.884 -16.314,-16.772 -43.309,-44.64 -59.989,-61.928 -16.68,-17.289 -35.218,-35.464 -41.194,-40.391 -5.9762,-4.9262 -12.344,-11.348 -14.15,-14.272 -1.8066,-2.9232 -4.0397,-5.3148 -4.9623,-5.3148 -0.33252,-0.63864 20.792,-21.635 21.638,-22.197 0,0.61551 4.2649,5.361 9.4776,10.546 5.2127,5.1845 13.493,14.397 18.401,20.473 11.878,14.704 151.04,155.08 168.88,170.35 15.7,13.442 16.753,16.006 9.911,24.137 -4.7307,5.6222 -15.26,13.595 -17.721,13.419 -0.91742,-0.0659 -2.5411,-0.47064 -3.6083,-0.89954 z" />
      <path
         id="path23010"
         fill="url(#linearGradient16130)"
         d="m 431.75,626.16 c -1.0672,-0.42889 -5.687,-5.8461 -10.266,-12.038 -8.4002,-11.359 -22.244,-26.194 -76.413,-81.884 -16.314,-16.772 -43.309,-44.64 -59.989,-61.928 -16.68,-17.289 -35.218,-35.464 -41.194,-40.391 -5.9762,-4.9262 -12.344,-11.348 -14.15,-14.272 -1.8066,-2.9232 -4.0397,-5.3148 -4.9623,-5.3148 -0.33252,-0.63864 11.988,-12.9 12.834,-13.462 0,0.61551 2.5317,5.2223 7.7444,10.407 5.2127,5.1845 13.442,11.684 18.35,17.759 11.878,14.704 143.58,157.04 161.42,172.31 15.7,13.442 17.93,8.5545 23.245,15.117 4.6246,5.7099 -10.554,14.772 -13.015,14.595 -0.91742,-0.0659 -2.5411,-0.47064 -3.6083,-0.89954 z"
         style="fill:url(#linearGradient16130)" />
      <path
         id="path23012"
         stroke-width="0.2"
         fill="url(#linearGradient16132)"
         d="m 241.86,392.45 c -2.1565,2.1064 -2.7482,2.6659 -8.4684,8.4732 l 211.24,220.32 c 2.4235,-2.0552 10.784,-8.6838 10.832,-11.2 0.17517,-9.3078 -5.0926,-5.762 -14.126,-13.713 -17.63,-15.518 -157.78,-156.43 -169.66,-171.13 -4.908,-6.0758 -17.935,-19.742 -23.148,-24.927 -5.2127,-5.1845 -6.6654,-7.2 -6.6654,-7.8156 z"
         style="fill:url(#linearGradient16132)" />
      <path
         id="path23014"
         opacity="0.1"
         fill="#050505"
         d="m 323,499.99 c -6.8018,-3.5955 -51.394,-47.461 -54.504,-53.616 -1.929,-3.8178 -1.9225,-4.5852 0.0491,-5.8325 3.4208,-2.164 6.7645,-1.8038 16.27,1.7528 6.6194,2.4766 11.676,6.236 21.532,16.007 13.933,13.814 26.045,27.776 29.155,33.609 1.0731,2.0126 1.5265,5.3507 1.0076,7.418 -1.1601,4.6223 -5.6052,4.8399 -13.51,0.66138 z" />
      <path
         id="path23016"
         opacity="0.1"
         d="m 320.17,495.16 c -15.16,-9.2426 -35.015,-27.749 -39.896,-37.188 -3.65,-7.0584 -3.1674,-8.3748 2.6446,-7.2126 18.361,3.6714 28.47,10.582 40.614,27.767 7.8118,11.053 9.2482,14.213 7.9727,17.537 -1.2386,3.2277 -5.059,2.9233 -11.336,-0.90332 z" />
      <path
         id="path23018"
         opacity="0.1"
         d="m 317.44,489.66 c -6.6253,-3.2679 -24.855,-18.433 -28.086,-23.364 -3.385,-5.1662 -1.189,-7.6861 4.7352,-5.4337 2.3431,0.89087 6.6014,1.6198 9.4627,1.6198 5.8279,0 10.333,4.2694 19.318,18.308 6.9578,10.872 5.0261,14.027 -5.4296,8.8699 z" />
      <path
         id="path23020"
         opacity="0.838"
         fill="url(#linearGradient16134)"
         d="m 242.24,331.06 c -2.5879,0 -14.313,11.929 -24.441,22.03 1.4429,-0.41171 5.0459,-1.4061 8.3031,-2.2767 2.7092,-0.72406 6.6004,-2.9489 10.446,-5.8926 0.0386,-0.0351 0.0951,-0.0315 0.13391,-0.067 0.0999,-0.0769 2.0652,-1.9626 3.0802,-2.9463 4.3851,-4.2498 6.1056,-5.8649 7.7005,-5.8926 0.0189,-0.01 0.0482,0.01 0.067,0 0.8476,-0.42978 2.3717,-1.1158 3.1161,-1.185 0.75763,-0.0703 -6.1303,-4.5968 -8.406,-3.7701 z m -51.359,50.288 c -7.9764,8.9033 -16.048,17.668 -25.043,25.043 0.16928,0.009 -1.7111,-0.19669 1.4731,7.2318 0.0777,0.18124 0.18774,0.35538 0.26785,0.53568 3.5664,-1.5167 7.4688,-5.8698 10.217,-8.8428 6.442,-6.9698 11.111,-14.89 11.88,-19.816 0.23202,-1.486 0.62579,-2.8041 1.2053,-4.1516 z"
         style="fill:url(#linearGradient16134)" />
      <path
         id="path23022"
         opacity="0.345"
         d="m 170.36,419.47 83.124,-81.721 c 4.9028,3.2582 10.167,7.2976 13.964,12.385 l -84.01,82.647 c -5.8716,-3.1491 -9.786,-7.9652 -13.079,-13.31 z"
         stroke-linecap="round"
         stroke-width="0.2"
         fill="url(#linearGradient16136)"
         style="fill:url(#linearGradient16136)" />
      <path
         id="path23024"
         fill="url(#linearGradient16138)"
         d="m 271.56,354.55 -81.759,81.759 c 4.9717,1.7072 8.0702,-1.1892 19.285,-12.187 5.7543,-5.643 11.102,-10.534 13.861,-12.656 l 0.067,-0.067 23.369,-23.235 c 0,-0.61554 6.2086,-7.3995 13.727,-15.066 8.7881,-8.9614 12.796,-14.668 12.79,-16.204 -0.002,-0.40637 -0.51208,-1.2466 -1.3392,-2.3436 z"
         style="fill:url(#linearGradient16138)" />
    </g>
  </g>
</svg>
