<?xml version="1.0" encoding="UTF-8" standalone="no"?>
<svg
   viewBox="0 0 40 40"
   version="1.1"
   id="svg28"
   sodipodi:docname="insect_bug_red_black.svg"
   width="40"
   height="40"
   inkscape:version="1.4.2 (f4327f4, 2025-05-13)"
   inkscape:export-filename="chinita.png"
   inkscape:export-xdpi="96"
   inkscape:export-ydpi="96"
   xmlns:inkscape="http://www.inkscape.org/namespaces/inkscape"
   xmlns:sodipodi="http://sodipodi.sourceforge.net/DTD/sodipodi-0.dtd"
   xmlns:xlink="http://www.w3.org/1999/xlink"
   xmlns="http://www.w3.org/2000/svg"
   xmlns:svg="http://www.w3.org/2000/svg">
  <sodipodi:namedview
     id="namedview28"
     pagecolor="#ffffff"
     bordercolor="#000000"
     borderopacity="0.25"
     inkscape:showpageshadow="2"
     inkscape:pageopacity="0.0"
     inkscape:pagecheckerboard="0"
     inkscape:deskcolor="#d1d1d1"
     inkscape:zoom="4.95"
     inkscape:cx="49.89899"
     inkscape:cy="50"
     inkscape:window-width="1366"
     inkscape:window-height="697"
     inkscape:window-x="-8"
     inkscape:window-y="-8"
     inkscape:window-maximized="1"
     inkscape:current-layer="svg28" />
  <defs
     id="defs10">
    <linearGradient
       id="linearGradient1715">
      <stop
         offset="0"
         stop-color="#d10000"
         id="stop1" />
      <stop
         offset="1"
         stop-color="#f00"
         id="stop2" />
    </linearGradient>
    <linearGradient
       gradientTransform="matrix(2.1783339,0,0,2.0966682,11.335362,11.882012)"
       gradientUnits="userSpaceOnUse"
       id="linearGradient1726"
       x1="37.556599"
       x2="77.603989"
       y1="78.37587"
       y2="24.41526">
      <stop
         offset="0"
         stop-color="#1e0000"
         id="stop3" />
      <stop
         offset="1"
         stop-color="#643700"
         id="stop4" />
    </linearGradient>
    <linearGradient
       gradientTransform="matrix(2.088858,0,0,2.1864726,11.335362,11.882012)"
       gradientUnits="userSpaceOnUse"
       id="linearGradient1730"
       x1="79.636833"
       x2="81.826881"
       y1="22.24645"
       y2="39.095268">
      <stop
         offset="0"
         stop-color="#4c2d00"
         id="stop5" />
      <stop
         offset="1"
         stop-color="#7c5400"
         id="stop6" />
    </linearGradient>
    <linearGradient
       gradientUnits="userSpaceOnUse"
       id="linearGradient1734"
       x1="31.69623"
       x2="42.07338"
       y1="-2.5027201"
       y2="-0.17487">
      <stop
         offset="0"
         stop-color="#005c00"
         id="stop7" />
      <stop
         offset="1"
         stop-color="#000500"
         id="stop8" />
    </linearGradient>
    <linearGradient
       gradientTransform="matrix(2.0415419,0,0,2.2371251,11.335362,11.882012)"
       gradientUnits="userSpaceOnUse"
       id="linearGradient1718"
       x1="34.97031"
       x2="72.997017"
       xlink:href="#linearGradient1715"
       y1="58.806511"
       y2="27.1833" />
    <linearGradient
       gradientTransform="matrix(2.3310748,0,0,1.9592696,11.335362,11.882012)"
       gradientUnits="userSpaceOnUse"
       id="linearGradient1722"
       x1="56.78112"
       x2="71.735413"
       xlink:href="#linearGradient1715"
       y1="95.343948"
       y2="51.135311" />
    <radialGradient
       cx="31.477261"
       cy="33.187199"
       gradientUnits="userSpaceOnUse"
       id="radialGradient1785"
       r="35.947559"
       gradientTransform="matrix(2.5275679,0,0,2.5275679,-1.8910224,-0.81795488)">
      <stop
         offset="0"
         stop-color="#fff"
         stop-opacity=".48454"
         id="stop9" />
      <stop
         offset="1"
         stop-color="#fff"
         stop-opacity="0"
         id="stop10" />
    </radialGradient>
    <linearGradient
       inkscape:collect="always"
       xlink:href="#linearGradient1734"
       id="linearGradient28"
       gradientUnits="userSpaceOnUse"
       x1="31.69623"
       y1="-2.5027201"
       x2="42.07338"
       y2="-0.17487"
       gradientTransform="matrix(1.3855622,1.5036502,-1.5513706,1.4295419,118.70339,3.1432749)" />
    <linearGradient
       inkscape:collect="always"
       xlink:href="#linearGradient1734"
       id="linearGradient29"
       gradientUnits="userSpaceOnUse"
       x1="31.69623"
       y1="-2.5027201"
       x2="42.07338"
       y2="-0.17487"
       gradientTransform="matrix(1.3855622,1.5036502,-1.5513706,1.4295419,146.72125,28.836888)" />
  </defs>
  <g
     id="g29"
     transform="matrix(0.39563723,0,0,0.39563723,0.74815888,0.32361329)"
     style="stroke-width:2.52756">
    <path
       d="m 85.17652,56.57854 c 4.51061,-1.79357 5.80374,-4.61065 8.7138,-8.01252 1.19989,-0.84269 2.87479,-0.10201 4.07468,-0.9447 0.4275,-1.42556 -0.01214,-3.72551 -1.66807,-3.35104 -3.90918,2.73891 -7.50168,7.53621 -11.25252,11.38348 -3.43492,-2.42028 -6.71151,-2.94051 -10.14643,-3.93576 -0.29625,0.49203 -1.10127,4.08209 -0.45216,4.04052 3.31301,0.95946 6.94232,1.44519 10.73071,0.82003 z"
       fill-rule="evenodd"
       id="path10"
       style="stroke-width:2.52756" />
    <path
       d="m 36.39963,97.23918 c 1.65181,-4.75941 10.75351,-3.00019 15.09194,-7.61822 2.55915,-4.74789 0.37937,-14.60318 -0.92851,-16.4491 -1.44049,-0.12921 -1.50973,0.67363 -1.64173,1.4952 0.2658,4.40783 -1.21011,10.2407 1.74742,14.33186 -9.69131,0.89035 -10.83242,5.73912 -15.29861,4.57108 -0.71242,1.06472 -0.79149,2.92112 1.02949,3.66917 z"
       fill-rule="evenodd"
       id="path11"
       style="stroke-width:2.52756" />
    <path
       d="m 72.91273,90.15301 c -0.4257,-2.33735 4.86688,-8.47173 3.79638,-14.45274 -1.94419,-7.49441 -7.90849,-10.3454 -10.98389,-14.02061 -1.13454,0.82512 -2.3844,0.71946 -1.93827,1.45319 2.43184,2.88482 7.85885,10.05583 11.55447,12.46809 -4.77712,5.54555 -0.68738,8.39938 -4.98949,12.99491 0.1147,1.6274 1.17941,2.30479 2.5608,1.55715 z"
       fill-rule="evenodd"
       id="path12"
       style="stroke-width:2.52756" />
    <path
       d="m 12.84252,44.20911 c -4.5106,1.79357 -5.80373,4.61065 -8.7138,8.01252 -1.19989,0.84269 -2.87479,0.10201 -4.07468,0.9447 -0.42749,1.42556 0.01214,3.72551 1.66808,3.35104 3.90918,-2.73891 7.50168,-7.53621 11.25252,-11.38348 3.43492,2.42028 6.71151,2.94052 10.14643,3.93576 0.29625,-0.49203 1.10127,-4.08209 0.45216,-4.04053 -3.31301,-0.95946 -6.94232,-1.44519 -10.73071,-0.82002 z"
       fill-rule="evenodd"
       id="path13"
       style="stroke-width:2.52756" />
    <path
       d="m 61.61941,3.54848 c -1.65181,4.7594 -10.75351,3.00019 -15.09194,7.61821 -2.55915,4.7479 -0.37937,14.60319 0.92851,16.44911 1.44049,0.12921 1.50973,-0.67363 1.64173,-1.4952 C 48.83191,21.71276 50.30782,15.8799 47.35029,11.78874 57.0416,10.89839 58.18271,6.04962 62.6489,7.21765 63.36132,6.15293 63.44039,4.29653 61.61941,3.54849 Z"
       fill-rule="evenodd"
       id="path14"
       style="stroke-width:2.52756" />
    <path
       d="m 25.10631,10.63465 c 0.42571,2.33734 -4.86688,8.47173 -3.79638,14.45273 1.94419,7.4944 7.90849,10.3454 10.98389,14.02061 1.13454,-0.82512 2.3844,-0.71946 1.93827,-1.4532 C 31.80025,34.76997 26.37324,27.59896 22.67762,25.1867 27.45474,19.64115 23.365,16.78732 27.66711,12.19179 27.55242,10.56438 26.4877,9.887 25.10631,10.63464 Z"
       fill-rule="evenodd"
       id="path15"
       style="stroke-width:2.52756" />
    <path
       d="m 56.44469,23.3375 19.97708,21.30324 c 0,0 -8.06522,40.55364 -48.32427,25.28046 C 11.47889,32.69071 56.53847,23.25108 56.44469,23.3375 Z"
       fill="url(#linearGradient1726)"
       fill-rule="evenodd"
       stroke="#1c0000"
       stroke-width="2.15157"
       id="path16"
       style="fill:url(#linearGradient1726)" />
    <path
       d="M 54.8282,21.48914 65.46487,32.84413 C 61.76711,32.78325 36.28983,53.31173 25.57069,70.47239 5.68099,31.57396 54.92198,21.40273 54.8282,21.48914 Z"
       fill="url(#linearGradient1718)"
       fill-rule="evenodd"
       stroke="#600000"
       stroke-width="2.15157"
       id="path17"
       style="fill:url(#linearGradient1718)" />
    <path
       d="M 78.54147,47.12928 68.09237,35.60146 C 67.85129,39.29186 45.31219,63.00893 27.33402,72.2919 64.4796,95.28959 78.63525,47.04286 78.54147,47.12928 Z"
       fill="url(#linearGradient1722)"
       fill-rule="evenodd"
       stroke="#600000"
       stroke-width="2.15157"
       id="path18"
       style="fill:url(#linearGradient1722)" />
    <path
       d="m 57.33832,23.55452 18.75251,20.3507 C 86.89246,31.35068 70.38679,13.43832 57.33832,23.55452 Z"
       fill="url(#linearGradient1730)"
       fill-rule="evenodd"
       stroke="#3f0000"
       stroke-width="2.15157"
       id="path19"
       style="fill:url(#linearGradient1730)" />
    <path
       d="m 70.648991,26.574775 a 4.9234156,4.9233832 58.064187 1 1 -6.672606,-7.241296 4.9234156,4.9233832 58.064187 1 1 6.672606,7.241296 z"
       fill="url(#linearGradient1734)"
       stroke="#002000"
       stroke-linecap="round"
       stroke-linejoin="round"
       stroke-width="2.59609"
       id="path20"
       style="fill:url(#linearGradient28)" />
    <path
       d="m 49.55843,41.56942 c -2.48052,-2.69192 -6.68114,-2.84333 -9.39895,-0.33896 -2.71781,2.50437 -2.92534,6.71776 -0.44482,9.40968 0.35059,0.38047 0.80324,0.59928 1.21414,0.87795 3.20162,-3.16753 6.38437,-6.03569 9.43441,-8.63563 -0.24798,-0.44551 -0.44444,-0.92198 -0.80478,-1.31303 z"
       fill-rule="evenodd"
       id="path21"
       style="stroke-width:2.52756" />
    <path
       d="m 28.39612,43.62472 c -1.22478,-1.32917 -2.8842,-1.92459 -4.53077,-1.90207 -1.65719,3.08765 -2.67702,6.61119 -2.84319,10.60686 2.23053,1.49797 5.18215,1.47547 7.18387,-0.36905 2.35543,-2.17045 2.43209,-5.90265 0.19008,-8.33574 z"
       fill-rule="evenodd"
       id="path22"
       style="stroke-width:2.52756" />
    <path
       d="m 54.961119,34.242495 a 5.9937841,5.8024924 47.340496 1 1 -8.123256,-8.815583 5.9937841,5.8024924 47.340496 1 1 8.123256,8.815583 z"
       id="path23"
       style="stroke-width:1.72126" />
    <path
       d="m 66.68402,65.92367 c -2.56867,-2.08528 -6.30217,-1.7586 -8.3209,0.72809 -1.8308,2.25519 -1.46938,5.92179 0.4991,8.06499 3.4296,-1.88339 6.22987,-4.75649 8.58508,-7.70767 -0.25081,-0.29985 -0.44781,-0.82931 -0.76328,-1.08542 z"
       fill-rule="evenodd"
       id="path24"
       style="stroke-width:2.52756" />
    <path
       d="m 47.784859,76.231345 a 5.9937841,5.8024924 47.340496 1 1 -8.123256,-8.815583 5.9937841,5.8024924 47.340496 1 1 8.123256,8.815583 z"
       id="path25"
       style="stroke-width:1.72126" />
    <path
       d="m 73.346609,58.052805 a 5.9937841,5.8024924 47.340496 1 1 -8.123256,-8.815583 5.9937841,5.8024924 47.340496 1 1 8.123256,8.815583 z"
       id="path26"
       style="stroke-width:1.72126" />
    <path
       d="m 81.733901,36.740125 a 4.9234156,4.9233832 58.064187 1 1 -6.672606,-7.241296 4.9234156,4.9233832 58.064187 1 1 6.672606,7.241296 z"
       fill="url(#linearGradient1734)"
       stroke="#002000"
       stroke-linecap="round"
       stroke-linejoin="round"
       stroke-width="2.59609"
       id="path27"
       style="fill:url(#linearGradient29)" />
    <path
       d="m 61.67755,3.54389 c -1.65181,4.7594 -10.75532,2.97573 -15.09375,7.59375 -1.80742,3.35325 -1.2248,9.17242 -0.28125,13 -4.79908,1.83058 -10.6702,4.73372 -15.65625,9.09375 -2.581,-3.12601 -5.48051,-6.47914 -7.90625,-8.0625 4.77712,-5.54555 0.66664,-8.40447 4.96875,-13 -0.11469,-1.62741 -1.18111,-2.31015 -2.5625,-1.5625 0.42571,2.33734 -4.85175,8.48774 -3.78125,14.46875 1.29527,4.99297 4.21033,7.79348 7.03125,10.28125 -2.5475,2.66389 -4.61785,5.80023 -5.9375,9.4375 -3.00491,-0.75181 -6.19603,-1.14929 -9.5625,-0.59375 -4.5106,1.79357 -5.80868,4.59813 -8.71875,8 -1.19989,0.84269 -2.86261,0.09481 -4.0625,0.9375 -0.42749,1.42556 3.1e-4,3.74946 1.65625,3.375 3.90918,-2.73891 7.49916,-7.55898 11.25,-11.40625 2.85077,2.00868 5.62383,2.68859 8.4375,3.4375 -1.13934,6.03056 -0.28976,13.21115 4.15625,21.90625 0.52006,-0.83258 1.22714,-1.68555 1.8125,-2.53125 0.26599,0.6701 0.41119,1.27972 0.71875,1.96875 0.74302,0.28188 1.40376,0.41179 2.125,0.65625 -0.95859,0.55775 -1.93741,1.23463 -2.875,1.71875 8.31537,5.14824 15.42201,6.61959 21.53125,5.96875 -0.16403,3.70466 -0.44648,7.66837 1.78125,10.75 -9.6913,0.89034 -10.81506,5.73054 -15.28125,4.5625 -0.71242,1.06472 -0.78972,2.93946 1.03125,3.6875 1.65181,-4.75941 10.75532,-3.00698 15.09375,-7.625 1.64173,-3.04584 1.27748,-8.05705 0.5,-11.84375 6.42022,-1.55143 11.50229,-5.5568 15.46875,-10.21875 2.57451,3.11623 5.46041,6.45516 7.875,8.03125 -4.77712,5.54555 -0.69788,8.40447 -5,13 0.1147,1.6274 1.18111,2.31014 2.5625,1.5625 -0.42571,-2.33735 4.883,-8.48774 3.8125,-14.46875 -1.35515,-5.22377 -4.48452,-8.06158 -7.40625,-10.625 2.343,-3.16599 4.25327,-6.33066 5.65625,-9.21875 3.17414,0.86301 6.62376,1.312 10.21875,0.71875 4.51061,-1.79357 5.80868,-4.59813 8.71875,-8 1.19989,-0.84269 2.86261,-0.09481 4.0625,-0.9375 0.4275,-1.42556 -3.2e-4,-3.71821 -1.65625,-3.34375 -3.90918,2.73892 -7.53041,7.52773 -11.28125,11.375 -2.86336,-2.01755 -5.61075,-2.71607 -8.4375,-3.46875 0.93229,-2.36609 1.95417,-5.07786 1.9375,-5.0625 l -2.125,-2.375 0.03125,-0.125 -4.59375,-4.875 -3.75,-4.15625 c -0.0014,0.02059 -0.05977,0.07192 -0.0625,0.09375 l -2.625,-2.8125 c 0.01332,-2.8e-4 0.0497,-0.03146 0.0625,-0.03125 L 54.8963,21.48139 c 0.01817,-0.01674 -2.86426,0.76891 -5.6875,1.65625 0.14943,-3.86704 0.5421,-8.11787 -1.8125,-11.375 9.69131,-0.89035 10.84631,-5.73053 15.3125,-4.5625 0.71242,-1.06472 0.78972,-2.90821 -1.03125,-3.65625 z m 5.875,14.46875 c -1.2592,-0.05147 -2.53196,0.39168 -3.53125,1.3125 -0.49965,0.46041 -0.86078,0.9801 -1.125,1.5625 -1.84557,0.41777 -3.70519,1.26477 -5.5,2.65625 l 18.75,20.34375 c 1.65382,-1.9222 2.6098,-3.97768 3.09375,-6.03125 0.91516,-0.15076 1.82993,-0.44996 2.5625,-1.125 1.99858,-1.84163 2.12289,-4.97017 0.28125,-6.96875 -1.13609,-1.23291 -2.76777,-1.65175 -4.3125,-1.4375 -1.32182,-2.4229 -3.22854,-4.49927 -5.59375,-5.875 -0.10181,-1.02649 -0.43516,-2.0273 -1.1875,-2.84375 -0.92082,-0.99929 -2.1783,-1.54228 -3.4375,-1.59375 z"
       fill="url(#radialGradient1785)"
       fill-rule="evenodd"
       id="path28"
       style="fill:url(#radialGradient1785);stroke-width:2.52756" />
  </g>
</svg>
