<?xml version="1.0" encoding="UTF-8" standalone="no"?>
<svg
   viewBox="0 0 40 40"
   version="1.1"
   id="svg51"
   sodipodi:docname="kiwi_kiwifruit_fruit_tropical.svg"
   width="40"
   height="40"
   inkscape:version="1.4.2 (f4327f4, 2025-05-13)"
   inkscape:export-filename="frutas_kiwi.png"
   inkscape:export-xdpi="96"
   inkscape:export-ydpi="96"
   xmlns:inkscape="http://www.inkscape.org/namespaces/inkscape"
   xmlns:sodipodi="http://sodipodi.sourceforge.net/DTD/sodipodi-0.dtd"
   xmlns:xlink="http://www.w3.org/1999/xlink"
   xmlns="http://www.w3.org/2000/svg"
   xmlns:svg="http://www.w3.org/2000/svg">
  <sodipodi:namedview
     id="namedview51"
     pagecolor="#ffffff"
     bordercolor="#000000"
     borderopacity="0.25"
     inkscape:showpageshadow="2"
     inkscape:pageopacity="0.0"
     inkscape:pagecheckerboard="0"
     inkscape:deskcolor="#d1d1d1"
     inkscape:zoom="10.33263"
     inkscape:cx="37.163818"
     inkscape:cy="17.662492"
     inkscape:window-width="1366"
     inkscape:window-height="697"
     inkscape:window-x="-8"
     inkscape:window-y="-8"
     inkscape:window-maximized="1"
     inkscape:current-layer="svg51" />
  <defs
     id="defs28">
    <filter
       id="filter6472"
       x="-0.093765896"
       y="-0.098343043"
       width="1.1875318"
       height="1.1966861">
      <feGaussianBlur
         stdDeviation="7.7201"
         id="feGaussianBlur1" />
    </filter>
    <filter
       id="filter6520"
       x="-0.091125692"
       y="-0.073877268"
       width="1.1822514"
       height="1.1477545">
      <feGaussianBlur
         stdDeviation="5.01942"
         id="feGaussianBlur2" />
    </filter>
    <filter
       id="filter4510"
       x="-0.04850061"
       y="-0.048640178"
       width="1.0970012"
       height="1.0972804">
      <feGaussianBlur
         stdDeviation="1.63486"
         id="feGaussianBlur3" />
    </filter>
    <filter
       id="filter6538"
       x="-0.073092812"
       y="-0.051881756"
       width="1.1461856"
       height="1.1037635">
      <feGaussianBlur
         stdDeviation="1.01264"
         id="feGaussianBlur4" />
    </filter>
    <filter
       id="filter5963"
       x="-0.028102102"
       y="-0.020942694"
       width="1.0562042"
       height="1.0418854">
      <feGaussianBlur
         stdDeviation=".34836"
         id="feGaussianBlur5" />
    </filter>
    <filter
       height="1.359215"
       id="filter6159"
       width="1.1212934"
       x="-0.060646705"
       y="-0.17960752">
      <feGaussianBlur
         stdDeviation="4.06487"
         id="feGaussianBlur6" />
    </filter>
    <filter
       height="1.6637667"
       id="filter6245"
       width="1.1187225"
       x="-0.059361248"
       y="-0.33188333">
      <feGaussianBlur
         stdDeviation="4.23707"
         id="feGaussianBlur7" />
    </filter>
    <filter
       height="1.1461623"
       id="filter6392"
       width="1.2797241"
       x="-0.13986207"
       y="-0.073081138">
      <feGaussianBlur
         stdDeviation="4.82052"
         id="feGaussianBlur8" />
    </filter>
    <filter
       height="1.4441839"
       id="filter4633"
       width="1.195063"
       x="-0.097531514"
       y="-0.22209195">
      <feGaussianBlur
         stdDeviation="3.42419"
         id="feGaussianBlur9" />
    </filter>
    <filter
       height="1.3011847"
       id="filter6007"
       width="2.0133844"
       x="-0.50669219"
       y="-0.15059235">
      <feGaussianBlur
         stdDeviation="1.21395"
         id="feGaussianBlur10" />
    </filter>
    <filter
       height="2.360709"
       id="filter6084"
       width="2.272142"
       x="-0.636071"
       y="-0.6803545">
      <feGaussianBlur
         stdDeviation="15.59516"
         id="feGaussianBlur11" />
    </filter>
    <linearGradient
       id="linearGradient4548">
      <stop
         offset="0"
         stop-color="#8b673a"
         id="stop11" />
      <stop
         offset="1"
         stop-color="#8b573a"
         id="stop12" />
    </linearGradient>
    <linearGradient
       id="linearGradient6398">
      <stop
         offset="0"
         id="stop13" />
      <stop
         offset="1"
         stop-opacity="0"
         id="stop14" />
    </linearGradient>
    <linearGradient
       gradientUnits="userSpaceOnUse"
       id="linearGradient6276"
       x1="474.20071"
       x2="670.73047"
       xlink:href="#linearGradient4548"
       gradientTransform="translate(-378.572,-76.812)" />
    <linearGradient
       gradientUnits="userSpaceOnUse"
       id="linearGradient6404"
       x1="561.94263"
       x2="625.84106"
       xlink:href="#linearGradient6398"
       y1="347.17825"
       y2="163.33713"
       gradientTransform="translate(-378.572,-76.812)" />
    <linearGradient
       gradientUnits="userSpaceOnUse"
       id="linearGradient3498"
       x1="581.9754"
       x2="525.76715"
       xlink:href="#linearGradient6398"
       y1="371.71713"
       y2="225.47989"
       gradientTransform="translate(-378.572,-76.812)" />
    <radialGradient
       cx="-34.45731"
       cy="-158.46532"
       gradientTransform="matrix(1.50789,-0.01235,0.01529,1.86706,134.743,475.752)"
       gradientUnits="userSpaceOnUse"
       id="radialGradient6273"
       r="66.006577">
      <stop
         offset="0"
         stop-color="#abd738"
         id="stop15" />
      <stop
         offset=".41188"
         stop-color="#b7e344"
         id="stop16" />
      <stop
         offset=".47699"
         stop-color="#a3ce29"
         id="stop17" />
      <stop
         offset="1"
         stop-color="#8bb110"
         id="stop18" />
    </radialGradient>
    <radialGradient
       cx="-547.54633"
       cy="-250.55602"
       gradientTransform="matrix(2.34997,-0.83268,0.98497,1.97995,986.593,-199.423)"
       gradientUnits="userSpaceOnUse"
       id="radialGradient6111"
       r="40.71233">
      <stop
         offset="0"
         stop-color="#6c940d"
         id="stop19" />
      <stop
         offset="1"
         stop-color="#2a800d"
         id="stop20" />
    </radialGradient>
    <radialGradient
       cx="-321.79086"
       cy="-193.58292"
       gradientTransform="matrix(0.78795,9.89741e-8,-9.97492e-8,0.79412,330.992,333.215)"
       gradientUnits="userSpaceOnUse"
       id="radialGradient6268"
       r="22.987789">
      <stop
         offset="0"
         stop-color="#fffff5"
         id="stop21" />
      <stop
         offset="1"
         stop-color="#f3fba6"
         id="stop22" />
    </radialGradient>
    <radialGradient
       cx="-45.807178"
       cy="-185.04279"
       gradientTransform="matrix(1.14607,-0.1432,0.11386,0.91127,144.827,304.77)"
       gradientUnits="userSpaceOnUse"
       id="radialGradient6259"
       r="63.854019">
      <stop
         offset="0"
         stop-color="#fff"
         stop-opacity=".56122"
         id="stop23" />
      <stop
         offset="1"
         stop-color="#fff"
         stop-opacity="0"
         id="stop24" />
    </radialGradient>
    <radialGradient
       cx="-217.65625"
       cy="-131.41092"
       gradientTransform="matrix(1,0,0,1.40883,0,58.3036)"
       gradientUnits="userSpaceOnUse"
       id="radialGradient6524"
       r="16.625">
      <stop
         offset="0"
         stop-color="#241c1c"
         id="stop25" />
      <stop
         offset="1"
         stop-color="#392c09"
         stop-opacity=".9949"
         id="stop26" />
    </radialGradient>
    <radialGradient
       cx="-209.07912"
       cy="-144.35217"
       gradientTransform="matrix(1,0,0,1.34186,472.306,338.886)"
       gradientUnits="userSpaceOnUse"
       id="radialGradient6253"
       r="14.87547">
      <stop
         offset="0"
         stop-color="#a05a2c"
         id="stop27" />
      <stop
         offset="1"
         stop-color="#704d21"
         id="stop28" />
    </radialGradient>
    <radialGradient
       cx="16.245911"
       cy="-156.39822"
       gradientTransform="matrix(0.64635,-0.03028,0.0712,1.5198,131.7,421.151)"
       gradientUnits="userSpaceOnUse"
       id="radialGradient6262"
       r="45.34798"
       xlink:href="#linearGradient4548" />
    <radialGradient
       inkscape:collect="always"
       xlink:href="#radialGradient6111"
       id="radialGradient51"
       gradientUnits="userSpaceOnUse"
       gradientTransform="matrix(2.34997,-0.83268,0.98497,1.97995,986.593,-199.423)"
       cx="-547.54633"
       cy="-250.55602"
       r="40.71233" />
    <radialGradient
       inkscape:collect="always"
       xlink:href="#radialGradient6111"
       id="radialGradient52"
       gradientUnits="userSpaceOnUse"
       gradientTransform="matrix(2.34997,-0.83268,0.98497,1.97995,986.593,-199.423)"
       cx="-547.54633"
       cy="-250.55602"
       r="40.71233" />
  </defs>
  <g
     id="g52"
     transform="matrix(0.12467297,0,0,0.12467297,0.60025416,2.3610647)">
    <path
       d="M 271.29658,179.02284 C 243.97036,219.31359 182.02156,220.06431 138.48406,185.5428 94.94656,151.02129 82.57871,94.84253 119.20429,48.43846 142.36388,19.0956 201.99342,8.34267 248.60496,46.89207 c 36.20349,29.94158 58.65719,59.84826 39.79177,103.56515 -3.21951,7.46058 -11.43185,20.20808 -17.10015,28.56562 z"
       filter="url(#filter6472)"
       opacity="0.65214"
       id="path28" />
    <path
       d="M 269.29658,173.02284 C 241.97036,213.31359 180.02156,214.06431 136.48406,179.5428 92.94656,145.02129 80.57871,88.84253 117.20429,42.43846 140.36388,13.0956 199.99342,2.34267 246.60496,40.89207 c 36.20349,29.94158 58.65719,59.84826 39.79177,103.56515 -3.21951,7.46058 -11.43185,20.20808 -17.10015,28.56562 z"
       fill="url(#linearGradient6276)"
       id="path31"
       style="fill:url(#linearGradient6276)" />
    <path
       d="M 269.29658,173.02284 C 241.97036,213.31359 180.02156,214.06431 136.48406,179.5428 92.94656,145.02129 80.57871,88.84253 117.20429,42.43846 140.36388,13.0956 199.99342,2.34267 246.60496,40.89207 c 36.20349,29.94158 58.65719,59.84826 39.79177,103.56515 -3.21951,7.46058 -11.43185,20.20808 -17.10015,28.56562 z"
       fill="url(#linearGradient6404)"
       id="path32"
       style="fill:url(#linearGradient6404)" />
    <path
       d="m 89.803,98.78175 c -37.8402,0 -79.94185,34.85791 -79.0625,80.59375 0.4788,24.90291 7.37986,44.85343 18.6875,58.90625 11.30764,14.05282 27.0372,22.14719 44.71875,23.375 a 2.25,2.25 0 0 0 0.21875,0 c 0.22721,-0.008 1.66656,-0.15162 2.3125,-0.1875 a 2.25,2.25 0 0 0 1.125,0.34375 c 0.29733,0.005 0.67945,0.0312 1.15625,0.0312 0.60587,0 1.17611,-0.0136 1.75,-0.0312 a 2.25,2.25 0 0 0 1.75,-0.90625 c 10.60931,-1.46053 29.01992,-5.9042 40.1875,-19.6875 15.76379,-19.45606 26.41777,-50.57452 16.34375,-102.78125 -1.74487,-9.04249 -7.50162,-14.37138 -10.71875,-18.8125 -2.01857,-2.78655 -3.91613,-5.09506 -5.71875,-7.125 a 2.25,2.25 0 0 0 0.71875,-3.96875 c -3.68978,-2.71608 -7.78179,-4.87343 -12.25,-6.4375 a 2.25,2.25 0 0 0 -0.59375,-0.125 l -0.0625,-0.0312 a 2.25,2.25 0 0 0 -0.40625,-0.15625 c -6.08665,-1.98687 -12.79796,-3 -20.15625,-3 z"
       filter="url(#filter6520)"
       opacity="0.70903"
       id="path33" />
    <path
       d="m 95.3418,100.34241 c 0,0 3.08703,-0.40591 19.86231,10.19808 4.93943,3.1223 13.95044,11.11142 15.7969,13.38437 33.23703,40.9139 27.33589,77.29258 19.3333,100.31332 -8.00259,23.02074 -37.55521,34.40907 -37.55521,34.40907 0,0 78.95854,-21.49998 63.20234,-89.80211 C 160.22524,100.54301 95.3418,100.34241 95.3418,100.34241 Z"
       filter="url(#filter6392)"
       opacity="0.6388"
       id="path34" />
    <path
       d="m 146.33329,179.32892 c -0.80566,44.3203 -29.54136,80.26226 -65.98246,80.26226 -36.4411,0 -64.99766,-29.04095 -65.98247,-80.26226 -0.85212,-44.31943 40.3743,-78.29264 76.81541,-78.29264 36.44111,0 56.13434,24.11689 55.14952,78.29264 z"
       fill="url(#radialGradient6273)"
       id="path35"
       style="fill:url(#radialGradient6273)" />
    <path
       d="m -527.31939,-218.09799 c -4.31182,1.35306 -7.60673,-27.42387 -12.14259,-27.30163 -4.53586,0.12224 -6.38458,29.53113 -10.77108,28.35668 -4.3865,-1.17445 8.50372,-27.87684 4.63194,-30.23523 -3.87178,-2.35839 -21.01349,21.20786 -24.08777,17.88366 -3.07428,-3.3242 21.85063,-18.22534 19.85185,-22.28776 -1.99878,-4.06242 -29.48914,6.51966 -30.20422,2.05629 -0.71508,-4.46337 28.52989,-4.16749 29.0405,-8.65917 0.51061,-4.49168 -28.26811,-10.57516 -26.46738,-14.73164 1.80073,-4.15648 26.14994,12.57576 29.08091,9.10285 2.93097,-3.47291 -18.33724,-24.15559 -14.62344,-26.73545 3.7138,-2.57986 15.63303,24.4453 19.94605,23.02741 4.31302,-1.41789 -1.88133,-29.95238 2.63498,-30.05357 4.51631,-0.10119 -0.38812,28.4464 3.98727,29.57495 4.37539,1.12855 13.90729,-26.23243 17.787,-23.91191 3.87971,2.32052 -15.87348,24.47633 -12.84112,27.84361 3.03236,3.36728 26.3689,-14.92133 28.36249,-10.86698 1.99359,4.05435 -26.08219,11.73162 -25.37462,16.19742 0.70757,4.4658 29.91538,2.44162 29.3455,6.94016 -0.56988,4.49854 -28.03999,-4.52901 -29.83155,-0.37937 -1.79156,4.14964 23.57385,18.26212 20.73688,21.79506 -2.83697,3.53294 -21.17501,-19.62896 -24.95222,-17.12948 -3.77721,2.49948 10.20244,28.16103 5.89062,29.5141 z"
       fill="url(#radialGradient6111)"
       filter="url(#filter4510)"
       opacity="0.73244"
       transform="matrix(1.21206,0,0,1.43616,732.738,548.419)"
       id="path36"
       style="fill:url(#radialGradient51)" />
    <path
       d="m -527.31939,-218.09799 c -4.31182,1.35306 -7.60673,-27.42387 -12.14259,-27.30163 -4.53586,0.12224 -6.38458,29.53113 -10.77108,28.35668 -4.3865,-1.17445 8.50372,-27.87684 4.63194,-30.23523 -3.87178,-2.35839 -21.01349,21.20786 -24.08777,17.88366 -3.07428,-3.3242 21.85063,-18.22534 19.85185,-22.28776 -1.99878,-4.06242 -29.48914,6.51966 -30.20422,2.05629 -0.71508,-4.46337 28.52989,-4.16749 29.0405,-8.65917 0.51061,-4.49168 -28.26811,-10.57516 -26.46738,-14.73164 1.80073,-4.15648 26.14994,12.57576 29.08091,9.10285 2.93097,-3.47291 -18.33724,-24.15559 -14.62344,-26.73545 3.7138,-2.57986 15.63303,24.4453 19.94605,23.02741 4.31302,-1.41789 -1.88133,-29.95238 2.63498,-30.05357 4.51631,-0.10119 -0.38812,28.4464 3.98727,29.57495 4.37539,1.12855 13.90729,-26.23243 17.787,-23.91191 3.87971,2.32052 -15.87348,24.47633 -12.84112,27.84361 3.03236,3.36728 26.3689,-14.92133 28.36249,-10.86698 1.99359,4.05435 -26.08219,11.73162 -25.37462,16.19742 0.70757,4.4658 29.91538,2.44162 29.3455,6.94016 -0.56988,4.49854 -28.03999,-4.52901 -29.83155,-0.37937 -1.79156,4.14964 23.57385,18.26212 20.73688,21.79506 -2.83697,3.53294 -21.17501,-19.62896 -24.95222,-17.12948 -3.77721,2.49948 10.20244,28.16103 5.89062,29.5141 z"
       fill="url(#radialGradient6111)"
       filter="url(#filter4510)"
       opacity="0.78261"
       transform="matrix(0.97118,0.28563,-0.33844,1.15075,513.253,625.951)"
       id="path37"
       style="fill:url(#radialGradient52)" />
    <path
       d="m 60.00724,180.13628 c 6.01987,-8.25055 -3.38476,-11.26278 1.96964,-14.27979 5.3544,-3.01701 6.09136,1.60896 11.32533,0.98482 5.23397,-0.62414 4.101,-8.29295 9.35573,-7.8785 5.25473,0.41445 2.79028,5.13395 6.40128,8.86331 3.611,3.72936 9.38247,5.56635 12.06396,7.6323 2.68149,2.06595 3.77762,4.44807 -1.11273,4.16624 -3.1803,-0.18328 2.5e-4,7.80539 -0.8569,9.86735 -0.85715,2.06196 -13.41714,0.75367 -18.46524,3.69304 -5.0481,2.93937 -2.34776,7.88587 -6.40127,6.64749 -4.05351,-1.23838 -2.54012,-4.83713 -4.92408,-8.37091 -2.38396,-3.53378 -15.37558,-3.07479 -9.35571,-11.32535 z"
       fill="url(#radialGradient6268)"
       id="path38"
       style="fill:url(#radialGradient6268)" />
    <path
       d="m 49.952034,172.19316 c 0.139924,-2.36822 5.100798,-0.36019 6.981077,-2.36707 1.880279,-2.00689 1.82496,-6.07842 4.669612,-7.40432 2.844651,-1.32591 10.014178,1.21546 13.468233,0.85684 3.454055,-0.35861 2.969882,-6.89412 6.667903,-6.58987 3.698022,0.30424 4.256217,6.02889 7.5898,7.25896 3.333583,1.23007 11.482551,-0.0383 14.029731,2.19348 2.54718,2.23175 -3.668245,6.97509 -1.64335,9.32118 2.0249,2.34609 10.61157,3.44055 11.50398,6.08234 0.89241,2.64179 -8.47364,1.6214 -9.00755,4.06682 -0.5339,2.44542 9.71699,6.61706 8.21539,8.67504 -1.5016,2.05798 -14.503774,-0.25349 -17.223547,0.86335 -2.719773,1.11684 2.222682,7.3499 -1.409411,7.49229 -3.632092,0.1424 -9.640346,-6.66867 -13.378715,-7.05028 -3.738369,-0.38161 -5.498382,6.60602 -9.15057,5.52692 -3.652189,-1.0791 -6.413293,-6.86265 -9.280369,-8.65896 -2.867076,-1.79631 -6.979899,-3.30363 -8.913388,-5.66591 -1.933489,-2.36227 5.446242,-1.4851 4.693861,-3.97507 -0.752382,-2.48996 -7.952613,-8.25751 -7.812687,-10.62574 z"
       fill="none"
       stroke="#000000"
       stroke-dasharray="9.55396, 57.3238"
       stroke-linecap="round"
       stroke-width="3.33137"
       id="path39" />
    <path
       d="m 34.754073,183.47052 c 0.586167,4.29972 16.47189,6.21387 19.446982,10.12788 2.975091,3.914 -6.53182,6.95123 -2.073076,10.23024 4.458744,3.27901 10.381039,-3.44773 15.877305,-1.76196 5.496266,1.68577 7.79435,15.9616 13.382273,16.59468 5.587923,0.63308 3.838122,-13.77996 8.998449,-15.08675 5.160327,-1.30678 16.861714,9.55869 20.583504,6.52655 3.72179,-3.03214 -3.50715,-9.76173 -1.01588,-13.49451 2.49128,-3.73278 12.80593,-4.29383 13.8212,-8.6866 1.01528,-4.39276 -9.78336,-5.80419 -11.23695,-10.13352 -1.4536,-4.32933 10.66747,-7.77619 8.08143,-11.92067 -2.58604,-4.14449 -16.26754,0.55158 -20.60028,-2.85878 -4.332732,-3.41036 -0.72905,-14.91061 -6.233057,-16.44706 -5.504008,-1.53644 -13.365289,6.84114 -18.671197,6.76636 -5.305908,-0.0748 -7.647305,-11.59455 -13.040011,-10.8044 -5.392706,0.79016 -4.441881,13.28706 -8.972867,15.48906 -4.530985,2.202 -12.50911,-1.58061 -15.178146,2.00031 -2.669037,3.58091 7.035145,6.78895 6.086938,10.99761 -0.948208,4.20867 -9.842788,8.16185 -9.256617,12.46156 z"
       fill="none"
       stroke="#000000"
       stroke-dasharray="6.30535, 37.8321"
       stroke-linecap="round"
       stroke-width="3.33138"
       id="path40" />
    <path
       d="m 40.463899,202.58762 c 2.401468,3.61444 17.533373,-1.58612 21.916853,0.64002 4.383479,2.22613 -2.849384,9.10308 2.592689,10.11108 5.442072,1.00801 7.840701,-7.62738 13.522216,-8.50552 5.681515,-0.87815 13.971538,10.96907 19.276764,9.10351 5.305229,-1.86555 -2.55112,-14.07521 1.523827,-17.50035 4.074942,-3.42515 19.341972,1.25444 21.370242,-3.09664 2.02827,-4.35108 -7.4109,-7.25741 -6.79548,-11.70281 0.61542,-4.44539 9.65443,-9.44572 8.65377,-13.84185 -1.00067,-4.39614 -11.33493,-0.96017 -14.53002,-4.22322 -3.19508,-3.26304 6.21208,-11.64798 2.07832,-14.25112 -4.13377,-2.60313 -14.400953,7.58622 -19.786858,6.40508 -5.385905,-1.18115 -7.154492,-13.10236 -12.777893,-12.08644 -5.623402,1.01592 -9.04772,11.98217 -13.855804,14.22731 -4.808083,2.24514 -11.935952,-7.10266 -16.445207,-4.04122 -4.509254,3.06143 1.792901,13.89471 -1.325468,17.8513 -3.118368,3.95658 -11.947478,4.02915 -12.789072,8.41534 -0.841594,4.38618 9.290619,3.04423 10.271412,7.24543 0.980794,4.2012 -5.30176,11.63567 -2.900291,15.2501 z"
       fill="none"
       stroke="#000000"
       stroke-dasharray="6.30535, 37.8321"
       stroke-linecap="round"
       stroke-width="3.33138"
       id="path41" />
    <path
       d="m 112.61484,104.59905 c 0,0 3.04148,0.66625 15.22033,16.33566 3.58602,4.6138 9.34951,15.18766 10.31463,17.95249 17.37258,49.76786 -0.52869,81.9824 -15.87155,100.91894 -15.34286,18.93654 -47.00658,19.61529 -47.00658,19.61529 0,0 81.56811,6.58358 89.93644,-63.01104 8.36833,-69.59462 -52.59327,-91.81134 -52.59327,-91.81134 z"
       fill="url(#radialGradient6262)"
       id="path42"
       style="fill:url(#radialGradient6262)" />
    <path
       d="m 91.19426,101.02905 c -36.44111,0 -77.66462,33.99307 -76.8125,78.3125 0.94253,49.02225 27.11857,77.68806 61.3125,80.0625 2.29789,-0.0763 31.84775,-1.39387 46.59375,-19.59375 15.34286,-18.93654 25.86245,-49.17943 15.875,-100.9375 -1.60175,-8.30078 -6.88442,-13.20517 -10.3125,-17.9375 -8.46246,-11.68208 -15.21745,-15.94416 -17.1875,-17.03125 -5.83384,-1.90434 -12.31394,-2.875 -19.46875,-2.875 z m 20.46875,3.1875 c 2.14967,0.91039 6.33146,2.85207 11.65625,6.125 -3.50917,-2.58313 -7.39212,-4.63237 -11.65625,-6.125 z M 79.22551,259.5603 c 0.37441,0.006 0.74889,0.0312 1.125,0.0312 0.56939,0 1.12195,-0.0138 1.6875,-0.0312 -1.0302,0.01 -1.99885,0.0129 -2.8125,0 z"
       fill="url(#radialGradient6259)"
       id="path43"
       style="fill:url(#radialGradient6259)" />
    <path
       d="m 33.34421,144.64268 c 0,0 4.10176,-16.72265 34.8184,-32.72929 30.71664,-16.00664 49.44212,18.10557 49.44212,18.10557 0,0 -31.68082,-13.45244 -43.87118,-8.35642 -9.29708,3.88652 -40.38934,22.98014 -40.38934,22.98014 z"
       fill="#ffffff"
       filter="url(#filter4633)"
       opacity="0.35786"
       id="path44" />
    <path
       d="m -438.96214,-144.89572 c 0,0 4.10176,-16.72265 34.8184,-32.72929 30.71664,-16.00664 49.44212,18.10557 49.44212,18.10557 0,0 -31.68082,-13.45244 -43.87118,-8.35642 -9.29708,3.88652 -40.38934,22.98014 -40.38934,22.98014 z"
       fill="#668000"
       filter="url(#filter4633)"
       opacity="0.35786"
       transform="matrix(1,0,0,-1,465.382,74.089)"
       id="path45" />
    <path
       d="m -210.125,-166.03125 c -6.29936,0 -10.73249,4.35085 -13.125,8.65625 -2.39251,4.3054 -3.5,9.33195 -3.5,14.78125 0,5.4493 1.13445,10.48026 3.53125,14.78125 2.3968,4.30099 6.81229,8.625 13.09375,8.625 6.28146,0 10.69695,-4.32401 13.09375,-8.625 2.3968,-4.30099 3.53125,-9.33195 3.53125,-14.78125 0,-5.4493 -1.10749,-10.47585 -3.5,-14.78125 -2.39251,-4.3054 -6.82564,-8.65625 -13.125,-8.65625 z"
       fill="url(#radialGradient6524)"
       filter="url(#filter6538)"
       opacity="0.47157"
       transform="matrix(0.93796,0.34675,-0.34675,0.93796,407.647,353.494)"
       id="path46"
       style="fill:url(#radialGradient6524)" />
    <path
       d="m 266.93135,125.2259 c -3.38869,-0.0307 -6.57596,1.61057 -9.03125,3.71875 -3.27372,2.8109 -5.88314,6.75708 -7.625,11.46875 -1.74186,4.71167 -2.31885,9.42735 -1.65625,13.6875 0.6626,4.26015 2.86397,8.70391 7.46875,10.40625 4.60478,1.70234 9.1631,-0.22657 12.4375,-3.03125 3.2744,-2.80468 5.91439,-6.75708 7.65625,-11.46875 1.74186,-4.71167 2.31429,-9.42306 1.65625,-13.6875 -0.65804,-4.26444 -2.85304,-8.76237 -7.46875,-10.46875 -1.15393,-0.4266 -2.30794,-0.61478 -3.4375,-0.625 z m 1.96875,6 c 0.59163,0.001 1.16638,0.077 1.71875,0.28125 4.41896,1.63365 5.6214,9.40765 2.6875,17.34375 -2.9339,7.9361 -8.89354,13.0399 -13.3125,11.40625 -4.41896,-1.63365 -5.6214,-9.3764 -2.6875,-17.3125 2.56716,-6.94409 7.45237,-11.72674 11.59375,-11.71875 z"
       fill="url(#radialGradient6253)"
       filter="url(#filter5963)"
       opacity="0.56522"
       id="path47"
       style="fill:url(#radialGradient6253)" />
    <path
       d="m -201.59851,-142.6051 c 0,8.46105 -3.81923,15.32009 -8.5305,15.32009 -4.71127,0 -8.53051,-6.85904 -8.53051,-15.32009 0,-8.46105 3.81924,-15.3201 8.53051,-15.3201 4.71127,0 8.5305,6.85904 8.5305,15.3201 z"
       fill="#502d16"
       filter="url(#filter6007)"
       opacity="0.782"
       transform="matrix(0.93796,0.34675,-0.34675,0.93796,412.954,352.509)"
       id="path48" />
    <path
       d="m -285.859,-198.31453 c 0,15.19144 -13.17248,27.50653 -29.42155,27.50653 -16.24907,0 -29.42154,-12.31509 -29.42154,-27.50653 0,-15.19144 13.17247,-27.50653 29.42154,-27.50653 16.24907,0 29.42155,12.31509 29.42155,27.50653 z"
       fill="#ffffff"
       filter="url(#filter6084)"
       opacity="0.38462"
       transform="matrix(0.89167,0.45269,-0.36387,0.71672,367.385,375.213)"
       id="path49" />
    <path
       d="m -210.125,-152.28125 c 0.4004,0 -0.14289,-0.11736 -1.09375,1.59375 -0.95086,1.71111 -1.78125,4.71495 -1.78125,8.09375 0,3.3788 0.83338,6.36158 1.78125,8.0625 0.94787,1.70092 1.48164,1.59375 1.09375,1.59375 -0.38789,0 0.14588,0.10717 1.09375,-1.59375 0.94787,-1.70092 1.78125,-4.6837 1.78125,-8.0625 0,-3.3788 -0.83039,-6.38264 -1.78125,-8.09375 -0.95086,-1.71111 -1.49415,-1.59375 -1.09375,-1.59375 z"
       fill="#552200"
       filter="url(#filter6007)"
       opacity="0.69565"
       transform="matrix(1.13376,0.30461,-0.41914,0.82396,441.814,332.644)"
       id="path50" />
    <path
       d="m 112.61484,104.59905 c 0,0 3.04148,0.66625 15.22033,16.33566 3.58602,4.6138 9.34951,15.18766 10.31463,17.95249 17.37258,49.76786 -0.52869,81.9824 -15.87155,100.91894 -15.34286,18.93654 -47.00658,19.61529 -47.00658,19.61529 0,0 81.56811,6.58358 89.93644,-63.01104 8.36833,-69.59462 -52.59327,-91.81134 -52.59327,-91.81134 z"
       fill="url(#linearGradient3498)"
       id="path51"
       style="fill:url(#linearGradient3498)" />
  </g>
</svg>
