<?xml version="1.0" encoding="UTF-8" standalone="no"?>
<svg
   id="图层_1"
   xml:space="preserve"
   height="40"
   viewBox="0 0 40.000001 40.000001"
   width="40"
   version="1.1"
   y="0px"
   x="0px"
   enable-background="new 0 0 283.46 283.46"
   sodipodi:docname="strawberry_fruit_catering_439394.svg"
   inkscape:version="1.4.2 (f4327f4, 2025-05-13)"
   inkscape:export-filename="fruta_frutilla.png"
   inkscape:export-xdpi="96"
   inkscape:export-ydpi="96"
   xmlns:inkscape="http://www.inkscape.org/namespaces/inkscape"
   xmlns:sodipodi="http://sodipodi.sourceforge.net/DTD/sodipodi-0.dtd"
   xmlns="http://www.w3.org/2000/svg"
   xmlns:svg="http://www.w3.org/2000/svg"><defs
   id="defs10" /><sodipodi:namedview
   id="namedview10"
   pagecolor="#ffffff"
   bordercolor="#000000"
   borderopacity="0.25"
   inkscape:showpageshadow="2"
   inkscape:pageopacity="0.0"
   inkscape:pagecheckerboard="0"
   inkscape:deskcolor="#d1d1d1"
   inkscape:zoom="4.9392206"
   inkscape:cx="30.875317"
   inkscape:cy="5.5676801"
   inkscape:window-width="1366"
   inkscape:window-height="697"
   inkscape:window-x="-8"
   inkscape:window-y="-8"
   inkscape:window-maximized="1"
   inkscape:current-layer="图层_1" />
	
	
	
	
	
	
	
	
	
	<g
   id="g10"
   transform="matrix(0.13339426,0,0,0.13339426,0.35605951,1.440626)"><path
     stroke="#7d5346"
     stroke-width="2"
     stroke-miterlimit="10"
     d="m 83.056,205.51 c 0,0 -77.527,-110.28 53.505,-129.94 l 42.976,4.802 c 0,0 100.33,21.888 28.676,118.56 0,0 -9.958,10.405 -27.975,55.174 0,0 -9.827,48.591 -39.856,20.747 0,0 -28.39,26.206 -40.948,-19.109 0.003,0 -5.757,-31.54 -16.376,-50.23 z"
     fill="#da2839"
     id="path1" /><path
     d="m 163.86,262.84 c 0,0 -1.092,24.023 -22.385,0 0,0 -26.752,27.844 -32.758,-21.293 0,0 -3.822,-19.655 -14.741,-38.218 0,0 -32.472,-50.017 -21.839,-79.165 0,0 12.557,-33.304 20.201,3.276 0,0 10.373,44.223 12.011,62.24 0,0 4.368,63.878 37.126,63.878 -0.01,0 9.28,16.92 22.38,9.28 z"
     fill="#a81e2c"
     id="path2" /><path
     d="m 182.97,209.88 c 0,0 60.602,-82.441 13.103,-111.92 0,0 -39.31,-29.482 -42.039,15.833 0,0 -4.368,5.46 9.827,21.293 0,0 16.925,2.73 10.919,33.304 0,0 -6.006,33.85 -7.098,41.493 0,0.01 -7.06,39.88 15.29,0.01 z"
     fill="#e45863"
     id="path3" /><path
     stroke="#7d5346"
     stroke-width="2"
     stroke-miterlimit="10"
     d="m 121.8,1.027 h 21.27 c 0,0 12.557,26.752 12.557,63.878 0,0 48.045,-3.822 79.165,31.666 0,0 -45.624,-19.243 -56.496,-10.919 0,0 23.192,15.287 17.733,32.758 0,0 -16.925,-16.925 -41.493,-22.385 0,0 -2.73,37.672 -10.373,40.402 0,0 -10.373,-18.563 -8.189,-40.947 0,0 -37.663,17.159 -39.856,20.201 0,0 -1.092,-15.287 15.287,-34.942 0,0 -32.212,-1.092 -43.677,6.552 0,0 15.287,-24.569 71.522,-22.931 -0.01,0 8.77,-32.758 -17.46,-63.332 z"
     fill="#8aba45"
     id="path4" /><path
     d="m 165.85,162.08 c 0,0 16.578,4.93 8.808,21.172 0,0 -17.52,-4.54 -8.81,-21.17 z"
     fill="#7d5346"
     id="path5" /><path
     d="m 184.05,152.34 c 0,0 -14.432,-10.919 0,-22.931 0,0 13.41,10.92 0,22.93"
     fill="#7d5346"
     id="path6" /><path
     d="m 176.81,212.85 c 0,0 -8.75,-15.841 9.317,-20.953 0,0 7.82,15.43 -9.32,20.95"
     fill="#7d5346"
     id="path7" /><path
     d="m 194.22,177.63 c 0,0 -10.953,-14.406 6.183,-22.081 0,0 9.98,14.13 -6.18,22.08"
     fill="#7d5346"
     id="path8" /><path
     d="m 217.94,166.68 c 0,0 -11.43,-14.031 5.438,-22.276 0,0.01 10.44,13.8 -5.44,22.28"
     fill="#7d5346"
     id="path9" /><path
     d="m 212.83,144.42 c 0,0 -17.584,-4.279 -9.12,-21.039 0,0 16.65,4.68 9.12,21.04"
     fill="#7d5346"
     id="path10" /></g>
</svg>
