<?xml version="1.0" encoding="UTF-8" standalone="no"?>
<svg
   viewBox="0 0 120 60"
   version="1.1"
   id="svg123"
   sodipodi:docname="tool_pliers_screwdriver_145375.svg"
   width="120"
   height="60"
   inkscape:version="1.4.2 (f4327f4, 2025-05-13)"
   xmlns:inkscape="http://www.inkscape.org/namespaces/inkscape"
   xmlns:sodipodi="http://sodipodi.sourceforge.net/DTD/sodipodi-0.dtd"
   xmlns="http://www.w3.org/2000/svg"
   xmlns:svg="http://www.w3.org/2000/svg">
  <sodipodi:namedview
     id="namedview123"
     pagecolor="#ffffff"
     bordercolor="#000000"
     borderopacity="0.25"
     inkscape:showpageshadow="2"
     inkscape:pageopacity="0.0"
     inkscape:pagecheckerboard="0"
     inkscape:deskcolor="#d1d1d1"
     inkscape:zoom="2.5455844"
     inkscape:cx="124.9222"
     inkscape:cy="1.3749299"
     inkscape:window-width="1366"
     inkscape:window-height="697"
     inkscape:window-x="-8"
     inkscape:window-y="-8"
     inkscape:window-maximized="1"
     inkscape:current-layer="svg123" />
  <defs
     id="defs3">
    <filter
       id="filter4704">
      <feGaussianBlur
         stdDeviation="12.06001"
         id="feGaussianBlur1" />
    </filter>
    <filter
       id="filter4414"
       x="-0.082681969"
       y="-0.084812216"
       width="1.1655954"
       height="1.1686213">
      <feGaussianBlur
         stdDeviation="6.54083"
         id="feGaussianBlur2" />
    </filter>
    <linearGradient
       gradientTransform="matrix(-0.49473,0.51056,-0.51056,-0.49473,727.59758,49.744923)"
       gradientUnits="userSpaceOnUse"
       id="linearGradient4333"
       x1="782.90363"
       x2="797.93317"
       y1="375.79111"
       y2="-38.88818">
      <stop
         offset="0"
         stop-color="#920309"
         id="stop2" />
      <stop
         offset="1"
         stop-color="#920309"
         stop-opacity="0"
         id="stop3" />
    </linearGradient>
  </defs>
  <g
     transform="matrix(0.07453893,0,0,-0.07806274,54.712994,71.817328)"
     id="g122"
     inkscape:export-filename="atornillador.png"
     inkscape:export-xdpi="96"
     inkscape:export-ydpi="96">
    <path
       d="m 372.46444,526.62946 -12.39584,-19.94114 -2.1558,-14.55164 12.93479,-10.24005 c 29.38489,-5.58462 52.16636,-24.97639 65.75187,-63.59607 L 578.8822,283.02418 c 37.97177,-16.8228 71.36417,33.36504 65.21287,59.28447 L 503.42923,479.20189 c -46.22625,16.53863 -66.36973,39.16323 -69.52452,65.75187 l -12.39584,11.31794 -15.62954,-0.53895 -19.4022,-13.47374 z"
       fill-rule="evenodd"
       stroke="#000000"
       stroke-linecap="round"
       stroke-linejoin="round"
       stroke-width="1.25"
       id="path98" />
    <path
       d="m 594.53827,279.64082 c -5.06143,-0.0308 -10.31647,1.00929 -15.65625,3.375 L 436.60077,418.29707 c -13.58551,38.61968 -36.36512,58.00914 -65.75,63.59375 l -12.9375,10.25 2.15625,14.5625 12.40625,19.9375 8.03125,8.96875 22.67051,-36.52746 c 30.32427,-12.61934 47.60522,-36.09818 68.41123,-60.4196 L 627.47577,296.04707 c -8.7908,-9.51928 -20.26952,-16.32922 -32.9375,-16.40625 z"
       fill="#333333"
       fill-rule="evenodd"
       stroke="#000000"
       stroke-linecap="round"
       stroke-linejoin="round"
       stroke-width="1.25"
       id="path99" />
    <path
       d="m 606.81952,285.73457 c -2.18377,-0.0603 -4.3535,0.27208 -6.375,1.0625 L 455.47577,424.76582 c -10.55485,11.99772 -14.32545,21.47617 -13.5625,27.5625 1.41917,11.32094 18.45344,10.89809 36.25,-6.96875 l 146.5312,-139.15625 c 4.0205,-7.81067 -2.7631,-16.12122 -11.4062,-19.21875 -2.09236,-0.74987 -4.28498,-1.18971 -6.46875,-1.25 z m -200.8125,198.59375 c -4.01449,-0.01 -8.96289,0.53683 -14.6875,1.34375 l -14.89567,12.83846 c 1.62158,7.33964 11.86009,21.95387 21.92692,21.94279 l 15.0625,-13.21875 c 8.34755,-17.85613 4.63722,-22.877 -7.40625,-22.90625 z"
       fill="#ffcc00"
       fill-rule="evenodd"
       id="path100" />
    <path
       d="m 637.62767,315.90011 -168.90873,161.90244 3.77264,8.40568 168.48459,-161.31804 z"
       fill="#333333"
       fill-rule="evenodd"
       stroke="#000000"
       stroke-linecap="round"
       stroke-linejoin="round"
       stroke-width="1.25"
       id="path101" />
    <path
       d="m 640.86137,324.52331 0.539,17.24639 -139.58799,133.12059 c -9.0486,1.45587 -19.10154,5.44315 -29.58488,11.20323 z"
       fill="#4d4d4d"
       fill-rule="evenodd"
       stroke="#000000"
       stroke-linecap="round"
       stroke-linejoin="round"
       stroke-width="1.25"
       id="path102" />
    <path
       d="m 406.41827,537.40846 28.02539,-26.94749 3.2337,7.5453 -26.94749,25.86959 z"
       fill="#333333"
       fill-rule="evenodd"
       stroke="#000000"
       stroke-linecap="round"
       stroke-linejoin="round"
       stroke-width="1.25"
       id="path103" />
    <path
       d="m 437.56378,518.6588 -7.66852,22.64553 -7.62029,7.08134 -11.5451,-4.82161 z"
       fill="#4d4d4d"
       fill-rule="evenodd"
       stroke="#000000"
       stroke-linecap="round"
       stroke-linejoin="round"
       stroke-width="1.25"
       id="path104" />
    <path
       d="m 468.3975,477.95192 21.01904,-25.15857 142.82163,-135.27639 5.9285,-2.1558 z"
       fill="#1a1a1a"
       fill-rule="evenodd"
       stroke="#000000"
       stroke-linecap="round"
       stroke-linejoin="round"
       stroke-width="1.25"
       id="path105" />
    <path
       d="M 406.95722,536.33056 Z"
       fill="#ffffff"
       fill-rule="evenodd"
       stroke="#000000"
       stroke-linecap="round"
       stroke-linejoin="round"
       stroke-width="1.25"
       id="path106" />
    <path
       d="m 419.88238,519.62312 -6.78885,6.78883 -6.88311,10.44792 27.69429,-25.85995 z"
       fill="#1a1a1a"
       fill-rule="evenodd"
       stroke="#000000"
       stroke-linecap="round"
       stroke-linejoin="round"
       stroke-width="1.25"
       id="path107" />
    <path
       d="m 366.53599,493.75353 15.10024,-12.29192 -9.71074,3.12977 -10.77899,9.7011 4.85054,6.4674 z"
       fill="#808080"
       fill-rule="evenodd"
       stroke="#000000"
       stroke-linecap="round"
       stroke-linejoin="round"
       stroke-width="1.25"
       id="path108" />
    <path
       d="m 432.5591,438.91097 15.89726,-19.53251 143.36063,-137.43218 -11.31794,2.15579 -141.74379,134.73744 z"
       fill="#808080"
       fill-rule="evenodd"
       stroke="#000000"
       stroke-linecap="round"
       stroke-linejoin="round"
       stroke-width="1.25"
       id="path109" />
    <path
       d="m 362.07054,506.50894 c 7.03008,-13.78745 53.68928,42.30223 49.35915,47.5231 -9.19244,7.58548 -52.27487,-40.55305 -49.35915,-47.5231 z"
       fill="#1a1a1a"
       fill-rule="evenodd"
       id="path110" />
    <path
       d="m 373.50306,516.14884 c 3.60842,-6.97024 27.55789,21.38578 25.3353,24.02519 -4.71834,3.83483 -26.8319,-20.50152 -25.3353,-24.02519 z"
       fill-rule="evenodd"
       stroke="#000000"
       stroke-linecap="round"
       stroke-linejoin="round"
       stroke-width="1.39703"
       id="path111" />
    <path
       d="m 379.21479,519.75102 -260.23831,245.00484 -9.52091,19.04183 3.03141,5.18708 4.12339,1.81374 20.77321,-8.905 257.66451,-245.36985 c 1.32736,-2.09325 -13.15439,-19.90964 -15.8333,-16.77264 z"
       fill="#f9f9f9"
       fill-rule="evenodd"
       stroke="#000000"
       stroke-linecap="round"
       stroke-linejoin="round"
       stroke-width="1.25"
       id="path112" />
    <path
       d="m 387.36495,525.85755 -260.13701,247.14977 -14.59874,15.86819 4.21307,1.54205 20.62407,-9.23423 256.67237,-244.73927 c -0.20485,-3.95367 -3.8727,-7.67526 -6.77376,-10.58651 z"
       fill="#999999"
       fill-rule="evenodd"
       id="path113" />
    <path
       d="m 393.38053,533.81053 -258.31105,244.86481 1.56134,-5.20445 -13.11222,-2.34396 -4.19399,-5.99459 -9.51409,18.6665 2.99559,4.9503 3.88593,1.13315 20.13546,-8.32711 257.67063,-245.39835 c -0.23502,-0.85086 -0.44147,-1.716 -1.1176,-2.3463 z"
       fill="#808080"
       fill-rule="evenodd"
       id="path114" />
    <path
       d="m 146.93194,762.53524 -5.78882,2.30939 -12.31727,12.31727 -11.57823,9.85381 1.13527,1.25904 16.35525,-8.15671 12.56361,-11.33188 -5.41959,0.73904 z"
       fill="#b3b3b3"
       fill-rule="evenodd"
       stroke="#000000"
       stroke-linecap="round"
       stroke-linejoin="round"
       stroke-width="1.25"
       id="path115" />
    <path
       d="m 141.49717,769.6176 -5.03461,0.40029 4.9269,-4.92691 5.60417,-2.24779 z"
       fill="#ececec"
       fill-rule="evenodd"
       stroke="#000000"
       stroke-linecap="round"
       stroke-linejoin="round"
       stroke-width="1.25"
       id="path116" />
    <path
       d="M 123.49411,771.49142 385.50148,523.92343 c 1.34775,1.33246 2.48471,3.38538 3.87181,4.85564 l -260.58984,247.29297 -1.66462,-3.21278 z"
       fill="#cccccc"
       fill-rule="evenodd"
       id="path117" />
    <path
       d="m 374.99436,523.13713 c 7.16067,5.89837 12.01654,18.04207 -1.04089,34.86977 l 20.29733,-21.85866 c -2.44742,-7.94549 -8.75205,-12.98964 -14.052,-17.17467 z"
       fill="#999999"
       fill-rule="evenodd"
       opacity="0.41"
       id="path118" />
    <path
       d="m 139.01829,754.22145 -3.04842,5.69628 -13.0563,11.57823 -9.36113,12.31726 -2.2171,-0.73903 8.86843,-17.49052 14.53437,-13.54899 -2.46345,6.15863 z"
       fill="#cccccc"
       fill-rule="evenodd"
       stroke="#000000"
       stroke-linecap="round"
       stroke-linejoin="round"
       stroke-width="1.25"
       id="path119" />
    <path
       d="m 132.02834,758.43966 0.49269,4.43421 3.94153,-3.20249 2.18617,-5.32671 z"
       fill="#808080"
       fill-rule="evenodd"
       stroke="#000000"
       stroke-linecap="round"
       stroke-linejoin="round"
       stroke-width="1.25"
       id="path120" />
    <path
       d="m 621.88197,292.48457 -176.87495,165.5625 c 5.91952,4.55284 19.29661,1.22687 33.15625,-12.6875 l 146.5312,-139.15625 c 2.4854,-4.82842 0.8467,-9.85788 -2.8125,-13.71875 z m -206.93745,193.71875 -29.34375,27.46875 c 3.77533,3.86277 8.26624,6.78619 12.75,6.78125 l 15.0625,-13.21875 c 5.6474,-12.08028 5.76823,-18.27155 1.53125,-21.03125 z"
       fill="#ffd42a"
       fill-rule="evenodd"
       id="path121" />
    <path
       d="m 606.81952,285.73457 c -2.18377,-0.0603 -4.3535,0.27208 -6.375,1.0625 L 455.47577,424.76582 c -6.85176,7.78841 -10.81288,14.51113 -12.5625,19.9375 L 610.94452,286.29707 c -1.3596,-0.32373 -2.74493,-0.5244 -4.125,-0.5625 z m -206.25,198.875 c -2.80193,0.23413 -5.87679,0.58702 -9.25,1.0625 l -14.90625,12.84375 c 0.39623,1.79345 1.328,4.03237 2.625,6.375 z"
       fill="#d4aa00"
       fill-rule="evenodd"
       id="path122" />
  </g>
  <g
     id="g123"
     transform="matrix(0.079843,0,0,0.07922235,6.0071825,11.457333)"
     inkscape:export-filename="alicates.png"
     inkscape:export-xdpi="96"
     inkscape:export-ydpi="96">
    <path
       d="m 133.72434,510.73508 c -10.08492,-24.05398 1.68737,-34.28164 27.95832,-57.38908 67.97455,-56.66138 81.0682,-69.41078 97.6541,-88.36979 24.48097,-26.18557 71.38442,-104.06321 85.21937,-116.78346 6.4389,-5.92011 29.65751,-17.45466 44.19501,-29.86876 11.2472,-10.24673 14.30637,-14.05187 25.49042,-31.21399 14.59606,10.3815 23.08251,15.50559 29.7888,17.84549 1.82692,5.57988 1.08356,32.13914 -10.24711,49.29545 -17.23781,14.42656 -29.09059,-1.03542 -56.35318,43.64857 -6.44462,7.60899 -39.36708,69.05629 -76.05529,106.91857 -36.68821,37.86228 -74.18051,65.64942 -102.08792,86.75129 -27.90741,21.10187 -45.50671,43.06266 -65.56252,19.16571 z"
       fill="#fa0b0d"
       id="path38" />
    <path
       d="m 329.05926,353.83919 c 3.30991,-14.04987 -11.33173,-0.89504 24.5584,-62.19129 7.39908,-12.61615 14.75124,-25.63504 21.70725,-30.6885 6.95601,-5.05346 18.60595,2.80583 20.34242,4.48846 -12.7669,8.45657 -17.76723,14.65109 -27.95935,28.54702 -15.46425,24.55676 -30.40683,49.38334 -38.64872,59.84431 z"
       fill="#1b40f6"
       id="path39" />
    <path
       d="m 143.81814,519.16348 c -2.16,-2.09303 10.93856,-1.30921 19.18757,-9.8222 8.24901,-8.51299 21.424,-9.81221 23.58401,-7.71918 -8.72444,6.60887 -11.50912,10.23093 -21.9448,15.85338 -9.96079,5.36662 -16.09794,3.77837 -20.82678,1.688 z"
       fill="#1b40f6"
       id="path40" />
    <path
       d="m 79.2903,472.50585 c 15.84052,11.16625 33.13649,-3.17646 55.4052,-30.16203 54.49284,-69.72508 61.53912,-76.13169 93.24811,-104.84183 25.40169,-25.2934 100.12024,-75.32585 114.02277,-88.191 17.71671,-11.19207 31.20726,-18.3183 47.46408,-31.1703 10.43002,-11.03857 17.82638,-16.32155 24.85792,-30.98532 -10.83596,-14.26191 -21.00862,-29.49653 -32.61266,-41.11215 0.23923,-1.24299 -34.06268,-0.1206 -49.35154,10.52596 -8.69194,12.49894 -0.0935,29.2025 -43.41269,59.81547 -23.51838,19.62819 -67.18559,41.21321 -104.33143,78.62662 -30.51918,26.58289 -69.47658,82.16798 -89.81224,110.63857 -22.09849,30.93848 -37.57585,45.06698 -15.47752,66.85601 z"
       fill="#fa0b0d"
       id="path41" />
    <path
       d="m 277.35891,287.05599 c -2.26663,0.008 -24.33155,-3.09672 -33.87881,0.23133 -38.44812,22.66377 -100.26643,98.60357 -134.21457,145.08178 -2.25503,5.78404 1.56586,18.04276 1.85532,20.62231 2.01765,3.70897 -17.99367,30.17616 -31.36791,19.74123 -6.70968,-5.58579 -11.44098,-14.61156 -11.01876,-18.09153 -0.021,-5.41511 -1.06233,-3.79395 3.41767,-15.66901 24.2462,-41.96375 51.72294,-76.24627 89.12472,-120.98609 42.93868,-44.42019 58.17503,-52.93505 96.66799,-80.05597 44.47514,-27.21515 61.91148,-50.66024 64.38856,-56.06289 2.55369,-2.6354 12.95239,14.82276 15.92675,18.54645 11.30619,14.81777 19.89171,22.28793 17.62267,26.10752 -2.15551,3.7023 -16.47297,15.52328 -34.07454,28.78592 -16.39057,12.35014 -31.17673,28.00412 -44.44909,31.74895 z"
       fill="#1b40f6"
       id="path42" />
    <path
       d="m 513.26007,130.35426 c -19.22054,23.15624 -27.22336,33.77073 -31.30982,38.49419 -0.91122,-0.29008 -1.72026,-0.70428 -3.3869,-1.27834 -2.66761,3.71577 -6.8203,8.13638 -9.81944,11.03235 -2.99914,2.89597 -5.36707,5.0235 -12.28273,9.83253 -0.0889,4.06041 -0.33988,4.32215 -0.3533,5.64323 -0.0824,0.085 -12.15422,10.86428 -12.06788,10.93121 0.91481,0.70908 -6.93814,-2.90945 -9.5777,-4.52161 -7.13057,-3.84887 -13.75133,-8.64401 -20.08364,-13.3167 -9.8422,-13.00771 -20.73877,-27.37602 -32.94913,-41.13191 5.11455,-5.75538 6.50153,-6.91796 12.45783,-13.57898 1.73679,0.1381 2.23513,0.10222 4.42681,0.67222 1.30961,-2.66504 6.19801,-9.74056 9.03024,-12.68086 2.83223,-2.9403 9.0934,-8.48062 12.36229,-10.02721 -0.58704,-1.71253 -0.9718,-2.88167 -0.96572,-4.19561 20.6747,-18.14061 26.01673,-21.56528 44.00397,-37.6397 32.17574,-20.92308 51.43893,-33.46646 81.98431,-52.36677 l 24.814,24.1678 c -20.8301,34.58931 -33.02343,51.74368 -56.28319,89.96416 z"
       fill="#c1d4ce"
       id="path43" />
    <path
       d="m 420.16157,183.79736 a 28.262213,36.723526 44.098602 1 1 51.11088,-52.74606 28.262213,36.723526 44.098602 1 1 -51.11088,52.74606 z"
       fill="#273136"
       id="path44"
       style="stroke-width:0.609622" />
    <path
       d="m 429.56241,173.70746 a 17.767821,23.087156 44.098364 1 1 32.13197,-33.16026 17.767821,23.087156 44.098364 1 1 -32.13197,33.16026 z"
       fill="#c3d7d1"
       id="path45"
       style="stroke-width:0.383255" />
    <path
       d="m 394.8239,161.88791 c 3.24706,-3.82737 10.02626,-11.70252 12.38939,-14.67577 2.20118,0.42625 1.68766,0.3671 3.98021,0.98684 2.11815,-3.44532 2.79921,-6.10655 9.4086,-12.92745 4.54116,-4.68648 8.86222,-8.17274 14.42932,-10.7616 l -1.92224,-7.06177 36.44126,-41.28742 88.4982,-46.97351 -13.32376,-12.96504 c -30.54538,18.90031 -49.80917,31.43624 -81.98491,52.35933 -17.98728,16.07438 -23.31684,19.50543 -43.99154,37.64603 -0.006,1.3139 0.37766,2.48872 0.96474,4.2013 -3.26889,1.5466 -9.54884,7.08398 -12.38107,10.02429 -2.83223,2.94031 -7.71172,10.01598 -9.02132,12.68101 -2.19168,-0.57 -2.68371,-0.52499 -4.4205,-0.66309 -5.91448,6.61426 -7.47186,8.00402 -12.39209,13.65379 l 1.63205,1.86102 c 5.90081,6.79684 6.88214,8.17567 11.69366,13.90204 z"
       fill="#425961"
       id="path46" />
    <path
       d="m 388.0717,182.60785 c 6.48585,-6.69341 8.25894,-15.48851 3.97636,-19.63829 -4.28258,-4.14978 -13.00345,-2.08703 -19.48931,4.60638 -3.13789,3.2383 -5.16292,6.97508 -5.94613,10.43448 -1.59749,-3.01325 -4.17222,-6.27732 -7.50002,-9.22733 -7.41749,-6.57543 -15.68581,-9.11395 -18.46219,-5.66766 -2.77638,3.44629 0.9835,11.58222 8.40099,18.15766 7.41749,6.57544 15.68579,9.11394 18.46219,5.66766 l 0.0544,-0.0562 c 0.10963,-0.14192 0.19467,-0.30397 0.28306,-0.46068 0.21438,0.28254 0.44547,0.54055 0.70368,0.79075 l 0.0702,0.068 c 4.31637,4.06476 12.9986,1.97967 19.44675,-4.67484 z"
       fill="#fc3f6c"
       fill-opacity="0.49007"
       opacity="0.82682"
       id="path47" />
    <path
       d="m 343.01018,221.19847 a 9.642981,15.071457 46.737614 1 1 0.0607,0.0637"
       fill="#fc3f6c"
       fill-opacity="0.49007"
       opacity="0.82682"
       id="path48"
       style="stroke-width:0.601305" />
    <path
       d="m 417.84435,257.19311 c -14.63487,12.57316 -19.50909,-2.90771 -29.51523,3.2117 -5.18543,2.52856 -14.58984,11.81224 -18.69535,5.76152 l -11.8419,-7.79487 c -4.10551,-6.05072 3.80728,-10.84512 8.89594,-16.73002 l 28.54453,-17.77406 c 5.18542,-2.52855 12.66513,0.30699 16.77064,6.3577 l 7.79069,11.48198 c 4.10552,6.05071 3.23611,12.9575 -1.94932,15.48605 z"
       fill="#fc3f6c"
       fill-opacity="0.49007"
       opacity="0.82682"
       id="path49" />
    <path
       d="m 558.38557,29.51371 -0.33693,-0.32648 -88.4982,46.97351 -36.44126,41.28742 1.90777,7.02052 z m -123.57355,95.11027 c -0.0318,0.015 -0.0644,0.0279 -0.0961,0.043 l 0.014,0.0136 z"
       fill="#dfe8e5"
       fill-rule="evenodd"
       id="path50" />
    <path
       d="m 511.6755,84.15155 c -0.75708,1.21938 -38.56658,38.1502 -38.95617,40.48373 -0.0985,0.63413 4.70884,5.59185 5.33955,5.4734 0.63071,-0.11845 37.99438,-39.29057 38.74896,-39.59568 0.17504,-0.0708 0.59144,0.0248 0.89947,0.055 z"
       fill="#435256"
       id="path51" />
    <path
       d="m 515.74143,78.10145 c -0.0248,0.18638 -0.009,0.41746 -0.0883,0.54055 -0.60642,0.94589 -3.56451,1.39362 -4.015,2.26135 -0.0194,0.0373 0.002,0.0856 -0.0119,0.12461 l 9.05496,9.64523 c 0.0215,-0.01 0.063,0.01 0.0829,-0.001 0.85312,-0.4776 1.69503,-4.09193 2.62134,-4.72784 0.0948,-0.0651 0.25166,-0.0468 0.37209,-0.075 z"
       fill="#435256"
       id="path52" />
    <path
       d="m 527.73508,85.61289 c 0.71051,-0.90704 0.4478,-2.79076 1.36677,-3.62975 0.12175,-0.11116 0.33794,-0.14783 0.50812,-0.21538 l -9.96759,-9.65851 c -0.95186,0.87875 -3.15532,0.53963 -3.87494,1.49879 -0.0584,0.0779 -0.0417,0.23174 -0.0777,0.33302 z"
       fill="#435256"
       id="path53" />
    <path
       d="M 527.73508,85.61289 515.68973,73.94106 c -0.36579,1.02842 0.20259,3.02629 0.0517,4.16039 l 8.01619,7.76762 c 1.05639,-0.24695 2.94103,0.69542 3.81552,-0.005 0.076,-0.0608 0.10183,-0.17466 0.16194,-0.25139 z"
       fill="#69817d"
       id="path54" />
    <path
       d="m 520.68126,90.67319 -9.05496,-9.64523 c -0.31551,0.86932 0.56316,2.13991 0.29406,2.87089 -0.002,0.005 -0.24004,0.24494 -0.24486,0.2527 l 6.03181,6.41641 c 0.98887,0.0967 2.28792,0.41266 2.97395,0.10523 z"
       fill="#69817d"
       id="path55" />
    <path
       d="m 524.60505,66.81922 c -1.11704,0.49367 -3.03803,-0.15148 -3.92794,0.76691 -0.0809,0.0835 -0.0902,0.22017 -0.14702,0.32028 l 13.35096,12.93696 c 0.0143,-0.0134 0.0412,-0.0144 0.0548,-0.0285 0.86675,-0.89448 0.34634,-2.99644 0.76311,-4.2147 z"
       fill="#435256"
       id="path56" />
    <path
       d="m 534.41299,58.4391 8.45139,8.18933 c 0.10577,-1.41361 -1.02798,-5.39252 -0.77323,-6.08448 0.2812,-0.76382 23.35267,-23.65181 23.45119,-24.28593 0.0985,-0.63412 -0.97073,-0.63812 -1.06826,-1.1168 -0.0975,-0.47868 -23.20037,24.52897 -23.50734,24.23152 -0.30697,-0.29745 -5.59556,-1.47698 -6.35014,-1.17186 -0.0423,0.0171 -0.15291,0.2024 -0.20361,0.23822 z"
       fill="#435256"
       id="path57" />
    <path
       d="m 530.82775,62.53236 8.36716,8.1077 c 0.0431,-0.54854 0.11151,-1.03555 0.28361,-1.30398 0.60642,-0.94588 2.92916,-1.35596 3.37966,-2.22369 0.0424,-0.0816 -0.005,-0.33717 0.006,-0.48396 l -8.45139,-8.18933 c -0.84025,0.59373 -2.68919,3.42084 -3.58524,4.09326 z"
       fill="#69817d"
       id="path58" />
    <path
       d="m 538.6635,74.64375 c 0.53642,-0.71497 0.42275,-2.61934 0.53141,-4.00369 l -8.36716,-8.1077 c -0.0154,0.0116 -0.0532,0.06 -0.068,0.0702 -0.92632,0.6359 -3.26512,-1.34921 -4.2393,-0.56917 -0.16343,0.13086 -0.25314,0.38125 -0.34977,0.61379 l 12.42439,12.03913 c 0.0176,-0.0203 0.0521,-0.0208 0.0684,-0.0426 z"
       fill="#435256"
       id="path59" />
    <path
       d="M 538.59505,74.6863 526.17066,62.64717 c -0.47941,1.15358 -0.33768,3.25638 -1.16719,4.0137 -0.10429,0.0952 -0.26786,0.10065 -0.39842,0.15835 l 10.09395,9.78094 c 0.0611,-0.17876 0.0729,-0.39712 0.18522,-0.52826 0.859,-1.00254 2.91961,-0.47553 3.71083,-1.3856 z"
       fill="#69817d"
       id="path60" />
    <path
       d="M 533.88105,80.84337 520.53009,67.90641 c -0.64132,1.12973 0.0558,3.17629 -0.75081,4.11774 -0.0344,0.0401 -0.0981,0.0493 -0.1369,0.0851 l 9.96759,9.65851 c 1.20387,-0.47784 3.3689,-0.0799 4.27108,-0.92439 z"
       fill="#69817d"
       id="path61" />
    <path
       d="m 414.93981,186.44552 a 33.013768,42.38132 44.096948 0 1 -3.30604,-37.48593"
       fill="none"
       stroke="#000000"
       stroke-width="0.884036"
       id="path62" />
    <path
       d="m 478.71063,167.32498 c 6.73466,-11.56871 7.38465,-25.44088 -0.23406,-37.20364"
       fill="none"
       stroke="#000000"
       stroke-width="0.87453"
       id="path63" />
    <path
       d="M 86.78664,460.03252 C 73.63611,447.28977 116.0817,379.05889 187.81915,305.02577 259.5566,230.99265 339.71158,186.2102 352.86209,198.95293 366.0126,211.69566 279.32005,247.76295 207.5826,321.79608 136.262,395.39901 100.12979,472.24347 86.40527,460.24711"
       fill="#f9f9f9"
       fill-opacity="0.10596"
       opacity="0.82682"
       id="path64" />
    <path
       d="M 558.04864,29.18723 544.72488,16.22219 C 514.3074,35.04336 495.0432,47.57489 463.10942,68.34066 l 7.49676,7.2643 z"
       fill="#182022"
       id="path66" />
    <path
       d="m 434.83923,124.5959 -15.13967,-14.15301 c -3.27325,1.55685 -9.53972,7.07467 -12.36746,10.01025 -2.82774,2.93558 -7.71172,10.01598 -9.02132,12.68101 l -0.30537,-0.0781 12.99792,15.09917 0.19437,0.0522 c 2.11816,-3.44533 2.79501,-6.11499 9.4044,-12.93589 4.48895,-4.63261 8.76216,-8.0961 14.23713,-10.67563 z"
       fill="#182120"
       id="path67" />
    <path
       d="m 435.03142,124.50993 -1.92224,-7.06177 0.0136,-0.014 -14.30635,-11.27677 c -0.0267,0.0234 -0.0412,0.0467 -0.068,0.0702 -0.006,1.3139 0.37766,2.48872 0.96474,4.2013 -0.005,0.002 -0.008,0.0115 -0.0136,0.014 l 15.16731,14.15257 z"
       fill="#040305"
       id="path68" />
    <path
       d="m 411.03098,148.15474 -13.02557,-15.09873 c -1.86217,-0.46652 -2.46348,-0.4639 -4.03218,-0.58623 l 13.37968,14.76134 c 1.9205,0.37483 1.75128,0.39714 3.67807,0.92362 z"
       fill="#000609"
       id="path69" />
    <path
       d="m 432.16521,125.979 -14.67062,-14.2157 c -3.38073,2.29335 -7.88012,6.32041 -10.16249,8.68984 -1.1758,1.22062 -2.71042,3.16033 -4.18997,5.19495 l 13.94057,13.50829 c 0.94918,-1.13688 2.08963,-2.40933 3.5194,-3.88485 3.72981,-3.84917 7.31808,-6.89403 11.56311,-9.29253 z"
       fill=".42458"
       opacity="0.42458"
       id="path70" />
    <path
       d="m 427.49683,117.74152 -1.95921,-1.79038 c -1.97823,1.36122 -10.39148,8.10947 -13.26774,10.9975 -2.87084,2.88253 -7.85477,9.77446 -9.14768,12.03249 0,0 0.47555,0.45078 1.7041,1.82512 1.30435,-2.82059 2.1293,-5.38395 8.73868,-12.20485 4.48896,-4.63261 11.42422,-9.273 13.93185,-10.85988 z"
       fill="#01080b"
       id="path71" />
    <path
       d="m 481.94549,168.8532 c 4.08645,-4.72346 12.09425,-15.34082 31.31479,-38.49706 23.25976,-38.22048 35.45695,-55.38302 56.28705,-89.97233 l -0.15442,-0.14964 -87.62818,128.55276 c 0.0598,0.0203 0.12038,0.047 0.18076,0.0663 z"
       fill="#ffffff"
       fill-opacity="0.51656"
       id="path72" />
  </g>
</svg>
