<?xml version="1.0" encoding="UTF-8" standalone="no"?>
<svg
   viewBox="0 0 40 40"
   version="1.1"
   id="svg16"
   sodipodi:docname="tool_wrench_metal_metallic.svg"
   width="40"
   height="40"
   inkscape:version="1.4.2 (f4327f4, 2025-05-13)"
   inkscape:export-filename="llave_fija.png"
   inkscape:export-xdpi="96"
   inkscape:export-ydpi="96"
   xmlns:inkscape="http://www.inkscape.org/namespaces/inkscape"
   xmlns:sodipodi="http://sodipodi.sourceforge.net/DTD/sodipodi-0.dtd"
   xmlns:xlink="http://www.w3.org/1999/xlink"
   xmlns="http://www.w3.org/2000/svg"
   xmlns:svg="http://www.w3.org/2000/svg">
  <sodipodi:namedview
     id="namedview16"
     pagecolor="#ffffff"
     bordercolor="#000000"
     borderopacity="0.25"
     inkscape:showpageshadow="2"
     inkscape:pageopacity="0.0"
     inkscape:pagecheckerboard="0"
     inkscape:deskcolor="#d1d1d1"
     inkscape:zoom="4.6669047"
     inkscape:cx="50.997398"
     inkscape:cy="23.891638"
     inkscape:window-width="1366"
     inkscape:window-height="697"
     inkscape:window-x="-8"
     inkscape:window-y="-8"
     inkscape:window-maximized="1"
     inkscape:current-layer="svg16" />
  <defs
     id="defs10">
    <filter
       id="filter3830"
       x="-0.0064189625"
       y="-0.014118139"
       width="1.0128379"
       height="1.028259">
      <feGaussianBlur
         stdDeviation="1.7426"
         id="feGaussianBlur1" />
    </filter>
    <filter
       id="filter3858"
       x="-0.014972275"
       y="-0.039735701"
       width="1.0337844"
       height="1.0825452">
      <feGaussianBlur
         stdDeviation="1.1706"
         id="feGaussianBlur2" />
    </filter>
    <filter
       id="filter3905"
       x="-0.0041443768"
       y="-0.0090396443"
       width="1.0084533"
       height="1.0180899">
      <feGaussianBlur
         stdDeviation=".8884"
         id="feGaussianBlur3" />
    </filter>
    <filter
       id="filter4021"
       x="-0.0097314372"
       y="-0.015113264"
       width="1.0194629"
       height="1.0302265">
      <feGaussianBlur
         stdDeviation=".408"
         id="feGaussianBlur4" />
    </filter>
    <filter
       id="filter4025"
       x="-0.011349303"
       y="-0.011190166"
       width="1.0226986"
       height="1.0223803">
      <feGaussianBlur
         stdDeviation=".3767"
         id="feGaussianBlur5" />
    </filter>
    <linearGradient
       id="linearGradient3955">
      <stop
         offset="0"
         stop-color="#f9f9f9"
         id="stop5" />
      <stop
         offset="1"
         stop-color="#f9f9f9"
         stop-opacity="0"
         id="stop6" />
    </linearGradient>
    <linearGradient
       gradientUnits="userSpaceOnUse"
       id="linearGradient3915"
       x1="-122.04857"
       x2="870.93359">
      <stop
         offset="0"
         stop-color="#999"
         id="stop7" />
      <stop
         offset="1"
         stop-color="#999"
         stop-opacity="0"
         id="stop8" />
    </linearGradient>
    <linearGradient
       gradientUnits="userSpaceOnUse"
       id="linearGradient3961"
       x1="127.44346"
       x2="224.3522"
       xlink:href="#linearGradient3955"
       y1="414.04953"
       y2="460.37247" />
    <linearGradient
       gradientUnits="userSpaceOnUse"
       id="linearGradient3978"
       x1="693.32855"
       x2="600.44629"
       xlink:href="#linearGradient3955"
       y1="418.13666"
       y2="391.15128" />
    <radialGradient
       cx="559.66705"
       cy="394.62003"
       gradientTransform="matrix(0.84492,-0.25929,0.01646,0.05363,-63.87674,550.65091)"
       gradientUnits="userSpaceOnUse"
       id="radialGradient4045"
       r="300.89725">
      <stop
         offset="0"
         stop-color="#b3b3b3"
         id="stop9" />
      <stop
         offset="1"
         stop-color="#b3b3b3"
         stop-opacity="0"
         id="stop10" />
    </radialGradient>
  </defs>
  <g
     id="g16"
     transform="matrix(0.82424219,0.09404167,-0.10644064,0.93291476,5.9921567,-0.88224833)">
    <g
       transform="matrix(0.04886787,-0.0188156,0.03108958,0.07507503,-14.223209,-5.5222094)"
       id="g12">
      <path
         d="m 281.98698,455.06869 c -9.39956,1.60191 -18.97206,2.25928 -28.50643,2.37554 -6.74182,0.0822 -13.7138,-2.8209 -20.19205,-4.68936 -8.68315,-2.5044 -10.48528,-4.292 -18.21117,-8.98026 -6.10199,-3.70284 -16.52936,-10.39291 -23.3607,-12.46127 -6.44188,-1.95044 -13.56937,-1.20092 -20.19205,0 -13.31393,2.41428 -76.13942,9.96884 -76.13942,9.96884 l -4.00404,19.72535 -0.62474,5.93884 69.82876,0.0984 c 0,0 14.39737,18.00849 13.6453,26.93557 l -2.95689,35.09846 c -0.61015,7.24252 -3.90744,8.09016 -8.66528,13.65092 -5.35608,6.25995 -3.65282,5.47796 -9.81675,10.94428 -1.02372,0.90786 -19.49099,1.34942 -34.36769,1.2542 -7.37431,-0.0472 -32.09038,-20.80931 -32.09038,-20.80931 L 82.442,553.65342 v 9.73223 c 0,0 54.68159,25.75352 84.33151,34.21517 5.76137,1.64421 13.26015,1.52068 18.98372,-0.25065 5.08848,-1.57479 14.21803,-10.32453 18.12888,-13.94085 8.01909,-7.41516 9.171,-8.44792 16.33695,-16.69046 4.46917,-5.14061 17.00117,-16.31652 21.92227,-21.02631 6.82296,-6.52998 12.01212,-8.93134 18.37954,-12.5024 26.86419,-15.06636 83.22603,-36.54958 83.22603,-36.54958 L 487.313,452.50111 c 0,0 15.92238,-4.92244 24.08687,-6.50642 9.7866,-1.89868 19.78487,-2.47338 29.69419,-3.5633 7.91024,-0.87004 15.80087,-0.85942 23.75535,-0.62475 10.0196,0.2956 20.07116,0.19369 29.69419,3.00028 12.42716,3.62442 23.04041,12.44156 35.63303,15.44098 6.55883,1.56224 13.60051,2.60566 20.19206,1.18777 9.17606,-1.97384 16.55382,-6.85643 24.94312,-11.06545 9.81342,-4.92352 20.49887,-10.25402 29.69419,-16.25321 3.05712,-1.99452 6.97482,-3.73105 8.31437,-7.1266 1.3157,-3.33509 4.23763,-20.96959 4.23763,-20.96959 l -69.27305,9.71665 c -6.0994,0.85554 -6.26886,-2.11349 -10.43925,-6.64587 -4.56529,-4.96155 -8.04382,-12.98445 -13.06545,-17.48357 -1.55345,-1.39181 -3.6369,-23.20854 -1.99509,-38.31786 1.64181,-15.10932 10.9911,-16.56804 14.14399,-17.73731 4.71579,-1.74887 65.95197,-0.58359 65.95197,-0.58359 l 4.27873,-19.60709 c 0.40266,-1.84517 -30.30905,-3.8466 -30.95338,-4.30689 -10.74286,-7.67435 -18.65532,2.69942 -41.27876,-1.65389 -8.17385,-1.57285 -16.7988,-2.90692 -24.94313,-1.18776 -10.39466,2.19417 -20.49984,7.27051 -28.50642,14.25321 -6.86939,5.99094 -9.77367,15.42884 -15.44098,22.56758 -4.00739,5.04785 -8.52271,9.68118 -13.06545,14.25322 -5.33139,5.36579 -9.99579,11.80514 -16.62874,15.44098 z"
         fill="#4d4d4d"
         filter="url(#filter3905)"
         stroke="#000000"
         transform="matrix(1.17061,0,0,1.17061,-68.24392,-75.76686)"
         id="path10" />
      <path
         d="m 266.64652,433.39858 c -11.00322,1.87522 -22.20889,2.64474 -33.3699,2.78084 -7.89205,0.0963 -16.05352,-3.30217 -23.63702,-5.48941 -10.16457,-2.93168 -12.27417,-5.02426 -21.31817,-10.51238 -7.14305,-4.33458 -19.34943,-12.16604 -27.34626,-14.58728 -7.54093,-2.28321 -15.88444,-1.40581 -23.63701,0 -15.58542,2.82618 -44.49321,16.68495 -44.49321,16.68495 l -49.32351,18.07535 -0.73133,6.95207 81.74223,0.11519 c 0,0 16.85369,21.0809 15.97332,31.53104 l -3.46136,41.08659 c -0.71424,8.47817 -4.57409,9.47042 -10.14366,15.97991 -6.26988,7.32796 -4.27602,6.41255 -11.49159,12.81147 -1.19838,1.06276 -22.81634,1.57963 -40.23115,1.46819 -17.26487,-0.11051 -42.12068,-1.49227 -42.12068,-1.49227 v 11.39264 c 0,0 64.01081,30.14731 98.71929,40.0526 6.74431,1.92473 15.52246,1.78013 22.22252,-0.2934 5.95663,-1.84347 16.64377,-12.086 21.22185,-16.31929 9.38722,-8.68027 10.73566,-9.88923 19.12419,-19.53803 5.23166,-6.01764 19.90174,-19.10027 25.66242,-24.6136 7.98703,-7.64406 14.06151,-10.45511 21.51527,-14.63543 31.44749,-17.63683 97.4252,-40.00448 97.4252,-40.00448 l 168.05519,-54.45089 c 0,0 18.6389,-5.76227 28.19633,-7.61648 11.45629,-2.22262 23.16036,-2.89536 34.76031,-4.17124 9.25981,-1.01848 18.49665,-1.00604 27.80824,-0.73134 11.72904,0.34604 23.4955,0.22673 34.76031,3.51217 14.54736,4.24277 26.97132,14.56421 41.71237,18.07535 7.67783,1.82877 15.92089,3.05021 23.63702,1.39041 10.74158,-2.31059 19.37807,-8.02619 29.19866,-12.95331 11.48769,-5.76353 23.99618,-12.00346 34.76031,-19.02618 3.5787,-2.3348 8.1648,-4.3676 9.73289,-8.34246 1.54016,-3.90409 -1.39041,-12.51371 -1.39041,-12.51371 l -74.74069,-0.65909 c -7.20964,-0.0636 -7.33839,-2.47407 -12.22029,-7.77972 -5.34417,-5.80804 -9.41617,-15.19973 -15.29455,-20.46644 -1.81848,-1.62927 -4.25738,-27.16814 -2.33547,-44.85526 1.92191,-17.68712 12.86629,-19.39471 16.5571,-20.76346 5.52035,-2.04725 77.20402,-0.68316 77.20402,-0.68316 0,0 -4.98157,-6.19194 -6.49008,-7.26957 -12.5757,-8.98367 -46.57363,-17.5644 -73.05684,-22.66043 -9.56839,-1.84119 -19.66485,-3.40287 -29.19868,-1.39041 -12.16808,2.56852 -23.99731,8.51094 -33.36989,16.68496 -8.04138,7.01304 -11.44116,18.06114 -18.07537,26.41782 -4.69108,5.90906 -9.97676,11.33289 -15.29454,16.68496 -6.24097,6.28124 -11.70116,13.81921 -19.46576,18.07536 z"
         fill="#b3b3b3"
         stroke="url(#linearGradient3915)"
         stroke-width="1.17061"
         id="path11"
         style="stroke:url(#linearGradient3915)" />
      <path
         d="m 658.0625,265.28125 c -2.19645,0.0972 -4.38394,0.36583 -6.5,0.8125 -11.33831,2.39337 -22.50242,7.99606 -31.25,15.625 -6.69586,5.83958 -10.06744,16.4583 -17.46875,25.78125 -4.88576,6.15428 -10.31376,11.71682 -15.65625,17.09375 -5.88539,5.92337 -11.5363,13.94444 -20.53125,18.875 a 4.69122,4.69122 0 0 1 -0.84375,0.34375 l -297.75,94.0625 a 4.69122,4.69122 0 0 1 -0.625,0.15625 c -11.31377,1.92815 -22.75536,2.70549 -34.09375,2.84375 -9.28211,0.11326 -17.83167,-3.61099 -25.03125,-5.6875 -10.56666,-3.04765 -13.56709,-5.61722 -22.4375,-11 -7.26131,-4.40634 -19.67353,-12.10256 -26.25,-14.09375 -6.3048,-1.90894 -13.92832,-1.23668 -21.4375,0.125 -6.96907,1.26374 -18.07084,5.32619 -27.125,9.09375 C 102.00834,423.08006 94.875,426.5 94.875,426.5 a 4.69122,4.69122 0 0 1 -0.40625,0.1875 l -43.53125,15.9375 73.59375,0.0937 a 4.69122,4.69122 0 0 1 3.65625,1.75 c 0,0 4.35521,5.46734 8.625,12.3125 4.26979,6.84516 9.04748,14.58009 8.375,22.5625 l -3.46875,41.09375 c -0.4149,4.92494 -2.11408,8.64443 -4.3125,11.3125 -2.19842,2.66807 -4.42335,4.37406 -6.9375,7.3125 -3.03859,3.55137 -3.92286,4.92631 -5.28125,6.625 -1.35839,1.69869 -2.97165,3.35742 -6.65625,6.625 -1.34829,1.1957 -1.84213,1.08223 -2.34375,1.21875 -0.50162,0.13652 -0.93244,0.20716 -1.40625,0.28125 -0.94762,0.14819 -2.04392,0.27158 -3.34375,0.375 -2.59966,0.20684 -5.99942,0.37449 -9.90625,0.5 -7.81365,0.25102 -17.60873,0.33735 -26.375,0.28125 -14.5314,-0.093 -31.19211,-0.92928 -37.40625,-1.25 v 3.4375 c 4.45928,2.08514 62.80718,29.31721 95.3125,38.59375 5.65728,1.61451 13.91348,1.49825 19.5625,-0.25 1.38546,-0.42878 5.66928,-3.21097 9.5,-6.40625 3.83072,-3.19528 7.56482,-6.74116 9.90625,-8.90625 9.39321,-8.68581 10.42955,-9.54981 18.78125,-19.15625 5.86861,-6.75028 20.36928,-19.60836 25.9375,-24.9375 8.43411,-8.07194 15.21747,-11.25946 22.5,-15.34375 32.41268,-18.17814 98.1875,-40.34375 98.1875,-40.34375 A 4.69122,4.69122 0 0 1 337.5,480.375 l 168.0625,-54.4375 a 4.69122,4.69122 0 0 1 0.0625,0 c 0,0 18.43128,-5.76628 28.65625,-7.75 11.86581,-2.30207 23.74658,-2.99161 35.1875,-4.25 9.60524,-1.05647 19.04287,-1.02715 28.4375,-0.75 11.60168,0.34228 23.79827,0.14703 35.9375,3.6875 15.82439,4.61522 28.19999,14.86335 41.5,18.03125 7.39493,1.76139 14.94233,2.76108 21.53125,1.34375 9.69578,-2.08563 17.96111,-7.44757 28.09375,-12.53125 11.4957,-5.76755 23.87766,-11.97337 34.3125,-18.78125 4.06572,-2.65254 7.27991,-4.53732 7.90625,-6.125 -0.032,0.081 0.12631,-2.7511 -0.34375,-5.0625 -0.11854,-0.5829 -0.15403,-0.55553 -0.28125,-1.0625 l -71.15625,-0.65625 c -4.12762,-0.0364 -7.56218,-1.03885 -9.9375,-3 -2.37532,-1.96115 -3.47262,-3.87412 -5.6875,-6.28125 -6.24368,-6.78563 -10.34895,-15.98591 -14.96875,-20.125 -1.15121,-1.03143 -1.31898,-1.69808 -1.5625,-2.28125 -0.24352,-0.58317 -0.3775,-1.11105 -0.53125,-1.6875 -0.30749,-1.1529 -0.56901,-2.4789 -0.8125,-4.03125 -0.48697,-3.10469 -0.91207,-7.08511 -1.21875,-11.59375 -0.61336,-9.01728 -0.76026,-19.9839 0.25,-29.28125 1.06258,-9.77866 4.93422,-16.05325 9.3125,-19.625 4.37828,-3.57175 9.26223,-4.65334 10.28125,-5.03125 2.32062,-0.86062 3.61498,-0.74011 6.21875,-0.90625 2.60377,-0.16614 5.90225,-0.26273 9.6875,-0.34375 7.5705,-0.16203 17.08107,-0.19836 26.40625,-0.15625 12.72565,0.0575 18.3776,0.20597 24.96875,0.3125 -5.85142,-3.45201 -15.93524,-7.34705 -27.59375,-10.75 -13.17,-3.84413 -28.15366,-7.25517 -41.28125,-9.78125 -7.08719,-1.36375 -14.22799,-2.48163 -20.875,-2.1875 z"
         fill="none"
         filter="url(#filter3830)"
         stroke="#ffffff"
         transform="translate(-4.1293903e-6)"
         id="path12" />
    </g>
    <path
       d="m 585.6875,201.65552 -9.40625,8.4375 a 9.92524,9.92524 0 0 1 -3.65625,2.09375 L 266.09375,308.59302 A 9.92524,9.92524 0 0 1 264,308.99927 l -31.96875,2.78125 a 9.92524,9.92524 0 0 1 -4.25,-0.5625 l -9.5,-3.4375 c 7.81815,21.01698 7.65841,44.00787 3.9375,65.03125 l 0.9375,-0.78125 a 9.92524,9.92524 0 0 1 1.21875,-0.84375 l 31.5,-18.53125 a 9.92524,9.92524 0 0 1 2.09375,-0.90625 l 301.25,-93.09375 a 9.92524,9.92524 0 0 1 3.09375,-0.46875 l 46,0.65625 c -7.34383,-9.04219 -15.39315,-19.66907 -19.21875,-30.5625 -2.91806,-8.30919 -3.3432,-17.75738 -3.40625,-26.625 z"
       fill="#4d4d4d"
       filter="url(#filter3858)"
       opacity="0.8565"
       stroke="#333333"
       stroke-width="3.586"
       id="path13"
       transform="matrix(0.04886787,-0.0188156,0.03108958,0.07507503,-9.7433721,5.295688)" />
    <path
       d="m 283.07274,443.33463 261.86697,-82.34115 22.72237,-20.44069 c 0,0 -2.47433,27.03901 1.88953,39.46514 5.14145,14.64033 27.33536,37.67948 27.33536,37.67948 l -58.36623,-0.82243 -257.33894,79.50963 -26.89993,15.82306 -27.55146,22.33835 c 0,0 10.73693,-17.2415 12.65615,-26.99155 3.50067,-17.7841 3.73025,-37.36376 -2.70347,-54.30885 -3.09861,-8.1611 -16.38559,-20.42932 -16.38559,-20.42932 l 35.45968,12.91463 z"
       fill="url(#radialGradient4045)"
       filter="url(#filter3858)"
       opacity="0.8565"
       stroke="#cccccc"
       stroke-width="3.586"
       transform="matrix(0.05720522,-0.02202573,0.03639377,0.08788358,-19.913704,-9.9263584)"
       id="path14"
       style="fill:url(#radialGradient4045)" />
    <path
       d="m 178.82368,441.66313 c 8.07708,8.7196 15.05561,21.59823 16.88748,33.34195 1.3438,8.61481 -0.86603,26.95134 -0.86603,26.95134 l 23.78887,-8.87207 14.31622,-16.34722 c 0,0 -5.97491,-23.95783 -13.42338,-33.34195 -7.34395,-9.25245 -19.93491,-18.18747 -32.47593,-21.65062 -4.2486,-1.17323 -8.91828,-0.36785 -13.20687,0.64952 -4.68425,1.11123 -20.55334,9.51889 -20.55334,9.51889 0,0 19.82626,3.58948 25.53298,9.75016 z"
       fill="url(#linearGradient3961)"
       filter="url(#filter4025)"
       opacity="0.9"
       transform="matrix(0.05720522,-0.02202573,0.03639377,0.08788358,-19.913704,-9.9263584)"
       id="path15"
       style="fill:url(#linearGradient3961)" />
    <path
       d="m 638.6026,405.84145 c -8.07708,-8.7196 -20.42079,-22.67127 -22.25266,-34.41499 -1.3438,-8.61481 -2.35308,-7.30232 -2.35308,-7.30232 l -17.9985,-0.4919 -16.88748,6.06217 c 0,0 5.97491,23.95783 13.42338,33.34195 7.34395,9.25245 20.25983,17.17429 32.47593,21.65062 8.21741,3.01109 17.52703,4.83798 26.08331,2.9988 10.86828,-2.33615 28.63972,-17.08685 28.63972,-17.08685 0,0 -35.4239,1.40316 -41.13062,-4.75748 z"
       fill="url(#linearGradient3978)"
       filter="url(#filter4021)"
       opacity="0.9"
       transform="matrix(0.05720522,-0.02202573,0.03639377,0.08788358,-19.913704,-9.9263584)"
       id="path16"
       style="fill:url(#linearGradient3978)" />
  </g>
</svg>
