<?xml version="1.0" encoding="UTF-8" standalone="no"?>
<svg
   width="115"
   height="115"
   version="1.1"
   id="svg900"
   sodipodi:docname="bike_motorcycle_vehicle_motorbike.svg"
   inkscape:version="1.2.2 (b0a8486541, 2022-12-01)"
   inkscape:export-filename="motocicleta_roja.png"
   inkscape:export-xdpi="599"
   inkscape:export-ydpi="599"
   xmlns:inkscape="http://www.inkscape.org/namespaces/inkscape"
   xmlns:sodipodi="http://sodipodi.sourceforge.net/DTD/sodipodi-0.dtd"
   xmlns:xlink="http://www.w3.org/1999/xlink"
   xmlns="http://www.w3.org/2000/svg"
   xmlns:svg="http://www.w3.org/2000/svg">
  <sodipodi:namedview
     id="namedview902"
     pagecolor="#ffffff"
     bordercolor="#666666"
     borderopacity="1.0"
     inkscape:showpageshadow="2"
     inkscape:pageopacity="0.0"
     inkscape:pagecheckerboard="0"
     inkscape:deskcolor="#d1d1d1"
     showgrid="false"
     inkscape:zoom="1.6416667"
     inkscape:cx="466.59898"
     inkscape:cy="240"
     inkscape:window-width="1864"
     inkscape:window-height="1011"
     inkscape:window-x="0"
     inkscape:window-y="0"
     inkscape:window-maximized="1"
     inkscape:current-layer="svg900" />
  <defs
     id="defs689">
    <linearGradient
       id="linearGradient2619"
       x1="354.806"
       xlink:href="#linearGradient7742"
       spreadMethod="reflect"
       x2="394.19614"
       gradientTransform="scale(0.94250025,1.0610077)"
       y1="212.62587"
       y2="212.62587"
       gradientUnits="userSpaceOnUse" />
    <linearGradient
       id="linearGradient2724"
       y2="255.56181"
       xlink:href="#linearGradient7742"
       x2="277.64584"
       gradientTransform="scale(0.92811407,1.0774538)"
       y1="255.56181"
       x1="218.73889"
       gradientUnits="userSpaceOnUse" />
    <linearGradient
       id="linearGradient2622"
       x1="197.87292"
       xlink:href="#linearGradient7742"
       spreadMethod="reflect"
       x2="342.89136"
       gradientTransform="scale(0.7737491,1.2924086)"
       y1="213.21432"
       y2="213.21432"
       gradientUnits="userSpaceOnUse" />
    <linearGradient
       id="linearGradient2671"
       x1="301.20972"
       xlink:href="#linearGradient7742"
       spreadMethod="reflect"
       x2="321.07205"
       gradientTransform="scale(0.65375364,1.5296282)"
       y1="115.52357"
       y2="115.52357"
       gradientUnits="userSpaceOnUse" />
    <linearGradient
       id="linearGradient2731"
       y2="68.726883"
       x2="363.30981"
       gradientTransform="scale(0.75161055,1.3304763)"
       y1="68.726883"
       x1="315.34915"
       gradientUnits="userSpaceOnUse">
      <stop
         id="stop2613"
         stop-color="#373936"
         offset="0" />
      <stop
         id="stop2615"
         stop-color="#373936"
         stop-opacity="0"
         offset="1" />
    </linearGradient>
    <linearGradient
       id="linearGradient2734"
       x1="116.57393"
       xlink:href="#linearGradient7742"
       spreadMethod="reflect"
       x2="114.44211"
       gradientTransform="scale(1.5526955,0.6440413)"
       y1="43.552307"
       y2="43.552307"
       gradientUnits="userSpaceOnUse" />
    <linearGradient
       id="linearGradient2781"
       x1="108.48497"
       xlink:href="#linearGradient7742"
       spreadMethod="reflect"
       x2="109.13694"
       gradientTransform="scale(2.1496002,0.46520278)"
       y1="47.956017"
       y2="47.956017"
       gradientUnits="userSpaceOnUse" />
    <linearGradient
       id="linearGradient2775"
       x1="202.08696"
       xlink:href="#linearGradient7742"
       spreadMethod="reflect"
       x2="219.01849"
       gradientTransform="scale(0.74669557,1.3392339)"
       y1="125.18447"
       y2="125.18447"
       gradientUnits="userSpaceOnUse" />
    <linearGradient
       id="linearGradient2778"
       x1="352.01407"
       xlink:href="#linearGradient7742"
       spreadMethod="reflect"
       x2="366.47784"
       gradientTransform="scale(0.6698905,1.4927813)"
       y1="54.738857"
       y2="54.738857"
       gradientUnits="userSpaceOnUse" />
    <linearGradient
       id="linearGradient2728"
       y2="357.7085"
       xlink:href="#linearGradient7742"
       x2="215.74593"
       gradientTransform="scale(1.3330121,0.75018072)"
       y1="357.7085"
       x1="156.08237"
       gradientUnits="userSpaceOnUse" />
    <linearGradient
       id="linearGradient20133">
      <stop
         id="stop20135"
         stop-color="#fff"
         offset="0" />
      <stop
         id="stop22780"
         stop-color="#fff"
         stop-opacity=".412"
         offset=".5" />
      <stop
         id="stop20137"
         stop-color="#fff"
         stop-opacity="0"
         offset="1" />
    </linearGradient>
    <linearGradient
       id="linearGradient7742">
      <stop
         id="stop7744"
         stop-color="#fff"
         offset="0" />
      <stop
         id="stop7746"
         stop-color="#96939e"
         offset="1" />
    </linearGradient>
    <linearGradient
       id="linearGradient31995">
      <stop
         id="stop31997"
         stop-color="#999699"
         offset="0" />
      <stop
         id="stop31999"
         stop-color="#020000"
         offset="1" />
    </linearGradient>
    <linearGradient
       id="linearGradient2616"
       y2="120.70081"
       x2="535.15979"
       gradientTransform="scale(0.6144552,1.627458)"
       y1="120.70081"
       x1="407.34827"
       gradientUnits="userSpaceOnUse">
      <stop
         id="stop31829"
         stop-color="#303232"
         offset="0" />
      <stop
         id="stop31831"
         stop-color="#fff"
         offset="1" />
    </linearGradient>
    <radialGradient
       id="radialGradient2749"
       xlink:href="#linearGradient20133"
       gradientUnits="userSpaceOnUse"
       cy="26.079"
       cx="4.7680001"
       gradientTransform="matrix(0.11746,-0.10436,0,0.074983,262.85,34.122)"
       r="70.460999" />
    <radialGradient
       id="radialGradient2752"
       xlink:href="#linearGradient20133"
       gradientUnits="userSpaceOnUse"
       cy="26.079"
       cx="4.7680001"
       gradientTransform="matrix(0.12556,-0.34831,0.14104,0.019348,381.94,162.98)"
       r="70.460999" />
    <radialGradient
       id="radialGradient2746"
       xlink:href="#linearGradient20133"
       gradientUnits="userSpaceOnUse"
       cy="26.079"
       cx="4.7680001"
       gradientTransform="matrix(0.15695,-0.011527,-0.045816,0.059484,291.07,17.463)"
       r="70.460999" />
    <radialGradient
       id="radialGradient2755"
       xlink:href="#linearGradient20133"
       gradientUnits="userSpaceOnUse"
       cy="26.079"
       cx="4.7680001"
       gradientTransform="matrix(0.52653,-0.23183,0,0.16658,89.758,125.39)"
       r="70.460999" />
    <radialGradient
       id="radialGradient2743"
       xlink:href="#linearGradient20133"
       gradientUnits="userSpaceOnUse"
       cy="26.079"
       cx="4.7680001"
       gradientTransform="matrix(0.52653,-0.23183,0,0.16658,353.97,122.4)"
       r="70.460999" />
    <radialGradient
       id="radialGradient2610"
       fx="244.64999"
       fy="269.76999"
       xlink:href="#linearGradient31995"
       gradientUnits="userSpaceOnUse"
       cy="272.12"
       cx="247.92999"
       gradientTransform="matrix(1.3009,0.4986,-0.29782,2.4148,60.208,-516.95)"
       r="8.8330002" />
    <radialGradient
       id="radialGradient2607"
       fx="315.69"
       fy="266.79001"
       xlink:href="#linearGradient31995"
       gradientUnits="userSpaceOnUse"
       cy="273.72"
       cx="318.70001"
       gradientTransform="matrix(2.2601,0.4033,-0.06865,0.38196,-387.02,42.427)"
       r="13.662" />
    <radialGradient
       id="radialGradient2613"
       fx="316.16"
       fy="237.75"
       xlink:href="#linearGradient31995"
       gradientUnits="userSpaceOnUse"
       cy="245.33"
       cx="320.17001"
       gradientTransform="matrix(0.98672,0,0,1.3801,-0.0012598,-91.5)"
       r="10.516" />
    <radialGradient
       id="radialGradient2604"
       fx="241.67"
       fy="270.95001"
       xlink:href="#linearGradient31995"
       gradientUnits="userSpaceOnUse"
       cy="272.23001"
       cx="247.99001"
       gradientTransform="matrix(0.26382,0.12238,-0.1473,0.44933,298.85,124.08)"
       r="8.8330002" />
    <radialGradient
       id="radialGradient2737"
       xlink:href="#linearGradient20133"
       gradientUnits="userSpaceOnUse"
       cy="26.079"
       cx="4.7680001"
       gradientTransform="matrix(0.3209,-0.40405,0.36267,-0.03629,314.58,149.43)"
       r="70.460999" />
    <radialGradient
       id="radialGradient2740"
       xlink:href="#linearGradient20133"
       gradientUnits="userSpaceOnUse"
       cy="26.079"
       cx="4.7680001"
       gradientTransform="matrix(0.57298,-0.055122,-0.052562,0.15813,332.9,127.16)"
       r="70.460999" />
    <radialGradient
       id="radialGradient2784"
       fx="433.25"
       fy="120.62"
       xlink:href="#linearGradient7742"
       gradientUnits="userSpaceOnUse"
       cy="109.97"
       cx="423.87"
       gradientTransform="matrix(1.0586,-0.08005,0.043273,0.56813,-35.208,89.179)"
       r="24.632" />
  </defs>
  <g
     id="g2786"
     transform="matrix(0.23835239,0,0,0.23835239,3.4080789,3.1759935)">
    <g
       fill-rule="evenodd"
       id="g705">
      <path
         id="path27199"
         fill="url(#radialGradient2784)"
         d="m 396.95,109.21 0.8404,5.8617 10.085,7.8156 2.2411,8.9322 2.2411,1.1165 19.329,-14.236 c 7.7643,-1.3578 14.105,-2.5128 12.326,-2.5122 l -1.4007,-3.0704 -33.336,-3.3496 -12.326,-0.5583 z"
         style="fill:url(#radialGradient2784)" />
      <path
         id="path25431"
         fill="url(#linearGradient2781)"
         d="m 231.36,33.924 c 0,0 1.5847,-4.3422 5.9426,-6.316 4.3578,-1.9738 36.448,-9.8687 39.617,-9.8687 3.1693,0 41.202,-1.579 41.202,-1.579 l 0.7923,7.895 -55.068,2.7632 c 0,0 -8.3196,1.9738 -11.489,2.7632 -3.1693,0.7895 -9.5081,5.5265 -9.5081,5.5265 l -11.489,-1.1842 z"
         style="fill:url(#linearGradient2781)" />
      <path
         id="path24546"
         d="m 224.63,110.9 11.489,5.1317 25.355,-68.292 0.3961,-14.211 -13.866,-1.579 -5.5464,3.9475 -17.828,75.002 z"
         stroke="#000000"
         stroke-width="0.985"
         fill="url(#linearGradient2778)"
         style="fill:url(#linearGradient2778)" />
      <path
         id="path23663"
         fill="url(#linearGradient2775)"
         d="m 164.81,134.98 -29.713,73.818 18.224,4.3422 25.355,-67.897 -13.866,-10.264 z"
         style="fill:url(#linearGradient2775)" />
      <path
         id="path8703"
         fill="#c53034"
         d="m 397.73,112.14 c 0,0 -21.882,9.6191 -25.743,19.238 -3.8615,9.6191 -16.733,63.486 -20.594,68.616 -3.8614,5.1302 -6.4358,13.467 -6.4358,13.467 0,0 1.4661,20.627 0.64358,30.781 11.682,3.4029 16.733,4.4889 16.733,4.4889 0,0 -6.4358,-28.857 -3.2179,-33.346 3.2179,-4.4889 6.4358,-7.054 6.4358,-7.054 0,0 4.3708,-0.16104 23.169,0.64128 16.25,-14.429 36.04,-35.27 41.833,-58.356 5.7922,-23.086 1.9307,-32.705 1.9307,-32.705 0,0 -14.159,5.1302 -18.02,10.26 -3.8615,5.1302 -4.5317,4.0525 -4.5317,4.0525 0,0 0.67026,-5.9764 -3.8348,-10.465 -4.5051,-4.4889 -9.0101,-9.6191 -8.3665,-9.6191 z" />
      <path
         id="path8623"
         fill="#7d0000"
         d="m 128.26,126.51 c 0,0 25.875,-6.998 33.268,-4.4198 7.3928,2.5782 35.855,15.101 39.921,19.152 4.066,4.0514 25.875,25.414 28.092,32.412 2.2178,6.998 10.35,53.406 10.35,53.406 l -2.9571,2.2099 c 0,0 -20.045,-4.4061 -21.809,-5.5247 -4.066,-2.5782 -11.089,-19.521 -10.72,-26.15 0.36964,-6.6296 -11.089,-27.992 -14.416,-32.043 -3.3268,-4.0514 -21.069,-27.624 -31.789,-32.412 -10.72,-4.7881 -29.202,-5.893 -29.941,-6.6297 z" />
      <path
         id="path5804"
         fill="#c53034"
         d="m 57.277,148.05 c 1.2384,-4.223 28.961,-29.498 48.268,-35.911 19.307,-6.4127 53.417,-10.26 71.437,-1.9238 18.02,8.3366 42.285,24.178 52.13,44.166 8.2377,16.737 12.598,45.231 12.228,57.156 -0.28703,8.9733 -1.9307,18.597 -1.9307,18.597 0,0 -4.8615,-6.1302 -9.0101,-33.346 -1.1954,-7.8422 -2.734,-25.891 -19.868,-44.698 -17.668,-19.393 -46.159,-29.722 -55.8,-29.226 -21.482,1.1049 -42.107,9.1554 -53.047,14.286 -10.941,5.1302 -34.836,18.679 -40.641,16.114 -3.7672,-1.6645 -4.9043,-1.33 -3.7658,-5.2124 z" />
      <path
         id="path8699"
         fill="#343034"
         d="m 275.22,93.793 c 0,0 4.8284,8.2476 4.8284,14.433 v 13.746 c 0,0 4.8284,-10.31 8.967,-9.6222 4.1386,0.68729 5.5182,-1.3746 13.106,6.1857 7.5875,7.5603 29.451,23.107 28.092,25.596 -2.7808,5.0931 -8.7783,4.9775 -8.7783,4.9775 0,0 -11.036,-6.5185 -14.485,-8.5804 -3.4488,-2.0619 -7.5875,-2.7492 -7.5875,-2.7492 l 22.073,24.743 c 0,0 21.884,40.478 21.884,47.351 0,6.873 3.3035,10.049 8.8217,1.1142 5.5182,-8.9349 14.819,-49.153 16.889,-61.524 2.0693,-12.371 8.633,-20.431 18.98,-27.304 10.347,-6.873 14.819,-11.872 8.6113,-13.934 -6.2079,-2.0619 -28.97,-0.6873 -28.97,-0.6873 0,0 -40.268,9.6946 -48.545,8.32 -8.2772,-1.3746 -28.876,-15.808 -31.635,-19.244 -2.7591,-3.4365 -10.869,-3.5089 -12.249,-2.8216 z" />
      <path
         id="path8705"
         d="m 167.29,107.42 17.559,-60.263 c 0,0 19.51,-11.178 31.703,-11.664 12.194,-0.486 28.289,0.48599 30.24,3.402 1.951,2.91601 4.3897,4.3739 2.4387,9.7199 -1.951,5.3459 -26.338,68.525 -26.338,68.525 l -3.9019,4.3739 -26.338,-3.8879 -25.363,-10.206 z"
         stroke="#000000"
         stroke-width="0.985"
         fill="#c53034" />
      <path
         id="path8707"
         fill="#d23034"
         d="m 262.08,32.768 c -2.9875,4.1646 -3.3473,2.9746 -7.2691,5.4768 -1.6382,2.5454 -3.2247,8.0768 0.12695,11.354 1.4353,1.4035 8.8755,-1.8175 8.8755,-1.8175 0,0 11.758,-13.256 18.587,-18.602 8.5092,-1.9964 22.021,-2.9259 22.021,-2.9259 0,0 -4.305,-0.95706 -4.4622,-3.878 -0.26202,-4.8674 3.4142,-7.7759 3.4142,-7.7759 0,0 -13.088,-2.1746 -23.412,2.3676 -10.323,4.5422 -12.075,7.7064 -17.881,15.801 z" />
      <g
         stroke-width="0.985"
         stroke="#000000"
         id="g703">
        <path
           id="path9582"
           fill="#e02f2c"
           d="m 322.81,13.723 c 0,0 -1.3796,-3.7801 -3.1039,-3.7801 -1.7245,0 -3.104,7.9039 -3.104,10.653 0,2.7492 1.7244,9.2785 4.4835,9.2785 2.7591,0 2.7591,-3.4365 4.4835,-3.7801 1.7244,-0.34365 25.866,-3.0928 27.591,-3.4365 1.7244,-0.34365 5.5182,-2.4056 4.8284,-3.7802 -0.68979,-1.3746 -3.4488,-6.873 -3.4488,-6.873 l -31.73,1.7182 z" />
        <path
           id="path10457"
           fill="#bc2526"
           d="m 180.72,25.751 c 0,0 -2.7591,-2.0619 -4.4835,-2.0619 -1.7244,0 -4.8284,2.0619 -4.8284,2.0619 l -14.485,1.3746 c 0,0 -2.0693,-2.4056 -3.4488,-2.4056 -1.3796,0 -5.1733,3.4365 -5.1733,5.1547 0,1.7182 2.4142,9.2785 3.7937,9.2785 1.3796,0 5.5182,-2.0619 5.5182,-2.0619 l 13.45,-1.031 c 0,0 1.3796,3.0928 2.7591,3.0928 1.3796,0 5.1733,0 6.5528,-1.7182 1.3796,-1.7182 -1.7244,-2.4056 -1.7244,-2.4056 0,0 -3.4488,-0.68729 -3.7937,-2.7492 -0.34489,-2.0619 1.0346,-4.1238 2.4142,-4.4674 1.3795,-0.34365 4.1386,-1.7182 3.4488,-2.0619 z" />
      </g>
    </g>
    <path
       id="path11334"
       stroke-width="0.887"
       fill="#9b2526"
       d="m 357.3,16.472 c 3e-5,2.9708 -1.3321,5.4044 -3.0084,5.4958 -1.6763,0.09146 -3.0904,-2.1923 -3.1937,-5.1574 -0.10318,-2.9652 1.1419,-5.5393 2.8118,-5.8133 1.6699,-0.274 3.1607,1.8513 3.3668,4.7995" />
    <path
       id="path11336"
       fill-rule="evenodd"
       fill="#af0e0c"
       d="m 241.17,217.01 c 15.484,0.86269 32.969,3.6037 36.366,2.7576 3.3968,-0.84618 8.6418,-3.6037 9.4911,-7.8346 0.84921,-4.2308 -6.0544,-7.3964 -6.0544,-7.3964 l -21.64,-53.05 c 0,0 -3.7266,0.3683 -3.7266,-3.0164 0,-3.3847 5.0952,-11 7.6428,-15.231 2.5476,-4.2308 3.3968,-8.4616 3.3968,-8.4616 0,0 -15.286,-3.3847 -19.532,-3.3847 -4.246,0 -13.587,4.2308 -13.587,4.2308 l 3.3968,-8.4616 -11.04,-6.7693 -6.7937,11.846 -26.106,-4.0117 18.463,15.012 4.246,-7.6155 c 0,0 7.8627,2.2099 12.109,5.5945 4.246,3.3847 0.62935,3.7133 0.62935,3.7133 l -6.0942,11.11 c 0,0 13.737,17.66 13.737,26.968 0,9.3078 5.1669,18.919 5.0952,44 z" />
    <path
       id="path13090"
       fill="#ff3000"
       d="m 160.13,105.97 c -22.79,-1.5598 -43.01,1.1314 -62.256,10.584 -10.132,5.0673 -21.156,12.633 -29.351,20.326 -4.736,4.6326 -12.91,10.67 -10.519,15.054 6.9328,-1.3598 9.1513,-6.4472 16.93,-13.215 13.384,-11.644 28.418,-21.532 46.462,-23.763 11.704,-2.1078 21.121,-2.3414 35.527,-1.5816 3.292,0.17363 13.238,0.61696 14.423,-2.6621 -1.4627,-0.58993 -9.7034,-4.8926 -11.216,-4.7426 z" />
    <g
       fill="#ff0000"
       id="g714">
      <path
         id="path13969"
         d="m 218.44,36.559 c -9.2184,0.51857 -19.717,1.8751 -27.648,7.4474 -4.0633,3.2452 -8.5088,8.8518 -8.8516,14.42 -1.6005,3.9603 -3.5623,8.045 -4.4064,12.372 -1.0428,5.2617 -3.7615,10.036 -4.2907,15.412 -0.66072,5.0647 -1.4716,10.258 -4.209,14.68 -2.3819,4.349 2.0958,10.22 6.7962,7.3958 5.4874,-2.6107 6.5595,-9.2937 7.5663,-14.647 1.582,-7.9243 8.0864,-29.192 8.1149,-32.404 1.8099,-3.9983 3.6964,-9.9171 9.656,-12.208 8.4553,-3.2497 19.188,-3.0509 28.518,-0.29992 4.513,1.7579 1.2346,8.776 6.3524,9.5262 6.0544,0.61551 9.7434,-6.9173 7.2594,-11.911 -2.5642,-4.7803 -4.5643,-5.4482 -11.936,-8.6884 -5.2263,-1.835 -9.0795,-0.79313 -12.922,-1.0966 z" />
      <path
         id="path14848"
         d="m 168.59,29.18 c -1.8906,-0.19084 -3.7704,0.15815 -5.6446,0.33288 -2.6261,0.13378 -5.2619,-0.04417 -7.8843,0.06869 -1.0552,-0.06196 -1.6929,-1.0391 -2.6863,-1.2642 -1.1316,-0.30348 0.58925,-0.87562 0.88384,-1.2884 0.65166,-0.48781 1.3114,-0.97159 2.0317,-1.3554 -0.12682,0.92522 -0.86485,1.6266 -1.0626,2.5383 -0.35477,1.0587 -0.43722,2.1788 -0.57483,3.2793 l -4.2176,2.3469 c 0.21942,-1.7963 0.27542,-3.708 1.1858,-5.3222 0.9555,-1.6288 2.7094,-2.4851 4.244,-3.4589 1.0823,-0.58579 1.862,0.58559 2.7027,1.0475 0.85638,0.59254 1.9135,0.27073 2.878,0.34468 2.2081,-0.01569 4.4267,0.10943 6.6273,-0.10223 1.3491,-0.21083 2.7116,-0.30053 4.0756,-0.29903 0.51596,-0.08219 1.699,-0.0639 0.7263,0.46605 -1.095,0.8887 -2.1901,1.7774 -3.2851,2.6661 z" />
      <path
         id="path15725"
         d="m 301.93,14.791 c -2.3793,1.9128 -5.3695,3.2017 -8.4766,2.9037 -3.9132,-0.35942 -8.1461,0.37082 -12.018,1.3023 -5.5795,0.83958 -9.4953,5.9796 -11.922,9.1952 -2.8843,2.0928 -4.8442,6.4838 -7.4565,8.9105 -3.4068,3.4506 -6.9542,3.0338 -8.3617,3.4859 0.56216,-1.0517 2.3318,-2.8149 1.2894,-2.4086 2.6024,-1.5512 3.8228,-3.8672 6.3108,-5.5738 2.5593,-1.964 5.4416,-3.7063 7.105,-6.5684 1.2431,-1.8218 3.1276,-3.0631 4.3538,-4.9043 1.1669,-1.8838 3.3223,-2.6758 5.0968,-3.8684 2.3036,-1.4705 4.1902,-1.3098 6.8784,-1.6397 6.3012,-0.39183 6.8738,-0.44488 11.829,-1.0675 1.3817,0.22159 3.7391,-0.70939 4.5558,0.09628 -0.93195,0.81173 -0.73511,0.77758 0.81741,0.13682 z" />
      <path
         id="path16601"
         d="m 350.14,14.316 c -2.6203,0.29565 -5.2621,0.09379 -7.8788,0.39244 -2.0872,-9e-5 -4.1749,0.15492 -6.191,0.75326 -4.4678,1.2524 -19.161,-2.7604 -18.291,-4.5008 -0.13681,-1.3513 2.2405,-1.0156 3.8323,0.72831 1.217,1.4628 25.805,4.1575 -1.223,4.5719 -1.3356,2.8213 -1.5322,4.6356 -0.82385,7.5204 0.0894,1.2009 1.7251,2.891 2.402,5.0288 -0.93594,0.63776 -2.3846,1.386 -2.9242,-0.14558 -1.0625,-1.3949 -1.529,-3.1453 -1.5815,-4.9038 -0.23679,-2.7249 -0.60684,-5.3434 -0.28168,-8.0334 -0.88449,-3.6385 2.0142,-4.6794 4.2141,-5.3974 1.7962,0.48875 0.41348,3.7561 2.6741,4.0664 1.4208,0.41438 2.9177,-0.81341 4.3733,-0.67626 3.5365,0.06442 6.5188,-0.39544 10.28,-0.67173 1.8059,-0.47984 3.9313,-0.06935 5.7769,-0.14183 2.3804,-0.27935 4.784,0.005 7.156,-0.35667 1.5938,-0.08916 -0.91861,1.1292 -1.3727,1.6592 l -0.141,0.1067 z" />
    </g>
    <path
       id="path18376"
       fill="#dd0000"
       d="m 174.93,109.73 c 4.1689,1.7282 8.1234,4.1496 11.996,6.5956 3.6339,2.0281 7.59,3.0264 11.528,4.1322 5.0689,1.7461 8.2554,6.3274 12.296,9.4125 2.8621,3.5897 7.4734,5.4753 9.7649,9.6249 2.8048,4.2127 5.3943,9.4808 6.7006,14.526 2.2218,4.9241 3.394,8.9608 6.0686,13.745 2.1079,4.1989 5.6612,22.434 7.8254,26.632 2.0296,5.884 -2.7651,33.123 -1.3968,29.331 -0.29863,-5.5931 -5.446,-30.841 -6.4521,-37.47 -1.9177,-4.4123 -3.483,-17.604 -8.089,-27.584 -7.429,-10.012 -12.71,-21.182 -16.786,-23.803 -3.6013,-3.459 -7.0679,-7.1077 -11.208,-10.011 -3.6922,-2.4879 -20.796,-10.303 -25.953,-11.586 -1.0153,-1.0785 2.4683,-2.2167 3.3964,-3.321 l 0.2227,-0.1612 0.0862,-0.0624 z" />
    <path
       id="path18379"
       fill="#ee0000"
       d="m 424.53,121.4 c -5.1,3.9833 -8.4129,7.1693 -13.096,11.675 -5.7095,-8.8484 -10.353,-12.236 -16.038,-10.571 -10.276,1.5864 -19.69,13.028 -22.751,22.426 -6.2725,12.353 -5.549,31.248 -10.989,43.931 -2.0089,7.5074 -6.4858,17.608 -9.1406,24.89 4.9871,-2.6627 10.993,-8.823 13.184,-14.794 4.3971,-13.438 9.6209,-26.611 13.78,-40.134 3.6758,-7.3626 5.4765,-15.756 10.823,-22.214 5.1373,0.58188 14.099,6.3565 19.652,4.8402 10.087,-3.1812 11.322,-11.639 20.582,-16.32 5.023,-2.8277 0.0512,-6.6021 -3.4602,-5.2665 -0.87882,0.46162 -1.714,0.99936 -2.5467,1.5375 z" />
    <g
       stroke-width="0.887"
       id="g725">
      <path
         id="path19258"
         fill="url(#radialGradient2755)"
         d="m 129.37,112.29 c 0,6.3416 -15.922,18.547 -35.958,27.564 -20.035,9.0169 -36.938,11.584 -38.171,5.7976 -1.2334,-5.7865 13.648,-17.834 33.608,-27.207 19.96,-9.3731 37.778,-12.682 40.24,-7.4725"
         style="fill:url(#radialGradient2755)" />
      <path
         id="path20145"
         fill="url(#radialGradient2752)"
         d="m 395.06,137.28 c 5.3696,0.73659 5.9713,11.873 1.3589,25.15 -4.6124,13.277 -12.771,23.892 -18.424,23.972 -5.6535,0.0808 -6.7575,-10.402 -2.4932,-23.674 4.2644,-13.272 12.355,-24.532 18.271,-25.43"
         style="fill:url(#radialGradient2752)" />
      <path
         id="path21022"
         opacity="0.893"
         fill="url(#radialGradient2749)"
         d="m 271.68,28.227 c 0,2.8546 -3.5521,8.3487 -8.0218,12.408 -4.4697,4.0588 -8.2404,5.2144 -8.5156,2.6097 -0.27515,-2.6047 3.0448,-8.0277 7.4975,-12.247 4.4528,-4.2192 8.4279,-5.7086 8.9772,-3.3637"
         style="fill:url(#radialGradient2749)" />
      <path
         id="path21026"
         opacity="0.691"
         fill="url(#radialGradient2746)"
         d="m 301.68,18.147 c -1.7442,2.2645 -7.9191,4.4682 -13.945,4.9765 -6.0258,0.50835 -9.7233,-0.86244 -8.35,-3.0957 1.3733,-2.2332 7.3205,-4.5213 13.431,-5.1671 6.1104,-0.64583 10.174,0.5841 9.1768,2.7776"
         style="fill:url(#radialGradient2746)" />
      <path
         id="path21903"
         opacity="0.129"
         fill="url(#radialGradient2743)"
         d="m 393.58,109.3 c 0,6.3416 -15.922,18.547 -35.958,27.564 -20.035,9.0169 -36.938,11.584 -38.171,5.7976 -1.2334,-5.7865 13.648,-17.834 33.608,-27.207 19.96,-9.3731 37.778,-12.682 40.24,-7.4725"
         style="fill:url(#radialGradient2743)" />
      <path
         id="path22782"
         opacity="0.197"
         fill="url(#radialGradient2740)"
         d="m 374.63,127.14 c -2.001,6.02 -20.967,12.618 -42.832,14.901 -21.865,2.2828 -38.72,-0.57546 -38.065,-6.4549 0.655,-5.87944 18.583,-12.654 40.488,-15.298 21.905,-2.6448 39.864,-0.20353 40.557,5.5131"
         style="fill:url(#radialGradient2740)" />
      <path
         id="path22786"
         opacity="0.258"
         fill="url(#radialGradient2737)"
         d="m 348.18,118.09 c 13.807,-1.3816 15.413,9.7053 3.6269,25.038 -11.786,15.332 -32.701,29.365 -47.234,31.691 -14.532,2.3254 -17.426,-7.8976 -6.5347,-23.087 10.8913,-15.1894 31.629,-29.852 46.832,-33.112"
         style="fill:url(#radialGradient2737)" />
    </g>
    <g
       fill-rule="evenodd"
       id="g734">
      <path
         id="path26316"
         fill="url(#linearGradient2734)"
         d="m 209.57,37.872 c 0,0 0.79234,-5.5265 -1.9808,-7.1055 -2.7732,-1.579 -11.093,-5.5265 -19.808,-5.1318 -8.7157,0.39475 -13.074,4.3422 -13.074,4.3422 l 2.377,5.1317 c 0,0 5.1502,-0.7895 9.5081,0.7895 4.3579,1.579 5.9426,2.7632 8.3196,3.9475 2.377,1.1842 14.262,-1.9738 14.658,-1.9738 z"
         style="fill:url(#linearGradient2734)" />
      <path
         id="path2601"
         stroke-width="0.996"
         fill="url(#linearGradient2731)"
         d="m 263.49,120.66 11.377,-28.811 -0.4551,-8.5532 -8.1914,-5.402 0.4551,-4.9518 -2.2754,-7.6397 -6.8262,-5.8653 c 0,0 -6.3711,14.856 -8.1914,18.907 -1.8203,4.0515 -4.0957,11.704 -4.0957,11.704 l -5.0059,15.306 z"
         style="fill:url(#linearGradient2731)" />
      <g
         stroke-width="0.985"
         stroke="#000000"
         id="g732">
        <path
           id="path1702"
           fill="url(#linearGradient2728)"
           d="m 213.57,242.82 74.306,10.577 0.8492,24.539 -23.353,7.1924 -42.46,-16.077 -10.19,-13.116 0.8492,-13.116 z"
           style="fill:url(#linearGradient2728)" />
        <path
           id="path2585"
           fill="#373936"
           d="m 239.59,229.27 1.5012,-3.59 h 4.2034 l 18.315,23.634 c 0,0 -0.90073,22.138 0,24.532 0.90073,2.3933 3.9031,14.659 3.9031,14.659 0,0 -8.707,-22.138 -8.707,-25.728 0,-3.59 -0.90073,-10.471 -0.90073,-10.471 l -18.315,-23.036 z" />
        <path
           id="path2589"
           fill="url(#linearGradient2724)"
           d="m 229.98,228.67 9.9079,0.5983 18.315,22.736 c 0,0 0,22.736 5.4043,30.216 5.4043,7.4791 15.612,14.36 15.612,14.36 l -44.135,-8.9749 c 0,0 -9.0072,-13.462 -9.9079,-17.352 -0.90073,-3.8891 -4.5036,-21.241 -4.5036,-21.241 l 9.3074,-20.343 z"
           style="fill:url(#linearGradient2724)" />
      </g>
    </g>
    <g
       stroke-width="0.887"
       fill="#303232"
       id="g738">
      <path
         id="path30950"
         d="m 361.31,209.5 c -4.6875,14.752 -4.1776,20.337 1.535,39.342 -25.524,-16.75 -34.234,9.5194 -35.864,33.32 2.7342,73.029 22.765,83.256 56.56,83.679 35.219,0.4523 55.587,-42.09 57.675,-86.039 l -0.1464,-27.109 c -1.9936,-23.436 -9.5383,-45.383 -21.616,-51.408 -22.064,-11.006 -16.407,-5.4732 -29.378,6.3576 -9.9092,0.52843 -28.124,1.8562 -28.766,1.8564 z m 30.855,13.942 c 11.867,-0.34764 20.298,-2.1467 25.741,14.673 l 1.804,6.6521 c 6.9067,31.108 -2.7758,69.744 -23.841,88.432 -18.651,16.546 -31.774,-7.6653 -34.106,-20.563 -5.8751,-32.5 -3.0293,-47.424 13.965,-76.964 4.637,-8.0604 9.7798,-12.034 16.437,-12.229 z" />
      <path
         id="path30064"
         d="M 102.68,201.92 C 56.04,201.928 8.119,253.718 2.44,318.8 c -7.4593,85.888 37.203,126.68 98.611,126.68 61.408,0 102.52,-56.667 106.16,-116.75 l 2.6827,-30.663 c -6.9515,-64.081 -45.688,-92.924 -103.85,-96.045 -1.1173,-0.06 -2.2417,-0.0924 -3.361,-0.0922 z m 14.523,34.842 c 20.689,-0.47528 39.877,11.97 49.367,34.965 l 3.1452,9.0945 c 12.042,42.53 -4.8394,95.352 -41.566,120.9 -32.517,22.621 -64.939,8.4943 -78.537,-28.113 -15.327,-41.262 -0.79317,-86.755 31.079,-118.38 10.058,-9.9786 24.905,-18.206 36.511,-18.473 z" />
    </g>
    <g
       fill="none"
       id="g781">
      <g
         stroke-linejoin="bevel"
         stroke="#000000"
         id="g773">
        <line
           id="line1424"
           stroke-width="1.672"
           y2="411.89999"
           x2="108.87"
           y1="411.95001"
           x1="108.9" />
        <line
           id="line1490"
           stroke-width="0.695"
           y2="438.38"
           x2="154.24001"
           y1="438.39001"
           x1="154.27" />
        <g
           stroke-width="1.672"
           id="g749">
          <line
             id="line1540"
             y1="361.04999"
             x2="153.33"
             x1="153.42"
             y2="361.35999" />
          <path
             id="path1558"
             d="m 159.77,353.82 -0.0927,0.3156 m 6.4433,-7.5362 -0.0928,0.3156" />
          <line
             id="line1598"
             y1="361.41"
             x2="153.33"
             x1="153.35001"
             y2="361.35999" />
          <path
             id="path1602"
             d="m 178.82,332.17 -0.0918,0.3156 m 6.4433,-7.5352 -0.0927,0.3146" />
          <line
             id="line1630"
             y1="354.19"
             x2="159.67999"
             x1="159.7"
             y2="354.14001" />
          <line
             id="line1652"
             y1="346.97"
             x2="166.03"
             x1="166.05"
             y2="346.92001" />
          <line
             id="line1702"
             y1="332.53"
             x2="178.73"
             x1="178.75"
             y2="332.48001" />
        </g>
        <polyline
           id="polyline1776"
           stroke-width="0.706"
           points="66.033 435.58 66.033 435.58 65.504 435.71" />
        <polyline
           id="polyline1778"
           stroke-width="1.698"
           points="66.217 435.58 66.217 435.58 65.688 435.71" />
        <path
           id="path1782"
           stroke-width="0.695"
           d="m 66.628,435.55 -0.2566,0.0639 m 0.4144,-0.0275 -0.2556,0.0629" />
        <g
           stroke-width="1.672"
           id="g768">
          <path
             id="path2026"
             d="m 245.1,279.13 -0.0474,-0.007 c -0.0286,-9.8e-4 -0.0592,0.005 -0.0888,0.0108" />
          <path
             id="path2150"
             d="m 65.504,435.71 0.0789,-0.0118 c 0.03455,-0.002 0.07006,0.004 0.10558,0.01" />
          <path
             id="path2262"
             d="m 65.547,434.39 c -0.0592,-0.0403 -0.11742,-0.0806 -0.1786,-0.11697 -0.05032,-0.0305 -0.10262,-0.058 -0.15491,-0.0855 m 0.3345,0.2025 c -0.03059,-0.0334 -0.06217,-0.0669 -0.10263,-0.0895 l -0.0187,-0.01" />
          <path
             id="path2302"
             d="m 179.69,331.18 c 0.0405,-0.0147 0.0809,-0.0295 0.12137,-0.0432 0.0414,-0.0157 0.0819,-0.0295 0.12433,-0.0442 0.0424,-0.0158 0.0858,-0.0305 0.12828,-0.0462" />
          <path
             id="path2310"
             d="m 166.99,345.62 c 0.0404,-0.0148 0.0799,-0.0285 0.12038,-0.0433 0.0414,-0.0147 0.0829,-0.0285 0.12431,-0.0442 0.0424,-0.0157 0.0859,-0.0295 0.12828,-0.0452" />
          <path
             id="path2314"
             d="m 160.64,352.84 c 0.0405,-0.0147 0.0809,-0.0285 0.12038,-0.0432 0.0414,-0.0147 0.0829,-0.0295 0.12433,-0.0443 0.0434,-0.0157 0.0858,-0.0305 0.12926,-0.0462" />
          <path
             id="path2318"
             d="m 154.28,360.06 c 0.0395,-0.0147 0.0799,-0.0285 0.12039,-0.0433 0.0414,-0.0147 0.0829,-0.0305 0.12433,-0.0442 0.0424,-0.0157 0.0868,-0.0305 0.12826,-0.0462" />
          <path
             id="path2322"
             d="m 141.58,374.5 c 0.0404,-0.0147 0.0809,-0.0275 0.12135,-0.0423 0.0415,-0.0157 0.0829,-0.0295 0.12433,-0.0452 0.0424,-0.0147 0.0849,-0.0295 0.12828,-0.0462" />
          <path
             id="path2326"
             d="m 128.88,388.94 c 0.0405,-0.0147 0.0799,-0.0285 0.12039,-0.0432 0.0414,-0.0147 0.0829,-0.0295 0.12433,-0.0442 0.0434,-0.0157 0.0858,-0.0305 0.12826,-0.0452" />
          <path
             id="path2338"
             d="m 109.83,410.6 c 0.0405,-0.0138 0.0799,-0.0285 0.12038,-0.0433 0.0414,-0.0147 0.0829,-0.0285 0.12431,-0.0442 0.0424,-0.0158 0.0849,-0.0295 0.12828,-0.0453" />
          <path
             id="path2414"
             d="m 167.55,346.32 c 0.07,-0.10715 0.14011,-0.21432 0.15788,-0.33624 0.0168,-0.10422 -0.005,-0.21927 -0.0671,-0.3038 -0.0641,-0.0885 -0.17366,-0.14356 -0.28221,-0.19666 m -0.368,0.6637 c 0.0582,0.0197 0.11742,0.0393 0.17563,0.059 0.0612,0.0207 0.12334,0.0403 0.1855,0.058 0.0661,0.0206 0.13321,0.0384 0.19933,0.058 m -0.5605,-0.175 c 0.0582,-0.0639 0.11543,-0.12781 0.14208,-0.20941 0.0207,-0.062 0.0247,-0.13568 -0.005,-0.19074 -0.0276,-0.0541 -0.0858,-0.0924 -0.14307,-0.13077" />
          <path
             id="path2418"
             d="m 160.64,353.37 c 0.0582,0.0197 0.11742,0.0394 0.17563,0.058 0.0622,0.0206 0.12335,0.0403 0.18552,0.059 0.0651,0.0206 0.13222,0.0383 0.19931,0.057 m -0.5605,-0.174 c 0.0572,-0.0639 0.11545,-0.12875 0.14307,-0.20941 0.0207,-0.0619 0.0227,-0.13666 -0.006,-0.1907 -0.0276,-0.0551 -0.0849,-0.0934 -0.14308,-0.1308" />
          <path
             id="path2422"
             d="m 154.85,360.76 c 0.071,-0.10718 0.14012,-0.21436 0.15787,-0.33725 0.0158,-0.10324 -0.006,-0.21924 -0.0671,-0.3038 -0.0641,-0.0885 -0.17268,-0.14258 -0.28319,-0.19666 m -0.3681,0.6646 c 0.0592,0.0207 0.11743,0.0403 0.17664,0.06 0.0612,0.0197 0.12334,0.0393 0.1855,0.058 0.0661,0.0197 0.13222,0.0384 0.19833,0.058 m -0.5605,-0.176 c 0.0592,-0.0629 0.11545,-0.12781 0.14308,-0.20844 0.0207,-0.062 0.0237,-0.13567 -0.006,-0.19171 -0.0276,-0.0541 -0.0859,-0.0914 -0.14308,-0.12979" />
          <path
             id="path2436"
             d="m 142.15,375.2 c 0.0691,-0.1062 0.14012,-0.21335 0.15788,-0.33725 0.0158,-0.10324 -0.007,-0.21927 -0.0671,-0.30283 -0.0641,-0.0885 -0.17366,-0.14255 -0.2832,-0.19763 m -0.368,0.6647 c 0.0592,0.0197 0.11742,0.0393 0.17564,0.059 0.0622,0.0206 0.12334,0.0393 0.1855,0.058 0.0661,0.0207 0.13222,0.0383 0.19931,0.058 m -0.5605,-0.175 c 0.0582,-0.0639 0.11545,-0.12784 0.14308,-0.20847 0.0217,-0.062 0.0237,-0.13666 -0.006,-0.19269 -0.0276,-0.0531 -0.0849,-0.0915 -0.14308,-0.12979" />
        </g>
        <path
           id="path2482"
           stroke-width="0.419"
           d="m 110.4,411.3 c 0.0701,-0.10715 0.14012,-0.21432 0.15788,-0.33722 0.0158,-0.10223 -0.006,-0.21826 -0.0671,-0.30283 -0.0651,-0.0885 -0.17366,-0.14258 -0.2832,-0.19666 m -0.368,0.6637 c 0.0592,0.0197 0.11742,0.0393 0.17564,0.059 0.0622,0.0207 0.12334,0.0393 0.1855,0.058 0.0661,0.0207 0.13222,0.0384 0.19932,0.058" />
        <path
           id="path2484"
           stroke-width="1.672"
           d="m 109.84,411.13 c 0.0582,-0.0639 0.11546,-0.12878 0.14308,-0.20844 0.0207,-0.0629 0.0237,-0.13666 -0.006,-0.19269 -0.0286,-0.0541 -0.0849,-0.0915 -0.14308,-0.12979" />
        <path
           id="path2486"
           stroke-width="0.419"
           d="m 154.04,426.11 c -0.01,0.0561 -0.0187,0.10916 -0.0276,0.16519 -0.009,0.058 -0.0168,0.11505 -0.0227,0.17304 -0.006,0.0619 -0.0118,0.12289 -0.0168,0.18484 m 0.002,0 c 0.16084,0.007 0.32167,0.0138 0.47856,-0.009 0.1796,-0.0246 0.35522,-0.0875 0.51015,-0.176 0.14702,-0.0836 0.27528,-0.18976 0.40456,-0.29593 m -0.3927,-0.3638 c 0.0424,0.0364 0.0868,0.0738 0.12926,0.11112 0.0444,0.0393 0.0888,0.0786 0.13123,0.11993 0.0454,0.0433 0.0898,0.0875 0.1342,0.13178" />
      </g>
      <path
         id="path2504"
         d="m 228.1,276.03 7.287,11.552 17.554,3.6289 26.498,4.9513 6.2924,0.3294 12.255,-1.3204 10.268,-0.9901 c 0,0 10.268,-1.9801 10.598,-1.9801 0.33154,0 -83.466,-22.112 -83.466,-22.112 l -7.286,5.9414 z" />
      <path
         id="path2506"
         d="m 206.65,283.8 3.3628,30.156 -2.9424,25.968 -12.19,36.019 -11.349,19.685 -23.539,28.062 -26.902,17.172 -36.15,5.8637 -29.844,-6.2835 c 0,0 -21.438,-8.3768 -21.438,-8.7946 0,-0.41785 23.959,-29.319 23.959,-29.319 l 21.017,11.309 18.075,-2.9309 19.336,-8.7956 11.77,-9.6333 c 0,0 10.929,-13.822 11.349,-13.822 0.42033,0 10.088,-16.335 10.088,-16.335 l 7.1459,-17.172 3.3628,-15.916 34.89,-45.235 z" />
      <g
         stroke-linecap="round"
         stroke="#000000"
         id="g779">
        <path
           id="path2508"
           stroke-width="0.695"
           d="m 91.901,414.48 c 36.926,9.6274 77.199,-21.933 89.951,-70.49 12.752,-48.559 -6.8469,-95.728 -43.773,-105.36" />
        <path
           id="path2510"
           stroke-width="1.672"
           d="m 138.08,238.64 c -36.926,-9.6274 -77.199,21.933 -89.951,70.49 -12.751,48.559 6.8469,95.728 43.774,105.36" />
      </g>
    </g>
    <path
       id="path2512"
       d="m 178.35,276.91 c -8.5144,-20.494 -23.44,-33.018 -40.485,-37.462 l 0.4243,-1.6164 c 17.177,4.4794 31.967,18.046 40.548,38.695 l -0.4865,0.3825" />
    <path
       id="path2514"
       d="m 92.114,413.68 c 18.294,4.7695 37.582,-0.26446 53.711,-12.902 l 0.2358,0.5683 c -16.427,12.874 -35.738,18.806 -54.372,13.95 l 0.4243,-1.6154" />
    <path
       id="path2518"
       d="M 145.78,209.31 C 96.534,196.47 42.83,238.559 25.82,303.316 c -17.005,64.757 9.1312,127.66 58.378,140.5"
       stroke="#000000"
       stroke-linecap="round"
       stroke-width="0.695"
       fill="none" />
    <path
       id="path2520"
       d="m 145.57,210.11 c -24.453,-6.375 -50.18,0.48668 -71.74,17.381 l -0.2368,-0.5683 c 21.858,-17.129 47.608,-24.89 72.4,-18.427 l -0.4233,1.6144" />
    <g
       stroke-width="1.672"
       stroke-linecap="round"
       stroke="#000000"
       id="g789">
      <path
         id="path2524"
         fill="none"
         d="m 64.395,438.88 c 1.4169,0.36969 2.8368,0.69315 4.0584,0.93012 m 59.034,-235.03 c -0.521,-0.14845 -1.043,-0.29004 -1.486,-0.40506 -49.244,-12.845 -102.96,29.238 -119.97,93.993 -17.012,64.755 9.1183,127.66 58.362,140.51 m 0.7489,0.1917 19.795,4.9307 m 40.314,-239.82 19.789,4.9297 m -59.069,203.44 c 35.485,4.094 70.864,-27.253 82.687,-71.848 12.018,-45.766 -4.7018,-90.3 -37.839,-103.42 m -78.918,140.34 51.227,-37.544 m -9.1035,-3.3419 -46.5,28.17 m -2.7313,-15.29 61.21,-41.525 m -61.722,28.189 54.055,4.2749 m -3.8334,-14.323 -27.294,74.057 m -8.6131,-10.382 61.302,-42.668 m -14.375,0.4768 -27.794,60.763 m 9.8426,4.677 17.95,-65.44 m -5.7487,65.407 23.477,-54.425 m -13.416,52.516 -9.5831,-51.084 m 22.04,47.264 -5.7497,-43.923 m 15.333,39.15 -6.2292,-37.239 m 19.166,29.6 -6.2292,-41.058 m 15.812,31.032 -23.957,-19.096 m 31.143,6.2069 -22.999,-18.142 m -68.996,-85.938 28.748,72.569 m -37.688,-61.451 46.313,49.993 m -52.54,-37.938 57.81,21.706 m -63.5,-5.9453 63.5,5.9453 m -66.708,8.949 57.604,18.264 m -25.047,-82.889 40.859,44.695 m -27.562,-54.946 22.77,71.179 m -11.793,-76.739 9.3976,89.63 m 1.7722,-92.969 -9.438,95.833 m 20.416,-96.942 -10.354,81.187 m 12.285,-81.157 3.047,80.68 m 10.59,-78.444 -27.84,73.669 m 35.936,-66.361 -27.79,64.929 m 36.415,-55.859 -48.393,46.31" />
      <path
         id="path2526"
         fill="#ffffff"
         d="m 113.74,374.42 c 18.094,4.7174 37.827,-10.747 44.075,-34.539 6.2479,-23.792 -3.3549,-46.905 -21.448,-51.622 -18.094,-4.7174 -37.826,10.747 -44.074,34.539 -6.248,23.792 3.3549,46.905 21.447,51.622" />
    </g>
    <path
       id="path28300"
       d="m 158.93,336.1 c -3.4887,23.543 -20.914,40.626 -39.352,38.581 -18.438,-2.0455 -31.221,-22.481 -28.867,-46.149 2.3536,-23.668 18.992,-42.01 37.575,-41.422 18.583,0.58844 32.39,19.894 31.18,43.599"
       stroke="#140000"
       stroke-width="0.778"
       fill="#857979" />
    <path
       id="path2528"
       d="m 140.72,289.82 c -16.844,-0.55454 -32.841,14.615 -38.366,35.363 -5.7052,21.726 1.8067,42.886 17.099,50.061"
       stroke="#000000"
       stroke-linecap="round"
       stroke-width="0.695"
       fill="none" />
    <polygon
       id="polygon2530"
       points="146.3,287.17 139.13,314.57 104.08,333.87 "
       fill="#ffffff" />
    <polyline
       id="polyline2532"
       stroke-linecap="round"
       stroke="#000000"
       points="146.3 287.17 139.13 314.57 104.08 333.87"
       stroke-width="0.706"
       fill="none" />
    <polygon
       id="polygon2534"
       points="129.17,339.98 140.72,349.5 154.67,350.3 135.94,321.32 "
       fill="#ffffff" />
    <polyline
       id="polyline2536"
       stroke-linecap="round"
       stroke="#000000"
       points="135.94 321.32 129.17 339.98 140.72 349.5 154.67 350.3"
       stroke-width="0.706"
       fill="none" />
    <polygon
       id="polygon2538"
       points="150.68,318.94 183.36,238.34 "
       fill="#ffffff" />
    <g
       stroke-linecap="round"
       stroke="#000000"
       id="g808">
      <g
         fill="none"
         id="g800">
        <line
           id="line2540"
           stroke-width="0.695"
           y2="318.94"
           x2="150.67999"
           y1="238.34"
           x1="183.36" />
        <path
           id="path2542"
           stroke-width="1.672"
           d="m 58.835,152.05 c 0,0 0,5.0497 18.752,-2.5248 18.752,-7.5745 53.756,-33.28 86.664,-25.25 24.833,6.0604 53.721,27.775 61.83,52.015 8.1089,24.239 6.5884,49.488 13.684,52.518 m -180.93,-76.758 c -4.0544,-3.0302 -1.5205,-6.5657 10.643,-16.664 12.163,-10.1 55.749,-48.479 118.59,-19.694 62.844,28.783 55.242,112.11 51.694,113.12 m 0,-10e-4 c 0,0 -15.204,-0.50537 -21.793,-3.5356 -6.5884,-3.0292 -7.0945,-5.0496 -10.643,-19.19 -3.5473,-14.139 -22.109,-79.556 -79.885,-79.051" />
      </g>
      <path
         id="path2544"
         stroke-width="1.672"
         fill="url(#linearGradient2671)"
         d="m 228.61,131.85 -42.064,113.62 c 0,0 -9.216,-34.427 -9.1687,-31.353 l 37.55,-87.824 c 0,9.9e-4 6.0812,-4.5433 13.683,5.556"
         style="fill:url(#linearGradient2671)" />
      <g
         fill="none"
         id="g806">
        <polyline
           id="polyline2548"
           stroke-width="1.698"
           points="177.38 214.12 147.9 282.81 137.14 283.6 126.78 312.58 103.27 330.45" />
        <path
           id="path2550"
           stroke-width="0.695"
           d="m 103.27,330.45 c 0,0 -0.79727,20.249 3.5858,24.615" />
        <path
           id="path2552"
           stroke-width="1.672"
           d="m 106.86,355.06 c 4.383,4.3663 53.789,3.9701 53.789,3.9701 l 2.3909,-5.9561 -7.1725,-7.543 5.1803,-4.7645 1.5936,-21.836 26.297,-67.889 -1.1949,-31.364 c 0,0 -0.79727,-2.3823 -10.36,-5.558" />
      </g>
    </g>
    <polygon
       id="polygon2554"
       points="162.8,137.44 135.83,206.66 "
       fill="#ffffff" />
    <line
       id="line2556"
       stroke-width="1.672"
       y2="137.44"
       x2="162.8"
       stroke="#000000"
       stroke-linecap="round"
       y1="206.66"
       x1="135.83"
       fill="none" />
    <polygon
       id="polygon2558"
       points="176.28,149.65 153.4,211.95 "
       fill="#ffffff" />
    <g
       stroke-linecap="round"
       stroke="#000000"
       fill="none"
       id="g827">
      <path
         id="path2560"
         stroke-width="1.672"
         d="m 153.4,211.95 22.883,-62.294 m -55.467,87.819 -32.985,86.217 c 0,0 -0.95615,9.0502 2.8684,12.385 m 69.947,22.958 8.249,3.7981 m -7.8514,-22.061 13.797,4.8245 m -12.434,-16.161 15.136,3.7705 m -15.136,-3.7705 13.515,-11.312 m -9.1894,-5.9247 9.1894,-7.542 m 8.5174,-255.6 c 6.8202,-14.95 71.952,-22.085 65.473,-1.699 -6.4788,20.386 -27.28,71.015 -27.28,71.015 0,0 0.34041,7.136 -28.645,-0.34019 m -9.5485,-68.976 -16.027,58.443 m 68.202,11.212 -5.1162,13.931 -3.4101,2.3783 m 8.5263,-16.309 c 0,0 -0.34142,-4.4165 -9.5486,-7.4762 m 8.1849,5.0978 23.87,-65.238" />
      <path
         id="path2562"
         stroke-width="2.792"
         d="m 186.95,28.946 c 23.85,8.7553 22.595,97.562 -43.308,253.29 m 36.866,-254.96 c 0,1.2506 29.665,-5.2109 29.665,9.1732" />
      <path
         id="path2564"
         stroke-width="1.672"
         d="m 304.09,26.627 -18.962,1.5426 c 0,0 -3.8689,0.77181 -8.9002,6.5549 -5.0313,5.7841 -11.61,15.038 -20.509,14.652 m 47.354,-35.173 -20.397,1.7422 c 0,0 -1.3617,0.18385 -3.717,1.2024 -2.3731,1.0264 -6.9466,3.39 -12.184,9.4121 l -1.9508,2.2918 c -2.2044,2.6172 -4.608,5.8677 -7.6718,7.6659 -0.29306,0.17206 -0.57428,0.3687 -0.90878,0.40606" />
      <path
         id="path2566"
         stroke-width="0.695"
         d="m 257.15,36.518 c -4.9168,2.0618 -7.3965,13.596 1.9695,14.577" />
      <path
         id="path2568"
         stroke-width="1.672"
         d="m 303.07,14.205 c -5.5612,2.398 -4.7866,12.037 1.0173,12.423 m -3.4822,-9.2538 15.48,-0.7708 m -15.046,8.0651 16.211,-1.055 m 6.1868,-9.3236 c -0.77359,-5.7841 -7.7399,-8.483 -6.9663,5.7831 m 0.227,0.3589 c 0,0 3.2562,17.379 8.2855,5.0398 m -21.913,-11.266 c 0,0 2.0021,-0.9537 2.6435,2.5543 m -1.0894,10.141 c 0.0642,0 1.3439,-0.44637 1.6005,-1.9133 m 15.002,-11.206 32.233,-2.4934 m -31.196,14.129 32.566,-3.1187 m 0,0.001 c 4.7915,-0.38935 2.9345,-10.621 -1.3696,-11.011" />
      <path
         id="path2570"
         stroke-width="0.695"
         d="m 353.46,11.287 c -3.269,3.4431 -2.3346,9.5527 1.3696,11.011 m -33.006,-4.7173 c -1.4308,1.9005 -1.192,3.5631 -0.47659,4.9887" />
      <path
         id="path2572"
         stroke-width="1.672"
         d="m 275.15,18.559 c 0,0 -42.264,3.8787 -43.655,16.346 m 34.858,-7.8449 c -0.33548,0.05309 -0.6759,0.10815 -1.0213,0.16419 -7.2771,1.1946 -16.934,3.1688 -23.259,6.4468 -1.4919,0.77278 -2.8349,1.4296 -3.4131,2.459 m -60.427,-8.4751 c 0,0 18.983,-3.0262 23.918,10.214 m -22.679,-2.4963 c 0,0 1.5521,-0.22712 3.7545,-0.19664 2.7619,0.03933 6.7452,0.29594 9.5831,2.6025 0.84265,0.6843 1.5373,1.6036 1.9873,2.8119 m -16.564,-12.936 c -4.1758,0.75706 -2.5152,7.9147 1.2393,7.718 m 1.039,-8.0966 c -2.2784,-5.674 -9.8554,-3.7233 -9.8554,3.8659 0,7.6512 6.1749,11.934 12.572,4.034 m -12.348,1.5348 -14.746,1.3116 c -0.5269,2.8866 -7.3728,1.8366 -6.8459,-6.2973 0.52692,-8.1329 6.5824,-7.0839 7.3728,-5.5098 0.78938,1.5741 14.746,-0.26252 14.746,-0.26252 m 89.357,7.7564 c 0,0 -15.158,-4.0075 -17.634,2.4658 m -3.3647,192.64 18.339,23.278 c 0,0 0,44.472 27.702,43.961 27.702,-0.51224 45.146,-9.2007 45.146,-9.2007 m -51.815,9.2007 c -0.51312,0 -42.58,-8.6904 -42.58,-8.6904 0,0 -13.851,-10.223 -15.39,-38.338 l 8.7858,-20.282 m -7.7596,15.681 -8.2076,-1.0215 -0.5131,12.778 9.7469,12.269 m 42.066,15.846 24.625,-6.6454 -0.5131,-23.003 -25.138,-5.6229" />
      <path
         id="path2574"
         stroke-width="0.695"
         d="m 264.26,249.02 c 0,0 -3.5917,21.469 2.0514,32.203 m 17.443,-25.048 1.0252,21.47" />
      <path
         id="path2576"
         stroke-width="1.672"
         d="m 264.26,249.02 -18.982,-23.514 -4.6021,0.3549 m 10.104,6.7811 27.844,4.1097 c 0,0 9.7469,0.51222 14.365,-3.0666 4.6169,-3.5778 2.0514,-29.137 2.0514,-29.137 l -19.306,-16.085 m 5.9677,17.106 c 0.51309,0 -21.546,-52.651 -21.546,-52.651 0,0 -8.7217,-4.6013 1.0252,-16.869 9.7479,-12.268 10.26,-36.805 4.1038,-41.404 m -18.468,-7.1576 22.534,17.202 m -29.203,0.178 c 0,0.51224 26.441,19.404 26.441,19.404 0,0 -24.141,-6.5156 -31.058,0.53093 m 33.858,91.5 c 0,0 -3.8078,-37.236 -5.5898,-54.667 m -1.5916,52.623 -8.2076,-80.765 m 1.0252,78.721 -8.2086,-81.277 m 0.5141,81.277 -7.6955,-83.834 m -1.7731,50.335 c -1.8442,-18.035 -5.4092,-52.892 -5.4092,-52.892 m 32.832,-31.181 2.2991,-4.911 c 0,0 9.6936,3.8639 11.355,11.59 1.6616,7.7269 3.047,11.314 1.6616,19.041 m -10e-4,10e-4 c 0,0 7.7547,-12.142 14.402,-6.9 6.6466,5.2443 32.403,26.769 32.403,26.769 0,0 7.2011,4.9671 0,7.7259 0,0 -2.7697,4.1392 -10.524,-1.1031 -7.7537,-5.2443 -16.894,-16.833 -34.064,-1.932 m -9.4163,-51.053 c 7.2001,-1.3794 10.523,-1.1041 17.724,6.3475 7.2011,7.4506 21.602,18.49 37.942,16.004 16.34,-2.4826 31.019,-5.5186 37.942,-7.7259 6.9229,-2.2073 18.556,-1.6557 26.034,-0.82785 7.4774,0.82785 9.9699,6.0712 -3.047,13.246 -13.016,7.1763 -16.894,13.799 -20.217,26.492 -3.3233,12.694 -11.078,64.574 -23.264,68.162 m 17.171,-6.6228 23.818,-0.8278 c 0,0 2.4925,0.55255 7.4784,-4.1392 4.9849,-4.6908 45.974,-46.361 37.388,-84.719 m -33.788,-3.863 c 0,0 10.523,4.4155 10.523,11.866 0,7.4516 3.3233,6.3474 5.5395,1.932 2.2152,-4.4155 9.1391,-9.1073 25.756,-12.418 6.9238,-0.27626 12.186,-5.7959 -40.711,-7.7269" />
      <path
         id="path2578"
         stroke-width="0.695"
         d="m 278.66,124.23 c 0,0.27529 -2.7698,11.038 -11.909,17.108" />
      <path
         id="path2580"
         stroke-width="1.672"
         d="m 273.4,93.876 c 0,0 4.1541,-7.1743 0.27628,-10.762 -3.87782,-3.5877 -17.448,-14.626 -25.756,-1.3794" />
      <path
         id="path2582"
         stroke-width="2.792"
         d="m 256.78,59.107 c 0,0 13.294,4.6908 9.9698,17.386" />
      <path
         id="path2584"
         stroke-width="1.672"
         d="m 300.52,138.22 c 0,0 34.748,36.902 40.692,61.96 5.943,25.056 5.4872,39.181 3.6578,47.836 m 2.2862,-4.5561 c 1.3725,0.45621 15.546,5.0113 15.546,5.0113 m 0.9867,-39.516 c -5.1024,3.0695 -9.6739,14.459 -0.98672,39.515" />
      <line
         id="line2586"
         stroke-width="0.695"
         y2="203.82001"
         x2="356.76001"
         y1="212.48"
         x1="359.95999" />
    </g>
    <path
       id="path28303"
       d="m 425.61,279.96 c 0,19.757 -14.511,35.188 -29.705,31.302 -15.043,-3.8477 -20.695,-10.263 -20.695,-30.02 0,-19.757 5.7506,-33.054 21.338,-31.302 22.823,2.5651 27.07,7.5534 28.846,25.623"
       stroke="#140000"
       stroke-width="0.464"
       fill="#857979" />
    <g
       stroke-linecap="round"
       stroke="#000000"
       fill="none"
       id="g840">
      <path
         id="path2588"
         stroke-width="1.672"
         d="m 344.87,248.01 62.182,23.235 6.4009,5.0123 h 8.2303 l 2.7431,7.7446 -6.8587,6.378 -71.783,-22.323 -5.944,-1.3676 v 6.3779 c 0,0 -8.6871,6.378 -8.2302,6.378 0.45782,0 -0.65619,7.4024 -0.65619,7.4024" />
      <path
         id="path2590"
         stroke-width="0.695"
         d="m 341.21,263.05 2.7431,-10.934 m 1.8294,11.846 2.7431,-10.934" />
      <path
         id="path2592"
         stroke-width="1.672"
         d="m 282.82,144.93 c 26.387,29.277 50.62,56.157 51.992,76.658 1.3716,20.502 -8.2303,28.701 -6.4009,34.169 1.8294,5.4675 -1.3726,13.667 -4.5725,16.858" />
      <g
         stroke-width="0.695"
         id="g835">
        <path
           id="path2594"
           d="m 285.16,142.84 c 18.653,20.697 36.211,40.232 45.56,57.176 4.2202,7.6502 6.7916,14.822 7.2287,21.367 0.8782,13.116 -2.4856,21.456 -4.8478,27.27 -0.87225,2.1453 -1.635,3.8472 -1.7653,5.321 -0.0247,0.28217 -0.0247,0.54762 0.0582,0.7954 0.68478,2.046 0.8407,4.3968 0.56439,6.7958 -0.48743,4.2484 -2.3504,8.6305 -4.4314,11.521 m 9.6235,-15.446 c 1.4761,0.27432 3.0598,-1.5692 3.5354,-4.1176 0.47659,-2.5474 -0.33353,-4.8353 -1.8097,-5.1086 -1.4761,-0.27431 -3.0598,1.5692 -3.5364,4.1166 -0.47562,2.5474 0.3345,4.8363 1.8106,5.1096" />
        <path
           id="path2612"
           d="m 311.13,279.89 c -5.0224,0 -2.5112,2.5022 -7.3047,4.3221 -4.7935,1.8199 -2.2823,2.5022 -2.7391,4.3221 -0.45587,1.8199 -2.7382,3.6388 -2.9671,1.1366 -0.22894,-2.5022 -2.5112,-2.7293 -6.62,-2.2741 -4.1087,0.45523 -14.153,-1.3647 -10.957,-6.141 m 34.011,0.2261 c -4.1087,1.3647 -2.7391,3.1846 -7.3037,4.3221 -4.5656,1.1366 -3.196,4.5492 -2.0544,5.6858" />
      </g>
      <path
         id="path31940"
         stroke-width="1.114"
         d="m 281.7,205.57 c 0,0 4.5488,-0.66858 4.755,4.4686 0.20624,5.1381 -4.7442,8.8369 -5.7753,8.014 -1.0311,-0.82194 -1.4436,3.9052 -13.405,1.6449 -11.96,-2.2613 -24.746,-3.6997 -23.921,-3.2888" />
      <path
         id="path2618"
         stroke-width="1.672"
         d="m 313.5,181.81 c -2.753,-3.2013 -7.6623,-0.41325 -7.5721,7.545 0.0904,7.788 5.5069,5.031 3.2128,10.061 -2.2951,5.03 14.686,5.9453 14.686,5.9453 l -0.2289,30.641 m 80.228,75.059 c 9.3413,1.4905 19.014,-10.374 21.603,-26.495 2.5892,-16.122 -2.8852,-30.401 -12.228,-31.891" />
      <path
         id="path2620"
         stroke-width="0.695"
         d="m 413.21,252.67 c -6.69,-1.0668 -13.551,4.7154 -17.929,14.173 m -4.0663,15.339 c -1.5097,15.129 4.014,27.458 12.619,28.874" />
    </g>
    <path
       id="path2622"
       d="m 413.07,253.5 c -4.5389,-0.72363 -9.3009,1.4237 -13.099,6.084 l -0.2032,-0.5289 c 4.0199,-4.9307 8.7651,-7.9688 13.568,-7.2028 l -0.2654,1.6478" />
    <path
       id="path2624"
       d="m 393.42,300.38 c 2.3592,6.1538 6.2627,9.1702 10.541,9.8525 l -0.2654,1.6488 c -4.3791,-0.69907 -8.2184,-4.7626 -10.634,-11.062 l 0.3582,-0.4395" />
    <g
       stroke-linecap="round"
       stroke="#000000"
       fill="none"
       id="g847">
      <path
         id="path2626"
         stroke-width="1.672"
         d="m 413.21,252.67 -19.531,-2.3351 m 10.156,60.721 -17.188,-3.5031" />
      <path
         id="path2628"
         stroke-width="0.695"
         d="m 400.68,251.18 c -1.5216,-1.1238 -3.1338,-1.7874 -4.6613,-2.0037" />
      <path
         id="path2630"
         stroke-width="1.672"
         d="m 396.02,249.17 c -6.0901,-0.97139 -12.32,3.7332 -16.7,11.712 m -5.2948,17.8 c -1.5087,15.128 4.014,27.456 12.619,28.874" />
    </g>
    <path
       id="path2632"
       d="m 400.57,251.49 c -1.5038,-1.11 -3.1743,-1.286 -4.683,-1.4984 l 0.2654,-1.6488 c 1.5442,0.21924 3.0983,1.3725 4.6376,2.5101 l -0.22,0.6371" />
    <g
       stroke-linecap="round"
       stroke="#000000"
       fill="none"
       id="g852">
      <path
         id="path2634"
         stroke-width="0.695"
         d="m 385.47,340.64 c 18.212,2.4747 36.649,-22.357 41.178,-55.462 4.531,-33.105 -6.5598,-61.949 -24.771,-64.424" />
      <path
         id="path2636"
         stroke-width="1.672"
         d="m 401.88,220.76 c -14.114,-1.9162 -28.362,12.566 -36.301,34.993 m -4.3643,17.108 c -0.19833,1.1778 -0.37793,2.3528 -0.5141,3.3615 -4.531,33.105 6.5598,61.949 24.771,64.422" />
    </g>
    <path
       id="path2638"
       d="m 422.62,241.71 c -4.8093,-12.507 -12.47,-18.982 -20.86,-20.123 l 0.226,-1.6547 c 8.4878,1.1533 16.103,8.6756 20.968,21.327 l -0.3335,0.4503" />
    <path
       id="path2640"
       d="m 385.58,339.82 c 8.9802,1.2202 18.156,-3.9249 25.506,-13.824 l 0.2013,0.5221 c -7.5544,10.176 -16.702,16.209 -25.933,14.955 l 0.226,-1.6537" />
    <g
       stroke-linecap="round"
       stroke="#000000"
       fill="none"
       id="g858">
      <path
         id="path2642"
         stroke-width="1.672"
         d="m 375.94,336.53 c 11.324,0.17697 22.344,-9.7808 30.033,-25.352 m 9.0798,-58.027 c -2.1461,-15.463 -7.8681,-26.787 -15.366,-32.556 m -6.7946,88.522 -21.485,21.797 m 15.235,7.7849 v -31.139 m 3.125,1.5564 10.938,21.02 m 0,-17.906 -5.8592,21.02 m -20.314,-39.313 0.3907,39.702 m 3.125,-29.972 -12.501,13.234 m 25.392,-66.559 -5.8592,-23.355 m 4.2962,-2.7244 c 0,0.38933 -10.059,36.624 -10.059,36.624 m -3.6134,-22.222 c 0.39078,0.38934 10.156,13.234 10.156,13.234 m 5.0787,-1.5564 11.328,-27.247 m -6.6397,-1.167 c 0.39075,0 5.0501,29.251 5.0501,29.251 m -4.6603,-2.0047 17.969,-16.348 m -5.8592,-5.8392 -2.7342,25.3 m -23.427,113.96 c 25.99,3.5316 52.303,-31.907 58.769,-79.156 6.466,-47.247 -9.3621,-88.412 -35.353,-91.945" />
      <path
         id="path2644"
         stroke-width="0.695"
         d="m 405.38,195.15 c -0.67886,-0.0915 -1.3557,-0.15732 -1.9379,-0.18977 m -28.781,13.611 c -6.3752,6.6355 -11.867,15.108 -16.089,24.233 m -11.23,36.703 c -0.28317,1.6822 -0.53775,3.3586 -0.73215,4.799 -6.466,47.247 9.363,88.412 35.354,91.944" />
    </g>
    <path
       id="path2646"
       d="m 352.29,336.45 c 6.8755,17.881 17.798,27.345 29.794,28.976 l -0.226,1.6547 c -12.092,-1.6439 -22.971,-12.156 -29.903,-30.181 l 0.3345,-0.4503" />
    <g
       stroke-linecap="round"
       stroke="#000000"
       fill="none"
       id="g866">
      <path
         id="path2648"
         stroke-width="0.695"
         d="m 364.63,364.07 c 0.10361,0.0147 0.20819,0.0275 0.29599,0.0383" />
      <g
         stroke-width="1.672"
         id="g864">
        <path
           id="path2650"
           d="m 327.92,288.17 c -1.3331,41.464 14.373,72.665 36.71,75.901 m 0.2565,0.0344 17.34,2.1807" />
        <path
           id="path2516"
           d="m 84.199,443.82 c 49.246,12.84 102.95,-29.25 119.96,-94.006 17.005,-64.757 -9.1312,-127.66 -58.377,-140.5" />
      </g>
    </g>
    <path
       id="path2546"
       fill="#ffffff"
       d="m 177.38,214.12 -29.484,68.683 -10.758,0.7944 -12.189,28.201 -21.678,18.647 c 0,0 -0.79727,20.249 3.5858,24.615 4.383,4.3663 53.789,3.9701 53.789,3.9701 l 2.3908,-5.9561 -7.1725,-7.543 5.1803,-4.7645 1.5936,-21.836 26.297,-67.889 -1.1949,-31.364 c -9.9e-4,0 -0.79826,-2.3823 -10.36,-5.558 z" />
    <g
       fill-rule="evenodd"
       id="g873">
      <path
         id="path28082"
         d="m 176.93,214.19 11.596,4.8118 0.9254,31.808 -26.05,66.671 -2.7305,24.486 -4.2059,4.1908 7.1568,7.3222 -2.1652,6.2812 -53.699,-2.2815 -3.6638,-8.8509 -1.4139,-18.351 22.308,-19.142 12.115,-27.897 10.797,-0.2481 29.029,-68.8 z"
         stroke="#000000"
         stroke-width="0.985"
         fill="url(#linearGradient2622)"
         style="fill:url(#linearGradient2622)" />
      <path
         id="path28308"
         fill="url(#linearGradient2619)"
         d="m 422.44,277.05 -9.5245,0.4753 -6.7232,-6.1408 -62.023,-22.319 c 0,0 2.6347,-21.225 -1.2872,-37.415 -3.9219,-16.19 -17.883,-49.319 -35.857,-65.316 -8.357,-7.4379 -36.77,-42.883 -60.367,-57.186 -6.7598,10.183 -1.907,7.1225 -5.0446,15.317 24.167,18.624 35.54,30.561 64.852,66.433 29.63,36.261 30.6,43.924 28.294,63.921 -1.4007,12.142 -6.373,16.19 -5.9528,21.388 0.35138,4.3473 2.1535,6.9172 -3.5717,14.34 -5.7252,7.4231 2.0947,15.083 -21.706,15.155 -2.8013,0.009 -0.49045,1.8465 3.9026,7.4547 10.829,-0.80444 22.483,-6.6275 22.483,-6.6275 l 1.7641,-7.8872 7.0336,-6.0579 v -7.3404 l 77.317,24.956 6.8065,-5.4996 -0.3936,-7.6496 z"
         style="fill:url(#linearGradient2619)" />
      <path
         id="path31849"
         fill="url(#linearGradient2616)"
         d="m 330.38,143.51 c 0,0 -36.667,-30.904 -37.741,-31.221 -1.2878,-0.38019 -4.3893,-0.54338 -5.8529,0.97198 -1.2566,1.3011 -4.5591,5.3971 -4.5591,5.3971 l -1.2117,0.1536 -0.082,-5.5508 c 0,0 -0.97549,-13.608 -2.9264,-16.038 -1.951,-2.43 -10.176,-7.157 -10.176,-7.157 l -2.2539,4.4251 c 0,0 1.5775,0.78783 2.6749,4.1898 1.0974,3.40197 1.4632,1.944 0.97549,9.2339 -0.48776,7.2899 -1.951,20.412 -4.3897,23.328 -2.4387,2.916 -9.2671,13.122 -8.7793,15.066 0.48773,1.944 4.8774,7.2899 4.8774,7.2899 l 13.944,33.82 20.937,16.959 c 0,0 0.18481,23.159 -0.30292,26.075 -0.48773,2.916 -3.5323,5.5148 -7.4342,6.0008 -3.9019,0.48599 -35.192,-2.6653 -35.192,-2.6653 l 11.706,15.066 24.143,5.3459 0.4878,22.356 -23.899,8.2619 c 0,0 11.401,10.966 14.815,10.48 3.4142,-0.48599 25.94,0.28815 28.106,-2.2177 2.2228,-2.5722 -5.8529,-3.888 -4.3897,-5.8319 1.4632,-1.944 11.218,-0.48599 14.632,-2.43 3.4142,-1.944 9.7548,-7.7759 9.2671,-10.206 -0.48776,-2.43 -19.022,-5.8319 -19.022,-5.8319 l 2.9265,-6.3179 c 0,0 4.9994,-1.5795 8.7794,-4.131 3.78,-2.5515 0.91449,-2.0047 5.8529,-7.5329 0.30484,-6.2572 2.1949,-15.552 2.1949,-15.552 h -5.3652 c 0,0 -0.18289,-20.412 -0.24387,-30.132 -8.5964,0.72899 -14.632,-3.888 -14.632,-3.888 0,0 1.7636,-1.708 1.4632,-3.888 -0.14755,-1.0707 -4.2192,-2.8074 -4.1458,-8.2619 0.0994,-7.3898 1.5871,-7.3014 2.8597,-8.446 2.0119,-2.0655 4.6336,0 4.6336,0 l -30.712,-36.383 c 0,0 11.757,-7.6582 16.635,-7.6582 4.8774,0 18.046,9.7199 18.046,9.7199 0,0 1.5476,3.2654 4.8774,2.916 7.5431,-0.79164 8.4764,-5.7142 8.4764,-5.7142 z"
         style="fill:url(#linearGradient2616)" />
      <path
         id="path32005"
         d="m 308.22,249.46 c 0,0 3.3674,-6.9081 8.3196,-9.8687 4.9521,-2.9606 9.9042,-5.5265 11.093,-4.5396 1.1885,0.98688 -0.99042,8.4871 -0.99042,10.856 0,2.3685 0,6.7107 -1.9809,7.895 -1.9808,1.1842 -6.1406,7.895 -7.3291,7.895 -1.1885,0 -5.7444,1.1842 -5.7444,1.1842 l -3.3674,-13.422 z"
         stroke="#000000"
         stroke-width="0.985"
         fill="url(#radialGradient2613)"
         style="fill:url(#radialGradient2613)" />
    </g>
    <path
       id="path31967"
       stroke-width="0.887"
       fill="url(#radialGradient2610)"
       d="m 310.29,265.85 c -1.9432,7.9071 -7.3703,13.384 -12.124,12.234 -4.7536,-1.1492 -7.0348,-8.4893 -5.0963,-16.398 1.9386,-7.9082 7.3634,-13.392 12.119,-12.251 4.7555,1.1414 7.0422,8.4761 5.1082,16.386"
       style="fill:url(#radialGradient2610)" />
    <path
       id="path31981"
       d="m 309.6,269.39 c 0,0 -2.1789,4.3423 -3.3674,5.7239 -1.1885,1.3816 -4.7541,3.3554 -4.7541,3.3554 l 22.582,3.158 c 0,0 2.5751,-1.3816 3.1693,-3.3554 0.59427,-1.9738 0,-6.1186 -1.7828,-6.316 -1.7827,-0.19739 -16.441,-2.3685 -15.847,-2.5659 z"
       fill-rule="evenodd"
       stroke="#000000"
       stroke-width="0.985"
       fill="url(#radialGradient2607)"
       style="fill:url(#radialGradient2607)" />
    <path
       id="path31991"
       stroke-width="0.887"
       fill="url(#radialGradient2604)"
       d="m 326.5,277.78 c -0.703,2.1444 -2.279,3.4371 -3.5591,2.9193 -1.2801,-0.51776 -1.8013,-2.6588 -1.1771,-4.835 0.62421,-2.1763 2.1681,-3.6008 3.4866,-3.217 1.3185,0.38379 1.9348,2.4371 1.3918,4.637"
       style="fill:url(#radialGradient2604)" />
    <g
       id="g31950">
      <g
         id="g31928">
        <g
           stroke-linecap="round"
           stroke="#000000"
           fill="none"
           id="g880">
          <path
             id="path2596"
             stroke-width="1.698"
             d="m 323.52,281.33 c 1.4761,0.27335 3.0598,-1.5692 3.5364,-4.1176 0.47562,-2.5484 -0.3345,-4.8353 -1.8106,-5.1096" />
          <path
             id="path2598"
             stroke-width="0.706"
             d="m 325.25,272.1 c -1.4761,-0.27432 -3.0598,1.5692 -3.5364,4.1176 -0.47562,2.5484 0.3345,4.8353 1.8106,5.1096" />
        </g>
        <path
           id="path2600"
           d="m 325.09,272.92 c -0.60684,-0.1131 -1.3696,-0.16617 -1.8955,0.44635 l -0.1885,-0.5348 c 0.75384,-0.87704 1.5216,-1.7147 2.3908,-1.5535 l -0.3069,1.6419" />
        <path
           id="path2602"
           d="m 322.07,279.41 c 0.32758,0.92322 0.9729,0.97922 1.6064,1.0962 l -0.3079,1.6409 c -0.7341,-0.13666 -1.2896,-1.2359 -1.6676,-2.3076 l 0.3691,-0.4296" />
        <path
           id="path2604"
           d="m 325.25,272.1 -16.45,-2.1856 m 14.724,11.412 -23.398,-2.9968 m -2.0553,0.4552 c 4.7313,1.1602 10.202,-4.5187 12.22,-12.683 2.0169,-8.1654 -0.1835,-15.724 -4.9139,-16.885"
           stroke="#000000"
           stroke-linecap="round"
           stroke-width="1.698"
           fill="none" />
        <g
           id="g31923">
          <path
             id="path2606"
             d="m 305.37,249.22 c -4.7304,-1.1611 -10.202,4.5178 -12.219,12.682 -2.0178,8.1654 0.18353,15.725 4.9129,16.886"
             stroke="#000000"
             stroke-linecap="round"
             stroke-width="0.706"
             fill="none" />
          <path
             id="path2608"
             d="m 305.17,250.03 c -2.2369,-0.54862 -4.758,0.13667 -6.8479,2.3066 l -0.1579,-0.5447 c 2.3316,-2.4206 4.9119,-3.9947 7.4064,-3.3822 L 305.17,250.03" />
          <path
             id="path2610"
             d="m 293.28,272.76 c 0.93738,3.2219 2.8487,4.6849 4.9908,5.2099 l -0.4006,1.6213 c -2.2418,-0.5506 -4.0031,-3.0508 -4.984,-6.4222 l 0.3937,-0.409" />
        </g>
        <path
           id="path2614"
           d="m 311.31,262.64 c 0,0 6.6199,-0.68134 8.6743,-3.1836 2.0544,-2.5022 6.1631,-8.4161 6.1631,-8.4161 l 2.0544,-15.239 c 0,0 -2.7382,-3.1836 -12.098,4.3221 -9.3591,7.5066 -8.2174,9.3255 -7.9895,10.69"
           stroke="#000000"
           stroke-linecap="round"
           stroke-width="1.698"
           fill="none" />
      </g>
      <g
         stroke-width="1.131"
         stroke-linecap="round"
         stroke="#000000"
         fill="none"
         id="g895">
        <path
           id="path2616"
           d="m 325.39,240.14 -0.7795,5.3564 c 0,0 -2.6494,4.503 -2.2596,0.5437 0.38974,-3.9593 0.54565,-5.3564 0.6236,-6.2108 0.078,-0.85438 2.4155,-2.3292 2.4155,0.3107" />
        <path
           id="path31946"
           d="m 318.14,241.84 c -1.0903,1.0098 -2.2596,1.0874 -1.0903,2.9506 1.1693,1.8641 2.6503,4.271 2.8832,1.2428 0.23386,-3.0272 -0.078,-5.2011 -1.7929,-4.1933" />
        <path
           id="path31944"
           d="m 316.51,249.22 c 0,2.3282 -0.62265,3.3389 -1.9478,3.1049 -1.3252,-0.23202 -1.2472,-0.69905 -1.0903,-2.4068 0.15494,-1.7078 0.93442,-2.0185 1.7139,-1.8631 0.77853,0.15533 1.2462,0.3107 1.3242,1.1651" />
        <path
           id="path31942"
           d="m 314.25,258.54 c 0.68576,0.11896 1.3814,-0.58402 1.5541,-1.5711 0.17264,-0.98612 -0.24472,-1.8818 -0.93051,-2.0008 -0.68576,-0.11801 -1.3814,0.58499 -1.5541,1.5711 -0.17169,0.98614 0.24469,1.8818 0.93048,2.0008" />
      </g>
    </g>
    <path
       id="path2619"
       d="m 272.95,96.411 c 3.3724,8.4701 3.3197,17.611 2.5285,24.027 -0.20908,2.6042 -1.9638,6.8585 -2.0351,8.3264 1.4129,-1.9095 5.1166,-4.2341 5.3036,-5.7762 -3.9581,-3.2614 0.482,-22.33 -5.797,-26.577 z m 19.734,22.828 c 7.5833,1.7566 14.526,6.6533 18.994,13.469 1.8586,-0.11182 5.544,5.5917 8.3002,3.902 -7.7919,-7.1619 -14.738,-15.332 -27.295,-17.371 z"
       stroke="#ffffff"
       stroke-width="0.985"
       fill="#f1ffff" />
  </g>
</svg>
