<?xml version="1.0" encoding="UTF-8" standalone="no"?>
<svg
   width="115"
   height="115"
   version="1.1"
   id="svg3581"
   sodipodi:docname="car_blue_shiny_racing.svg"
   inkscape:version="1.2.2 (b0a8486541, 2022-12-01)"
   inkscape:export-filename="auto_deportivo_azul.png"
   inkscape:export-xdpi="96"
   inkscape:export-ydpi="96"
   xmlns:inkscape="http://www.inkscape.org/namespaces/inkscape"
   xmlns:sodipodi="http://sodipodi.sourceforge.net/DTD/sodipodi-0.dtd"
   xmlns:xlink="http://www.w3.org/1999/xlink"
   xmlns="http://www.w3.org/2000/svg"
   xmlns:svg="http://www.w3.org/2000/svg">
  <sodipodi:namedview
     id="namedview3583"
     pagecolor="#ffffff"
     bordercolor="#666666"
     borderopacity="1.0"
     inkscape:showpageshadow="2"
     inkscape:pageopacity="0.0"
     inkscape:pagecheckerboard="0"
     inkscape:deskcolor="#d1d1d1"
     showgrid="false"
     inkscape:zoom="6.1967929"
     inkscape:cx="69.067986"
     inkscape:cy="51.316868"
     inkscape:window-width="1864"
     inkscape:window-height="1011"
     inkscape:window-x="0"
     inkscape:window-y="0"
     inkscape:window-maximized="1"
     inkscape:current-layer="svg3581" />
  <defs
     id="defs3434">
    <clipPath
       id="clipPath4638"
       clipPathUnits="userSpaceOnUse">
      <path
         id="path4640"
         d="m 445.16,754.83 h 50.998 V 708.332 H 445.16 Z" />
    </clipPath>
    <clipPath
       id="clipPath4622"
       clipPathUnits="userSpaceOnUse">
      <path
         id="path4624"
         d="M 614.66,761.82 H 847.15 V 670.843 H 614.66 Z" />
    </clipPath>
    <linearGradient
       id="linearGradient3783"
       y2="1088.6906"
       x2="336.03775"
       y1="1523.5417"
       x1="213.76883"
       gradientTransform="scale(2.1333542,0.46874542)"
       gradientUnits="userSpaceOnUse">
      <stop
         id="stop3779"
         stop-color="#999"
         offset="0" />
      <stop
         id="stop3781"
         stop-color="#999"
         stop-opacity="0"
         offset="1" />
    </linearGradient>
    <linearGradient
       id="linearGradient3763"
       y2="0.61635"
       x2="0.26436001"
       y1="0.025164001"
       x1="0.93103999">
      <stop
         id="stop3759"
         stop-color="#999"
         offset="0" />
      <stop
         id="stop3761"
         stop-color="#999"
         stop-opacity="0"
         offset="1" />
    </linearGradient>
    <linearGradient
       id="linearGradient3797"
       y2="468.79443"
       x2="749.14813"
       y1="581.46057"
       x1="617.35754"
       gradientTransform="scale(0.92209444,1.0844876)"
       gradientUnits="userSpaceOnUse">
      <stop
         id="stop5025"
         stop-color="#999"
         offset="0" />
      <stop
         id="stop5027"
         stop-color="#999"
         stop-opacity="0"
         offset="1" />
    </linearGradient>
    <linearGradient
       id="linearGradient3837"
       y2="856.58392"
       x2="276.02737"
       y1="889.4057"
       x1="210.48747"
       gradientTransform="scale(1.8655478,0.53603558)"
       gradientUnits="userSpaceOnUse">
      <stop
         id="stop2971"
         stop-color="#999"
         offset="0" />
      <stop
         id="stop2973"
         stop-color="#999"
         stop-opacity="0"
         offset="1" />
    </linearGradient>
    <linearGradient
       id="linearGradient3881"
       y2="448.39694"
       x2="534.94812"
       y1="620.28156"
       x1="376.82816"
       gradientTransform="scale(1.4420741,0.69344563)"
       gradientUnits="userSpaceOnUse">
      <stop
         id="stop3877"
         stop-color="#b3b3b3"
         offset="0" />
      <stop
         id="stop3879"
         stop-color="#b3b3b3"
         stop-opacity="0"
         offset="1" />
    </linearGradient>
    <linearGradient
       id="linearGradient3935"
       y2="721.12622"
       x2="440.14816"
       y1="802.79199"
       x1="400.35425"
       gradientTransform="scale(1.4324894,0.69808544)"
       gradientUnits="userSpaceOnUse">
      <stop
         id="stop3931"
         stop-color="#999"
         offset="0" />
      <stop
         id="stop3933"
         stop-color="#999"
         stop-opacity="0"
         offset="1" />
    </linearGradient>
    <linearGradient
       id="linearGradient4544"
       y1="-2465.4524"
       x2="144.29594"
       x1="144.29594"
       y2="-2514.6602"
       gradientTransform="scale(3.189068,0.31357124)"
       gradientUnits="userSpaceOnUse">
      <stop
         id="stop4546"
         stop-color="#989696"
         offset="0" />
      <stop
         id="stop4548"
         stop-color="#e9e9e9"
         offset="1" />
    </linearGradient>
    <linearGradient
       id="linearGradient3947"
       y2="131.57111"
       x2="505.25275"
       y1="177.46111"
       x1="420.59085"
       gradientTransform="scale(0.63250095,1.5810253)"
       gradientUnits="userSpaceOnUse">
      <stop
         id="stop3943"
         stop-color="#b3b3b3"
         offset="0" />
      <stop
         id="stop3945"
         stop-color="#b3b3b3"
         stop-opacity="0"
         offset="1" />
    </linearGradient>
    <linearGradient
       inkscape:collect="always"
       xlink:href="#linearGradient3763"
       id="linearGradient8016"
       x1="387.65222"
       y1="189.65665"
       x2="252.20088"
       y2="309.76965"
       gradientTransform="scale(0.73971457,1.3518728)"
       gradientUnits="userSpaceOnUse" />
    <linearGradient
       inkscape:collect="always"
       xlink:href="#linearGradient3763"
       id="linearGradient8018"
       x1="550.02246"
       y1="247.31361"
       x2="420.31528"
       y2="362.33289"
       gradientTransform="scale(0.84835619,1.1787502)"
       gradientUnits="userSpaceOnUse" />
  </defs>
  <g
     id="svg_3"
     transform="matrix(0.11767496,0,0,0.11767496,-7.2685953,11.4068)">
    <path
       id="path4506"
       fill="#6e6b6c"
       d="m 301.36,525.6 c 0,0 5,-150 57.5,-145 52.5,5 85,75 85,75 z" />
    <path
       id="path4508"
       fill="#5a5758"
       d="m 91.356,322.26 c 0,0 -5,-59.166 15,-64.166 20,-5 65,35 65,35 0,0 -3.75,48.333 -3.75,48.333 z" />
    <path
       id="path4510"
       fill="#231f20"
       d="m 312.61,116.85 27.5,-26.25 c 0,0 -91.25,-17.5 -135,5 -43.75,22.5 103.75,-36.25 107.5,21.25 z" />
    <path
       id="path4512"
       fill="#bdbcbc"
       d="m 227.19,98.931 -60,137.5 c 0,0 17.5,8.3331 17.5,8.3331 l 53.333,-153.33 -10.833,7.5 z" />
    <g
       fill="#231f20"
       id="g3442">
      <path
         id="path4518"
         d="m 121.4,440.98 53.289,-4.5508 c 0,0 6.7914,-7.5977 4.9164,-33.846 -1.875,-26.249 -43.123,-105 -43.123,-105 0,0 5.7068,-6.1584 5.7068,-6.1584 l -35.88,0.44617 c 0,0 31.966,40.359 15.092,149.1 z" />
      <path
         id="path4520"
         d="m 566.35,533.93 c 0,86.757 -58.95,156.59 -131.67,157.08 -60.832,0.41626 -131.67,-70.328 -131.67,-157.08 0,-86.753 60.616,-113.33 133.33,-113.33 72.717,0 130,26.578 130,113.33 z" />
    </g>
    <path
       id="path4522"
       fill="#e0e0e0"
       d="m 495.52,544.76 c -1.4575,59.735 -3.3337,109.17 -66.666,115 -41.722,3.8428 -98.443,-48.395 -104.17,-112.5 -4.1669,-46.666 22.494,-88.334 80.833,-88.334 11.666,0 90.834,51.668 90,85.834 z" />
    <path
       id="path4524"
       fill="#231f20"
       d="m 132.43,364.55 c 4.1687,41.173 -0.76965,75.394 -11.028,76.431 -10.259,1.0376 -21.952,-31.498 -26.12,-72.671 -4.1681,-41.174 0.77088,-75.395 11.028,-76.433 10.258,-1.0382 21.954,31.499 26.12,72.673 z" />
    <path
       id="path4526"
       fill="#c8c7c7"
       d="m 127.47,363.34 c 3.4527,34.104 -0.63782,62.449 -9.1351,63.308 -8.4973,0.85938 -18.183,-26.09 -21.635,-60.194 -3.4521,-34.104 0.63844,-62.449 9.1351,-63.309 8.4967,-0.85998 18.184,26.091 21.635,60.195 z" />
    <path
       id="path4528"
       fill="#231f20"
       d="m 160.73,94.973 c 0,0 26.875,-13.75 46.25,-14.375 19.375,-0.625 86.25,0.625 86.25,0.625 0,0 -121.25,11.875 -132.5,13.75 z" />
    <path
       id="path4530"
       fill="#666666"
       d="m 147.01,100.6 86.395,-6.25 c 0,0 16.073,-9.375 16.073,-9.375 0,0 -111.17,6.25 -102.47,15.625 z" />
    <g
       id="g4532"
       transform="matrix(1.25,0,0,1.25,-337.48,1061.1)">
      <g
         id="g4534">
        <g
           id="g4540">
          <g
             id="g4542">
            <path
               id="path4550"
               fill="url(#linearGradient4544)"
               d="m 381.73,-782.43 c 0,0 37.334,-5.3335 54,-5.3335 16.666,0 39.666,-2.667 76.666,2 37,4.667 24,8.667 24,8.667 l -34.666,-6.667 c 0,0 -25.334,-0.33301 -33.334,-0.33301 -8,0 -36.667,1 -43.334,2.6665 -6.6665,1.6665 -15.333,6 -15.333,6 l -2,0.6665 -13.667,1.667 c 0,0 -0.99951,-5.3335 -12.333,-9.3335 z"
               style="fill:url(#linearGradient4544)" />
          </g>
        </g>
      </g>
    </g>
    <g
       id="g4562"
       transform="matrix(1.25,0,0,1.25,-337.48,1061.1)">
      <path
         id="path4570"
         fill="#00007f"
         d="m 510.55,-433.11 c 0,0 4.333,-20.667 6,-25.333 1.666,-4.666 6,-15 6,-15 0,0 -0.66699,-4.332 -0.66699,-10.666 -0.89398,-46.042 29.87,-68.561 61.837,-27 30.182,51.218 40.418,87.5 63.666,155.21 1.668,3.666 21.831,6.459 30.497,8.459 8.666,2 52.334,6.334 71.334,7 19,0.66598 42,1.001 79.332,-5.333 37.334,-6.334 94,-21 94,-21 0,0 109.99999,-32.335 119.99999,-36.001 10,-3.666 21,-9.334 24,-16 3,-6.666 3.334,-11.666 3.334,-11.666 l 3.666,-9 c 0,0 -3.666,7.333 -6.666,8.333 -3,1 4.3319,-8.001 6,-10.667 1.666,-2.666 6.666,-10.666 8.33,-15.666 1.67,-5 3.34,-11.667 3.67,-16.667 0.33,-5 1.33,-6.333 1.33,-6.333 0,0 6,-15 6.34,-18 0.3301,-3 -0.34,-13 -2.6699,-17 -2.3301,-4 -6.67,-13.333 -9,-16.333 -2.334,-3 -4.334,-5.334 -4.334,-5.334 0,0 -13.998,-24.666 -22.332,-34.999 -8.334,-10.334 -41.334,-44.667 -93.33399,-66.334 -52,-21.666 -70,-21 -70,-21 0,0 0,3 2,3 2,0 7.332,1.333 2.332,1.667 -5,0.33301 -16.998,1.666 -34.666,2.333 -17.666,0.66699 -66.998,6.667 -78.332,7.667 -11.334,1 -50.666,3 -62,4 -11.334,1 -79.668,6.666 -83.002,7 -3.332,0.33301 -59.999,3.333 -71.332,1.667 -11.334,-1.667 -36.667,-5 -36.667,-5 l -2,8 c 0,0 -22.667,-5.667 -26,-8.334 -3.333,-2.666 -4,-3.666 -4,-3.666 0,0 -73.333,-25.667 -96.333,-43 -23,-17.334 -29.334,-25.334 -29.334,-25.334 l 6.667,60.667 33.333,106.33 92.667,104.67 6.334,4.666 z" />
    </g>
    <path
       id="path3871"
       fill="#999999"
       d="m 962.18,423.95 c 0,0 -19.002,-22.456 -39.731,-22.456 -20.729,0 -145.1,3.4549 -202.11,48.368 -29.882,23.544 -13.819,6.9097 24.184,15.547 38.003,8.6371 215.93,-39.731 217.66,-41.458 z" />
    <path
       id="path3775"
       fill="url(#linearGradient3783)"
       d="m 452.59,556.96 c 0,0 19.002,15.547 46.64,17.274 27.639,1.7274 60.46,-24.184 76.007,-6.9097 15.547,17.2743 -5.1822,31.094 29.366,48.368 34.5482,17.274 82.916,-34.548 114.01,-17.274 31.094,17.274 120.92,-1.7275 120.92,-1.7275 0,0 -143.38,50.095 -228.02,44.913 -84.644,-5.1823 -120.92,17.274 -158.92,-84.644 z"
       style="fill:url(#linearGradient3783)" />
    <path
       id="path4572"
       fill="#f4f4f4"
       d="m 776.13,239.34 c 0,0 -76.442,-68.744 -127.28,-106.24 -50.834,-37.5 -45.001,-34.166 -53.334,-35.833 -8.3325,-1.6669 -27.5,-0.83374 -27.5,-0.83374 l 5,4.1669 31.668,2.5 c 0,0 169.17,130 164.17,135 -5,5 7.2754,1.2439 7.2754,1.2439 z" />
    <g
       id="g4574"
       transform="matrix(1.25,0,0,1.25,-337.48,1061.1)">
      <g
         id="g4576">
        <g
           id="g4582">
          <g
             id="g4584">
            <path
               id="path4592"
               fill="#003f7f"
               d="m 531.18,-765.54 c 0,0 32.554,-2.5566 53.22,-2.8896 20.666,-0.33301 108,-0.99951 116.33,-0.33301 8.333,0.6665 49.332,1.6665 51.666,1.6665 2.334,0 2.001,-1.333 -4.666,-3.6665 -6.667,-2.3335 -64,-11.667 -66.667,-11.667 -2.667,0 -5.333,-0.6665 -5.333,-0.6665 0,0 -26.999,-6.0005 -34.333,-6.3335 -7.334,-0.33301 -34,-1.6665 -38.667,-1.6665 -4.667,0 -6.333,1.9995 -9.333,3.6665 -3.0005,1.667 -5,0.66699 -14.667,0.66699 -9.667,0 -64,1.333 -64,1.333 0,0 -35,4 -35,4 0,0 20.333,-0.33301 29,2.3335 8.667,2.66651 15.78,4.2232 22.447,13.556 z" />
          </g>
        </g>
      </g>
    </g>
    <path
       id="path4594"
       fill="#b4b3b3"
       d="m 140.46,81.223 c 0,0 12.547,7.182 17.252,14.363 4.7052,7.182 7.3938,11.752 7.3938,21.545 0,9.7931 -3.3606,7.8345 -3.3606,7.8345 l -23.526,-30.033 -8.7384,-13.71 h 10.979 z" />
    <path
       id="path4596"
       fill="#808080"
       d="m 146.36,141.22 -16.875,-38.75 -0.86372,-21.102 c 0,0 7.7387,2.3524 10.239,9.8524 2.5,7.5 25.091,32.784 25.091,32.784 l -17.591,17.216 z" />
    <g
       fill="#007fff"
       id="g3468">
      <path
         id="path4598"
         d="m 91.356,322.47 c 0,0 -10.625,-30.625 -7.5,-35 l 3.125,-4.375 c 0,0 6.875,-22.5 11.25,-26.25 4.375,-3.75 8.125,-10 8.125,-10 V 204.97 c 0,0 16.25,-36.875 18.125,-35 1.875,1.875 4.8524,7.9774 4.8524,7.9774 0,0 -9.8524,39.523 -2.9774,55.148 6.875,15.625 15,61.875 36.25,98.125 21.25,36.25 77.5,113.75 77.5,113.75 0,0 38.125,46.25 42.5,51.875 3.0023,3.8599 12.956,16.952 17.5,24.166 2.077,3.2971 1.25,4.5837 1.25,4.5837 l -14.583,-12.084 c 0,0 -111.25,-91.25 -137.08,-102.92 l -2.0837,-24.375 c 0,0 -4.375,-11.875 -6.875,-22.5 -2.5,-10.625 -13.125,-58.125 -19.375,-71.25 -6.25,-13.125 -9.9548,-24.133 -16.666,-25.625 -5.625,-1.25 -10,10.001 -11.25,19.584 -0.34057,2.6135 -1.6668,5.8331 -0.41686,14.583 0.8148,5.7044 -1.6669,21.458 -1.6669,21.458 z" />
      <path
         id="path4600"
         d="m 135.52,155.43 c 0,0 40.833,-45.833 64.167,-48.333 32.58,-3.49 20.833,-7.5 46.667,-4.167 25.833,3.333 41.667,5.001 45.833,16.667 4.167,11.666 30,145.83 30,145.83 0,0 38.333,5 38.333,5 l 33.334,3.333 c 0,0 58.332,34.167 70,44.167 11.667,10 41.666,31.667 50,44.167 l 8.333,12.5 c 0,0 8.333,1.666 15.833,2.5 7.5,0.83398 52.5,7.5 97.5,28.334 45,20.834 78.334,44.166 78.334,44.166 0,0 -55,-59.165 -85,-80.832 -30,-21.668 -112.5,-64.168 -128.33,-69.168 -15.834,-5 -36.666,-11.666 -47.5,-16.666 -10.834,-5 -25.834,-11.667 -25.834,-11.667 0,0 -68.333,-7.499 -68.333,-7.499 l -33.333,-152.5 c 0,0 -1.113,-3.889 1.387,-8.055 2.5,-4.166 -1.388,-0.27798 -10.554,-6.111 -9.166,-5.83302 -122.5,-43.335 -180.83,58.332 z" />
    </g>
    <path
       id="path3873"
       fill="url(#linearGradient3881)"
       d="m 470.86,276.39 c 0,0 100.19,-1.7274 169.29,-10.365 69.097,-8.6371 95.008,-8.6371 95.008,-8.6371 0,0 -105.37,38.003 -58.732,76.007 46.64,38.003 183.11,63.915 183.11,63.915 0,0 -133.01,38.003 -139.92,46.64 -6.9097,8.6372 -184.84,-150.29 -248.75,-167.56 z"
       style="fill:url(#linearGradient3881)" />
    <path
       id="path4602"
       fill="#007fff"
       d="m 961.35,396.01 c 0,0 -34.162,-78.747 -89.995,-112.08 -55.834,-33.334 -94.168,-45 -94.168,-45 0,0 69.166,15 97.5,30.833 28.334,15.833 62.501,35.833 66.668,43.333 4.1663,7.5 17.495,36.248 19.995,82.914 z" />
    <path
       id="path4604"
       fill="url(#linearGradient3837)"
       d="m 939.25,309.27 -0.781,0.977 c 22.857,18.7 40.319,40.114 51.953,58.085 5.817,8.986 10.161,17.11 13.008,23.594 2.847,6.485 4.168,11.424 3.984,13.633 -0.086,1.029 -0.794,2.258 -2.031,3.594 -1.237,1.335 -2.974,2.751 -5.078,4.179 -4.209,2.858 -9.795,5.764 -15.352,8.36 -10.927,5.106 -21.555,8.933 -21.914,9.062 l -3.086,-1.562 -0.195,-0.117 -0.273,0.078 c 0,0 -10,3.347 -27.5,9.18 -17.427,5.808 -75.727,21.657 -189.02,33.32 -113.31,11.664 -140.7,8.307 -171.52,4.14 -30.756,-4.156 -91.602,-18.32 -91.602,-18.32 h -0.117 l -68.32,-2.5 -0.078,1.25 68.242,2.5 c 0,0 60.807,14.142 91.719,18.32 30.838,4.169 58.442,7.528 171.8,-4.14 113.37,-11.67 171.72,-27.542 189.3,-33.399 17.351,-5.782 27.097,-9.006 27.266,-9.062 l 3.086,1.562 0.273,0.117 0.235,-0.117 c 0,0 11.047,-3.956 22.226,-9.179 5.59,-2.612 11.24,-5.514 15.547,-8.438 2.154,-1.462 3.975,-2.93 5.313,-4.375 1.338,-1.444 2.221,-2.904 2.343,-4.375 v -0.039 c 0.221,-2.795 -1.19,-7.639 -4.062,-14.18 -2.882,-6.562 -7.276,-14.714 -13.125,-23.75 -11.699,-18.07 -29.25,-39.599 -52.227,-58.398 z"
       style="fill:url(#linearGradient3837)" />
    <path
       id="path4606"
       fill="#6e7479"
       d="m 230.11,103.72 -46.25,116.88 9.375,5.625 41.042,-121.46 -4.1669,-1.0413 z" />
    <g
       fill="#aad4ff"
       id="g3476">
      <path
         id="path4608"
         d="m 181.98,220.6 46.25,-116.25 c -40.298,-3.0481 -86.11,33.855 -103.12,68.75 0,0 28.75,36.25 56.875,47.5 z" />
      <path
         id="path4610"
         d="m 323.23,264.97 c 0,0 -24.375,-141.88 -35,-149.38 -10.625,-7.5 -13.125,-7.5 -26.25,-8.125 -13.125,-0.625 -25,-1.875 -25,-1.875 l -40.625,113.12 1.25,3.75 73.125,31.875 c 0,0 -16.875,-13.75 -6.875,-25.625 12.941,-14.025 26.221,-30.921 46.977,-28.916 0,0 10.523,60.166 12.398,65.166 z" />
    </g>
    <path
       id="path4612"
       fill="#333333"
       d="m 236.98,103.05 c -54.131,-2.253 -82.338,26.613 -112.72,68.375 l 3.3438,6.25 c 0,0 5.4062,-15 24.156,-36.25 18.7498,-21.25 51.677,-33.739 57.094,-35.406 5.4169,-1.6669 25.406,-1.25 25.406,-1.25 l -41.656,119.56 c 0.36456,-0.63806 0.72467,-1.1139 1.0938,-1.5312 -0.44608,1.6348 -0.46875,3.4062 -0.46875,3.4062 39.375,18.125 96.488,36.25 96.488,36.25 0,0 -75.328,-33.741 -89.77,-40.688 0.48105,-1.6569 14.784,-50.964 18.062,-62.438 3.3337,-11.667 18.344,-51.25 18.344,-51.25 0,0 13.344,-0.40625 17.094,-0.40625 3.75,0 21.229,0.84375 27.062,3.3438 5.8337,2.5 14.173,20.542 14.173,20.542 0,0 0.28802,-12.361 -7.4852,-18.885 -4.2938,-3.6039 -13.344,-7.0837 -29.594,-8.75 -6.0938,-0.62485 -13.315,-0.88715 -20.625,-0.875 z" />
    <path
       id="path4616"
       fill="#aad4ff"
       d="m 361.36,271.22 c 0,0 -20.964,-86.631 -26.666,-112.29 -8.3337,-37.5 -12.912,-47.042 -10.834,-51.458 5,-10.625 59.375,-7.5 88.125,-7.5 28.75,0 161.25,1.25 176.25,1.25 15,0 15.847,1.1072 18.75,3.125 88.125,61.25 157.5,127.5 157.5,127.5 0,0 -2.5,0.625 -13.75,4.375 -11.25,3.75 -88.75,11.875 -103.75,13.75 -15,1.875 -285.62,21.25 -285.62,21.25 z" />
    <g
       id="g4618"
       transform="matrix(1.25,0,0,-1.25,-337.48,1061.1)">
      <g
         id="g4626">
        <g
           id="g4628"
           opacity="0.26"
           clip-path="url(#clipPath4622)">
          <g
             id="g4630"
             transform="matrix(1,0,0,-1,80.066,183.43)">
            <path
               id="path4632"
               fill="#ffffff"
               d="m 534.59,-577.4 c 0,0 123.48,-3.8066 158.99,19.499 47.998,31.498 73.497,70.497 73.497,70.497 0,0 -83.997,-102 -232.49,-89.996 z" />
          </g>
        </g>
      </g>
    </g>
    <g
       id="g4634"
       transform="matrix(1.25,0,0,-1.25,-337.48,1061.1)">
      <g
         id="g4642">
        <g
           id="g4644"
           opacity="0.26"
           clip-path="url(#clipPath4638)">
          <g
             id="g4646"
             transform="matrix(1,0,0,-1,80.066,183.43)">
            <path
               id="path4648"
               fill="#ffffff"
               d="m 365.1,-524.9 c 0,0 16.5,-46.498 16.5,-46.498 l 34.498,1.5 c 0,0 -26.999,-6 -50.998,44.998 z" />
          </g>
        </g>
      </g>
    </g>
    <path
       id="path4650"
       fill="#ffffff"
       d="m 961.98,429.35 c 0,0 41.875,-11.25 43.125,-22.5 1.25,-11.25 -38.75,-81.25 -52.5,-87.5 -13.75,-6.25 -13.126,-7.4976 -13.126,-7.4976 0,0 23.542,32.916 23.126,111.25" />
    <path
       id="path4652"
       fill="#a5a3a4"
       d="m 633.86,590.6 10,-0.83252 c 0,0 24.166,16.668 16.666,20 -7.5,3.3325 -39.166,6.6675 -47.5,2.5 -8.3337,-4.1675 -11.666,-10 -11.666,-10 l 32.5,-11.668 z" />
    <path
       id="path4654"
       fill="#b6b5b5"
       d="m 667.19,555.6 c 0,0 -11.668,-15 -37.5,-17.5 -25.832,-2.5 -53.332,-5.8325 -54.166,-11.666 -0.83374,-5.8337 32.501,-0.83252 48.334,0.83374 15.832,1.6663 49.999,3.3325 43.332,28.332 z" />
    <path
       id="path4656"
       fill="#9a9898"
       d="m 477.19,505.6 c 0,0 -5,-0.83252 -5,-0.83252 0,0 14.166,98.333 22.5,103.33 8.3337,5 2.5012,8.335 19.168,11.668 16.666,3.3325 -33.335,-55.835 -36.668,-114.17 z" />
    <path
       id="path4658"
       fill="#747273"
       d="m 956.36,408.72 c 0,0 8.125,19.375 5.625,20.625 -2.5,1.25 -53.125,20 -89.375,26.875 -36.25,6.875 61.875,-30 61.875,-30 0,0 13.75,9.375 21.875,-17.5 z" />
    <g
       fill="#4d5f67"
       id="g3497">
      <path
         id="path4660"
         d="m 766.36,603.1 c 0,0 16.665,9.8e-4 35.832,-4.1663 19.168,-4.1675 108.33,-28.335 120.83,-34.168 12.5,-5.8325 29.168,-22.5 35.834,-34.166 6.6663,-11.666 6.6663,-14.166 6.6663,-14.166 l -189.17,70 c 0,0 -11.668,16.666 -11.668,16.666" />
      <path
         id="path4662"
         d="m 738.86,549.76 c 0,0 -9.8e-4,8.3337 5.8325,8.3337 5.8337,0 151.67,-31.666 188.33,-41.666 36.666,-10 40,-13.334 40,-13.334 l -25.834,-10.834 c 0,0 -208.33,57.5 -208.33,57.5 z" />
    </g>
    <path
       id="path4664"
       fill="#3b494e"
       d="m 742.19,515.6 250,-55 c 0,0 5.835,6.6663 -0.83252,16.666 -6.6675,10 -18.334,25.834 -18.334,25.834 0,0 -14.166,-4.1663 -14.166,-4.1663 0,0 15.832,-25.834 15.832,-25.834 0,0 -232.5,42.5 -232.5,42.5 z" />
    <path
       id="path4666"
       fill="#054a8e"
       d="m 127.61,177.68 c 0,0 8.75,9.1669 8.75,9.1669 0,0 -1.6663,25.834 1.6669,39.167 3.3331,13.333 20.833,78.75 37.083,102.5 16.25,23.75 125.42,179.58 125.42,179.58 l -0.41687,12.916 c 0,0 -60.834,-77.916 -71.667,-92.916 -10.833,-15 -53.333,-73.332 -60.833,-86.667 -7.5,-13.334 -17.916,-33.334 -22.916,-50.001 -13.07,-43.123 -30.156,-42.729 -17.084,-113.75 z" />
    <path
       id="path4668"
       fill="#55595c"
       d="m 612.61,106.85 c 0,0 156.04,126.46 147.08,127.92 -8.9587,1.4581 -46.668,3.3331 -46.668,3.3331 0,0 -31.666,-3.3331 -31.666,-3.3331 0,0 -54.166,-4.1669 -61.666,-1.6669 -7.5,2.5 -13.334,5 -13.334,5 0,0 1.665,9.1663 10.832,8.3331 9.1675,-0.83313 60,-5.8331 60,-5.8331 0,0 6.6675,-1.6669 15.834,0 9.1663,1.6669 20.001,0.83374 10.834,1.6669 -9.1675,0.83313 -68.335,7.5 -74.168,7.5 -5.8325,0 -170,6.6663 -191.67,6.6663 -21.666,0 -64.166,2.5 -74.166,-3.3331 -10,-5.8331 -40,-139.17 -40,-139.17 0,0 32.502,157.08 37.501,157.29 4.9988,0.20813 50.832,2.7087 100.83,-1.4581 50,-4.1669 112.5,-9.1669 126.67,-9.1669 14.166,0 157.5,-14.167 162.5,-15 5,-0.83313 30.834,-0.83313 30.834,-0.83313 0,0 -123.75,-104.58 -169.58,-137.92 z" />
    <g
       fill="#231f20"
       id="g3504">
      <path
         id="path4670"
         d="m 737.19,515.6 c 0,0 -6.665,2.5012 -3.3325,13.334 3.3325,10.832 6.6663,23.332 6.6663,23.332 0,0 36.668,-8.3325 103.33,-23.332 66.666,-15 118.33,-27.5 118.33,-27.5 0,0 16.668,-35 16.668,-35 0,0 -131.67,30 -241.67,49.166 z" />
      <path
         id="path4672"
         d="m 747.19,571.43 218.33,-55 c 0,0 -27.499,35 -36.666,41.666 -9.1675,6.6663 -157.5,48.334 -162.5,45 -5,-3.3337 -15.001,-2.4988 -19.168,-31.666 z" />
    </g>
    <g
       stroke-width="1.25"
       id="g3511">
      <path
         id="path4674"
         opacity="0.75"
         d="m 450.52,271.43 c 0,0 62.501,24.166 80.834,31.666 18.332,7.5 103.33,51.666 125,70.833 21.666,19.168 46.666,43.335 51.666,49.168 5,5.8325 18.334,26.666 18.334,26.666 0,0 54.459,-24.014 90.832,-30.834 0,0 34.168,-9.165 66.668,-10.832 32.5,-1.6675 68.124,-0.62378 68.124,-0.62378 0,0 -3.1238,-10.21 -13.958,-33.544 -10.834,-23.333 -38.334,-58.333 -73.334,-84.166 -35,-25.833 -86.459,-47.915 -86.459,-47.915"
         stroke="#918f90"
         fill="#007fff" />
      <g
         fill="none"
         id="g3509">
        <path
           id="path4676"
           stroke="#a5a3a4"
           d="m 1026.4,431.85 c 0,0 -1.25,23.75 -172.5,56.25 -171.25,32.5 -236.25,30 -276.25,25" />
        <path
           id="path4678"
           stroke="#aeacac"
           d="m 577.61,513.1 c 0,0 -112.5,-25 -130,-31.25 -17.5,-6.25 -27.5,-10 -27.5,-10" />
      </g>
    </g>
    <path
       id="path4680"
       fill="#3d3a3b"
       d="m 475.11,615.6 8.75,32.5 c 0,0 62.5,16.25 116.25,18.75 53.75,2.5 128.75,-16.25 207.5,-36.25 78.75,-20 165,-52.5 170,-55 5,-2.5 10,-13.75 15,-23.75 5,-10 7.5,-16.25 7.5,-16.25 0,0 -6.25,16.25 -76.25,36.25 -70,20 -218.75,66.25 -295,63.75 -76.25,-2.5 -148.75,-18.75 -153.75,-20 z" />
    <path
       id="path4682"
       fill="#231f20"
       d="m 715.52,451.43 28.332,21.666 c 0,0 87.5,-6.6663 133.33,-19.166 45.834,-12.5 79.165,-21.668 80.832,-25.834 1.6675,-4.1663 -1.6663,-19.375 -1.6663,-19.375 -74.17,-7.3174 -160.67,5.4348 -227.5,40 -5.625,3.75 -10.415,5.4175 -13.332,2.7087 z" />
    <path
       id="path4684"
       fill="#aeacac"
       d="m 325.11,99.99 c 0,0 2.4664,5.3125 2.4664,5.3125 0,0 4.9335,-5.3125 19.733,-5.3125 h 255.3 c 0,0 -270.1,-13.281 -277.5,0 z" />
    <path
       id="path4686"
       fill="url(#linearGradient3797)"
       d="m 574.79,519.97 c 0,0 -0.55096,-0.0562 -1.1719,0.15625 -0.62097,0.2124 -1.3622,0.71423 -1.9531,1.7188 -1.1819,2.0089 -1.7597,5.8805 -0.0781,13.867 1.6612,7.8898 5.4158,28.316 9.0625,47.07 1.8234,9.3773 3.6175,18.336 5.1172,25.117 0.74988,3.3906 1.4225,6.2709 1.99221,8.3594 0.28485,1.0442 0.54822,1.8893 0.78125,2.5391 0.23302,0.64966 0.3474,1.0505 0.70312,1.4062 1.25,1.2499 3.6513,3.6198 8.32029,5.7422 4.669,2.1224 11.62901,4.0343 22.10901,4.4531 l 0.039,-1.25 c -10.353,-0.4137 -17.14301,-2.2915 -21.641,-4.3359 -4.4975,-2.0444 -6.6796,-4.2578 -7.9297,-5.5078 0.0433,0.0432 -0.21552,-0.34045 -0.4297,-0.9375 -0.21411,-0.59705 -0.46227,-1.4349 -0.74219,-2.4609 -0.55981,-2.0522 -1.2447,-4.8621 -1.9922,-8.2422 -1.495,-6.7604 -3.2947,-15.744 -5.1172,-25.117 -3.6449,-18.746 -7.39,-39.126 -9.0625,-47.07 -1.6522,-7.8472 -0.97968,-11.475 -0.0781,-13.008 0.45074,-0.76636 0.92035,-1.0458 1.2891,-1.1719 0.34454,-0.11792 0.52252,-0.0818 0.54688,-0.0781 h 0.039 c 0.0643,0.015 35.79,8.3203 60.078,8.3203 11.99,0 19.162,2.7145 23.32,5.3516 2.0792,1.3185 3.4113,2.6249 4.2188,3.5938 0.80743,0.96887 1.0547,1.5234 1.0547,1.5234 l 1.1719,-0.5078 c 0,0 -0.3645,-0.77344 -1.25,-1.8359 -0.8855,-1.06246 -2.3394,-2.4382 -4.5312,-3.8281 -4.3837,-2.7798 -11.808,-5.5469 -23.984,-5.5469 -24.023,0 -59.844,-8.3203 -59.844,-8.3203 h -0.039 z"
       style="fill:url(#linearGradient3797)" />
    <path
       id="path4690"
       fill="#231f20"
       d="m 633.86,604.77 v -14.168 h -32.5 c 0,0 -6.6663,4.1675 0,11.668 6.6663,7.5 20.834,4.1675 32.5,2.5 z" />
    <g
       stroke-width="1.25"
       fill="none"
       id="g3520">
      <path
         id="path4692"
         stroke="#abaaaa"
         d="m 476.36,455.6 c 0,0 -42.5,-100 -86.667,-115 -44.167,-15 -75.834,-0.83313 -100.83,60.833" />
      <path
         id="path4694"
         stroke="#9c9a9b"
         d="M 184.48,341.85 287.6,399.975" />
    </g>
    <path
       id="path4696"
       fill="#808080"
       d="m 182.68,217.78 -11.912,34.302 -0.039,0.079 v 0.078 l -4.1797,63.32 1.25,0.078 4.1797,-63.281 v -0.039 l 9.961,-29.844 -1.1719,-0.391 z" />
    <path
       id="path4698"
       d="m 331.36,268.93 -15.833,59.166 -3.3331,33.334 c 0,0 -17.501,70.834 -8.3337,112.5"
       stroke="#aeacac"
       stroke-width="1.25"
       fill="none" />
    <path
       id="path4700"
       fill="#ffffff"
       d="m 495.11,376.85 c 0,0 37.5,63.75 42.5,70 5,6.25 16.25,28.75 16.25,28.75 0,0 88.75,6.25 113.75,5 25,-1.25 76.25,-7.5 76.25,-7.5 0,0 -107.5,-97.5 -248.75,-96.25 z" />
    <path
       id="path4702"
       fill="#f0efef"
       d="m 731.36,468.1 c 0,0 -103.75,10 -137.5,2.5 -33.75,-7.5 -65,-58.75 -58.75,-70 6.25,-11.25 15,-20 15,-20 l -55,-3.75 c 0,0 55,97.5 61.25,100 6.25,2.5 95,7.5 113.75,5 18.75,-2.5 76.25,-7.5 76.25,-7.5 0,0 -3.75,-6.25 -15,-6.25 z" />
    <path
       id="path4704"
       fill="#cccccc"
       d="m 961.98,429.35 c 0,0 41.875,-16.25 43.125,-22.5 1.25,-6.25 -15,-37.5 -15,-37.5 0,0 20,36.25 -28.125,60 z" />
    <path
       id="path4514"
       fill="#1a1a1a"
       d="m 327.19,273.1 c 0,0 -69.798,-39.095 -52.5,-50 17.81,-11.228 12.982,-18.376 12.982,-18.376 0,0 -61.882,35.151 -12.679,55.913 50.267,21.211 52.197,12.463 52.197,12.463 z" />
    <path
       id="path4516"
       fill="#333333"
       d="m 326.99,273.54 -16.675,-74.357 c 0,0 -48.102,2.265 -43.743,37.45 3.5622,28.757 35.419,34.408 60.419,36.908 z" />
    <path
       id="path4688"
       fill="#231f20"
       d="m 478.02,508.1 19.166,2.5 c 0,0 14.168,64.166 21.668,77.5 7.5,13.334 15,31.668 15,31.668 0,0 -25.834,-1.6675 -30.834,-6.6675 -5,-5 -23.334,-56.668 -25,-105 z" />
    <path
       id="path5065"
       fill="#999999"
       d="m 125.16,355.83 c 2.8844,24.772 3.8162,57.575 -4.9946,58.408 -8.8107,0.83313 -17.431,-29.758 -20.316,-54.53 -2.8844,-24.772 -0.37456,-47.823 8.4362,-48.656 8.8107,-0.83313 13.99,20.007 16.874,44.779 z" />
    <path
       id="path4873"
       fill="#cccccc"
       d="m 420.98,479.2 c 0,0 -27.04,-16.224 -52.727,-1.352 -25.688,14.872 -33.8,35.827 -31.096,71.655 10.668,69.796 92.962,133.96 135.87,63.543 l -52.051,-133.85 z" />
    <path
       id="path4843"
       d="m 381.6,482.43 16.92,29.294 c 0,0 2.7779,13.384 3.5356,11.869 0.7576,-1.5151 0.7576,-1.7677 0.7576,-1.7677 l -0.7576,-43.437 c 0,0 -2.7779,-3.5356 -0.25256,-3.5356 2.5254,0 7.0711,1.0102 5.8084,2.5254 -1.2627,1.5153 0.5051,22.223 0.5051,31.82 0,9.5964 2.5254,16.415 2.5254,16.415 l 3.0304,1.5151 13.637,-36.113 c 0,0 -3.7881,-11.364 -10.102,-13.637 -6.3134,-2.2728 -19.445,-5.0508 -22.223,-4.2932 -2.7779,0.75763 1.7678,4.0406 -13.384,9.3439 z" />
    <path
       id="path4845"
       d="m 372.76,479.65 1.0102,6.566 c 0,0 -6.3134,2.778 -8.0812,5.5558 -1.7678,2.778 -2.5254,3.283 -2.5254,3.283 0,0 -4.0406,-1.2627 -4.2932,-3.283 -0.25253,-2.0203 -0.75763,-4.2932 -0.75763,-4.2932 0,0 -2.0203,2.778 4.7982,8.5863 6.8185,5.8084 27.022,25.759 27.022,25.759 l 3.0305,3.5355 c 0,0 -18.688,-51.77 -20.203,-45.709 z" />
    <path
       id="path4847"
       d="m 354.83,496.32 31.062,37.881 c 0,0 -0.50507,2.0203 -2.7779,-0.25256 -2.2728,-2.2728 -38.891,-21.213 -38.891,-21.213 l 8.8388,2.778 c 0,0 1.0101,-6.8186 2.5254,-10.354 1.5153,-3.5355 -0.2525,-7.5761 -0.7576,-8.8388 z" />
    <path
       id="path4849"
       d="m 381.09,543.29 -38.133,-24.749 6.8185,5.8084 c 0,0 -0.75763,3.7881 -1.2627,9.0913 -0.50507,5.3034 0,7.3236 0,7.3236 l -6.0609,0.5051 38.638,5.3033 c 0,0 -1.7678,0.25244 0,-3.2831 z" />
    <path
       id="path4851"
       d="m 380.34,554.91 -36.366,-7.071 7.3236,2.5254 c 0,0 -0.25256,4.2931 0.7576,9.8489 1.0101,5.5559 3.283,7.0712 3.283,7.0712 l -5.3033,2.7778 28.537,-9.3439 2.7779,-0.2526 c 0,0 0.25253,-1.2627 -1.0102,-5.5558 z" />
    <path
       id="path4853"
       d="m 356.35,574.1 28.032,-7.071 2.7779,5.0507 -20.203,20.203 c 0,0 -6.3134,-8.3337 -10.607,-18.183 z" />
    <path
       id="path4855"
       d="m 392.46,579.4 -20.708,16.668 c 0,0 6.0609,4.0405 7.5761,5.0507 1.5152,1.0102 5.0508,6.0609 5.0508,6.0609 l 10.102,-25.759 c 0,0 -1.5152,0.505 -2.0203,-2.0204 z" />
    <path
       id="path4857"
       d="m 403.32,587.23 -14.395,28.537 c 0,0 8.0812,6.566 11.869,7.8287 3.7881,1.2627 3.5355,2.0203 3.5355,2.0203 l 0.2526,-37.628 -1.2627,-0.7576 z" />
    <path
       id="path4859"
       d="m 414.43,589.5 c 0,0 0,12.627 -0.25253,18.435 -0.25253,5.8084 -3.0305,19.445 -3.0305,19.445 0,0 4.2932,2.778 10.354,2.778 6.0609,0 8.0812,-0.25256 8.0812,-0.25256 l -15.152,-40.406 z" />
    <path
       id="path4861"
       d="m 424.53,586.47 5.0508,8.8389 6.566,35.355 c 0,0 13.637,-4.5456 15.657,-6.0609 2.0203,-1.5151 -26.769,-38.386 -27.274,-38.133 z" />
    <path
       id="path4863"
       d="m 433.12,579.65 23.991,39.901 c 0,0 11.112,-8.8389 11.364,-10.859 0.25253,-2.0203 -1.2627,-7.071 -1.2627,-7.071 l -34.093,-21.971 z" />
    <path
       id="path4865"
       d="m 435.39,567.03 19.95,3.0304 8.0812,20.456 -28.284,-20.708 c 0,0 0.25253,1.7678 0.25253,-2.7778 z" />
    <path
       id="path4867"
       d="m 433.88,553.9 14.142,-4.5457 4.2932,12.122 -17.425,-3.5355 c 0,0 0.50507,-1.7678 -1.0102,-4.0406 z" />
    <path
       id="path4869"
       d="m 440.95,528.39 5.0508,13.89 -14.142,4.2931 -3.5355,-4.7982 12.627,-13.384 z" />
    <path
       id="path4871"
       d="m 430.09,496.57 -10.354,34.093 4.5457,3.7881 14.647,-12.879 -8.8388,-25.001 z" />
    <path
       id="path4879"
       stroke-width="1.027"
       stroke="#000000"
       d="m 427.86,549.53 c 4.5082,12.843 -0.66821,26.421 -11.562,30.326 -10.894,3.9053 -23.38,-3.3406 -27.888,-16.184 -4.5082,-12.843 0.66821,-26.421 11.562,-30.326 10.894,-3.9052 23.379,3.3407 27.888,16.184 z" />
    <path
       id="path4883"
       stroke-width="0.882"
       fill="#666666"
       d="m 426.86,548.03 c 3.7386,11.275 -0.55414,23.194 -9.5881,26.623 -9.034,3.4284 -19.388,-2.9326 -23.127,-14.208 -3.7386,-11.275 0.55414,-23.194 9.5881,-26.623 9.034,-3.4284 19.388,2.9326 23.127,14.208 z" />
    <path
       id="path4893"
       fill="#999999"
       d="M 477.09,455.54 C 444.577,365.94 351.28,264 287.81,398.757 274.29,435.26 354.057,201.367 477.09,455.54 Z" />
    <path
       id="path4989"
       fill="#b3b3b3"
       d="m 602.84,325.36 33.46,-6.692 c 0,0 -44.932,-23.9 -50.668,-24.856 -5.7359,-0.95606 -49.712,0.95599 -49.712,0.95599 l 66.92,30.592 z" />
    <path
       id="path4985"
       d="m 535.92,295.73 68.832,29.636 16.252,-4.78 -42.064,-24.856 z" />
    <path
       id="path4995"
       fill="#999999"
       d="m 835.14,298.6 21.032,-4.78 -45.888,-30.592 -15.296,9.56 z" />
    <path
       id="path4987"
       d="m 806.46,266.09 -12.428,7.6479 40.152,22.944 17.208,-2.868 -44.932,-27.724 z" />
    <path
       id="path3895"
       fill="url(#linearGradient3935)"
       d="m 582.14,577.69 c 0,0 -17.274,-62.187 -5.1822,-58.732 12.092,3.4548 82.916,13.819 112.28,15.547 29.366,1.7274 -103.65,-19.002 -107.1,43.186 z"
       style="fill:url(#linearGradient3935)" />
    <path
       id="path5013"
       d="m 591.72,557.94 c 0,0 -13.87,-23.777 1.9814,-22.456 15.851,1.3209 38.968,3.3024 38.968,3.3024 0,0 -56.14,-7.2651 -40.949,19.154 z" />
    <path
       id="path5015"
       d="m 629.37,538.79 c 0,0 8.5861,3.9629 11.228,7.9257 2.6419,3.9628 8.5861,15.191 1.9814,16.512 -6.6047,1.3209 -45.572,-1.9814 -45.572,-1.9814 0,0 42.27,3.3024 42.27,-1.9813 0,-5.2838 -3.3024,-13.21 -9.907,-20.475 z" />
    <path
       id="path5017"
       fill="#ffdd55"
       d="m 589.74,538.79 c 0,0 35.665,-5.2837 42.93,3.3024 7.2651,8.5861 11.888,19.814 8.5861,19.814 -3.3024,0 -58.782,6.6047 -51.517,-23.116 z" />
    <path
       id="path5031"
       d="m 104.76,316.47 3.7284,17.208 -4.5888,-10.898 c 0,0 -1.434,-3.1548 0.86039,-6.3096 z" />
    <path
       id="path5033"
       d="m 102.18,326.23 5.736,17.208 -5.736,-8.0303 c 0,0 -2.2944,-4.0152 0,-9.1776 z" />
    <path
       id="path5035"
       d="m 109.06,354.33 -7.7436,-13.766 c 0,0 -2.2944,12.332 7.7436,13.766 z" />
    <path
       id="path5037"
       d="m 109.93,362.07 -6.8832,-3.4416 c 0,0 2.5812,3.1548 2.5812,6.0228 0,2.868 -0.8604,5.4492 -0.8604,5.4492 l 6.0228,-5.1624 c 0,0 -0.28679,-0.86041 -0.86039,-2.868 z" />
    <path
       id="path5039"
       d="m 109.93,372.11 -3.7284,2.868 2.0076,7.17 z" />
    <path
       id="path5041"
       d="m 112.51,379.28 -4.8756,10.038 c 0,0 1.1472,6.0228 2.868,8.0303 1.7208,2.0076 2.0076,-17.495 2.0076,-18.068 z" />
    <path
       id="path5043"
       d="m 115.09,383.58 -2.5812,17.208 c 0,0 0,4.8756 1.434,5.736 1.434,0.86041 1.434,2.0076 1.434,2.0076 l -0.2868,-24.952 z" />
    <path
       id="path5045"
       d="m 117.38,386.45 -0.2868,23.804 c 0,0 2.5812,1.434 3.1548,0.2868 0.57359,-1.1472 -2.5812,-23.804 -2.868,-24.091 z" />
    <path
       id="path5047"
       d="m 120.54,389.89 2.5812,19.502 0.8604,-3.4416 -3.4416,-16.061 z" />
    <path
       id="path5049"
       d="m 113.65,342.57 v -24.665 l -1.7208,-1.7208 1.7208,26.385 z" />
    <path
       id="path5051"
       d="m 116.24,346.01 0.2868,-21.51 c 0,0 3.7284,6.0228 -0.2868,21.51 z" />
    <path
       id="path5053"
       d="m 119.1,352.32 1.1472,-14.34 c 0,0 2.5812,9.1776 2.5812,11.472 0,2.2944 -4.0152,6.0228 -4.0152,6.0228 z" />
    <path
       id="path5055"
       d="m 120.25,359.21 3.4416,-4.0152 1.1472,10.325 -4.0152,-1.1472 c 0,0 0.2868,-2.5812 -0.57359,-5.1624 z" />
    <path
       id="path5057"
       d="m 121.97,370.68 4.0152,3.1548 -0.5736,3.1548 z" />
    <path
       id="path5059"
       d="m 120.82,379.57 5.736,13.48 -2.0076,2.5812 -3.7284,-16.061 z" />
    <path
       id="path5061"
       stroke="#000000"
       d="m 119.67,362.38 c 0.46153,6.1601 -0.76487,11.274 -2.7393,11.422 -1.9744,0.14792 -3.9491,-4.7259 -4.4106,-10.886 -0.46153,-6.1601 0.76487,-11.274 2.7393,-11.422 1.9744,-0.14792 3.9491,4.7259 4.4106,10.886 z" />
    <path
       id="path5063"
       fill="#4d4d4d"
       d="m 119.73,361.58 c 0.55474,5.7756 -0.36923,10.615 -2.0637,10.809 -1.6945,0.19424 -3.5179,-4.3304 -4.0726,-10.106 -0.55474,-5.7756 0.36922,-10.615 2.0637,-10.809 1.6945,-0.19424 3.5179,4.3304 4.0726,10.106 z" />
    <path
       id="path3755"
       opacity="0.75"
       fill="url(#linearGradient3763)"
       d="m 146.83,249.48 c 0,0 101.92,15.547 114.01,84.644 12.092,69.097 36.276,190.02 36.276,190.02 0,0 -129.56,-209.02 -150.29,-274.66 z"
       style="fill:url(#linearGradient8016)" />
    <path
       id="path3765"
       fill="url(#linearGradient3763)"
       d="m 345.49,285.75 c 0,0 101.92,72.552 126.1,129.56 24.184,57.005 -27.639,72.552 -31.094,96.736 -3.4548,24.184 -44.913,-103.65 -74.279,-114.01 -32.579,-11.498 -44.913,6.9097 -51.823,36.276 -6.9097,29.366 12.092,-89.826 31.094,-91.554 19.002,-1.7274 -17.274,25.911 10.365,25.911 27.639,0 0,-67.37 -10.365,-82.916 z"
       style="fill:url(#linearGradient8018)" />
    <path
       id="path3883"
       fill="#00007f"
       d="m 269.05,83.214 c 0,0 41.026,0.86371 54.846,16.842 6.8735,7.9475 54.414,-9.5008 118.33,-6.046 63.915,3.4549 -150.72,-9.069 -173.17,-10.796 z" />
    <path
       id="path3937"
       d="m 126.53,172.61 c 0,0 34.98,35.412 53.118,46.209 17.374,10.342 -46.209,-20.729 -53.118,-46.209 z" />
    <path
       id="path3939"
       fill="url(#linearGradient3947)"
       d="m 300.57,206.29 13.819,65.642 c 0,0 -48.368,-46.64 -13.819,-65.642 z"
       style="fill:url(#linearGradient3947)" />
  </g>
</svg>
