<?xml version="1.0" encoding="UTF-8" standalone="no"?>
<svg
   xml:space="preserve"
   height="115"
   width="115"
   version="1.1"
   y="0px"
   x="0px"
   viewBox="0 0 115 115"
   id="svg354"
   sodipodi:docname="chair_red_comfortable_seating.svg"
   inkscape:version="1.2.2 (b0a8486541, 2022-12-01)"
   inkscape:export-filename="sillon_rojo.png"
   inkscape:export-xdpi="96"
   inkscape:export-ydpi="96"
   xmlns:inkscape="http://www.inkscape.org/namespaces/inkscape"
   xmlns:sodipodi="http://sodipodi.sourceforge.net/DTD/sodipodi-0.dtd"
   xmlns:xlink="http://www.w3.org/1999/xlink"
   xmlns="http://www.w3.org/2000/svg"
   xmlns:svg="http://www.w3.org/2000/svg"><defs
   id="defs358">
			<radialGradient
   id="SVGID_1_"
   gradientUnits="userSpaceOnUse"
   cy="148.72"
   cx="49.349998"
   gradientTransform="matrix(-0.83277942,0,0,-0.19341518,98.93835,131.60178)"
   r="58.749001">
			<stop
   stop-opacity=".2196"
   offset="0"
   id="stop27" />
			<stop
   stop-opacity="0"
   offset="1"
   id="stop29" />
		</radialGradient>
		
			<radialGradient
   id="SVGID_2_"
   gradientUnits="userSpaceOnUse"
   cy="-161.35001"
   cx="-59.724998"
   gradientTransform="matrix(-0.83277942,-0.00630355,-0.02381749,0.227965,-0.52299471,149.58684)"
   r="7.8751998">
			<stop
   stop-opacity=".6078"
   offset="0"
   id="stop34" />
			<stop
   stop-opacity="0"
   offset="1"
   id="stop36" />
		</radialGradient>
		
			<radialGradient
   id="SVGID_3_"
   gradientUnits="userSpaceOnUse"
   cy="-143.62"
   cx="-24.728001"
   gradientTransform="matrix(-0.83277942,-0.00606417,-0.02398405,0.22852355,1.2849694,131.49007)"
   r="8.2502003">
			<stop
   stop-opacity=".6078"
   offset="0"
   id="stop41" />
			<stop
   stop-opacity="0"
   offset="1"
   id="stop43" />
		</radialGradient>
		
			<radialGradient
   id="SVGID_4_"
   gradientUnits="userSpaceOnUse"
   cy="-155.09"
   cx="-109.36"
   gradientTransform="matrix(-0.83277942,-0.00630355,-0.02381749,0.24192856,0.89023196,145.34191)"
   r="7.8751998">
			<stop
   stop-opacity=".6078"
   offset="0"
   id="stop48" />
			<stop
   stop-opacity="0"
   offset="1"
   id="stop50" />
		</radialGradient>
		
		
		
		
		
		
		
		
		
		
		
			<linearGradient
   id="SVGID_5_"
   y2="33.879002"
   gradientUnits="userSpaceOnUse"
   x2="-42.708"
   gradientTransform="matrix(-0.02698205,-0.79751845,0.83236303,-0.02585252,16.93884,-15.649333)"
   y1="33.879002"
   x1="-169.39999">
			<stop
   stop-color="#231F20"
   offset="0"
   id="stop113" />
			<stop
   stop-color="#231F20"
   stop-opacity=".7961"
   offset=".0902"
   id="stop115" />
			<stop
   stop-color="#231F20"
   stop-opacity="0"
   offset="1"
   id="stop117" />
		</linearGradient>
		
		
		
		
		
		
		
		
		
		
			<linearGradient
   id="SVGID_6_"
   y2="-58.673"
   gradientUnits="userSpaceOnUse"
   x2="-100.79"
   gradientTransform="matrix(-0.74217302,-0.36185555,0.37766547,-0.711104,16.938674,-15.650798)"
   y1="-58.673"
   x1="-159.34">
			<stop
   stop-opacity="0"
   offset=".1725"
   id="stop220" />
			<stop
   stop-opacity=".2667"
   offset="1"
   id="stop222" />
		</linearGradient>
		
		
		
		
		
		
		
		
		
		
		
		
		
		
		
		
		
		
		
		
		
			<linearGradient
   id="SVGID_7_"
   y2="-84.203003"
   gradientUnits="userSpaceOnUse"
   x2="-50.896999"
   gradientTransform="matrix(-0.73184655,-0.3806864,0.39731906,-0.70120982,16.938928,-15.64977)"
   y1="-84.203003"
   x1="-99">
			<stop
   stop-opacity="0"
   offset=".1725"
   id="stop267" />
			<stop
   stop-opacity=".2667"
   offset="1"
   id="stop269" />
		</linearGradient>
		
		
		
				<radialGradient
   id="SVGID_8_"
   gradientUnits="userSpaceOnUse"
   cy="114.7"
   cx="64.199997"
   gradientTransform="matrix(0.83277942,0,0,-0.20689998,16.938792,99.60114)"
   r="52.974998">
				<stop
   stop-color="#130C0E"
   stop-opacity="0"
   offset=".3137"
   id="stop278" />
				<stop
   stop-color="#130C0E"
   stop-opacity=".651"
   offset=".7961"
   id="stop280" />
				<stop
   stop-color="#130C0E"
   stop-opacity=".949"
   offset="1"
   id="stop282" />
			</radialGradient>
			
		
		
		
		
			
		
		
		
		
		
		
		
			
			
		
		
		
		
		
		
		
		
		
		
			
			
			
			
			
			
		
		
</defs><sodipodi:namedview
   id="namedview356"
   pagecolor="#ffffff"
   bordercolor="#666666"
   borderopacity="1.0"
   inkscape:showpageshadow="2"
   inkscape:pageopacity="0.0"
   inkscape:pagecheckerboard="0"
   inkscape:deskcolor="#d1d1d1"
   showgrid="false"
   inkscape:zoom="5.5669374"
   inkscape:cx="54.428491"
   inkscape:cy="70.775002"
   inkscape:window-width="1864"
   inkscape:window-height="1011"
   inkscape:window-x="0"
   inkscape:window-y="0"
   inkscape:window-maximized="1"
   inkscape:current-layer="svg354" />
<symbol
   id="flash0.ai_x2F_red_armchair_x2F__x3C_Path_x3E__x5F_2"
   viewBox="-0.008 -9.107 8.658 9.122">
	<g
   id="Layer_1_7_">
		<path
   fill-rule="evenodd"
   clip-rule="evenodd"
   d="M 7.4,-1.15 C 8.233,-2.017 8.65,-3.133 8.65,-4.5 8.65,-5.667 8.467,-6.65 8.1,-7.45 7.633,-8.383 6.983,-8.9 6.15,-9 c -2,-0.233 -3.483,-0.083 -4.45,0.45 -0.934,0.5 -1.483,1.4 -1.65,2.7 -0.2,1.8 0.117,3.217 0.95,4.25 0.767,0.967 1.817,1.5 3.15,1.6 1.3,0.1 2.383,-0.283 3.25,-1.15 z"
   fill="#a01f1f"
   id="path2" />
	</g>
</symbol>
<symbol
   id="flash0.ai_x2F_red_armchair_x2F__x3C_Path_x3E__x5F_3"
   viewBox="0.028 -10.048 9.422 10.022">
	<g
   id="Layer_1_6_">
		<path
   fill-rule="evenodd"
   clip-rule="evenodd"
   d="M 4.55,-0.05 C 6.017,0.083 7.2,-0.333 8.1,-1.3 9,-2.233 9.45,-3.467 9.45,-5 c 0,-1.267 -0.2,-2.35 -0.6,-3.25 -0.467,-1.033 -1.167,-1.6 -2.1,-1.7 -2.2,-0.233 -3.833,-0.05 -4.9,0.55 -1,0.533 -1.583,1.517 -1.75,2.95 -0.233,2 0.1,3.567 1,4.7 0.833,1.033 1.983,1.6 3.45,1.7 z"
   fill="#a01f1f"
   id="path6" />
	</g>
</symbol>
<symbol
   id="flash0.ai_x2F_red_armchair_x2F__x3C_Path_x3E__x5F_4"
   viewBox="-0.02 -10.252 9.72 10.226">
	<g
   id="Layer_1_5_">
		<path
   fill-rule="evenodd"
   clip-rule="evenodd"
   d="m 4.6,-0.05 c 1.5,0.133 2.733,-0.3 3.7,-1.3 0.933,-0.933 1.4,-2.183 1.4,-3.75 0,-1.3 -0.217,-2.4 -0.65,-3.3 -0.5,-1.067 -1.216,-1.65 -2.15,-1.75 -2.233,-0.233 -3.9,-0.067 -5,0.5 -1.067,0.567 -1.683,1.583 -1.85,3.05 -0.233,2.033 0.117,3.633 1.05,4.8 0.833,1.067 2,1.65 3.5,1.75 z"
   fill="#a01f1f"
   id="path10" />
	</g>
</symbol>
<symbol
   id="flash0.ai_x2F_red_armchair_x2F__x3C_Path_x3E__x5F_5"
   viewBox="0.028 -9.802 9.222 9.777">
	<g
   id="Layer_1_4_">
		<path
   fill-rule="evenodd"
   clip-rule="evenodd"
   d="m 4.45,-0.05 c 1.433,0.133 2.6,-0.267 3.5,-1.2 0.867,-0.933 1.3,-2.133 1.3,-3.6 0,-1.267 -0.2,-2.333 -0.6,-3.2 C 8.183,-9.05 7.5,-9.6 6.6,-9.7 4.467,-9.933 2.883,-9.767 1.85,-9.2 c -1,0.534 -1.583,1.5 -1.75,2.9 -0.233,1.933 0.1,3.466 1,4.6 0.8,1 1.917,1.55 3.35,1.65 z"
   fill="#a01f1f"
   id="path14" />
	</g>
</symbol>
<symbol
   id="flash0.ai_x2F_red_armchair_x2F__x3C_Path_x3E__x5F_6"
   viewBox="-0.006 -9.556 9.006 9.581">
	<g
   id="Layer_1_3_">
		<path
   fill-rule="evenodd"
   clip-rule="evenodd"
   d="M 7.7,-1.2 C 8.567,-2.1 9,-3.283 9,-4.75 9,-5.95 8.8,-6.983 8.4,-7.85 7.967,-8.817 7.317,-9.35 6.45,-9.45 4.35,-9.683 2.783,-9.533 1.75,-9 c -0.967,0.533 -1.533,1.483 -1.7,2.85 -0.2,1.9 0.133,3.4 1,4.5 C 1.817,-0.683 2.9,-0.133 4.3,0 5.7,0.133 6.833,-0.267 7.7,-1.2 Z"
   fill="#a01f1f"
   id="path18" />
	</g>
</symbol>
<symbol
   id="flash0.ai_x2F_red_armchair_x2F__x3C_Path_x3E__x5F_7"
   viewBox="-0.02 -10.473 9.87 10.447">
	<g
   id="Layer_1_2_">
		<path
   fill-rule="evenodd"
   clip-rule="evenodd"
   d="m 4.7,-0.05 c 1.533,0.133 2.783,-0.3 3.75,-1.3 0.933,-1 1.4,-2.283 1.4,-3.85 0,-1.367 -0.217,-2.5 -0.65,-3.4 -0.467,-1.066 -1.184,-1.65 -2.15,-1.75 -2.3,-0.267 -4,-0.1 -5.1,0.5 -1.1,0.567 -1.733,1.6 -1.9,3.1 -0.233,2.067 0.117,3.7 1.05,4.9 0.867,1.1 2.067,1.7 3.6,1.8 z"
   fill="#a01f1f"
   id="path22" />
	</g>
</symbol>
<symbol
   id="price_x5F_tag_x5F_pt_x5F_mc">
</symbol>

<g
   id="g1097"><path
     fill-rule="evenodd"
     clip-rule="evenodd"
     d="m 111.43004,102.85281 c 0,3.43105 -5.23235,6.36978 -15.698724,8.81699 -10.49302,2.42008 -23.13711,3.63052 -37.933102,3.63052 -12.991359,0 -24.455401,-0.97026 -34.39379,-2.9116 -9.826798,-1.915 -15.9060873,-4.33588 -18.2378697,-7.26184 -0.083278,-0.77079 -0.388908,-1.48892 -0.9160574,-2.15358 v -0.11969 c 0,-3.457375 5.2323531,-6.396903 15.6978921,-8.816987 10.437224,-2.446415 23.053833,-3.671218 37.849825,-3.671218 14.795992,0 27.440082,1.224006 37.933102,3.671218 10.468874,2.41769 15.698724,5.362005 15.698724,8.816987 z"
     fill="url(#SVGID_1_)"
     id="path32"
     style="fill:url(#SVGID_1_);stroke-width:0.815162" /><g
     clip-rule="evenodd"
     fill-rule="evenodd"
     id="g69"
     transform="matrix(0.83277942,0,0,0.79791741,16.938792,-15.650051)">
			<path
   d="m 48.55,145.85 c -0.2,7.8 -0.55,12.35 -1.05,13.65 -0.3,0.8 -1.333,1.5 -3.1,2.1 l -2.55,0.601 -3.05,-1.8 0.2,-3.9 c 1.567,-0.7 2.55,-1.65 2.95,-2.85 0.4,-1.2 -0.35,-3.851 -2.25,-7.95 l 8.85,0.15 z"
   fill="#1e1e1e"
   id="path55" />
			<path
   d="m 50.85,147.9 c 0,2.8 0.05,4.733 0.15,5.8 0.033,0.366 -0.017,1.217 -0.15,2.55 -0.133,1.267 -0.767,2.55 -1.9,3.85 l -1.7,1.551 -5.4,0.55 -0.3,-4.05 1.3,-0.301 c 0.9,-0.399 1.467,-1.116 1.7,-2.149 0.267,-1 0.05,-2.55 -0.65,-4.65 l -1.15,-2.899 8.1,-0.25 z"
   fill="#353535"
   id="path57" />
			<polygon
   points="39,156.5 41.55,158.15 41.85,162.2 38.8,160.4 "
   fill="#2b2b2b"
   id="polygon59" />
			<path
   d="m 50.8,147.2 0.6,4.05 c 0.1,1.2 -0.083,2.866 -0.55,5 -0.733,-1.833 -1.65,-3.3 -2.75,-4.4 -0.667,-0.699 -1.583,-1.149 -2.75,-1.35 l -1.6,-0.15 -1,-2.199 8.05,-0.95 z"
   fill="#2b2b2b"
   id="path61" />
			<path
   d="m 46.75,158.2 c -0.566,1.1 -1.167,1.733 -1.8,1.899 l -3.25,0.9 v -2.4 c 1.7,-0.5 2.633,-1.199 2.8,-2.1 0.133,-0.566 0.15,-1.517 0.05,-2.85 l -0.2,-1.801 1.65,0.65 c 1.1,0.634 1.65,1.417 1.65,2.35 0,1.1 -0.3,2.22 -0.9,3.35 z"
   fill="#3f3f3f"
   id="path63" />
			<path
   d="m 43.3,149.6 1.3,1.851 c 0.8,1.533 1.066,3.017 0.8,4.45 -0.133,0.8 -0.816,1.416 -2.05,1.85 l -1.8,0.4 c 1.733,-0.667 2.733,-1.483 3,-2.45 0.233,-0.967 0.1,-2.283 -0.4,-3.95 l -0.85,-2.15 z"
   fill="#5b5b5b"
   id="path65" />
			<polygon
   points="40.9,148.85 39.7,145.7 42.7,147.2 43.75,150.35 "
   fill="#111111"
   id="polygon67" />
		</g><g
     clip-rule="evenodd"
     fill-rule="evenodd"
     id="g81"
     transform="matrix(0.83277942,0,0,0.79791741,16.938792,-15.650051)">
			<path
   d="m 96.6,145.5 c -0.566,2.967 -0.649,4.833 -0.25,5.6 0.467,0.934 1.25,1.467 2.351,1.601 0.566,0.066 1.066,0.033 1.5,-0.101 l -0.75,3.75 -5.3,0.7 -4.65,-2.2 c -0.767,-1.899 -1.267,-3.899 -1.5,-6 -0.133,-1.233 -0.167,-2.533 -0.1,-3.899 l 0.1,-1.65 9.55,-2.05 -0.95,4.25 z"
   fill="#1e1e1e"
   id="path71" />
			<path
   d="m 97.5,142.4 -0.4,2.5 c -0.199,2 -0.133,3.866 0.2,5.6 0.2,1 0.884,1.533 2.05,1.6 0.601,0 1.167,-0.083 1.7,-0.25 l -1.6,4.5 -5.3,0.7 c -0.167,-0.033 -0.367,-0.217 -0.601,-0.55 -0.467,-0.6 -0.866,-1.583 -1.2,-2.95 -0.366,-1.366 -0.732,-3.3 -1.1,-5.8 l -0.45,-3.35 z"
   fill="#3f3f3f"
   id="path73" />
			<path
   d="m 96.7,145.7 -0.05,2.35 c 0.033,1.667 0.25,2.684 0.649,3.05 0.7,0.601 1.95,0.851 3.75,0.75 -0.633,0.267 -1.316,0.45 -2.05,0.551 -1.467,0.233 -2.434,0 -2.9,-0.7 -0.466,-0.7 -0.5,-1.917 -0.1,-3.65 l 0.7,-2.35 z"
   fill="#5b5b5b"
   id="path75" />
			<path
   d="m 90.55,144 6.95,-2.05 -2.15,4.25 c -0.3,0.3 -0.6,0.684 -0.899,1.149 -0.634,0.9 -0.934,1.784 -0.9,2.65 0,1.1 0.267,2.2 0.8,3.3 0.601,1.233 1.284,1.884 2.051,1.95 1.1,0.066 2.217,0.1 3.35,0.1 -0.2,0.667 -2.066,1.233 -5.6,1.7 -0.434,-0.133 -0.9,-0.467 -1.4,-1 -1,-1.033 -1.633,-2.483 -1.9,-4.35 -0.166,-1.4 -0.267,-3.101 -0.3,-5.101 v -2.6 z"
   fill="#353535"
   id="path77" />
			<polygon
   points="90.55,143.15 97.5,141.95 95.85,144.95 90.4,146.9 "
   fill="#2b2b2b"
   id="polygon79" />
		</g><g
     clip-rule="evenodd"
     fill-rule="evenodd"
     id="g97"
     transform="matrix(0.83277942,0,0,0.79791741,16.938792,-15.650051)">
			<path
   d="m 2.65,143.45 0.15,-3.9 c 1.634,-0.7 2.634,-1.649 3,-2.85 0.4,-1.2 -0.35,-3.851 -2.25,-7.95 l 8.85,0.15 c -0.2,7.8 -0.55,12.35 -1.05,13.649 -0.3,0.8 -1.333,1.5 -3.1,2.101 l -2.55,0.6 z"
   fill="#1e1e1e"
   id="path83" />
			<path
   d="m 6.6,131.2 8.1,-0.25 c 0,2.8 0.05,4.733 0.15,5.8 0.033,0.366 -0.017,1.217 -0.15,2.55 -0.133,1.267 -0.767,2.55 -1.9,3.851 l -1.7,1.55 -5.4,0.55 -0.3,-4.05 1.3,-0.3 c 0.9,-0.4 1.466,-1.117 1.7,-2.15 0.267,-1 0.05,-2.55 -0.65,-4.65 l -1.15,-2.9 z"
   fill="#353535"
   id="path85" />
			<polygon
   points="2.8,139.55 5.4,141.2 5.7,145.25 2.65,143.45 "
   fill="#2b2b2b"
   id="polygon87" />
			<path
   d="m 7.6,133.4 -1,-2.2 8.05,-0.95 0.6,4.05 c 0.1,1.2 -0.083,2.867 -0.55,5 -0.733,-1.833 -1.633,-3.3 -2.7,-4.399 -0.7,-0.7 -1.65,-1.15 -2.85,-1.351 z"
   fill="#2b2b2b"
   id="path89" />
			<path
   d="m 8.2,134.9 1.65,0.649 c 1.1,0.634 1.65,1.417 1.65,2.351 0,1.1 -0.3,2.216 -0.9,3.35 -0.567,1.1 -1.167,1.733 -1.8,1.9 l -3.3,0.899 v -2.399 c 1.7,-0.5 2.65,-1.2 2.85,-2.101 0.133,-0.566 0.15,-1.517 0.05,-2.85 l -0.2,-1.8 z"
   fill="#3f3f3f"
   id="path91" />
			<path
   d="m 7.15,132.65 1.3,1.85 c 0.8,1.533 1.066,3.017 0.8,4.45 -0.133,0.8 -0.816,1.416 -2.05,1.85 l -1.8,0.4 c 1.733,-0.667 2.733,-1.483 3,-2.45 0.233,-0.967 0.1,-2.283 -0.4,-3.95 z"
   fill="#5b5b5b"
   id="path93" />
			<polygon
   points="6.55,130.25 7.6,133.4 4.75,131.9 3.55,128.75 "
   fill="#111111"
   id="polygon95" />
		</g><path
     fill-rule="evenodd"
     clip-rule="evenodd"
     d="m 23.226277,9.1252841 c 3.053802,0.319167 5.843613,0.9710659 8.369433,1.9548979 0.08328,-0.346296 0.249834,-0.784353 0.499667,-1.3165639 0.471354,-1.0636239 1.068456,-2.0610208 1.790476,-2.9921904 2.304301,-2.8988338 5.427224,-4.4946686 9.368769,-4.7875044 3.164561,-0.213044 6.204206,0.9176051 9.118934,3.391149 1.443207,1.2495386 2.567459,2.5134399 3.372757,3.7901078 l 0.999335,-0.3989589 c 0.83278,-0.2928356 1.73468,-0.4651858 2.706533,-0.5186463 3.108766,-0.1332521 6.273328,0.9176051 9.493686,3.1517741 3.219525,2.234169 3.635915,7.021673 1.249169,14.362514 -1.221688,3.803672 -2.956367,8.098861 -5.204871,12.886366 -0.582946,2.367421 -1.013493,6.343443 -1.290809,11.928865 -0.30563,6.010712 -0.166555,9.960403 0.41639,11.849074 0.52715,1.702755 1.526485,3.72388 2.998006,6.06497 0.749502,1.196876 1.429882,2.207837 2.04031,3.032086 l -46.385814,3.67042 c 1.832115,-3.350455 3.511831,-6.582819 5.038315,-9.693899 1.165892,-2.287629 0.624585,-6.49026 -1.623919,-12.607095 -2.22019,-6.090503 -4.761,-10.452718 -7.619932,-13.085845 C 15.50891,36.987763 12.927294,32.599217 10.817863,26.641168 8.5693586,20.310491 8.3478393,15.921945 10.151639,13.47553 12.760738,9.9910246 17.119505,8.5412086 23.226277,9.1268799 Z"
     fill="#353535"
     id="path99"
     style="stroke-width:0.815162" /><path
     fill-rule="evenodd"
     clip-rule="evenodd"
     d="m 101.84065,89.714943 c 0.41639,2.31396 0.12409,4.269656 -0.87442,5.865491 -1.388238,2.2605 -5.288977,3.776543 -11.701378,4.547326 -0.582113,0.0806 -1.124252,0.70536 -1.623087,1.87591 -0.582946,1.32933 -1.554799,2.30039 -2.914728,2.9116 -0.999336,0.45242 -2.332615,0.78435 -3.998174,0.9974 l -2.206033,0.19947 V 98.452139 L 65.9895,64.221482 67.820782,62.78523 c 1.527317,-0.9575 3.081284,-1.436251 4.664397,-1.436251 1.720523,0 3.289479,0.133252 4.704371,0.398959 0.777816,0.133252 2.568292,0.558542 5.371428,1.276668 3.108765,0.797917 7.300977,2.420881 12.575802,4.868094 6.10677,2.819042 9.50701,5.026879 10.20155,6.622714 0.83278,1.915002 1.13757,3.976023 0.91605,6.18386 -0.27731,2.367421 -1.09593,3.897029 -2.4567,4.588025 l -2.91472,1.436252 0.95769,2.99219 z"
     fill="#353535"
     id="path101"
     style="stroke-width:0.815162" /><path
     fill-rule="evenodd"
     clip-rule="evenodd"
     d="m 26.848867,12.875496 c 2.387579,-0.02633 4.621926,0.159584 6.703874,0.558543 l 3.164562,-4.1491713 c 2.692376,-2.7129192 5.440548,-3.9496912 8.244516,-3.7103161 4.525324,0.3718295 7.440052,1.7019578 8.744184,3.9895872 0.638742,1.1434162 0.83278,2.2469362 0.582946,3.3113572 l 4.788482,-0.797917 c 3.775822,-0.106123 7.147745,0.891274 10.11827,2.99219 2.969691,2.128046 3.345275,6.635481 1.124252,13.5247 -1.137577,3.590629 -2.748172,7.646443 -4.830121,12.168241 -0.527149,2.207837 -0.916057,5.944485 -1.165058,11.210739 -0.250667,5.665214 -0.111593,9.389095 0.416389,11.170844 0.471354,1.595835 1.387411,3.510837 2.748173,5.745006 0.666223,1.089955 1.290808,2.034689 1.873753,2.832606 l -42.763223,3.470941 c 1.665559,-3.16454 3.206201,-6.210191 4.621926,-9.135356 1.110095,-2.261298 0.971853,-6.250885 -0.41639,-11.968761 C 29.361363,48.18414 27.376016,44.034969 24.850196,41.641217 22.074543,39.034421 19.756085,34.765563 17.896488,28.834643 15.953614,22.610887 15.81454,18.328464 17.480099,15.988172 c 1.471521,-2.048254 4.594444,-3.085546 9.368768,-3.111878 z"
     fill="#2d2d2d"
     id="path103"
     style="stroke-width:0.815162" /><path
     fill-rule="evenodd"
     clip-rule="evenodd"
     d="m 98.75937,89.236193 c 0.471353,2.845373 0.291473,4.720479 -0.541307,5.625317 -0.721187,0.824249 -1.915392,1.382791 -3.580951,1.675627 l -2.248505,0.240173 -27.315165,-25.613149 0.666224,-6.941881 0.957696,1.15698 c 0.887743,0.797917 1.901236,1.290232 3.039645,1.476945 1.137577,0.213044 6.5648,0.797917 16.280838,1.75462 4.857602,0.479549 9.59112,0.93117 14.198885,1.35646 l 2.74818,2.393752 c -0.77699,-0.106123 -1.62392,-0.09256 -2.53998,0.0399 -1.832116,0.266505 -3.067961,1.050857 -3.70587,2.353856 -0.748668,1.569504 -1.137576,3.324922 -1.165058,5.267053 0,1.967665 0.388908,3.297793 1.165058,3.989587 0.888576,0.742064 1.568957,2.489503 2.04031,5.226359 z"
     fill="#1c1c1c"
     id="path105"
     style="stroke-width:0.815162" /><path
     fill-rule="evenodd"
     clip-rule="evenodd"
     d="m 28.056397,13.753206 c 2.331783,0 4.511166,0.185914 6.537319,0.558542 L 37.675,10.242369 c 2.609097,-2.6594592 5.288149,-3.8699 8.036321,-3.6305247 4.386249,0.3726275 7.203542,1.6756266 8.452711,3.9097957 0.638742,1.144214 0.832779,2.234169 0.582946,3.271461 l 4.663564,-0.797917 c 3.66423,-0.106123 6.939551,0.877709 9.826798,2.952294 2.887246,2.074586 3.247839,6.516592 1.082613,13.325221 -1.110095,3.537966 -2.664062,7.527553 -4.663565,11.968761 -0.499668,2.234169 -0.874418,5.931718 -1.124252,11.091052 -0.278148,5.585422 -0.153232,9.255842 0.373918,11.011261 0.749501,2.500673 2.262661,5.30615 4.538648,8.418028 L 27.84737,75.192846 c 1.609762,-3.11108 3.108765,-6.10327 4.497008,-8.976571 1.082614,-2.234168 0.94354,-6.18386 -0.416389,-11.849073 -1.415725,-5.798466 -3.345275,-9.867047 -5.787817,-12.208137 -2.692376,-2.579667 -4.94088,-6.795862 -6.745513,-12.646991 -1.887911,-6.143964 -2.026986,-10.372926 -0.41639,-12.686886 1.416558,-2.021125 4.442045,-3.045651 9.078128,-3.071982 z"
     fill="#a01f1f"
     id="path107"
     style="stroke-width:0.815162" /><path
     fill-rule="evenodd"
     clip-rule="evenodd"
     d="m 20.519744,32.703744 c -1.748837,-4.415675 -2.609098,-8.27201 -2.581617,-11.569802 0.41639,0.824248 1.082614,1.183311 1.998671,1.077188 1.249169,-0.159583 2.470856,-0.771586 3.664229,-1.83521 0.610428,-0.532211 1.082614,-1.050059 1.415725,-1.555939 l 9.410408,16.875953 c 6.190882,11.649595 9.133092,18.524451 8.827462,20.626165 -0.41639,2.925166 -2.845608,8.990136 -7.28682,18.192517 l -8.1196,0.67823 c 1.609763,-3.11108 3.108766,-6.10327 4.497009,-8.976571 1.082614,-2.234168 0.943539,-6.18386 -0.416389,-11.849073 -1.415725,-5.798466 -3.345275,-9.867047 -5.787817,-12.208137 -2.026153,-1.941333 -3.899906,-5.093904 -5.621261,-9.455321 z"
     fill="#6b1a1a"
     id="path109"
     style="stroke-width:0.815162" /><path
     fill-rule="evenodd"
     clip-rule="evenodd"
     d="m 31.137681,14.790498 c 2.221023,0 4.302971,0.185915 6.245846,0.558542 l 2.914728,-3.750211 c 2.498338,-2.4998762 5.052472,-3.7502128 7.66157,-3.7502128 2.609098,0 4.830121,1.1697469 6.662236,3.5108368 0.916057,1.143416 1.568123,2.300396 1.957031,3.470941 l 1.499003,-0.558542 c 1.221688,-0.372628 2.415061,-0.612003 3.580952,-0.718126 3.774989,-0.292835 6.634753,0.943937 8.577628,3.710316 1.638077,2.313961 1.679716,6.662611 0.124917,13.04595 -0.805298,3.297792 -1.92955,7.021673 -3.37359,11.170844 -1.025984,4.628718 -1.665558,8.006303 -1.915392,10.133551 -0.693706,5.372378 -0.471353,9.575009 0.666223,12.607095 0.888576,2.393752 2.4567,5.027677 4.705204,7.899382 L 30.928653,74.47472 c 1.5548,-3.032086 2.983849,-5.944484 4.288814,-8.737195 1.026818,-2.180708 0.901901,-6.010712 -0.37475,-11.490011 -1.359929,-5.638084 -3.206201,-9.60134 -5.537983,-11.888171 -2.581617,-2.500674 -4.733519,-6.596384 -6.454041,-12.287928 -1.804633,-5.930921 -1.92955,-10.026631 -0.374751,-12.287929 1.360762,-1.96926 4.248008,-2.966657 8.661739,-2.992988 z"
     fill="#871e1e"
     id="path111"
     style="stroke-width:0.815162" /><path
     fill-rule="evenodd"
     clip-rule="evenodd"
     d="m 31.137681,14.790498 c 2.221023,0 4.302971,0.185915 6.245846,0.558542 l 2.914728,-3.750211 c 2.498338,-2.4998762 5.052472,-3.7502128 7.66157,-3.7502128 2.609098,0 4.830121,1.1697469 6.662236,3.5108368 0.916057,1.143416 1.568123,2.300396 1.957031,3.470941 l 1.499003,-0.558542 c 1.221688,-0.372628 2.415061,-0.612003 3.580952,-0.718126 3.774989,-0.292835 6.634753,0.943937 8.577628,3.710316 1.638077,2.313961 1.679716,6.662611 0.124917,13.04595 -0.805298,3.297792 -1.92955,7.021673 -3.37359,11.170844 -1.025984,4.628718 -1.665558,8.006303 -1.915392,10.133551 -0.693706,5.372378 -0.471353,9.575009 0.666223,12.607095 0.888576,2.393752 2.4567,5.027677 4.705204,7.899382 L 30.928653,74.47472 c 1.5548,-3.032086 2.983849,-5.944484 4.288814,-8.737195 1.026818,-2.180708 0.901901,-6.010712 -0.37475,-11.490011 -1.359929,-5.638084 -3.206201,-9.60134 -5.537983,-11.888171 -2.581617,-2.500674 -4.733519,-6.596384 -6.454041,-12.287928 -1.804633,-5.930921 -1.92955,-10.026631 -0.374751,-12.287929 1.360762,-1.96926 4.248008,-2.966657 8.661739,-2.992988 z"
     fill="url(#SVGID_5_)"
     id="path120"
     style="fill:url(#SVGID_5_);stroke-width:0.815162" /><g
     clip-rule="evenodd"
     fill-rule="evenodd"
     id="g132"
     transform="matrix(0.83277942,0,0,0.79791741,16.938792,-15.650051)">
			<path
   d="m 16,50.05 c 0.967,-0.6 1.684,-0.933 2.15,-1 -1.066,1.5 -1.783,2.434 -2.15,2.8 -0.3,0.3 -0.433,0.8 -0.4,1.5 0.066,0.7 0.283,1.133 0.65,1.3 0.5,0.233 1.2,0.95 2.1,2.15 -1.2,-0.233 -2.017,-0.466 -2.45,-0.7 -0.3,-0.133 -0.767,-0.067 -1.4,0.2 l -0.85,0.4 0.8,2.7 C 13.916,58.867 13.467,58.334 13.1,57.8 12.867,57.467 12.683,57.067 12.55,56.6 L 12.4,56 c -0.733,-0.233 -1.4,-0.2 -2,0.1 -0.367,0.2 -0.95,0.617 -1.75,1.25 l -1.1,0.9 C 7.617,57.983 7.7,57.7 7.8,57.4 8.033,56.767 8.3,56.3 8.6,56 c 0.433,-0.434 1.066,-1 1.9,-1.7 0.3,-1.333 0.15,-2.183 -0.45,-2.55 -0.366,-0.233 -1.066,-0.867 -2.1,-1.9 l -1.4,-1.5 1.4,0.35 c 1.033,0.3 1.8,0.6 2.3,0.9 0.833,0.433 1.367,1 1.6,1.7 h 1.35 c 0.833,-0.2 1.767,-0.617 2.8,-1.25 z"
   fill="#6b1a1a"
   id="path122" />
			<path
   d="m 15.65,53.65 c 0,0.767 -0.25,1.434 -0.75,2 -0.5,0.533 -1.1,0.8 -1.8,0.8 -0.733,0 -1.35,-0.267 -1.85,-0.8 -0.5,-0.566 -0.75,-1.233 -0.75,-2 0,-0.767 0.25,-1.433 0.75,-2 0.5,-0.533 1.117,-0.8 1.85,-0.8 0.7,0 1.3,0.267 1.8,0.8 0.5,0.567 0.75,1.233 0.75,2 z"
   fill="#541515"
   id="path124" />
			<path
   d="m 14.45,53.65 c 0,0.533 -0.15,0.983 -0.45,1.35 -0.333,0.367 -0.717,0.55 -1.15,0.55 -0.434,0 -0.817,-0.183 -1.15,-0.55 -0.3,-0.367 -0.45,-0.817 -0.45,-1.35 0,-0.533 0.15,-0.983 0.45,-1.35 0.333,-0.367 0.716,-0.55 1.15,-0.55 0.433,0 0.816,0.183 1.15,0.55 0.3,0.367 0.45,0.817 0.45,1.35 z"
   fill="#a01f1f"
   id="path126" />
			<path
   d="m 14.45,53.3 c 0,0.434 -0.133,0.8 -0.4,1.1 -0.233,0.3 -0.533,0.45 -0.9,0.45 -0.367,0 -0.667,-0.15 -0.9,-0.45 -0.267,-0.3 -0.4,-0.667 -0.4,-1.1 0,-0.433 0.133,-0.8 0.4,-1.1 0.233,-0.3 0.533,-0.45 0.9,-0.45 0.367,0 0.667,0.15 0.9,0.45 0.267,0.3 0.4,0.667 0.4,1.1 z"
   fill="#ad2727"
   id="path128" />
			<path
   d="m 14.45,53.05 c 0,0.367 -0.1,0.684 -0.3,0.95 -0.233,0.267 -0.5,0.4 -0.8,0.4 -0.3,0 -0.55,-0.133 -0.75,-0.4 -0.233,-0.267 -0.35,-0.583 -0.35,-0.95 0,-0.367 0.117,-0.667 0.35,-0.9 0.2,-0.267 0.45,-0.4 0.75,-0.4 0.3,0 0.566,0.133 0.8,0.4 0.2,0.233 0.3,0.533 0.3,0.9 z"
   fill="#b73d3d"
   id="path130" />
		</g><g
     clip-rule="evenodd"
     fill-rule="evenodd"
     id="g144"
     transform="matrix(0.83277942,0,0,0.79791741,16.938792,-15.650051)">
			<path
   d="m 36.6,46.55 c 0.5,-0.4 1.7,-0.9 3.6,-1.5 -1,0.967 -1.7,1.6 -2.1,1.9 -0.233,0.2 -0.45,0.466 -0.65,0.8 L 37.2,48.2 h 0.4 c 0.367,-0.034 0.8,-0.15 1.3,-0.35 0.8,-0.3 2.034,-0.55 3.7,-0.75 -2,1.333 -3.233,2.233 -3.7,2.7 -0.3,0.3 -0.433,0.817 -0.4,1.55 0.033,0.667 0.2,1.2 0.5,1.6 0.4,0.5 1.2,1.267 2.4,2.3 l -4.65,-0.9 c -0.267,0 -0.683,0.117 -1.25,0.35 -0.533,0.233 -0.95,0.45 -1.25,0.65 l -2.3,1.25 0.8,-1.7 c 0.2,-0.367 0.283,-0.75 0.25,-1.15 l -0.85,0.4 -2,1.2 0.45,-0.85 c 0.367,-0.6 0.683,-1 0.95,-1.2 0.367,-0.233 0.583,-0.716 0.65,-1.45 0.066,-0.733 -0.117,-1.2 -0.55,-1.4 C 31.25,50.316 30.533,50.166 29.5,50 l -1.4,-0.2 2.55,-0.55 c 1.233,-0.067 1.784,-0.184 1.65,-0.35 -0.167,-0.267 -0.767,-0.717 -1.8,-1.35 l -1.5,-0.9 1.5,0.3 c 1.033,0.233 1.667,0.433 1.9,0.6 0.434,0.3 1.083,0.65 1.95,1.05 L 34.8,48 Z"
   fill="#6b1a1a"
   id="path134" />
			<path
   d="m 37.8,51.55 c 0,0.767 -0.25,1.434 -0.75,2 -0.533,0.567 -1.15,0.85 -1.85,0.85 -0.733,0 -1.35,-0.283 -1.85,-0.85 -0.5,-0.566 -0.75,-1.233 -0.75,-2 0,-0.767 0.25,-1.433 0.75,-2 0.5,-0.533 1.117,-0.8 1.85,-0.8 0.7,0 1.316,0.267 1.85,0.8 0.5,0.567 0.75,1.233 0.75,2 z"
   fill="#541515"
   id="path136" />
			<path
   d="m 36.55,51.55 c 0,0.534 -0.15,0.983 -0.45,1.35 -0.333,0.367 -0.717,0.55 -1.15,0.55 -0.434,0 -0.8,-0.184 -1.1,-0.55 -0.333,-0.367 -0.5,-0.816 -0.5,-1.35 0,-0.533 0.167,-0.983 0.5,-1.35 0.3,-0.367 0.667,-0.55 1.1,-0.55 0.433,0 0.816,0.184 1.15,0.55 0.3,0.366 0.45,0.817 0.45,1.35 z"
   fill="#a01f1f"
   id="path138" />
			<path
   d="m 36.55,51.2 c 0,0.433 -0.116,0.8 -0.35,1.1 -0.267,0.3 -0.583,0.45 -0.95,0.45 -0.367,0 -0.667,-0.15 -0.9,-0.45 -0.267,-0.3 -0.4,-0.667 -0.4,-1.1 0,-0.434 0.133,-0.8 0.4,-1.1 0.233,-0.3 0.533,-0.45 0.9,-0.45 0.367,0 0.684,0.15 0.95,0.45 0.234,0.3 0.35,0.667 0.35,1.1 z"
   fill="#b22f2f"
   id="path140" />
			<path
   d="m 36.55,51 c 0,0.367 -0.1,0.667 -0.3,0.9 -0.233,0.267 -0.5,0.4 -0.8,0.4 -0.3,0 -0.55,-0.133 -0.75,-0.4 -0.233,-0.233 -0.35,-0.533 -0.35,-0.9 0,-0.367 0.117,-0.684 0.35,-0.95 0.2,-0.267 0.45,-0.4 0.75,-0.4 0.3,0 0.566,0.133 0.8,0.4 0.2,0.266 0.3,0.583 0.3,0.95 z"
   fill="#b73d3d"
   id="path142" />
		</g><g
     clip-rule="evenodd"
     fill-rule="evenodd"
     id="g156"
     transform="matrix(0.83277942,0,0,0.79791741,16.938792,-15.650051)">
			<path
   d="m 57.35,47 c 1.4,-1.8 2.317,-2.85 2.75,-3.15 l -0.399,1.1 c -0.167,0.633 -0.05,0.767 0.35,0.4 0.634,-0.6 1.483,-0.867 2.55,-0.8 0.2,0.233 0,0.7 -0.6,1.4 -0.533,0.633 -0.833,1.433 -0.9,2.4 -0.1,0.9 0.034,1.4 0.4,1.5 0.667,0.2 1.583,0.8 2.75,1.8 -0.866,-0.066 -1.55,-0.066 -2.05,0 -0.5,0.067 -0.684,0.15 -0.55,0.25 0.533,0.333 0.85,0.55 0.949,0.65 0.467,0.5 0.867,1.15 1.2,1.95 -1.033,-0.533 -1.883,-0.934 -2.55,-1.2 -1.066,-0.466 -1.767,-0.716 -2.1,-0.75 -0.834,-0.133 -1.634,0.167 -2.4,0.9 l -3.1,2.7 1.4,-2.7 c 0.167,-0.3 0.417,-0.65 0.75,-1.05 0.167,-0.167 0.317,-0.316 0.45,-0.45 -0.866,-2 -1.7,-3.15 -2.5,-3.45 -0.467,-0.2 -1.083,-0.383 -1.85,-0.55 l -1,-0.2 h 2.4 c 0.9,0 1.55,0.1 1.95,0.3 0.267,-0.1 0.217,-0.4 -0.15,-0.9 -0.232,-0.3 -0.933,-0.767 -2.1,-1.4 l -1.7,-0.85 1.4,0.15 c 1.066,0.2 1.883,0.45 2.45,0.75 z"
   fill="#6b1a1a"
   id="path146" />
			<path
   d="m 60.6,49.95 c 0,0.8 -0.25,1.483 -0.75,2.05 -0.533,0.533 -1.149,0.8 -1.85,0.8 -0.733,0 -1.35,-0.267 -1.85,-0.8 -0.5,-0.567 -0.75,-1.25 -0.75,-2.05 0,-0.767 0.25,-1.434 0.75,-2 0.5,-0.534 1.116,-0.8 1.85,-0.8 0.7,0 1.316,0.267 1.85,0.8 0.5,0.567 0.75,1.233 0.75,2 z"
   fill="#541515"
   id="path148" />
			<path
   d="m 59.35,50 c 0,0.5 -0.149,0.95 -0.449,1.35 -0.334,0.367 -0.717,0.55 -1.15,0.55 -0.433,0 -0.8,-0.183 -1.1,-0.55 -0.334,-0.4 -0.5,-0.85 -0.5,-1.35 0,-0.533 0.166,-1 0.5,-1.4 0.3,-0.367 0.666,-0.55 1.1,-0.55 0.467,0 0.85,0.184 1.15,0.55 0.299,0.4 0.449,0.867 0.449,1.4 z"
   fill="#a01f1f"
   id="path150" />
			<path
   d="m 59.35,49.6 c 0,0.433 -0.116,0.8 -0.35,1.1 -0.267,0.3 -0.583,0.45 -0.95,0.45 -0.366,0 -0.666,-0.15 -0.899,-0.45 -0.267,-0.3 -0.4,-0.667 -0.4,-1.1 0,-0.434 0.134,-0.8 0.4,-1.1 0.233,-0.3 0.533,-0.45 0.899,-0.45 0.367,0 0.684,0.15 0.95,0.45 0.233,0.3 0.35,0.667 0.35,1.1 z"
   fill="#ad2727"
   id="path152" />
			<path
   d="m 59.35,49.4 c 0,0.367 -0.1,0.667 -0.3,0.9 -0.233,0.267 -0.5,0.4 -0.8,0.4 -0.3,0 -0.55,-0.134 -0.75,-0.4 -0.233,-0.233 -0.35,-0.533 -0.35,-0.9 0,-0.367 0.116,-0.683 0.35,-0.95 0.2,-0.267 0.45,-0.4 0.75,-0.4 0.3,0 0.566,0.133 0.8,0.4 0.2,0.267 0.3,0.583 0.3,0.95 z"
   fill="#b73d3d"
   id="path154" />
		</g><g
     clip-rule="evenodd"
     fill-rule="evenodd"
     id="g168"
     transform="matrix(0.83277942,0,0,0.79791741,16.938792,-15.650051)">
			<path
   d="m 44,65.15 0.6,-0.45 c 0.467,-0.333 0.917,-0.534 1.35,-0.6 0.7,-0.1 1.4,-0.15 2.1,-0.15 0.6,-0.3 0.7,-0.7 0.3,-1.2 -0.233,-0.3 -0.883,-0.85 -1.95,-1.65 l -1.5,-1.05 1.45,0.55 c 1.066,0.433 1.883,0.8 2.45,1.1 0.9,0.5 1.6,1.2 2.1,2.1 l 1.95,-2.7 c 0.6,-0.7 1.6,-1.3 3,-1.8 -0.6,0.8 -1.149,1.65 -1.649,2.55 -0.367,0.7 -0.517,1.55 -0.45,2.55 0.1,1.033 0.4,1.733 0.9,2.1 0.5,0.333 1.066,0.883 1.699,1.65 0.634,0.733 0.768,0.983 0.4,0.75 -0.434,-0.267 -1.05,-0.517 -1.85,-0.75 -0.834,-0.233 -0.967,-0.183 -0.4,0.15 0.8,0.5 1.4,1.35 1.8,2.55 -0.7,-0.7 -1.35,-1.15 -1.95,-1.35 -0.933,-0.3 -2.033,-0.35 -3.3,-0.15 -0.366,0.066 -1.183,0.566 -2.45,1.5 l -1.75,1.35 c 0.967,-1.3 1.6,-2.4 1.9,-3.3 0.2,-0.633 0.233,-1.383 0.1,-2.25 -0.2,-0.967 -0.567,-1.517 -1.1,-1.65 -0.5,-0.133 -1.267,-0.15 -2.3,-0.05 z"
   fill="#6b1a1a"
   id="path158" />
			<path
   d="m 53.65,66.5 c 0,0.767 -0.25,1.433 -0.75,2 -0.5,0.533 -1.1,0.8 -1.8,0.8 -0.733,0 -1.35,-0.267 -1.85,-0.8 -0.5,-0.567 -0.75,-1.233 -0.75,-2 0,-0.767 0.25,-1.434 0.75,-2 0.5,-0.533 1.117,-0.8 1.85,-0.8 0.7,0 1.3,0.267 1.8,0.8 0.5,0.566 0.75,1.233 0.75,2 z"
   fill="#541515"
   id="path160" />
			<path
   d="m 52.45,66.5 c 0,0.533 -0.15,0.983 -0.45,1.35 -0.333,0.367 -0.717,0.55 -1.15,0.55 -0.434,0 -0.8,-0.183 -1.1,-0.55 -0.333,-0.367 -0.5,-0.817 -0.5,-1.35 0,-0.533 0.167,-0.983 0.5,-1.35 0.3,-0.367 0.667,-0.55 1.1,-0.55 0.433,0 0.816,0.183 1.15,0.55 0.3,0.367 0.45,0.817 0.45,1.35 z"
   fill="#a01f1f"
   id="path162" />
			<path
   d="m 52.45,66.15 c 0,0.434 -0.117,0.8 -0.35,1.1 -0.267,0.3 -0.583,0.45 -0.95,0.45 -0.367,0 -0.667,-0.15 -0.9,-0.45 -0.267,-0.3 -0.4,-0.667 -0.4,-1.1 0,-0.433 0.133,-0.8 0.4,-1.1 0.233,-0.3 0.533,-0.45 0.9,-0.45 0.367,0 0.684,0.15 0.95,0.45 0.233,0.3 0.35,0.667 0.35,1.1 z"
   fill="#ad2727"
   id="path164" />
			<path
   d="m 52.45,65.9 c 0,0.367 -0.1,0.684 -0.3,0.95 -0.233,0.267 -0.5,0.4 -0.8,0.4 -0.3,0 -0.55,-0.133 -0.75,-0.4 -0.233,-0.267 -0.35,-0.583 -0.35,-0.95 0,-0.367 0.117,-0.667 0.35,-0.9 0.2,-0.267 0.45,-0.4 0.75,-0.4 0.3,0 0.566,0.133 0.8,0.4 0.2,0.233 0.3,0.533 0.3,0.9 z"
   fill="#b73d3d"
   id="path166" />
		</g><g
     clip-rule="evenodd"
     fill-rule="evenodd"
     id="g180"
     transform="matrix(0.83277942,0,0,0.79791741,16.938792,-15.650051)">
			<path
   d="m 20.35,62.85 c 1.433,0.367 2.433,0.767 3,1.2 0.9,0.7 1.4,1 1.5,0.9 L 26.5,64.2 c 0.6,-0.2 1.45,-0.95 2.55,-2.25 l -0.3,4.5 c -0.066,0.5 0.067,1 0.4,1.5 0.3,0.433 0.667,0.783 1.1,1.05 0.5,0.3 0.85,1.05 1.05,2.25 -0.533,-0.134 -1.017,-0.25 -1.45,-0.35 -0.867,-0.2 -1.083,-0.183 -0.65,0.05 0.7,0.399 1.55,1.6 2.55,3.6 L 28.6,72 c -1.1,-0.866 -2.1,-0.917 -3,-0.15 -0.434,0.367 -1.117,0.801 -2.05,1.301 L 22.3,73.8 c 0.9,-1.8 1.1,-3.35 0.6,-4.65 -0.3,-0.8 -1.367,-1.367 -3.2,-1.7 L 17.05,67.2 17.7,66.8 c 0.533,-0.267 1.117,-0.433 1.75,-0.5 1,-0.1 1.9,-0.1 2.7,0 l 0.5,-0.35 c 0.233,-0.3 0.167,-0.634 -0.2,-1 -0.367,-0.367 -1.15,-0.9 -2.35,-1.6 L 18.4,62.4 Z"
   fill="#6b1a1a"
   id="path170" />
			<path
   d="m 28.2,68.5 c 0,0.767 -0.25,1.433 -0.75,2 -0.5,0.566 -1.117,0.85 -1.85,0.85 -0.7,0 -1.3,-0.283 -1.8,-0.85 -0.5,-0.567 -0.75,-1.233 -0.75,-2 0,-0.767 0.25,-1.434 0.75,-2 0.5,-0.533 1.1,-0.8 1.8,-0.8 0.733,0 1.35,0.267 1.85,0.8 0.5,0.566 0.75,1.233 0.75,2 z"
   fill="#541515"
   id="path172" />
			<path
   d="m 27,68.5 c 0,0.533 -0.15,0.983 -0.45,1.35 -0.333,0.367 -0.716,0.55 -1.15,0.55 -0.433,0 -0.816,-0.183 -1.15,-0.55 -0.3,-0.367 -0.45,-0.817 -0.45,-1.35 0,-0.533 0.15,-0.983 0.45,-1.35 0.333,-0.367 0.717,-0.55 1.15,-0.55 0.434,0 0.817,0.183 1.15,0.55 0.3,0.367 0.45,0.817 0.45,1.35 z"
   fill="#a01f1f"
   id="path174" />
			<path
   d="m 27,68.15 c 0,0.434 -0.133,0.8 -0.4,1.1 -0.233,0.3 -0.533,0.45 -0.9,0.45 -0.367,0 -0.667,-0.15 -0.9,-0.45 -0.267,-0.3 -0.4,-0.667 -0.4,-1.1 0,-0.433 0.133,-0.8 0.4,-1.1 0.233,-0.3 0.534,-0.45 0.9,-0.45 0.366,0 0.667,0.15 0.9,0.45 0.267,0.3 0.4,0.667 0.4,1.1 z"
   fill="#ad2727"
   id="path176" />
			<path
   d="m 27,67.95 c 0,0.366 -0.1,0.667 -0.3,0.9 -0.233,0.267 -0.5,0.4 -0.8,0.4 -0.3,0 -0.55,-0.133 -0.75,-0.4 -0.233,-0.233 -0.35,-0.534 -0.35,-0.9 0,-0.367 0.117,-0.684 0.35,-0.95 0.2,-0.267 0.45,-0.4 0.75,-0.4 0.3,0 0.567,0.133 0.8,0.4 0.2,0.267 0.3,0.583 0.3,0.95 z"
   fill="#b73d3d"
   id="path178" />
		</g><g
     clip-rule="evenodd"
     fill-rule="evenodd"
     id="g192"
     transform="matrix(0.83277942,0,0,0.79791741,16.938792,-15.650051)">
			<path
   d="m 41.65,79.1 c 0.067,0 0.383,0.134 0.95,0.4 0.433,0.233 0.933,0.167 1.5,-0.2 0.967,-0.6 1.683,-0.934 2.15,-1 -1.066,1.5 -1.783,2.434 -2.15,2.8 -0.3,0.301 -0.434,0.801 -0.4,1.5 0.033,0.733 0.233,1.184 0.6,1.351 0.534,0.2 1.25,0.899 2.15,2.1 -1.2,-0.2 -2.017,-0.416 -2.45,-0.649 -0.3,-0.134 -0.767,-0.084 -1.4,0.149 l -0.85,0.4 0.75,2.7 L 41.15,87.1 C 40.917,86.767 40.733,86.367 40.6,85.901 L 40.5,85.3 c -0.767,-0.233 -1.45,-0.2 -2.05,0.101 -0.367,0.199 -0.95,0.616 -1.75,1.25 l -1.05,0.899 c 0.067,-0.267 0.15,-0.566 0.25,-0.899 0.233,-0.634 0.483,-1.084 0.75,-1.351 0.467,-0.467 1.117,-1.033 1.95,-1.7 0.3,-1.366 0.15,-2.233 -0.45,-2.6 -0.367,-0.233 -1.066,-0.866 -2.1,-1.9 l -1.4,-1.449 1.4,0.35 c 1,0.3 1.767,0.583 2.3,0.85 0.833,0.467 1.033,-0.05 0.6,-1.55 l 1.1,0.95 c 0.767,0.599 1.3,0.883 1.6,0.849 z"
   fill="#6b1a1a"
   id="path182" />
			<path
   d="m 43.75,82.9 c 0,0.767 -0.25,1.433 -0.75,2 -0.5,0.566 -1.117,0.85 -1.85,0.85 -0.7,0 -1.3,-0.283 -1.8,-0.85 -0.5,-0.567 -0.75,-1.233 -0.75,-2 0,-0.767 0.25,-1.434 0.75,-2 0.5,-0.534 1.1,-0.801 1.8,-0.801 0.733,0 1.35,0.267 1.85,0.801 0.5,0.567 0.75,1.234 0.75,2 z"
   fill="#541515"
   id="path184" />
			<path
   d="m 42.55,82.9 c 0,0.533 -0.15,0.983 -0.45,1.35 -0.333,0.366 -0.717,0.55 -1.15,0.55 -0.434,0 -0.817,-0.184 -1.15,-0.55 -0.3,-0.366 -0.45,-0.816 -0.45,-1.35 0,-0.534 0.15,-0.983 0.45,-1.351 0.333,-0.366 0.717,-0.55 1.15,-0.55 0.433,0 0.816,0.184 1.15,0.55 0.3,0.368 0.45,0.817 0.45,1.351 z"
   fill="#a01f1f"
   id="path186" />
			<path
   d="m 42.55,82.55 c 0,0.434 -0.133,0.8 -0.4,1.101 -0.233,0.3 -0.533,0.449 -0.9,0.449 -0.367,0 -0.667,-0.149 -0.9,-0.449 -0.267,-0.301 -0.4,-0.667 -0.4,-1.101 0,-0.434 0.133,-0.8 0.4,-1.1 0.233,-0.3 0.533,-0.45 0.9,-0.45 0.367,0 0.667,0.15 0.9,0.45 0.267,0.3 0.4,0.666 0.4,1.1 z"
   fill="#ad2727"
   id="path188" />
			<path
   d="m 42.55,82.35 c 0,0.367 -0.1,0.667 -0.3,0.9 -0.233,0.267 -0.5,0.4 -0.8,0.4 -0.333,0 -0.6,-0.134 -0.8,-0.4 -0.233,-0.233 -0.35,-0.533 -0.35,-0.9 0,-0.366 0.117,-0.683 0.35,-0.949 0.2,-0.267 0.467,-0.4 0.8,-0.4 0.3,0 0.566,0.134 0.8,0.4 0.2,0.266 0.3,0.582 0.3,0.949 z"
   fill="#b73d3d"
   id="path190" />
		</g><g
     clip-rule="evenodd"
     fill-rule="evenodd"
     id="g204"
     transform="matrix(0.83277942,0,0,0.79791741,16.938792,-15.650051)">
			<path
   d="m 27.7,95.45 2.2,1.2 c 1.4,-1.801 2.317,-2.851 2.75,-3.15 l -0.4,1.1 c -0.167,0.634 -0.05,0.767 0.35,0.4 0.633,-0.6 1.983,-1.1 4.05,-1.5 -0.8,0.7 -1.5,1.4 -2.1,2.1 -0.533,0.634 -0.833,1.434 -0.9,2.4 -0.1,0.9 0.034,1.4 0.4,1.5 0.634,0.2 1.55,0.8 2.75,1.8 -0.866,-0.066 -1.55,-0.066 -2.05,0 -0.5,0.066 -0.683,0.15 -0.55,0.25 0.533,0.334 0.85,0.55 0.95,0.65 0.467,0.5 0.867,1.149 1.2,1.95 l -2.55,-1.2 c -1.066,-0.467 -1.767,-0.717 -2.1,-0.75 -0.833,-0.134 -1.633,0.166 -2.4,0.899 l -3.1,2.7 1.35,-2.7 c 0.3,-0.5 0.717,-1 1.25,-1.5 -0.866,-2 -1.7,-3.149 -2.5,-3.449 -0.466,-0.2 -1.083,-0.384 -1.85,-0.551 l -1,-0.199 h 2.4 c 0.9,0 1.55,0.1 1.95,0.3 0.267,-0.101 0.217,-0.4 -0.15,-0.9 -0.233,-0.3 -0.933,-0.767 -2.1,-1.399 l -1.7,-0.851 1.4,0.15 c 1.067,0.199 1.883,0.449 2.45,0.749 z"
   fill="#6b1a1a"
   id="path194" />
			<path
   d="m 33.1,99.65 c 0,0.767 -0.25,1.433 -0.75,2 -0.5,0.533 -1.1,0.8 -1.8,0.8 -0.733,0 -1.35,-0.267 -1.85,-0.8 -0.5,-0.567 -0.75,-1.233 -0.75,-2 0,-0.801 0.25,-1.467 0.75,-2 0.5,-0.567 1.117,-0.851 1.85,-0.851 0.7,0 1.3,0.283 1.8,0.851 0.5,0.534 0.75,1.2 0.75,2 z"
   fill="#541515"
   id="path196" />
			<path
   d="m 31.9,99.65 c 0,0.533 -0.15,0.983 -0.45,1.35 -0.333,0.366 -0.717,0.55 -1.15,0.55 -0.433,0 -0.8,-0.184 -1.1,-0.55 -0.333,-0.366 -0.5,-0.816 -0.5,-1.35 0,-0.534 0.167,-0.983 0.5,-1.351 0.3,-0.366 0.667,-0.55 1.1,-0.55 0.434,0 0.817,0.184 1.15,0.55 0.3,0.368 0.45,0.817 0.45,1.351 z"
   fill="#a01f1f"
   id="path198" />
			<path
   d="m 31.9,99.25 c 0,0.434 -0.117,0.8 -0.35,1.1 -0.267,0.301 -0.583,0.45 -0.95,0.45 -0.367,0 -0.667,-0.149 -0.9,-0.45 -0.267,-0.3 -0.4,-0.666 -0.4,-1.1 0,-0.434 0.134,-0.783 0.4,-1.05 0.233,-0.3 0.533,-0.45 0.9,-0.45 0.367,0 0.683,0.15 0.95,0.45 0.233,0.267 0.35,0.616 0.35,1.05 z"
   fill="#ad2727"
   id="path200" />
			<path
   d="m 31.9,99.05 c 0,0.367 -0.1,0.667 -0.3,0.9 -0.233,0.267 -0.5,0.399 -0.8,0.399 -0.3,0 -0.55,-0.133 -0.75,-0.399 -0.233,-0.233 -0.35,-0.533 -0.35,-0.9 0,-0.366 0.117,-0.684 0.35,-0.95 0.2,-0.233 0.45,-0.35 0.75,-0.35 0.3,0 0.567,0.116 0.8,0.35 0.2,0.265 0.3,0.583 0.3,0.949 z"
   fill="#b73d3d"
   id="path202" />
		</g><g
     clip-rule="evenodd"
     fill-rule="evenodd"
     id="g216"
     transform="matrix(0.83277942,0,0,0.79791741,16.938792,-15.650051)">
			<path
   d="m 55.8,93.75 c 0.7,-0.3 1.167,-0.134 1.4,0.5 l -1.4,1.55 c -0.3,0.367 -0.433,0.917 -0.399,1.65 0.034,0.733 0.183,1.3 0.449,1.7 0.367,0.533 1.067,1.35 2.101,2.449 l -4.1,-0.949 c -0.2,0 -0.567,0.133 -1.1,0.399 -0.467,0.233 -0.833,0.45 -1.1,0.65 l -2.05,1.35 0.75,-1.85 c 0.167,-0.367 0.233,-0.767 0.2,-1.2 l -0.75,0.4 -1.8,1.3 0.4,-0.9 c 0.333,-0.633 0.617,-1.05 0.85,-1.25 0.333,-0.267 0.533,-0.783 0.6,-1.55 0.066,-0.767 -0.1,-1.25 -0.5,-1.45 -0.367,-0.166 -1,-0.333 -1.9,-0.5 l -1.251,-0.25 2.25,-0.55 c 1.1,-0.066 1.6,-0.2 1.5,-0.4 -0.167,-0.267 -0.7,-0.733 -1.6,-1.399 L 47,92.499 l 1.3,0.35 c 0.934,0.233 1.5,0.434 1.7,0.601 0.4,0.3 0.983,0.666 1.75,1.1 l 0.4,-0.649 c 0.2,-0.267 0.717,-0.767 1.55,-1.5 0.467,-0.434 1.533,-0.967 3.2,-1.601 -0.867,1 -1.483,1.667 -1.851,2 -0.233,0.2 -0.433,0.483 -0.6,0.851 -0.101,0.199 -0.167,0.366 -0.2,0.5 h 0.35 c 0.335,-0.069 0.734,-0.202 1.201,-0.402 z"
   fill="#6b1a1a"
   id="path206" />
			<path
   d="m 55,98 c 0,0.767 -0.25,1.434 -0.75,2 -0.5,0.533 -1.117,0.8 -1.85,0.8 -0.733,0 -1.35,-0.267 -1.85,-0.8 -0.5,-0.566 -0.75,-1.233 -0.75,-2 0,-0.767 0.25,-1.434 0.75,-2 0.5,-0.533 1.117,-0.8 1.85,-0.8 0.733,0 1.35,0.267 1.85,0.8 0.5,0.566 0.75,1.233 0.75,2 z"
   fill="#541515"
   id="path208" />
			<path
   d="m 53.75,98 c 0,0.533 -0.15,0.983 -0.45,1.35 -0.333,0.367 -0.716,0.551 -1.15,0.551 -0.433,0 -0.8,-0.184 -1.1,-0.551 -0.3,-0.366 -0.45,-0.816 -0.45,-1.35 0,-0.534 0.15,-0.983 0.45,-1.35 0.3,-0.367 0.667,-0.551 1.1,-0.551 0.434,0 0.817,0.184 1.15,0.551 0.3,0.367 0.45,0.817 0.45,1.35 z"
   fill="#a01f1f"
   id="path210" />
			<path
   d="m 53.75,97.65 c 0,0.433 -0.117,0.8 -0.35,1.1 -0.267,0.3 -0.566,0.45 -0.9,0.45 -0.367,0 -0.683,-0.15 -0.95,-0.45 -0.233,-0.3 -0.35,-0.667 -0.35,-1.1 0,-0.434 0.117,-0.801 0.35,-1.101 0.267,-0.3 0.583,-0.45 0.95,-0.45 0.333,0 0.633,0.15 0.9,0.45 0.233,0.301 0.35,0.668 0.35,1.101 z"
   fill="#b22f2f"
   id="path212" />
			<path
   d="m 53.75,97.4 c 0,0.366 -0.1,0.683 -0.3,0.949 -0.233,0.267 -0.5,0.4 -0.8,0.4 -0.3,0 -0.55,-0.134 -0.75,-0.4 -0.233,-0.267 -0.35,-0.583 -0.35,-0.949 0,-0.367 0.117,-0.667 0.35,-0.9 0.2,-0.267 0.45,-0.4 0.75,-0.4 0.3,0 0.567,0.134 0.8,0.4 0.2,0.233 0.3,0.533 0.3,0.9 z"
   fill="#b73d3d"
   id="path214" />
		</g><path
     fill-rule="evenodd"
     clip-rule="evenodd"
     d="M 94.387278,81.217123 C 90.250863,79.381115 86.00452,77.545905 81.645753,75.711492 78.564469,74.407695 75.704705,73.424661 73.068125,72.759198 L 70.02848,72.120864 c -0.194038,-0.904838 -0.318954,-1.915002 -0.374751,-3.032086 -0.166556,-2.234169 0.02748,-3.857133 0.582946,-4.868094 0.832779,-1.436252 1.596438,-2.407317 2.290143,-2.911601 1.026817,-0.718125 2.498339,-1.023728 4.413731,-0.917605 2.998839,0.159584 8.591785,1.755418 16.780506,4.787505 3.997341,1.489711 6.620595,3.018521 7.869765,4.588025 0.61043,0.771586 0.81862,1.396355 0.62458,1.875904 -0.52798,-0.106921 -1.16589,-0.119688 -1.91622,-0.04069 -1.526486,0.159583 -2.899739,0.73169 -4.121426,1.715522 -1.221688,1.010962 -1.887911,2.633128 -1.998671,4.867296 -0.0558,1.117085 0.01333,2.13044 0.207362,3.032087 z"
     fill="#a01f1f"
     id="path218"
     style="stroke-width:0.815162" /><path
     fill-rule="evenodd"
     clip-rule="evenodd"
     d="M 94.387278,81.217123 C 90.250863,79.381115 86.00452,77.545905 81.645753,75.711492 78.564469,74.407695 75.704705,73.424661 73.068125,72.759198 L 70.02848,72.120864 c -0.194038,-0.904838 -0.318954,-1.915002 -0.374751,-3.032086 -0.166556,-2.234169 0.02748,-3.857133 0.582946,-4.868094 0.832779,-1.436252 1.596438,-2.407317 2.290143,-2.911601 1.026817,-0.718125 2.498339,-1.023728 4.413731,-0.917605 2.998839,0.159584 8.591785,1.755418 16.780506,4.787505 3.997341,1.489711 6.620595,3.018521 7.869765,4.588025 0.61043,0.771586 0.81862,1.396355 0.62458,1.875904 -0.52798,-0.106921 -1.16589,-0.119688 -1.91622,-0.04069 -1.526486,0.159583 -2.899739,0.73169 -4.121426,1.715522 -1.221688,1.010962 -1.887911,2.633128 -1.998671,4.867296 -0.0558,1.117085 0.01333,2.13044 0.207362,3.032087 z"
     fill="url(#SVGID_6_)"
     id="path225"
     style="fill:url(#SVGID_6_);stroke-width:0.815162" /><path
     fill-rule="evenodd"
     clip-rule="evenodd"
     d="M 16.397485,40.283959 C 14.259741,38.315497 12.414301,35.044036 10.859502,30.469575 9.2772211,25.895115 8.5968403,21.825736 8.8191925,18.261439 c 0.1940376,0.558542 0.8602611,0.957501 1.9986705,1.196876 1.082614,0.239375 2.04031,0.239375 2.873089,0 l 1.165891,-0.319167 c -0.499667,3.297793 0.01416,7.353607 1.540642,12.168241 1.526485,4.734044 3.3586,8.112426 5.496345,10.133551 2.692375,2.527004 5.079954,6.689739 7.161903,12.487407 2.081948,5.824797 2.581616,9.840716 1.499003,12.048553 l -3.705869,7.300944 c -0.360593,0.05266 -1.512327,-0.05266 -3.456034,-0.319167 -1.971189,-0.265706 -3.122923,-0.385394 -3.456035,-0.359062 0.249834,-0.505082 1.124252,-1.542375 2.623255,-3.11108 1.499003,-1.568706 2.52582,-2.925964 3.081284,-4.070177 1.138409,-2.286831 0.59627,-6.396904 -1.62392,-12.327026 -2.221023,-5.879056 -4.761,-10.147116 -7.619932,-12.807373 z"
     fill="#2b2b2b"
     id="path227"
     style="stroke-width:0.815162" /><path
     fill-rule="evenodd"
     clip-rule="evenodd"
     d="m 13.024729,22.051547 c -0.249834,3.218001 0.555464,7.181256 2.41506,11.888969 1.804633,4.468338 3.747507,7.699903 5.829456,9.694697 2.248504,2.128045 4.386249,5.666011 6.412402,10.612301 2.026985,4.920757 2.970524,8.844117 2.83145,11.769282 -0.471354,0.983832 -1.693041,3.404714 -3.66423,7.261846 -0.139074,0 -1.651401,-0.159583 -4.538648,-0.479548 1.082614,-1.40992 1.707198,-2.234169 1.873754,-2.473544 0.72202,-1.010961 1.249169,-1.968462 1.582281,-2.872503 0.333112,-0.851378 0.430547,-2.021922 0.291473,-3.510836 0.416389,-2.899632 -0.444705,-6.968213 -2.581617,-12.208137 -2.137744,-5.267053 -4.497008,-9.083492 -7.078625,-11.450115 -1.776318,-1.649295 -3.400238,-4.322318 -4.871759,-8.01907 -1.471522,-3.64329 -2.3592645,-7.207587 -2.6648946,-10.692093 0.3331118,0.239375 0.736177,0.572107 1.2075306,0.997397 0.416389,0.292836 0.846936,0.359063 1.290808,0.199479 z"
     fill="#1e1e1e"
     id="path229"
     style="stroke-width:0.815162" /><path
     fill-rule="evenodd"
     clip-rule="evenodd"
     d="m 27.764924,13.753206 c -0.05496,0.185914 -0.48551,0.398958 -1.290808,0.638333 -1.110095,0.292836 -1.99867,0.545776 -2.664894,0.758022 -1.026817,0.345498 -1.776318,0.970268 -2.248504,1.875106 -0.360594,0.744457 -0.860261,1.077188 -1.499003,0.997397 -0.805298,-0.106921 -1.110095,-0.572107 -0.916058,-1.396356 1.415725,-1.808879 4.288814,-2.766379 8.619267,-2.872502 z"
     fill="#ad2727"
     id="path231"
     style="stroke-width:0.815162" /><path
     fill-rule="evenodd"
     clip-rule="evenodd"
     d="m 40.548089,9.6439304 c -1.055132,0.2920378 -1.499003,0.039896 -1.332448,-0.7580215 2.137745,-1.7290871 4.302972,-2.4871086 6.49568,-2.2740647 1.082613,0.079792 2.151069,0.2529399 3.206201,0.5186464 -1.026817,0.05346 -1.817958,0.093356 -2.373422,0.1196876 -1.220854,0.079792 -2.317625,0.4252899 -3.289478,1.0372926 -1.249169,0.7444569 -2.15107,1.1968761 -2.706533,1.3564596 z"
     fill="#ad2727"
     id="path233"
     style="stroke-width:0.815162" /><path
     fill-rule="evenodd"
     clip-rule="evenodd"
     d="m 41.797258,10.601432 -4.413731,4.747608 -2.789811,-1.037292 0.582945,-0.877709 c 0.472186,-0.718126 0.986011,-1.40992 1.540642,-2.074586 0.166556,0.292836 0.513825,0.438855 1.040974,0.438855 1.526485,0 2.873089,-0.398959 4.038981,-1.196876 z"
     fill="#6b1a1a"
     id="path235"
     style="stroke-width:0.815162" /><path
     fill-rule="evenodd"
     clip-rule="evenodd"
     d="m 48.750966,9.4045553 c -2.887246,-0.213044 -5.59378,0.8378137 -8.1196,3.1517737 l -2.873089,3.550733 c -1.193372,-0.265707 -2.609097,-0.438855 -4.247175,-0.518646 -3.220358,-0.106123 -5.884419,0.385394 -7.994682,1.476147 -1.165891,0.638334 -2.178551,1.58227 -3.039645,2.832607 l -0.916057,1.715522 -0.08328,0.598438 c 0,-1.968462 0.333112,-3.444609 0.999335,-4.428442 1.359929,-1.968462 4.247175,-2.965859 8.660906,-2.99219 2.221023,0 4.302971,0.185915 6.245846,0.558542 l 2.914728,-3.750211 c 2.498338,-2.4998762 5.052472,-3.7502128 7.66157,-3.7502128 2.609098,0 4.830121,1.1697469 6.662236,3.5108368 0.916057,1.143416 1.568123,2.300396 1.957031,3.470941 l 1.499003,-0.558542 c 1.221688,-0.372628 2.415061,-0.612003 3.580952,-0.718126 3.774989,-0.292835 6.634753,0.943937 8.577628,3.710316 0.749501,1.063624 1.165891,2.527005 1.249169,4.388546 -0.666224,-1.144214 -1.290808,-2.128046 -1.873754,-2.952294 -1.110095,-1.595835 -2.221022,-2.699355 -3.331117,-3.311358 -1.998671,-1.090753 -4.274657,-1.382791 -6.828792,-0.877709 l -3.2062,1.117084 c -0.166554,-0.9575 -0.597101,-1.928566 -1.290806,-2.912398 -1.415725,-1.994794 -3.483517,-3.0983138 -6.204207,-3.3113577 z"
     fill="#b73d3d"
     id="path237"
     style="stroke-width:0.815162" /><path
     fill-rule="evenodd"
     clip-rule="evenodd"
     d="m 36.592386,7.8087204 -3.830785,4.2289626 c -1.998671,-0.159583 -4.746843,-0.47875 -8.244516,-0.957501 -2.137745,-0.292835 -4.399574,0.305603 -6.787153,1.795314 -2.387578,1.755419 -4.03898,2.832607 -4.955037,3.231566 -1.499003,0.664665 -2.595774,0.213044 -3.289479,-1.35646 0.1390742,-0.426088 0.3614263,-0.851378 0.666223,-1.276668 2.609099,-3.4845054 6.967866,-4.9343212 13.074638,-4.3486498 3.053802,0.3191669 5.843613,0.9710658 8.369433,1.9548978 0.08328,-0.346296 0.249834,-0.784353 0.499667,-1.3165639 0.471354,-1.0636239 1.068456,-2.0610208 1.790476,-2.9921904 2.304301,-2.8988338 5.427224,-4.4946686 9.368769,-4.7875044 3.164561,-0.213044 6.204206,0.9176051 9.118934,3.391149 1.443207,1.2495386 2.567459,2.5134399 3.372757,3.7901078 l 0.999335,-0.3989589 c 0.83278,-0.2928356 1.73468,-0.4651858 2.706533,-0.5186463 3.108766,-0.1332521 6.273328,0.9176051 9.493686,3.1517741 0.610427,0.398959 1.137576,0.944734 1.581448,1.635731 -2.359264,-1.144214 -4.274657,-1.875106 -5.745345,-2.194273 -1.443207,-0.292836 -3.178719,-0.265706 -5.204872,0.07979 l -2.581616,0.638334 -0.749501,-1.436252 C 55.496479,9.1651801 54.482987,8.1941146 53.206336,7.2102823 50.62472,5.2154888 47.973983,4.111969 45.253292,3.8989251 42.560916,3.7130104 39.67367,5.0160094 36.592386,7.8087204 Z"
     fill="#444444"
     id="path239"
     style="stroke-width:0.815162" /><path
     fill-rule="evenodd"
     clip-rule="evenodd"
     d="m 27.306896,11.957891 c -3.886582,0.106123 -6.454041,0.532211 -7.70321,1.276668 -1.249169,0.744457 -2.41506,1.954898 -3.497673,3.630524 l -1.24917,2.274065 c 0,-0.825047 0.194038,-1.742652 0.582946,-2.752815 0.72202,-1.994794 1.984513,-3.404714 3.789146,-4.228962 1.804633,-0.825047 4.607769,-1.090753 8.411073,-0.797918 1.88791,0.159584 3.594276,0.385394 5.121593,0.67823 -1.693041,-0.106921 -3.511831,-0.133252 -5.454705,-0.07979 z"
     fill="#5b5b5b"
     id="path241"
     style="stroke-width:0.815162" /><path
     fill-rule="evenodd"
     clip-rule="evenodd"
     d="M 35.135022,9.4843469 37.799916,6.691636 c 2.304301,-1.8615413 4.788482,-2.792711 7.453376,-2.792711 2.664894,0 5.427224,1.2766679 8.286156,3.8300036 1.415725,1.276668 2.567458,2.5533364 3.456034,3.8300044 C 55.829591,10.334927 54.441348,9.1516155 52.831585,8.0081997 49.639541,5.6942392 46.987972,4.6832779 44.878542,4.9761135 42.769111,5.2689492 40.520607,6.1067625 38.133028,7.4895534 Z"
     fill="#5b5b5b"
     id="path243"
     style="stroke-width:0.815162" /><path
     fill-rule="evenodd"
     clip-rule="evenodd"
     d="m 59.868571,10.920599 2.790644,-0.07979 c 2.10943,0 3.789146,0.146019 5.038315,0.438855 0.777816,0.185914 1.359929,0.42529 1.748837,0.718125 0.944372,0.664665 1.596438,1.649296 1.957865,2.952295 0.194037,0.638334 0.291472,1.21044 0.291472,1.715522 -0.166555,-0.584873 -0.430547,-1.210441 -0.79114,-1.875106 -0.748669,-1.330128 -1.665559,-2.140812 -2.748172,-2.433648 -1.110095,-0.292836 -2.817293,-0.625567 -5.121594,-0.997397 z"
     fill="#5b5b5b"
     id="path245"
     style="stroke-width:0.815162" /><path
     fill-rule="evenodd"
     clip-rule="evenodd"
     d="m 100.21673,68.49034 0.83278,0.67823 1.16589,2.474342 c -0.52798,-0.106921 -1.16589,-0.119688 -1.91622,-0.04069 -1.526486,0.159583 -2.899739,0.73169 -4.121426,1.715522 -1.499836,1.249539 -2.151902,3.338487 -1.957865,6.263652 l -0.249833,0.199479 -3.24784,-1.675626 c 0.166556,-1.276668 0.458861,-2.606797 0.875251,-3.989587 0.832779,-2.740049 1.887911,-4.362215 3.164562,-4.867297 1.692208,-0.662271 3.510998,-0.917605 5.453871,-0.758021 z"
     fill="#871e1e"
     id="path247"
     style="stroke-width:0.815162" /><path
     fill-rule="evenodd"
     clip-rule="evenodd"
     d="m 96.885616,83.251812 c 0.777816,2.234169 0.388908,4.787504 -1.165891,7.660007 -0.776983,1.40992 -1.637244,2.606796 -2.581616,3.590628 L 58.28629,96.098282 57.203677,94.662031 c 0.41639,-1.40992 1.110095,-2.459979 2.081949,-3.151774 1.832114,-1.302999 2.817292,-3.191669 2.956366,-5.665213 0.138242,-2.420084 -0.597102,-4.60159 -2.206865,-6.542923 v -0.638334 l -0.04164,-0.07979 v -0.239375 l -0.04164,-0.159584 -0.04164,-0.07979 -0.04164,-0.19948 -0.04164,-0.119687 -0.04164,-0.19948 -0.166556,-0.47875 -0.124917,-0.239375 -0.08328,-0.119688 -0.124916,-0.279271 -0.582946,-0.917605 -0.04164,-0.11889 c -0.777816,-1.117084 -1.92955,-2.287629 -3.456035,-3.510836 l 9.868436,-0.758022 15.198225,4.029483 c 10.298983,3.135815 15.836133,5.824797 16.613949,8.058966 z"
     fill="#871e1e"
     id="path249"
     style="stroke-width:0.815162" /><path
     fill-rule="evenodd"
     clip-rule="evenodd"
     d="m 97.218728,85.00723 c 0.165723,2.021125 -0.472186,4.202631 -1.916225,6.542125 l -2.165227,2.952295 -34.851819,1.595834 -1.082613,-1.436251 c 0.41639,-1.40992 1.110095,-2.459979 2.081949,-3.151774 1.110095,-0.745255 1.928717,-1.808879 2.456699,-3.191669 2.748172,0.878507 5.55214,1.595834 8.411905,2.154377 4.607768,0.904838 8.521832,1.15698 11.74219,0.758021 3.720025,-0.451621 7.328459,-1.808879 10.826132,-4.070177 1.777152,-1.143415 3.164562,-2.234168 4.163897,-3.271461 l 0.333112,1.117084 z"
     fill="#6b1a1a"
     id="path251"
     style="stroke-width:0.815162" /><path
     fill-rule="evenodd"
     clip-rule="evenodd"
     d="m 86.350957,98.05318 c -7.911405,1.170545 -16.502357,1.702756 -25.774523,1.595835 -3.719193,-0.02633 -6.051808,-0.478751 -6.995348,-1.35646 -0.30563,-0.265706 -0.443871,-0.558542 -0.416389,-0.877709 l 0.124917,-0.398959 6.162567,-1.436251 c 5.135751,-0.957501 10.22903,-1.437049 15.282336,-1.437049 h 18.48687 l 2.83145,0.359063 c 1.748837,0.319166 2.221023,0.679027 1.415725,1.077986 -1.554799,0.797917 -5.259835,1.619772 -11.117605,2.473544 z"
     fill="#161616"
     id="path253"
     style="stroke-width:0.815162" /><path
     fill-rule="evenodd"
     clip-rule="evenodd"
     d="M 96.885616,83.890146 C 89.640435,83.54385 83.796822,83.477623 79.35561,83.690667 c -2.775654,0.133252 -7.730692,0.877709 -14.865946,2.234168 l -9.868436,1.954898 0.499668,-2.074585 7.66157,-1.077987 c 5.718697,-0.797917 10.187391,-1.356459 13.408582,-1.675626 3.441877,-0.346296 7.925561,-0.412524 13.448555,-0.19948 2.748172,0.106123 5.163232,0.239376 7.245181,0.398959 v 0.638334 z"
     fill="#b73d3d"
     id="path255"
     style="stroke-width:0.815162" /><path
     fill-rule="evenodd"
     clip-rule="evenodd"
     d="m 21.06105,74.035866 6.703874,0.239375 2.789812,15.55939 c -1.471522,0.05266 -3.06796,-0.08059 -4.788482,-0.398959 -3.470192,-0.638334 -5.871095,-1.862339 -7.203542,-3.671218 -1.054299,-1.380397 -0.957696,-3.750212 0.291473,-7.101465 l 2.206865,-4.627921 z"
     fill="#2b2b2b"
     id="path257"
     style="stroke-width:0.815162" /><path
     fill-rule="evenodd"
     clip-rule="evenodd"
     d="m 37.008776,94.143385 c -3.969859,-1.648498 -6.87043,-2.925166 -8.702545,-3.830004 -3.192043,-1.569503 -5.204871,-3.165338 -6.037651,-4.787504 -0.832779,-1.595835 -0.652066,-3.830004 0.541307,-6.701709 l 1.998671,-3.830801 30.229892,9.096258 -1.499002,18.192515 C 46.710656,98.771306 41.200155,96.058386 37.008776,94.143385 Z"
     fill="#070707"
     id="path259"
     style="stroke-width:0.815162" /><path
     fill-rule="evenodd"
     clip-rule="evenodd"
     d="m 59.285626,91.510257 c -0.999336,0.691795 -1.693041,1.742652 -2.081949,3.151774 -0.41639,1.436251 -0.30563,2.619563 0.333112,3.550732 0.527149,0.797918 5.787817,0.971066 15.78117,0.517849 5.024158,-0.213044 9.979196,-0.517849 14.865112,-0.916807 l -8.161238,8.297545 c -1.165891,0.29283 -2.52582,0.37262 -4.080619,0.24017 -3.080451,-0.24017 -5.551308,-1.35646 -7.410904,-3.35125 -0.887743,-0.93117 -2.539977,-1.14422 -4.955038,-0.63834 -2.609098,0.74446 -4.288814,1.19688 -5.038315,1.35566 -1.832115,0.39896 -3.747508,0.11969 -5.746178,-0.83781 -2.664894,-1.27667 -3.830786,-3.470938 -3.497674,-6.582816 0.08328,-0.824249 0.430547,-1.755419 1.040975,-2.792711 0.610427,-1.037293 0.930214,-1.78175 0.957696,-2.234169 0.02748,-0.664665 -0.347269,-1.144214 -1.124252,-1.436251 L 49.001632,89.594457 C 43.311251,87.839039 37.661675,85.710993 32.054571,83.211118 20.867013,78.184238 15.537224,73.771755 16.064374,69.965689 c 0.527149,-3.856335 1.887911,-6.449566 4.080619,-7.779695 1.110095,-0.664665 2.165226,-0.944734 3.164562,-0.837813 l 17.071978,7.500424 c 11.687226,5.318917 18.237869,8.803423 19.653594,10.452718 1.610595,1.942131 2.345107,4.122839 2.206865,6.542923 -0.139074,2.473544 -1.124252,4.364608 -2.956366,5.665213 z"
     fill="#353535"
     id="path261"
     style="stroke-width:0.815162" /><path
     fill-rule="evenodd"
     clip-rule="evenodd"
     d="m 55.205006,75.671597 c 2.720691,1.595834 4.330453,2.806275 4.830121,3.630524 l 0.374751,0.797917 c -3.441878,-1.436251 -6.07929,-1.543172 -7.911405,-0.319167 -1.804633,1.250337 -2.970524,2.553336 -3.497673,3.909796 -0.555464,1.462582 -0.291473,2.712919 0.79114,3.750211 1.471521,1.436252 2.956367,2.553336 4.45537,3.351253 l -1.290808,3.510039 c -0.693705,2.553336 -0.568788,4.374981 0.374751,5.466532 0.971853,1.116288 2.067791,1.714728 3.289478,1.795318 0.693706,0.0527 1.776319,-0.067 3.24784,-0.35907 0.749502,-0.0806 2.401736,-0.31916 4.955038,-0.71812 2.498338,-0.15959 4.63525,0.19948 6.412401,1.07798 2.498338,1.22321 3.816628,1.86154 3.955702,1.91421 1.221688,0.53221 2.400903,0.85058 3.539313,0.9575 0.222352,0.0263 1.512327,-0.0136 3.871591,-0.11969 2.387579,-0.10612 3.678387,-0.18591 3.872425,-0.23937 L 80.021,106.11214 c -1.165891,0.29284 -2.52582,0.37263 -4.080619,0.24018 -3.080451,-0.24018 -5.551307,-1.35646 -7.410904,-3.35126 -0.887743,-0.93116 -2.539977,-1.14421 -4.955037,-0.63833 -2.609098,0.74446 -4.288814,1.19688 -5.038316,1.35566 -1.832115,0.39896 -3.747507,0.11969 -5.746178,-0.83781 -2.664894,-1.27667 -3.830785,-3.47094 -3.497674,-6.582818 0.08328,-0.824249 0.388908,-1.595835 0.916058,-2.313163 0.555464,-0.718126 0.846936,-1.303797 0.874418,-1.755418 0.0558,-0.665463 -0.277315,-1.303797 -0.999335,-1.915002 L 49.0008,89.596851 C 43.310418,87.841433 37.660842,85.713387 32.053738,83.213512 20.867013,78.186632 15.537224,73.774149 16.064374,69.968083 c 0.05496,-0.531413 0.194037,-1.249539 0.416389,-2.154377 h 0.04164 l 0.957697,-2.633128 0.08328,-0.159583 c 0.08328,1.144214 0.68038,2.407317 1.790475,3.790108 2.054467,2.527004 5.441381,4.65505 10.159909,6.383339 3.941545,1.437049 8.730027,1.994793 14.365445,1.676424 3.053802,-0.159583 6.828791,-0.558542 11.3258,-1.196876 z"
     fill="#2b2b2b"
     id="path263"
     style="stroke-width:0.815162" /><path
     fill-rule="evenodd"
     clip-rule="evenodd"
     d="m 60.035127,79.302121 c -0.02748,-0.239375 -0.30563,-0.478751 -0.832779,-0.718126 -0.999336,-0.47875 -2.650737,-0.717328 -4.955038,-0.717328 -2.275986,0 -4.205536,1.077189 -5.787817,3.231566 l -1.707198,3.231565 c -4.191379,-1.83521 -8.466868,-3.737445 -12.824803,-5.704311 -8.688388,-3.963256 -13.393591,-6.290781 -14.115611,-6.981778 -0.916057,-0.878507 -0.930215,-2.327525 -0.04164,-4.348649 0.916057,-2.075384 2.331782,-3.577064 4.247175,-4.508234 1.915393,-0.930371 5.038316,-1.023728 9.368769,-0.279271 4.108933,0.717328 8.064635,1.927769 11.867106,3.630524 6.662236,3.005755 11.131763,6.104069 13.407749,9.295738 1.110928,1.595835 1.568124,2.888461 1.374086,3.8699 z"
     fill="#a01f1f"
     id="path265"
     style="stroke-width:0.815162" /><path
     fill-rule="evenodd"
     clip-rule="evenodd"
     d="m 60.035127,79.302121 c -0.02748,-0.239375 -0.30563,-0.478751 -0.832779,-0.718126 -0.999336,-0.47875 -2.650737,-0.717328 -4.955038,-0.717328 -2.275986,0 -4.205536,1.077189 -5.787817,3.231566 l -1.707198,3.231565 c -4.191379,-1.83521 -8.466868,-3.737445 -12.824803,-5.704311 -8.688388,-3.963256 -13.393591,-6.290781 -14.115611,-6.981778 -0.916057,-0.878507 -0.930215,-2.327525 -0.04164,-4.348649 0.916057,-2.075384 2.331782,-3.577064 4.247175,-4.508234 1.915393,-0.930371 5.038316,-1.023728 9.368769,-0.279271 4.108933,0.717328 8.064635,1.927769 11.867106,3.630524 6.662236,3.005755 11.131763,6.104069 13.407749,9.295738 1.110928,1.595835 1.568124,2.888461 1.374086,3.8699 z"
     fill="url(#SVGID_7_)"
     id="path272"
     style="fill:url(#SVGID_7_);stroke-width:0.815162" /><path
     fill-rule="evenodd"
     clip-rule="evenodd"
     d="m 58.28629,74.953471 c 0.861094,1.117084 1.415725,2.180708 1.665559,3.19167 0.11076,0.505879 0.139074,0.891273 0.08328,1.15698 -0.02748,-0.239375 -0.30563,-0.478751 -0.832779,-0.718126 -0.999336,-0.47875 -2.650737,-0.717328 -4.955038,-0.717328 -2.275986,0 -4.205536,1.077189 -5.787817,3.231566 l -1.707198,3.231565 c -4.191381,-1.83521 -8.46687,-3.737445 -12.824805,-5.704311 -8.688388,-3.963256 -13.393591,-6.290781 -14.115611,-6.981778 -0.41639,-0.398958 -0.624585,-0.9575 -0.624585,-1.676424 -0.02831,-0.717328 0.124917,-1.488914 0.458029,-2.313163 0.333112,0.213044 2.359264,1.436252 6.07929,3.670421 3.914063,2.2605 6.75967,3.72388 8.535989,4.388545 2.998006,1.117085 6.412401,2.074586 10.243187,2.872503 l 2.956367,-2.393752 c 2.248504,-1.595835 4.094776,-2.393753 5.537983,-2.393753 1.526485,0 3.289479,0.383001 5.288149,1.156981 z"
     fill="#871e1e"
     id="path274"
     style="stroke-width:0.815162" /><path
     fill-rule="evenodd"
     clip-rule="evenodd"
     d="M 96.885616,83.012437 96.71906,83.76966 C 91.083642,83.078664 83.186395,82.971743 73.026486,83.451291 69.502163,83.610875 65.920379,84.036165 62.284464,84.727959 62.14539,82.627043 61.395889,80.738372 60.03596,79.062746 v -0.638334 l -0.04247,-0.07979 v -0.239375 l -0.04164,-0.159584 -0.04164,-0.07979 -0.04164,-0.199479 -0.04164,-0.119688 -0.04164,-0.199479 -0.166556,-0.47875 -0.124917,-0.239376 -0.08328,-0.119687 -0.124916,-0.279271 -0.582946,-0.917605 -0.04164,-0.119688 c -0.72202,-1.010961 -1.651402,-1.994793 -2.789811,-2.951496 l 14.15725,-1.316564 13.782499,4.428442 c 9.104778,3.327315 13.463545,5.880651 13.074637,7.660007 z"
     fill="#a01f1f"
     id="path276"
     style="stroke-width:0.815162" /><path
     fill-rule="evenodd"
     clip-rule="evenodd"
     d="m 96.635782,82.773062 -0.166555,0.758021 C 90.833808,82.840087 82.936561,82.733166 72.776652,83.212714 69.251497,83.3715 65.670545,83.797587 62.03463,84.489382 61.895556,82.387667 61.146055,80.499795 59.786126,78.824168 v -0.638334 l -0.04164,-0.07979 v -0.239376 l -0.04164,-0.159583 -0.04164,-0.07979 -0.04164,-0.199479 -0.04164,-0.119688 -0.04164,-0.199479 -0.166556,-0.478751 -0.124917,-0.240173 -0.08328,-0.118889 -0.37475,-0.718126 -0.333112,-0.478751 -0.04164,-0.119687 C 57.690844,73.94331 56.760629,72.959478 55.62222,72.001977 l 14.15725,-1.315765 13.781667,4.428441 c 9.10561,3.327316 13.463544,5.880652 13.074636,7.660007 z"
     fill="url(#SVGID_8_)"
     id="path285"
     style="fill:url(#SVGID_8_);stroke-width:0.815162" /><path
     fill-rule="evenodd"
     clip-rule="evenodd"
     d="m 34.260604,75.711492 c 2.998006,1.117085 6.412401,2.074586 10.243187,2.872503 l 1.665559,5.50563 C 38.091389,80.472666 33.413667,78.370951 32.137016,77.786078 24.587038,74.328702 20.478105,72.281245 19.811881,71.642912 c -0.41639,-0.398959 -0.624585,-0.957501 -0.624585,-1.676425 -0.02831,-0.717328 0.124917,-1.488914 0.458029,-2.313162 0.333112,0.213043 2.359264,1.436251 6.07929,3.67042 3.914063,2.258106 6.75967,3.726274 8.535989,4.388545 z"
     fill="#6b1a1a"
     id="path287"
     style="stroke-width:0.815162" /><path
     fill-rule="evenodd"
     clip-rule="evenodd"
     d="m 60.243322,85.00723 c 0,1.169747 -0.402233,2.180709 -1.20753,3.032086 -0.83278,0.824249 -1.832115,1.236772 -2.998006,1.236772 -1.194206,0 -2.206866,-0.412523 -3.039645,-1.236772 -0.83278,-0.85058 -1.249169,-1.862339 -1.249169,-3.032086 0,-1.170545 0.416389,-2.180708 1.249169,-3.032884 0.832779,-0.824248 1.846272,-1.236772 3.039645,-1.236772 1.165891,0 2.165226,0.412524 2.998006,1.236772 0.805297,0.853772 1.20753,1.859148 1.20753,3.032086 z"
     fill="#1e1e1e"
     id="path289"
     style="stroke-width:0.815162" /><path
     fill-rule="evenodd"
     clip-rule="evenodd"
     d="m 59.160709,85.565772 c 0,1.010962 -0.361427,1.888671 -1.082614,2.633926 -0.722019,0.717328 -1.596438,1.077188 -2.623255,1.077188 -1.026817,0 -1.901235,-0.359063 -2.623255,-1.077188 -0.72202,-0.745255 -1.082613,-1.622964 -1.082613,-2.633926 0,-1.037292 0.361426,-1.914203 1.082613,-2.633127 0.72202,-0.717328 1.596438,-1.077188 2.623255,-1.077188 1.026817,0 1.901236,0.359062 2.623255,1.077188 0.72202,0.718126 1.082614,1.595835 1.082614,2.633127 z"
     fill="#111111"
     id="path291"
     style="stroke-width:0.815162" /><path
     fill-rule="evenodd"
     clip-rule="evenodd"
     d="m 24.517085,82.174623 9.993353,5.027678 c 2.331782,1.116287 6.676392,2.473544 13.032998,4.069379 -0.666224,0.505879 -1.665559,0.864144 -2.998006,1.077188 -2.720691,0.478751 -5.815299,0.0399 -9.285491,-1.316563 -3.303636,-1.303797 -6.092614,-3.165339 -8.369433,-5.585422 l -2.373421,-3.271462 z"
     fill="#1e1e1e"
     id="path293"
     style="stroke-width:0.815162" /><path
     fill-rule="evenodd"
     clip-rule="evenodd"
     d="M 49.0008,89.595255 C 42.894028,87.680254 37.092054,85.472416 31.59571,82.971743 20.713781,78.048593 15.537224,73.715901 16.064374,69.965689 c 0,-0.04069 0.03498,-0.240173 0.104097,-0.598438 1.528983,0.805897 4.936716,2.441627 10.222367,4.907192 3.608434,1.701958 10.187391,4.973419 19.736873,9.814384 l 0.582945,2.114481 c 0.582946,1.571898 1.346605,2.696961 2.290144,3.391149 z"
     fill="#1e1e1e"
     id="path295"
     style="stroke-width:0.815162" /><path
     fill-rule="evenodd"
     clip-rule="evenodd"
     d="m 105.46324,78.783474 c 0,1.170545 -0.40223,2.180709 -1.20753,3.032885 -0.83278,0.824248 -1.81795,1.236772 -2.95636,1.236772 -1.16506,0 -2.151072,-0.412524 -2.95637,-1.236772 -0.832779,-0.851378 -1.249169,-1.86234 -1.249169,-3.032885 0,-1.169746 0.41639,-2.180708 1.249169,-3.032086 0.805298,-0.824248 1.79048,-1.236772 2.95637,-1.236772 1.13841,0 2.12358,0.412524 2.95636,1.236772 0.8078,0.853772 1.20753,1.859148 1.20753,3.032086 z"
     fill="#1e1e1e"
     id="path297"
     style="stroke-width:0.815162" /><path
     fill-rule="evenodd"
     clip-rule="evenodd"
     d="m 104.54719,79.262225 c 0,1.037293 -0.36143,1.927768 -1.08262,2.673023 -0.7495,0.745255 -1.63807,1.117085 -2.66489,1.117085 -1.026817,0 -1.901236,-0.372628 -2.623256,-1.117085 -0.721187,-0.745255 -1.082613,-1.63573 -1.082613,-2.673023 0,-1.037293 0.361426,-1.928566 1.082613,-2.673821 0.72202,-0.744457 1.596439,-1.116287 2.623256,-1.116287 1.02682,0 1.91539,0.372628 2.66489,1.116287 0.72452,0.742063 1.08262,1.63573 1.08262,2.673023 z"
     fill="#111111"
     id="path299"
     style="stroke-width:0.815162" /><path
     fill-rule="evenodd"
     clip-rule="evenodd"
     d="m 58.785958,79.5016 c -1.388243,-0.319167 -2.817293,-0.22581 -4.288814,0.279271 -1.443207,0.50588 -2.873089,1.370024 -4.288814,2.593232 l -1.707198,1.715522 1.124252,-2.353856 c 1.165891,-1.648497 2.789811,-2.619563 4.87176,-2.911601 2.081948,-0.292835 3.691711,-0.173148 4.83012,0.358265 0.582946,0.292836 0.94354,0.598438 1.082614,0.917605 -0.388908,-0.239375 -0.930215,-0.438854 -1.62392,-0.598438 z"
     fill="#5b5b5b"
     id="path301"
     style="stroke-width:0.815162" /><path
     fill-rule="evenodd"
     clip-rule="evenodd"
     d="m 103.9226,72.83899 c -1.74967,0.132454 -3.37276,0.612002 -4.87259,1.436251 -1.499003,0.824249 -2.414228,1.968462 -2.748172,3.431045 -0.02498,0.1149 -0.04664,0.227406 -0.06246,0.339115 0.01416,-0.201873 0.03414,-0.407736 0.06246,-0.617588 0.249834,-1.676425 0.91689,-2.899632 1.998671,-3.671218 1.249169,-0.904041 2.567461,-1.329331 3.955701,-1.276668 0.66622,0.02394 1.22419,0.143625 1.66556,0.359063 z"
     fill="#5b5b5b"
     id="path303"
     style="stroke-width:0.815162" /><path
     fill-rule="evenodd"
     clip-rule="evenodd"
     d="m 57.536789,98.771306 9.160573,0.318369 c 6.828792,0.106921 11.992024,-0.02633 15.489698,-0.398959 3.525155,-0.372627 7.259338,-1.023728 11.200883,-1.954898 1.971189,-0.47875 3.580951,-0.916807 4.83012,-1.315766 -0.832779,0.584874 -2.123587,1.196877 -3.871591,1.835211 -3.497674,1.276667 -7.549978,2.06102 -12.159412,2.353856 -3.441878,0.213044 -8.590953,0.132454 -15.448059,-0.239375 z"
     fill="#5b5b5b"
     id="path305"
     style="stroke-width:0.815162" /><path
     fill-rule="evenodd"
     clip-rule="evenodd"
     d="m 55.413201,73.876282 c -2.081948,-0.185914 -3.720025,-0.05266 -4.913398,0.398959 -1.165892,0.451621 -2.512496,1.302999 -4.038981,2.553336 l -1.957031,1.755418 2.040309,-2.393752 c 1.610596,-1.648497 2.998006,-2.579667 4.163897,-2.792711 1.194206,-0.239375 2.803969,-0.158786 4.830121,0.240173 0.999335,0.185915 1.887911,0.398959 2.664894,0.638334 -0.805297,-0.183521 -1.734679,-0.319167 -2.789811,-0.398959 z"
     fill="#b73d3d"
     id="path307"
     style="stroke-width:0.815162" /><path
     fill-rule="evenodd"
     clip-rule="evenodd"
     d="m 31.054403,73.756595 c 2.081949,1.037292 6.5648,2.407317 13.449388,4.109274 -1.276651,-0.133252 -2.803969,-0.385394 -4.580287,-0.758021 -3.525155,-0.718126 -6.523161,-1.595835 -8.994018,-2.633128 -1.582281,-0.691794 -3.941545,-2.034689 -7.078625,-4.029482 l -4.205536,-2.792711 z"
     fill="#b73d3d"
     id="path309"
     style="stroke-width:0.815162" /><path
     fill-rule="evenodd"
     clip-rule="evenodd"
     d="m 21.47744,86.483377 c 0.666223,0.718126 1.31829,1.503277 1.957031,2.353857 -2.248504,-0.691795 -3.872424,-1.715523 -4.871759,-3.07278 -0.861094,-1.089955 -0.957696,-2.872503 -0.291473,-5.345249 -0.0558,0.451621 0.139074,0.624769 0.582946,0.517849 0.861094,-0.239376 1.610595,-0.784353 2.248504,-1.635731 l -0.499668,2.872503 c -0.194037,2.050647 0.09744,3.486899 0.874419,4.308754 z"
     fill="#1e1e1e"
     id="path311"
     style="stroke-width:0.815162" /><path
     fill-rule="evenodd"
     clip-rule="evenodd"
     d="m 52.165361,94.502447 c -0.416389,1.2264 -0.638741,2.449607 -0.666223,3.671218 -0.05496,2.180705 0.624584,3.549935 2.04031,4.108475 0.804464,0.3463 1.318289,0.79792 1.540641,1.35646 -1.776318,-0.3463 -3.177886,-1.02373 -4.205536,-2.03469 -1.304132,-1.33013 -1.832114,-3.099109 -1.582281,-5.306148 l 0.208195,-1.037293 c 0.166556,0.239375 0.333112,0.598438 0.499668,1.077188 0.139074,0.319167 0.30563,0.385395 0.499668,0.19948 0.333111,-0.292038 0.68038,-0.664665 1.040974,-1.116287 0.355597,-0.446833 0.563792,-0.750042 0.624584,-0.917605 z"
     fill="#1e1e1e"
     id="path313"
     style="stroke-width:0.815162" /><path
     fill-rule="evenodd"
     clip-rule="evenodd"
     d="m 56.079425,95.100886 1.20753,-2.313163 -0.624585,2.553336 c -0.249833,1.781749 0.04164,2.925963 0.874419,3.431842 1.304965,0.797918 2.83145,1.129851 4.580287,0.997397 -0.776984,0.345502 -1.62392,0.557742 -2.539978,0.638332 -1.832114,0.18592 -3.108765,-0.31917 -3.830785,-1.516041 -0.472186,-0.821855 -0.360594,-2.090544 0.333112,-3.790108 z"
     fill="#3f3f3f"
     id="path315"
     style="stroke-width:0.815162" /><path
     fill-rule="evenodd"
     clip-rule="evenodd"
     d="m 100.9246,87.760045 0.5413,2.434446 c 0.27732,1.754621 0.22235,2.978626 -0.16655,3.67042 -0.61043,1.063624 -1.609765,1.902236 -2.998009,2.51344 1.137577,-1.569503 1.832119,-2.886067 2.081949,-3.949691 0.13907,-0.691794 0.27731,-1.676424 0.41639,-2.952294 l 0.12492,-1.715523 z"
     fill="#3f3f3f"
     id="path317"
     style="stroke-width:0.815162" /><path
     fill-rule="evenodd"
     clip-rule="evenodd"
     d="m 88.266349,100.68631 h -0.08328 v -1.27667 l 3.705869,-0.478751 c 2.664894,-0.42529 4.427055,-0.864144 5.288149,-1.315766 l 3.789981,-2.034689 c -1.388245,2.2605 -5.288984,3.776543 -11.701385,4.547326 -0.443872,0.0798 -0.776151,0.26332 -0.998503,0.55855 z"
     fill="#2b2b2b"
     id="path319"
     style="stroke-width:0.815162" /><path
     fill-rule="evenodd"
     clip-rule="evenodd"
     d="m 103.79768,85.286501 -2.49833,1.236772 -1.499006,-1.276668 1.540646,-0.239375 c 1.1384,-0.292835 2.06779,-0.811482 2.79064,-1.555939 l 2.08195,-2.433648 c -0.33311,2.210231 -1.14091,3.630524 -2.41506,4.268858 z"
     fill="#2b2b2b"
     id="path321"
     style="stroke-width:0.815162" /><path
     fill-rule="evenodd"
     clip-rule="evenodd"
     d="m 20.061715,38.887604 c -1.026817,-1.090753 -1.804633,-2.154377 -2.331783,-3.19167 -0.666223,-1.276668 -1.249169,-3.231565 -1.748836,-5.864693 l -0.541307,-3.550732 0.749502,3.67042 c 0.638741,2.633127 1.304132,4.442006 1.99867,5.425838 0.443872,0.690997 1.388243,1.994794 2.83145,3.909796 l 1.957032,2.154377 c 0.916057,1.037292 1.859596,2.31396 2.83145,3.830003 1.277483,1.994794 2.206865,3.830802 2.789811,5.50563 0.860261,2.500674 1.484846,5.611754 1.873754,9.335634 -0.749502,-3.351253 -1.499003,-5.931718 -2.248505,-7.739799 -0.582945,-1.382791 -1.471521,-3.165338 -2.664894,-5.346046 -1.276651,-2.2605 -2.262662,-3.830004 -2.956367,-4.706915 z"
     fill="#5b5b5b"
     id="path323"
     style="stroke-width:0.815162" /><path
     fill-rule="evenodd"
     clip-rule="evenodd"
     d="m 74.608767,104.91527 4.788482,0.71812 -1.748837,0.75803 c -3.8591,0.13245 -6.897912,-0.9974 -9.118935,-3.39115 -0.887743,-0.93117 -2.539977,-1.14422 -4.955037,-0.63834 -2.609098,0.74446 -4.288814,1.19688 -5.038316,1.35566 -0.72202,0.15959 -1.62392,0.17315 -2.706533,0.0407 -1.304965,-0.15959 -2.456699,-0.51865 -3.456035,-1.07799 l -0.124917,-1.47615 1.748837,0.9974 c 1.471521,0.612 3.012163,0.79792 4.621926,0.55854 0.999335,-0.15958 2.692376,-0.612 5.080787,-1.35646 1.693041,-0.50588 2.887246,-0.6511 3.580952,-0.43885 0.471353,0.15879 1.62392,0.85058 3.455202,2.07458 1.665558,1.11709 2.956366,1.73946 3.872424,1.87511 z"
     fill="#1e1e1e"
     id="path325"
     style="stroke-width:0.815162" /><path
     fill-rule="evenodd"
     clip-rule="evenodd"
     d="m 74.234016,100.7262 3.580952,-0.0399 c 2.60993,-0.0263 4.511166,-0.0926 5.705371,-0.19948 1.915393,-0.15959 3.247007,-0.35907 3.997342,-0.59844 -0.361427,1.99479 -0.916058,3.11188 -1.665559,3.35125 -0.666224,0.21305 -1.762161,0.3064 -3.289479,0.27927 -1.720522,-0.0527 -3.122923,-0.2657 -4.205536,-0.63833 -0.971854,-0.3463 -1.942874,-0.81148 -2.914728,-1.39636 z"
     fill="#3f3f3f"
     id="path327"
     style="stroke-width:0.815162" /><path
     fill-rule="evenodd"
     clip-rule="evenodd"
     d="m 90.723049,78.105245 -21.193404,-7.899383 0.208195,-4.547331 2.998006,1.795314 c 2.498338,1.355662 4.996676,2.433648 7.495015,3.231566 2.498338,0.797917 5.24651,1.15698 8.244516,1.077188 1.499003,-0.02633 2.748172,-0.146817 3.747507,-0.359063 l -1.499835,6.702507 z"
     fill="#6b1a1a"
     id="path329"
     style="stroke-width:0.815162" /><path
     fill-rule="evenodd"
     clip-rule="evenodd"
     d="m 100.15428,68.466402 c -1.123424,-0.432471 -2.420061,-0.465185 -3.893248,-0.09974 -0.943539,0.213044 -1.957032,0.931169 -3.039645,2.154377 l -1.290808,1.795314 c 0.0558,-0.478751 0.208195,-1.010961 0.458028,-1.595835 0.472186,-1.170545 1.13841,-2.021125 1.998671,-2.553336 0.860261,-0.505081 2.081949,-0.612002 3.66423,-0.318369 0.780314,0.151605 1.480681,0.359063 2.102772,0.614397 z"
     fill="#b73d3d"
     id="path331"
     style="stroke-width:0.815162" /><path
     fill-rule="evenodd"
     clip-rule="evenodd"
     d="m 92.888275,71.602218 c -0.999335,0.133252 -2.275986,0.185915 -3.831618,0.159583 -3.107933,-0.02633 -6.051808,-0.385394 -8.827462,-1.077188 -2.748172,-0.665463 -5.315631,-1.702756 -7.703209,-3.111878 l -2.788979,-1.915002 9.826797,3.431045 c 2.637413,0.957501 7.078625,1.795314 13.324471,2.51344 z"
     fill="#b73d3d"
     id="path333"
     style="stroke-width:0.815162" /><use
     opacity="0.25"
     style="enable-background:new"
     xlink:href="#flash0.ai_x2F_red_armchair_x2F__x3C_Path_x3E__x5F_7"
     transform="matrix(0.83277942,0,0,-0.79791741,44.670347,33.501661)"
     height="10.447"
     width="9.8699999"
     y="-10.473"
     x="-0.02"
     id="use335" /><use
     opacity="0.25"
     style="enable-background:new"
     xlink:href="#flash0.ai_x2F_red_armchair_x2F__x3C_Path_x3E__x5F_6"
     transform="matrix(0.83277942,0,0,-0.79791741,33.261269,22.929256)"
     height="9.5810003"
     width="9.0059996"
     y="-9.5559998"
     x="-0.0060000001"
     id="use337" /><use
     opacity="0.25"
     style="enable-background:new"
     xlink:href="#flash0.ai_x2F_red_armchair_x2F__x3C_Path_x3E__x5F_5"
     transform="matrix(0.83277942,0,0,-0.79791741,52.540112,20.934462)"
     height="9.7770004"
     width="9.2220001"
     y="-9.802"
     x="0.028000001"
     id="use339" /><use
     opacity="0.25"
     style="enable-background:new"
     xlink:href="#flash0.ai_x2F_red_armchair_x2F__x3C_Path_x3E__x5F_4"
     transform="matrix(0.83277942,0,0,-0.79791741,36.092719,46.427923)"
     height="10.226"
     width="9.7200003"
     y="-10.252"
     x="-0.02"
     id="use341" /><use
     opacity="0.25"
     style="enable-background:new"
     xlink:href="#flash0.ai_x2F_red_armchair_x2F__x3C_Path_x3E__x5F_3"
     transform="matrix(0.83277942,0,0,-0.79791741,55.746313,44.632609)"
     height="10.022"
     width="9.4219999"
     y="-10.048"
     x="0.028000001"
     id="use343" /><use
     opacity="0.25"
     style="enable-background:new"
     xlink:href="#flash0.ai_x2F_red_armchair_x2F__x3C_Path_x3E__x5F_2"
     transform="matrix(0.83277942,0,0,-0.79791741,48.209659,59.194602)"
     height="9.1219997"
     width="8.658"
     y="-9.1070004"
     x="-0.0080000004"
     id="use345" /><path
     fill-rule="evenodd"
     clip-rule="evenodd"
     d="m 91.139438,91.151194 c 2.305134,-0.877709 4.219694,-1.887872 5.746178,-3.032086 -0.443871,1.489712 -1.194205,2.99219 -2.248504,4.508234 l -1.499003,1.875105 -36.01771,2.71292 c -0.249834,-0.957501 -0.152399,-2.008358 0.291473,-3.151774 0.443871,-1.143416 1.068456,-1.994794 1.873754,-2.553336 0.499667,-0.346296 0.957696,-0.784353 1.374086,-1.315766 6.245845,2.712122 12.395088,3.856335 18.446064,3.431045 4.441212,-0.295229 8.452711,-1.117084 12.033662,-2.473544 z"
     fill="#541616"
     id="path347"
     style="stroke-width:0.815162" /><path
     fill-rule="evenodd"
     clip-rule="evenodd"
     d="m 74.525489,73.357636 c -1.610596,-0.717328 -2.360097,-1.15698 -2.248505,-1.315766 5.690382,1.542375 10.881096,3.257897 15.572976,5.14577 6.356605,2.527004 9.368768,4.548129 9.035656,6.06497 -6.079289,-0.292836 -11.075966,-0.50588 -14.990029,-0.638334 -1.415725,-0.08059 -3.761665,0.252142 -7.036986,0.997397 l -1.832115,0.07979 c -3.608433,0.159584 -7.189385,0.584874 -10.742022,1.276668 l -0.209027,-1.516043 c 3.470191,-0.266504 5.579622,-0.438854 6.329123,-0.518646 2.692376,-0.265707 4.885917,-0.598438 6.578958,-0.997397 1.610595,-0.372627 4.317128,-0.638334 8.119599,-0.797917 2.914728,-0.132455 4.802639,-0.505082 5.6629,-1.116287 0.971854,-0.718125 -0.693705,-1.875904 -4.996677,-3.471738 l -6.787152,-2.154377 c -0.832779,-0.319167 -1.651401,-0.662272 -2.456699,-1.037293 z"
     fill="#681a1a"
     id="path349"
     style="stroke-width:0.815162" /><g
     id="price_x5F_tag_x5F_pt">
		<use
   id="price_x5F_tag_x5F_pt_1_"
   xlink:href="#price_x5F_tag_x5F_pt_x5F_mc"
   transform="matrix(1,0,0,-1,72.2,157.7)"
   height="-32766"
   width="-32766"
   y="16383"
   x="16383" />
</g></g>
</svg>
