<?xml version="1.0" encoding="UTF-8" standalone="no"?>
<svg
   viewBox="0 0 115 115"
   version="1.1"
   id="svg1732"
   sodipodi:docname="football_ball_sport_soccer_1.svg"
   width="115"
   height="115"
   inkscape:version="1.2.2 (b0a8486541, 2022-12-01)"
   inkscape:export-filename="football_ball_sport_soccer_1.png"
   inkscape:export-xdpi="96"
   inkscape:export-ydpi="96"
   xmlns:inkscape="http://www.inkscape.org/namespaces/inkscape"
   xmlns:sodipodi="http://sodipodi.sourceforge.net/DTD/sodipodi-0.dtd"
   xmlns:xlink="http://www.w3.org/1999/xlink"
   xmlns="http://www.w3.org/2000/svg"
   xmlns:svg="http://www.w3.org/2000/svg"
   xmlns:rdf="http://www.w3.org/1999/02/22-rdf-syntax-ns#"
   xmlns:cc="http://creativecommons.org/ns#"
   xmlns:dc="http://purl.org/dc/elements/1.1/">
  <sodipodi:namedview
     id="namedview1734"
     pagecolor="#ffffff"
     bordercolor="#666666"
     borderopacity="1.0"
     inkscape:showpageshadow="2"
     inkscape:pageopacity="0.0"
     inkscape:pagecheckerboard="0"
     inkscape:deskcolor="#d1d1d1"
     showgrid="false"
     inkscape:zoom="1.63147"
     inkscape:cx="77.230964"
     inkscape:cy="241.5"
     inkscape:window-width="1864"
     inkscape:window-height="1011"
     inkscape:window-x="0"
     inkscape:window-y="0"
     inkscape:window-maximized="1"
     inkscape:current-layer="svg1732" />
  <defs
     id="defs1682">
    <linearGradient
       id="imagebot_37">
      <stop
         offset="0"
         id="stop1658" />
      <stop
         offset="1"
         stop-opacity="0"
         id="stop1660" />
    </linearGradient>
    <linearGradient
       id="imagebot_22"
       x1="364.97427"
       x2="379.89594"
       y1="531.37024"
       y2="444.62305"
       gradientTransform="matrix(1.3151285,0,0,0.76038197,-236.97295,-361.70072)"
       gradientUnits="userSpaceOnUse">
      <stop
         offset="0"
         stop-color="#333"
         id="stop1663" />
      <stop
         offset="1"
         stop-opacity="0"
         id="stop1665" />
    </linearGradient>
    <linearGradient
       id="imagebot_24"
       x1="446.64203"
       x2="322.32843"
       xlink:href="#imagebot_37"
       y1="503.17307"
       y2="463.36603"
       gradientTransform="matrix(0.91177562,0,0,1.0967611,-236.97295,-361.70072)"
       gradientUnits="userSpaceOnUse" />
    <linearGradient
       id="imagebot_26"
       x1="556.89905"
       x2="684.48627"
       xlink:href="#imagebot_37"
       y1="561.01892"
       y2="581.44574"
       gradientTransform="matrix(0.93258033,0,0,1.0722937,-236.97295,-361.70072)"
       gradientUnits="userSpaceOnUse" />
    <radialGradient
       cx="478.60846"
       cy="550.29456"
       gradientUnits="userSpaceOnUse"
       id="imagebot_28"
       r="225.0625"
       gradientTransform="translate(-236.97295,-361.70072)">
      <stop
         offset="0"
         stop-color="#fff"
         id="stop1670" />
      <stop
         offset=".4702"
         stop-color="#fff"
         id="stop1672" />
      <stop
         offset="1"
         stop-color="#d6d6d6"
         id="stop1674" />
    </radialGradient>
    <radialGradient
       cx="477.48651"
       cy="544.29736"
       gradientUnits="userSpaceOnUse"
       id="imagebot_30"
       r="206.08806"
       gradientTransform="translate(-236.97295,-361.70072)">
      <stop
         offset="0"
         stop-color="#6a6a6a"
         id="stop1677" />
      <stop
         offset="1"
         id="stop1679" />
    </radialGradient>
  </defs>
  <g
     id="g1761"
     transform="matrix(0.23658745,0,0,0.23658745,3.8476688,3.9966052)">
    <path
       d="m 450.16993,229.86221 c 0,124.24688 -100.83807,225.08496 -225.08496,225.08496 C 100.83808,454.94717 1e-5,354.10909 1e-5,229.86221 1e-5,105.61533 100.83805,4.77728 225.08497,4.77728 c 124.24692,0 225.08496,100.83804 225.08496,225.08493 z"
       fill="url(#imagebot_30)"
       fill-rule="evenodd"
       id="path1684"
       style="fill:url(#imagebot_30)" />
    <path
       d="m 225.07551,4.78091 c -49.12805,0 -94.57641,15.78494 -131.59375,42.53125 -16.11578,19.48959 -27.40625,39 -27.40625,39 l -20.5625,7.875 C 16.9542,131.92282 0.01303,178.93539 0.01303,229.87466 c 0,4.75812 0.14613,9.47119 0.4375,14.15625 5.11583,9.13971 8.9375,14.96875 8.9375,14.96875 l -2.625,25.6875 c 14.70149,58.6795 52.4553,108.24261 103.06248,138.5 3.61585,2.33832 6.63614,3.75378 9.9542,5.6308 -1.76053,-1.66309 -2.3028,-2.10804 -3.4542,-3.16199 -13.24728,-13.70184 -24.40625,-29.71881 -24.40625,-29.71881 l 32.03125,-29.46875 c 3e-5,0 20.59409,15.56506 43.71875,23.625 23.12466,8.05994 48.78125,8.62494 48.78125,8.62494 l 15.875,40.75 c 0,0 -14.02786,7.19452 -33.9375,10.71881 -3.56518,0.6311 -7.33298,1.14441 -11.09375,1.5625 12.288,2.0813 24.90329,3.1875 37.78125,3.1875 52.0426,0 99.99005,-17.68402 138.125,-47.375 11.92993,-15.98523 19.75,-29.71875 19.75,-29.71875 l 17.375,-6.8125 c 30.83277,-38.22309 49.43604,-86.71942 49.8125,-139.53125 -6.12408,-18.15827 -12.8125,-28.8125 -12.8125,-28.8125 0,0 1.70722,-16.58246 -0.69061,-34.84754 -0.37628,-2.86596 1.5495,-1.846 3.86731,-3.40222 -0.68744,-2.59485 -3.185,-10.30609 -4.44501,-13.9884 -4.96026,-14.49588 -9.83935,-21.41177 -13.04419,-27.82434 6.24329,3.48764 -0.0245,-0.0189 -0.0312,-0.0312 C 384.85139,52.43063 310.49525,4.78088 225.07551,4.78091 Z m 27.21875,8.5625 c 18.70389,0.25577 38.21875,6.3125 38.21875,6.3125 0,0 22.1731,8.52057 38,20.5625 15.8269,12.04193 25.3125,27.59375 25.3125,27.59375 l -40.25,27.8125 c 0,-3e-5 -21.66626,-14.8425 -44.3125,-22.84375 -22.64624,-8.00125 -46.28125,-9.15625 -46.28125,-9.15625 L 211.57551,22.09341 c 0,0 17.2634,-8.11026 37,-8.71875 1.23355,-0.038 2.47183,-0.0483 3.71875,-0.0312 z m -131.53125,111.1875 c 13.82047,0.0635 25.3125,1.71875 25.3125,1.71875 l 20.8125,88.4375 -66.8125,63.625 c 0,0 -20.86316,-13.23663 -35.90625,-26.1875 -15.04309,-12.95087 -24.28125,-25.625 -24.28125,-25.625 0,0 2.71585,-25.65387 8.84375,-47.71875 6.1279,-22.06488 15.6875,-40.53125 15.6875,-40.53125 0,0 16.51865,-9.50668 36.9375,-12.5 6.38089,-0.93543 13.12424,-1.24762 19.40625,-1.21875 z m 216.53125,63.15625 c 0,0 18.83771,8.25329 34.03125,20.40625 15.19354,12.15296 26.75,28.21875 26.75,28.21875 0,0 -1.0777,22.00055 -8.34375,44.875 -7.26605,22.87445 -20.71875,46.625 -20.71875,46.625 0,0 -18.77752,6.89075 -38.59375,8.75 -19.81623,1.85925 -40.6875,-1.3125 -40.6875,-1.3125 l -10.34375,-43.28125 -10.65625,-44.5 c 0,0 14.14166,-17.05225 31.28125,-32 17.13959,-14.94775 37.28125,-27.78125 37.28125,-27.78125 z"
       fill="url(#imagebot_28)"
       fill-rule="evenodd"
       id="path1686"
       style="fill:url(#imagebot_28)" />
    <path
       d="m 396.40083,236.97567 c 0,0 -1.05853,21.44342 -8.13635,43.72547 -7.07782,22.28205 -20.17505,45.40277 -20.17505,45.40277 0,0 -18.29651,6.72424 -37.59955,8.53534 -19.30304,1.8111 -39.61249,-1.29096 -39.61249,-1.29096 l -10.08838,-42.15015 -10.37146,-43.33282 c 0,0 13.7721,-16.6322 30.46778,-31.19281 16.69568,-14.56061 36.31506,-27.04968 36.31506,-27.04968 0,0 18.34723,8.052 33.14734,19.8902 14.80011,11.8382 26.0531,27.46264 26.0531,27.46264 z"
       fill="none"
       stroke="url(#imagebot_26)"
       stroke-linejoin="round"
       stroke-width="4.87051"
       id="path1688"
       style="stroke:url(#imagebot_26)" />
    <path
       d="m 100.15925,276.36233 c 0,0 -20.3371,-12.90576 -35.00116,-25.53034 C 50.49403,238.20741 41.503,225.86398 41.503,225.86398 c 0,0 2.63675,-24.9964 8.61026,-46.50531 5.97351,-21.50891 15.28379,-39.5304 15.28379,-39.5304 0,0 16.09844,-9.25503 36.00283,-12.17294 19.90439,-2.91791 43.61478,0.50134 43.61478,0.50134 l 20.2793,86.21079 z"
       fill="none"
       stroke="url(#imagebot_24)"
       stroke-linejoin="round"
       stroke-width="4.87402"
       id="path1690"
       style="stroke:url(#imagebot_24)" />
    <path
       d="m 289.5699,23.89175 c 0,0 19.46417,7.49628 33.36572,18.07324 13.90155,10.57696 22.24036,24.23474 22.24036,24.23474 L 309.8191,90.63079 c 0,0 -19.03149,-13.05404 -38.92282,-20.08194 -19.89133,-7.0279 -47.71344,-9.79745 -47.71344,-9.79745 l -9.31939,-36.84305 c 0,0 19.39501,-6.76895 36.73059,-7.30338 17.33558,-0.53443 38.97586,7.28678 38.97586,7.28678 z"
       fill="none"
       stroke="url(#imagebot_22)"
       stroke-width="5.01581"
       id="path1692"
       style="stroke:url(#imagebot_22)" />
    <path
       d="m 145.03263,127.45315 c 0,0 36.18674,-48.0806 78.43674,-64.3306"
       fill="none"
       stroke="#666666"
       id="path1694" />
    <path
       d="m 315.80482,94.39843 c 0,0 26.98486,42.92633 23.48486,91.92636"
       fill="none"
       stroke="#ececec"
       stroke-width="3"
       id="path1696" />
    <path
       d="m 313.40138,94.91284 c 0,0 27.5758,44.37609 24.0758,93.37606"
       fill="none"
       stroke="#666666"
       id="path1698" />
    <path
       d="m 350.82551,67.54934 c 0,0 59.78333,23.59995 86.03333,98.34992"
       fill="none"
       stroke="#666666"
       id="path1700" />
    <path
       d="m 398.44404,236.18783 c 0,0 21.04437,-1.63477 39.42914,-32.74744"
       fill="none"
       stroke="#666666"
       id="path1702" />
    <path
       d="m 383.42079,377.61965 c 0,0 2.92077,-18.1289 -14.5213,-50.95294"
       fill="none"
       stroke="#666666"
       id="path1704" />
    <path
       d="m 216.69477,399.23355 c 0,0 32.35013,-8.57367 73.36231,-65.14228"
       fill="none"
       stroke="#666666"
       id="path1706" />
    <path
       d="m 99.84538,277.52273 c 0,0 -1.94455,50.38135 23.15774,89.97937"
       fill="none"
       stroke="#666666"
       id="path1708" />
    <path
       d="m 91.90336,396.20394 c 0,0 -7.42956,0.0924 -35.54504,-16.85778"
       fill="none"
       stroke="#666666"
       id="path1710" />
    <path
       d="m 40.36003,226.43429 c 0,0 -20.14856,8.46344 -31.0015,31.91125"
       fill="none"
       stroke="#666666"
       id="path1712" />
    <path
       d="m 65.72499,86.54727 c 0,0 -7.23157,27.91232 -0.94794,51.36316"
       fill="none"
       stroke="#666666"
       id="path1714" />
    <path
       d="m 89.9459,50.89504 c 0,0 60.05417,-50.89505 121.21891,-28.26763"
       fill="none"
       stroke="#666666"
       id="path1716" />
    <path
       d="m 232.17662,439.51675 c 0,0 52.38632,13.45105 133.18734,-34.23303"
       fill="none"
       stroke="#666666"
       id="path1718" />
    <path
       d="m 145.22718,123.84438 c 0,0 30.09052,-41.44149 74.34052,-61.31649"
       fill="none"
       stroke="#f2f2f2"
       stroke-linecap="square"
       stroke-width="3"
       id="path1720" />
    <path
       d="m 217.51725,400.96658 c 0,0 30.82239,-5.94611 71.83457,-62.51471"
       fill="none"
       stroke="#ffffff"
       stroke-width="3"
       id="path1722" />
    <path
       d="m 97.8195,278.64224 c 0,0 -1.94455,50.39575 23.15775,89.99371"
       fill="none"
       stroke="#ffffff"
       stroke-width="3"
       id="path1724" />
    <path
       d="m 167.37407,214.85543 c 0,0 26.33972,6.1872 101.29306,32.70368"
       fill="none"
       stroke="#999999"
       id="path1726" />
    <path
       d="m 167.37407,213.58016 c 0,0 26.33972,6.1872 101.29306,32.70368"
       fill="none"
       stroke="#ececec"
       id="path1728" />
  </g>
  <title
     id="title1730">Ebene 1</title>
  <metadata
     id="metadata1736">
    <rdf:RDF>
      <cc:Work
         rdf:about="">
        <dc:title>Ebene 1</dc:title>
      </cc:Work>
    </rdf:RDF>
  </metadata>
</svg>
