<?xml version="1.0" encoding="UTF-8" standalone="no"?>
<svg
   width="115"
   height="115"
   version="1.1"
   id="svg3402"
   sodipodi:docname="van_camper_vw_volkswagen.svg"
   inkscape:version="1.2.2 (b0a8486541, 2022-12-01)"
   inkscape:export-filename="combi_verde.png"
   inkscape:export-xdpi="96"
   inkscape:export-ydpi="96"
   xmlns:inkscape="http://www.inkscape.org/namespaces/inkscape"
   xmlns:sodipodi="http://sodipodi.sourceforge.net/DTD/sodipodi-0.dtd"
   xmlns:xlink="http://www.w3.org/1999/xlink"
   xmlns="http://www.w3.org/2000/svg"
   xmlns:svg="http://www.w3.org/2000/svg">
  <sodipodi:namedview
     id="namedview3404"
     pagecolor="#ffffff"
     bordercolor="#666666"
     borderopacity="1.0"
     inkscape:showpageshadow="2"
     inkscape:pageopacity="0.0"
     inkscape:pagecheckerboard="0"
     inkscape:deskcolor="#d1d1d1"
     showgrid="false"
     inkscape:zoom="1.7511111"
     inkscape:cx="232.42386"
     inkscape:cy="158.18528"
     inkscape:window-width="1864"
     inkscape:window-height="1011"
     inkscape:window-x="0"
     inkscape:window-y="0"
     inkscape:window-maximized="1"
     inkscape:current-layer="svg3402" />
  <defs
     id="defs3256">
    <filter
       id="filter3863"
       y="-0.24312851"
       width="1.3648244"
       height="1.486257"
       x="-0.1824122">
      <feGaussianBlur
         id="feGaussianBlur3865"
         stdDeviation="0.619973" />
    </filter>
    <filter
       id="filter3889"
       x="-0.0195015"
       y="-0.031858623"
       width="1.039003"
       height="1.0637172">
      <feGaussianBlur
         id="feGaussianBlur3891"
         stdDeviation="7.071968" />
    </filter>
    <linearGradient
       id="linearGradient3755"
       y2="566.84967"
       xlink:href="#linearGradient3745"
       x2="1098.0143"
       y1="556.7301"
       x1="1097.066"
       gradientTransform="scale(0.96676825,1.0343741)"
       gradientUnits="userSpaceOnUse" />
    <linearGradient
       id="linearGradient3792"
       y2="569.7085"
       xlink:href="#linearGradient3745"
       x2="354.73517"
       y1="547.29333"
       x1="357.48825"
       gradientTransform="scale(1.1089516,0.90175264)"
       gradientUnits="userSpaceOnUse" />
    <linearGradient
       id="linearGradient3751"
       y2="620.70593"
       xlink:href="#linearGradient3745"
       x2="792.2265"
       y1="601.4693"
       x1="792.17004"
       gradientTransform="scale(0.94099809,1.0627014)"
       gradientUnits="userSpaceOnUse" />
    <linearGradient
       id="linearGradient3287"
       y2="353.92355"
       x2="510.07678"
       x1="508.59894"
       gradientTransform="scale(1.4195044,0.70447121)"
       y1="306.43417"
       gradientUnits="userSpaceOnUse">
      <stop
         id="stop3291"
         stop-color="#fff"
         offset="0" />
      <stop
         id="stop3293"
         stop-color="#e4e4dc"
         offset="1" />
    </linearGradient>
    <linearGradient
       id="linearGradient3745">
      <stop
         id="stop3747"
         stop-color="#575757"
         offset="0" />
      <stop
         id="stop3749"
         stop-color="#575757"
         stop-opacity="0"
         offset="1" />
    </linearGradient>
    <radialGradient
       id="radialGradient3786"
       gradientUnits="userSpaceOnUse"
       cy="471.41"
       cx="581.01001"
       gradientTransform="matrix(1.2567,-0.53039,0.58148,1.3778,-425.4,129.93)"
       r="17.315001">
      <stop
         id="stop3782"
         stop-color="#e8b700"
         offset="0" />
      <stop
         id="stop3788"
         stop-color="#e2b500"
         offset=".45674" />
      <stop
         id="stop3784"
         stop-color="#ffe400"
         offset="1" />
    </radialGradient>
    <radialGradient
       id="radialGradient3843"
       gradientUnits="userSpaceOnUse"
       cy="471.41"
       cx="581.01001"
       gradientTransform="matrix(0.87211,-0.36124,0.40352,0.93838,-116.75,240.63)"
       r="17.315001">
      <stop
         id="stop3847"
         stop-color="#e8b700"
         offset="0" />
      <stop
         id="stop3849"
         stop-color="#e2b500"
         offset=".45674" />
      <stop
         id="stop3851"
         stop-color="#ae9c00"
         offset="1" />
    </radialGradient>
  </defs>
  <g
     id="g7694"
     transform="matrix(0.13122926,0,0,0.15417186,-38.406735,-12.068801)">
    <path
       id="path8114"
       opacity="0.5"
       d="m 633.88,204.08 c -60.589,0.61545 -121.41,5.5483 -180.54,19.141 -17.604,4.7696 -34.402,13.922 -46.262,27.967 -1.9464,0.54817 -4.0545,0.0163 -5.9847,0.73956 -1.5875,0.32623 -3.1386,0.81522 -4.6611,1.3721 -0.28998,4.5715 -0.97672,9.1539 -0.56439,13.74 -13.254,23.894 -26.353,48.249 -39.508,71.961 -0.77286,-5.0201 -1.8412,-10.737 -6.0722,-14.022 -5.9987,-4.2759 -14.462,-3.683 -20.708,-0.31137 -5.3819,3.337 -7.7205,10.231 -6.6269,16.27 -4.1658,2.3769 -6.5971,7.2236 -7.1134,11.921 -0.68915,5.4565 1.7286,11.227 6.5092,14.089 2.1146,1.3032 3.751,3.4508 3.8836,5.9477 0.80185,4.5771 0.27448,9.3332 0.34784,13.938 -1.4235,3.9013 -2.7416,8.0648 -1.9339,12.268 0.36163,4.6167 -0.20099,9.3518 0.69083,13.896 0.9949,3.0166 3.669,5.3062 6.695,6.0819 0.85867,0.52295 2.3675,0.90485 1.7224,2.2285 -0.0465,4.9184 -2.6793,9.1156 -5.0662,13.188 -17.087,34.028 -19.285,74.978 -7.1658,110.94 -9.79,-2.2964 -20.626,6.2029 -20.017,16.387 -0.92438,11.954 2.9244,23.634 2.5193,35.547 -1.5312,5.4044 -4.3386,10.658 -3.6997,16.446 0.2829,9.2368 5.0085,17.631 10.59,24.717 -0.0635,4.313 0.22327,8.764 2.3451,12.602 3.104,6.1128 9.7978,10.55 16.806,9.7603 4.9998,-0.3576 9.9544,-1.4154 14.85,-2.4425 2.0282,-0.78156 4.2314,-0.81403 6.1597,0.19464 6.6366,2.0616 13.516,3.2306 20.26,4.7974 5.8874,19.125 18.374,36.922 36.423,46.213 17.494,9.0226 37.769,10.444 57.16,9.5169 14.037,-0.16211 28.846,-2.3322 40.394,-10.821 9.8018,-6.8284 17.975,-15.818 24.191,-25.992 35.46,0.49731 71.132,0.69873 106.3,-4.3596 5.4733,20.19 18.207,39.073 36.952,48.938 17.323,9.0867 37.464,10.578 56.73,9.6365 13.939,-0.081 28.604,-2.054 40.27,-10.264 17.649,-11.725 29.356,-30.528 36.38,-50.218 4.7414,-13.121 6.6835,-27.13 7.9426,-40.937 3.1508,-2.1182 5.678,-5.1784 7.055,-8.7288 55.4,-12.686 110.71,-25.886 166.14,-38.37 0.48425,16.801 4.7872,34.324 16.06602,47.157 7.582,8.2884 18.991,11.682 29.894,12.717 12.55,1.5721 25.992,2.8671 37.893,-2.2856 10.661,-4.9416 17.727,-15.057 22.918,-25.271 7.082,-14.014 10.899,-29.66 12.503,-45.24 14.849,6.1317 30.521,11.779 46.826,11.23 9.96,-1.5446 15.766,-14.17 10.967,-22.897 -0.6037,-1.2182 -1.3931,-2.3633 -2.3451,-3.3378 3.447,-6.6024 4.1171,-14.704 1.6737,-21.778 1.9966,-3.3113 4.0613,-6.5883 5.1575,-10.325 3.3116,-9.4744 2.0781,-21.197 -5.4069,-28.411 -3.2196,-3.3009 -7.288,-5.7372 -11.7,-7.0489 3.1411,-38.406 -1.2094,-76.839 -3.251,-115.18 -0.2206,-2.9078 -0.096,-5.7708 0.4291,-8.6221 0.6112,-6.194 -1.3385,-12.349 -4.4147,-17.618 -4.7948,-26.77 -9.1753,-54.107 -20.954,-78.866 0.075,-4.3307 -1.4248,-8.8823 -5.0408,-11.463 -2.7406,-1.9526 -6.259,-2.5572 -8.7787,-4.8994 -13.527,-9.441 -29.352,-14.862 -45.024,-19.672 -28.843,-7.957 -58.709,-11.112 -88.35304,-14.534 -46.34,-4.4814 -92.812,-7.4032 -139.25,-10.689 -67.646,-4.295 -135.41,-7.1205 -203.2,-6.9481 z"
       filter="url(#filter3889)"
       fill="#ffffff" />
    <g
       fill-rule="evenodd"
       fill="#cbcbcb"
       id="g3261">
      <path
         id="rect3643"
         d="m 334.58,349.91 0.1998,-11.613 c -0.1872,-1.985 0.32794,-3.6459 1.1551,-3.7239 l 6.4943,-0.6125 c 0.82703,-0.078 1.6436,1.4572 1.8308,3.4423 l 3.2616,29.62 c 0.18726,1.985 -0.32785,3.6459 -1.155,3.7238 l -5.2947,0.5375 -6.597,-13.229 z" />
      <path
         id="rect3630"
         d="m 332.46,358.39 c -2.9908,0 -4.801,-1.597 -4.801,-3.5908 v -1.2066 c 0,-1.9938 2.4101,-3.6005 5.4008,-3.6005 h 4.3874 c 2.2934,4.1484 0.99097,6.1815 0,8.3979 -0.36017,0.019 -1.0235,0.0244 -1.7273,0.0235" />
    </g>
    <path
       id="path2387"
       fill="#007f00"
       d="m 1135.3,372.96 -0.1071,0.01 -311.96,23.413 c 0,0 -90.719,7.4851 -125.95,12.329 -23.352,3.2108 -49.795,9.9127 -64.974,14.061 l -3.2307,0.8856 c -5.811,1.6178 -9.2932,2.676 -9.2932,2.676 -37.111,13.01 -89.315,43.969 -101.73,52.402 -11.42,7.7578 -40.958,29.504 -40.958,29.505 l -0.1751,0.0584 c -5.3392,14.395 -83.632,91.01 -40.238,69.188 -19.29,24.31 4.477,13.657 38.438,14.791 0.0239,-0.0369 0.0533,-0.0706 0.0778,-0.107 0.0654,-0.0976 0.12521,-0.19696 0.19464,-0.29199 0.0123,-0.0168 0.0265,-0.0319 0.0389,-0.0487 0.0618,-0.0832 0.12988,-0.16199 0.19464,-0.24322 0.0729,-0.0914 0.14703,-0.18359 0.22385,-0.27246 0.087,-0.10077 0.18051,-0.20435 0.27243,-0.30176 0.12091,-0.1283 0.24063,-0.2572 0.36978,-0.37946 0.0348,-0.033 0.0717,-0.0648 0.10702,-0.0973 0.10104,-0.0928 0.20563,-0.18335 0.31143,-0.27246 0.14258,-0.12018 0.28693,-0.23712 0.4379,-0.35034 2.422,-1.8166 7.0962,-4.672 8.4173,-5.3326 0.33029,-0.16516 0.67209,-0.23352 1.0024,-0.23352 0.99081,0 1.9523,0.61383 2.6955,1.1092 0.99078,0.66052 6.544,4.3512 7.4248,5.1769 0.88068,0.82574 1.158,2.2576 1.158,2.2576 0,0 -1.9314,4.4562 -0.88556,7.8141 1.046,3.3578 3.6881,3.6296 3.6881,3.6296 0,0 1.4954,6.6666 3.367,12.777 1.8716,6.1102 4.3984,11.337 4.3984,11.337 l -0.01,0.1071 c 0.005,-0.004 0.11682,-0.10712 0.11682,-0.10712 0,0 47.566,3.0801 85.439,0.43787 l 11.006,-0.8757 c 0,0 41.988,-3.4741 55.71,-5.1769 0.47369,-0.0588 0.93195,-0.12231 1.3915,-0.18494 0.0853,-0.0116 0.16815,-0.0174 0.25293,-0.0292 0.37183,-0.0513 0.73706,-0.10236 1.0996,-0.15558 0.17078,-0.0251 0.32758,-0.0525 0.49628,-0.0779 0.70831,-0.10663 1.4084,-0.21985 2.0825,-0.33075 0.3205,-0.0528 0.62109,-0.10254 0.93414,-0.15576 0.0773,-0.0131 0.14697,-0.0258 0.22382,-0.0389 0.88605,-0.15155 1.7505,-0.29864 2.5788,-0.44769 0.34033,-0.0612 0.65173,-0.1153 0.98285,-0.17511 0.55664,-0.10059 1.0839,-0.19733 1.6153,-0.29199 0.69122,-0.12305 1.3636,-0.24249 2.0143,-0.35034 0.17602,-0.0291 0.36206,-0.0597 0.53522,-0.0875 0.0136,-0.002 0.0253,-0.008 0.0389,-0.01 0.51575,-0.0826 1.0168,-0.1557 1.5084,-0.22382 0.15094,-0.0209 0.30853,-0.039 0.45728,-0.0584 0.26965,-0.0351 0.53546,-0.0677 0.79804,-0.0973 0.29681,-0.0335 0.58752,-0.0619 0.87573,-0.0875 0.28076,-0.0251 0.55432,-0.0513 0.82715,-0.0682 0.0261,-0.002 0.0518,0.002 0.0778,0 0.26239,-0.0156 0.52319,-0.0316 0.77856,-0.0389 0.27124,-0.008 0.54407,-0.0119 0.80762,-0.01 0.21521,0.002 0.43201,0.0105 0.64221,0.0194 0.21051,0.009 0.41711,0.0225 0.6228,0.039 0.17047,0.0136 0.33862,0.0295 0.50604,0.0486 0.17316,0.0198 0.34589,0.0423 0.51575,0.0681 0.0255,0.004 0.0524,0.006 0.0778,0.01 0.0362,0.006 0.0709,0.0134 0.10712,0.0194 0.18347,0.0304 0.36505,0.0592 0.54492,0.0973 0.0131,0.003 0.0256,0.007 0.0389,0.01 0.22284,0.048 0.43457,0.10516 0.65204,0.1654 0.23254,0.0645 0.46411,0.13483 0.69086,0.21417 0.16382,0.0573 0.32562,0.11951 0.48657,0.18481 0.12775,0.0518 0.25348,0.1084 0.37958,0.1654 0.003,10e-4 0.007,-10e-4 0.01,0 0.15033,0.0682 0.29974,0.13831 0.44763,0.21417 0.20136,0.10321 0.39636,0.21283 0.59357,0.33087 0.0164,0.01 0.0325,0.0193 0.0487,0.0291 0.15558,0.0941 0.3139,0.198 0.4671,0.3017 0.0526,0.0356 0.10321,0.0702 0.15576,0.10706 0.11676,0.0821 0.23456,0.16504 0.35022,0.25293 0.0536,0.0408 0.1023,0.0845 0.15576,0.12653 0.0625,0.0493 0.12268,0.095 0.18481,0.14606 0.17609,0.14447 0.35211,0.29816 0.52551,0.45734 0.1991,0.1828 0.39764,0.37128 0.59357,0.5741 0.0464,0.0481 0.0947,0.10077 0.14606,0.16547 0.003,0.004 0.007,0.006 0.01,0.01 0.0489,0.0622 0.1026,0.1377 0.15564,0.21411 0.003,0.004 0.007,0.006 0.01,0.01 0.10962,0.15851 0.21594,0.34143 0.34058,0.55463 0.009,0.0156 0.0201,0.0232 0.0292,0.039 0.13104,0.22595 0.2746,0.48157 0.41852,0.75903 0.001,0.003 -0.002,0.007 0,0.01 0.12787,0.24707 0.2536,0.50647 0.38916,0.78821 0.0199,0.0412 0.0385,0.0749 0.0584,0.11676 0.13196,0.27643 0.26239,0.56299 0.39899,0.86603 0.0257,0.0571 0.0519,0.1076 0.0778,0.16553 0.13184,0.2951 0.26514,0.60034 0.39905,0.91467 0.0297,0.0698 0.0577,0.13373 0.0875,0.20435 0.13025,0.30884 0.25922,0.62207 0.38928,0.94397 0.15875,0.39288 0.31152,0.7912 0.46704,1.1969 l 0.4866,-0.1265 c 1.5523,-1.1387 2.9289,-5.8289 2.929,-5.8289 4.7562,-10.998 8.8549,-25.258 22.907,-54.251 16.196,-27.616 34.314,-29.751 44.033,-31.178 9.8711,-1.45 26.434,-8.9689 40.51,16.29 10.283,27.273 9.2543,39.641 9.2543,45.366 0,5.4083 -5.2165,12.076 -5.7997,12.806 1.9755,-0.45172 199.47999,-45.603 208.44999,-47.653 9.0133,-2.0601 14.9321,-11.593 18.0221,-20.863 3.0902,-9.2707 3.0786,-9.1639 5.8096,-17.117 0.704,-3.2469 4.8026,-6.496 11.444,-7.347 6.7937,-0.87054 52.0199,-9.5326 57.6859,-10.305 5.6655,-0.77255 5.6694,-0.2576 6.4419,3.3474 0.7727,3.6053 1.4118,19.577 1.9269,25.243 0.1287,1.4163 -2.4426,6.4322 -2.4425,6.4322 l 8.865,-1.7614 h 0.01 c 0.3527,-1.4909 0.6829,-2.8498 0.9051,-3.7756 0.7726,-3.2191 3.2231,-3.7323 4.7682,-3.9899 0.7261,-0.12091 2.4473,-0.49206 4.2816,-0.92444 0.062,-0.0145 0.1231,-0.0339 0.185,-0.0486 1.6482,-9.0147 3.0096,-18.089 4.8071,-27.072 0.3685,-2.0928 1.3433,-22.926 1.3429,-23.306 0,-0.37976 1.1714,-18.868 0.9244,-27.772 -0.2469,-8.905 -2.3645,-37.386 -2.3646,-44.636 -10e-5,-7.2502 -2.6177,-35.241 -2.6177,-36.248 0,-0.97354 -0.4979,-2.3774 -0.8952,-2.7734 z m -797.76,179.53 -0.0663,2.0408 c 0,-1.2e-4 -5.9082,0.13757 -7.4169,0.23633 -1.2848,0.084 -1.2747,1.2747 -1.2747,1.2747 l -0.545,8.3785 11.084,9.0499 2.6371,2.968 3.8924,-1.3527 c 3.9918,0.96143 9.5963,2.1962 15.667,3.1432 -9.6242,-4.8778 -17.85,-13.907 -23.977,-25.739 z m 0.2335,29.758 c 0.0834,0.0815 0.16702,0.16064 0.25296,0.23352 -0.0847,-0.0723 -0.17065,-0.15271 -0.25296,-0.23352 z m 4.3011,2.063 0.0195,0.0778 11.56,22.479 c 0,0 -0.0351,-6e-5 -0.0389,0 l 0.36,0.0584 c 1.312,0.39972 27.779,8.4086 55.477,12.67 28.406,4.3702 65.549,8.0087 65.549,8.0087 l 0.1751,-0.7493 c -0.0245,-0.42914 -0.0538,-0.86847 -0.0778,-1.2942 -0.13538,-2.3983 -0.26218,-4.7166 -0.37955,-6.9578 -0.0187,-0.35266 -0.0306,-0.67718 -0.0486,-1.0217 -0.0442,-0.85272 -0.0949,-1.6921 -0.13623,-2.5106 -0.0878,-1.725 -0.15219,-3.1656 -0.22385,-4.6515 -0.15247,-3.1583 -0.27487,-5.7203 -0.36975,-7.8433 l -0.0195,0.0584 c -28.163,-1.8288 -49.981,-4.7515 -79.882,-8.398 -15.196,-1.8532 -29.38,-4.3558 -39.8,-6.7534 -6.4519,-1.4898 -10.142,-2.52 -12.164,-3.1723 z m 134.97,69.373 c 0.25146,2.8542 0.50635,5.549 0.77853,7.9503 h 0.01 c -0.27328,-2.408 -0.53555,-5.0912 -0.78824,-7.9503 z" />
    <g
       fill-rule="evenodd"
       id="g3269">
      <path
         id="path5193"
         fill="url(#linearGradient3287)"
         d="m 644.61,215.88 c -29.17,0.0535 -56.008,0.88869 -78.432,2.8123 -101.38,8.7095 -122.22,20 -125.8,21.798 -3.587,1.7974 -16.815,8.0963 -27.403,22.42 l -4.0092,1.664 0.2336,2.5496 c 0,0 -54.61,99.961 -55.71,101.94 -1.101,1.9817 -4.4058,5.0661 -4.8461,6.6074 -0.42612,1.4913 -2.4933,13.622 -3.0264,17.604 l 0.2336,0.0292 -0.2919,0.4185 c 0.0143,-0.11435 0.0405,-0.31406 0.0583,-0.44766 l -0.0583,-0.01 v 0.0195 h -8.0672 c -0.83508,-0.13913 -1.2085,0.40295 -1.012,1.7808 l 0.1751,11.648 h 8.252 c 0,0 -1.4934,2.9248 1.3137,5.7316 0.15796,0.15796 -0.90298,11.287 -1.5278,17.642 9.7144,-14.842 22.346,-24.715 35.927,-26.994 7.0711,-2.4913 15.994,-4.5204 26.264,-4.4277 10.259,0.0924 21.85,2.3014 34.244,8.2423 l 0.3795,0.1945 c 24.575,10.87 40.437,48.27 36.579,91.667 -0.28711,3.23 -0.67972,6.4063 -1.1677,9.5267 l 0.1751,-0.0584 c 0,0 12.662,-9.3139 24.62,-17.934 5.4164,-3.898 10.825,-7.8106 16.339,-11.57 12.414,-8.4327 64.618,-39.392 101.73,-52.402 0,0 3.482,-1.0582 9.2932,-2.676 l 3.2307,-0.8856 c 12.334,-3.3708 32.099,-8.4305 51.604,-11.93 1.5004,-0.2692 3.002,-0.52914 4.4958,-0.77844 2.9876,-0.49872 5.9558,-0.95126 8.8747,-1.3527 35.23,-4.8442 125.95,-12.329 125.95,-12.329 l 186.75,-14.013 125.21,-9.4002 0.1071,-0.01 0.4087,-0.5352 c 0.9027,-1.3417 1.9537,-4.2645 1.0802,-9.118 -0.8273,-4.596 -2.7489,-5.9943 -3.3669,-6.3349 -0.4099,-2.7665 -8.6338,-57.566 -20.601,-80.048 l -4.6318,-6.9091 c -0.2753,-0.31396 -0.5333,-0.6004 -0.7201,-0.80771 -4.2831,-4.7532 -14.712,-10.055 -30.283,-16.572 -19.816,-8.2938 -63.369,-14.762 -81.89699,-17.127 -15.478,-1.9753 -210.12,-19.885 -350.67,-19.628 z M 436.68,577.49 c -0.83408,0.44452 -1.6737,0.86096 -2.5204,1.2457 l 0.0486,0.068 c -7.7884,3.3619 -15.096,5.5467 -21.875,6.841 -0.0101,0.002 -0.0192,0.008 -0.0292,0.01 l -0.01,-0.01 c -0.0494,0.009 -0.0967,0.0199 -0.14603,0.0292 l 0.107,0.0583 c 6.9793,0.85065 13.84,1.6966 20.669,2.501 l 0.1848,-0.506 c 0,-6e-5 1.8162,-6.0786 3.5714,-10.237 z m -98.916,4.7585 c 0.0823,0.0808 0.16824,0.16119 0.25296,0.23352 -0.0859,-0.0729 -0.16952,-0.15198 -0.25296,-0.23352 z m 70.521,4.0676 c -0.43454,0.0616 -0.86447,0.11102 -1.2942,0.1654 l 0.0389,0.01 c 0.41745,-0.0537 0.83331,-0.1142 1.2553,-0.17511 z m -2.6664,8.5146 c 0,0 4.7356,18.028 11.473,18.392 6.7375,0.36414 10.378,-5.6504 12.563,-14.937 l -24.036,-3.4546 z"
         style="fill:url(#linearGradient3287)" />
      <path
         id="path8026"
         fill="#5d536c"
         d="m 747.89,278.72 42.622,0.792 c 5.4512,0.0714 6.1844,3.8154 6.8505,5.9611 l 15.388,86.129 -47.49,1.8978" />
      <path
         id="path3448"
         fill="#6d6f84"
         d="m 702.35,281.24 -0.364,3.1782 c 4.5658,0.11276 3.7855,3.2908 3.3806,5.2684 l -9.9354,52.363 -3.5615,31.991 67.777,-2.3355 -3.1858,-18.186 c -0.85132,-2.0603 -4.3614,-3.6161 -7.7421,-3.6161 -3.523,0 -26.196,-0.4379 -26.196,-0.4379 l 14.421,-64.848 7.1913,0.1362 -0.5839,-3.2794 -41.201,-0.2336 z" />
      <path
         id="path3230"
         fill="none"
         d="m 816.54,374.82 -15.881,-90.071 c -0.60406,-2.7893 -2.5579,-9.8026 -10.899,-9.3418 l -127.71,-1.2845 c -5.3242,0.11716 -8.4543,-0.33154 -10.35,6.0172" />
      <path
         id="path3545"
         fill="#333333"
         d="m 405.65,398.67 c -9.7574,0.0702 -18.249,2.0357 -25.038,4.4277 3.0007,-0.50354 6.0459,-0.64594 9.118,-0.37955 31.022,2.6901 52.914,45.074 48.869,94.596 -0.0633,0.77377 -0.1293,1.5382 -0.20432,2.3062 -0.01,0.0971 -0.0196,0.19501 -0.0292,0.29196 -0.0668,0.66983 -0.13837,1.3393 -0.21414,2.0046 -0.0216,0.19092 -0.0457,0.38379 -0.0681,0.57422 -0.067,0.56888 -0.14062,1.1375 -0.21405,1.7029 -0.002,0.0128 0.002,0.0262 0,0.039 -0.0868,0.66779 -0.18662,1.332 -0.28223,1.9948 -0.0107,0.0743 -0.0183,0.14957 -0.0292,0.22376 -0.0543,0.37256 -0.10834,0.7482 -0.16544,1.1191 -0.022,0.14291 -0.0456,0.28549 -0.0681,0.42816 -0.0897,0.57001 -0.18594,1.1369 -0.28217,1.7029 -0.0208,0.1228 -0.0372,0.24716 -0.0584,0.36987 -0.0481,0.27869 -0.0962,0.55908 -0.14594,0.83673 -0.0978,0.54742 -0.19788,1.0914 -0.30164,1.6349 -0.0359,0.18774 -0.0705,0.37714 -0.10712,0.56439 -0.0464,0.23767 -0.0984,0.47357 -0.14594,0.71033 -0.0985,0.49072 -0.19818,0.98218 -0.30164,1.4695 -0.15137,0.71295 -0.30539,1.4254 -0.4671,2.1311 -0.002,0.007 -0.008,0.0126 -0.01,0.0195 -8.8709,38.69 -33.032,66.182 -59.233,64.79 -0.37909,-0.0145 -0.78076,-0.0418 -1.1969,-0.0779 -0.43903,-0.038 -0.87839,-0.0823 -1.3138,-0.13623 -0.0456,-0.006 -0.0906,-0.0136 -0.13623,-0.0194 -0.47968,-0.0615 -0.95544,-0.13348 -1.4304,-0.21411 -0.40036,-0.0679 -0.79999,-0.14246 -1.1969,-0.22382 -0.23114,-0.0471 -0.46103,-0.0944 -0.69092,-0.14594 -0.23404,-0.0527 -0.46783,-0.10815 -0.70065,-0.16547 -0.25452,-0.0624 -0.50598,-0.13648 -0.75903,-0.20435 -0.12296,-0.0331 -0.24716,-0.0629 -0.36975,-0.0973 -0.3511,-0.0982 -0.70279,-0.20282 -1.051,-0.31134 -0.0421,-0.0133 -0.0844,-0.0257 -0.12653,-0.039 -0.39768,-0.12561 -0.79346,-0.25989 -1.1871,-0.39899 -0.39822,-0.14062 -0.79309,-0.28357 -1.1872,-0.43787 9.7602,4.9401 25.863,9.9524 47.361,5.8873 l 0.01,0.01 c 0.01,-0.002 0.0191,-0.008 0.0292,-0.01 6.7791,-1.2943 14.087,-3.4791 21.875,-6.841 l -0.0486,-0.068 c 22.356,-10.156 40.502,-41.45 43.926,-79.96 3.8579,-43.396 -12.004,-80.796 -36.579,-91.667 l -0.3795,-0.1945 c -12.394,-5.9408 -23.985,-8.1496 -34.244,-8.2423 -0.40961,-0.004 -0.82071,-0.003 -1.226,0 z" />
    </g>
    <path
       id="path7130"
       fill="#595959"
       d="m 438.6,497.31 c -4.045,49.522 -32.506,87.531 -63.528,84.841 -31.022,-2.6901 -52.917,-45.065 -48.872,-94.588 1.8182,-22.261 8.5697,-42.195 18.27,-57.152 11.879,-18.317 28.18,-29.17 45.258,-27.689 31.022,2.6901 52.917,45.065 48.872,94.588 z" />
    <g
       fill-rule="evenodd"
       id="g3280">
      <g
         fill="#cccccc"
         id="g3274">
        <path
           id="path3589"
           d="m 317.28,557.1 c -0.81418,0.0309 -4.0793,0.5174 -4.1356,6.4322 -0.064,6.7229 3.426,34.109 3.4642,34.409 0.004,-0.009 0.006,-0.02 0.01,-0.0291 2.5107,-5.7298 4.4471,-5.9847 4.4471,-5.9847 l 0.0389,0.0292 c 0.0323,0.83014 0.064,1.7224 0.0973,2.5788 l 0.01,-0.01 c -0.40671,-10.474 -0.76398,-19.445 -0.82715,-20.455 -0.18167,-2.9064 1.116,-7.451 5.0991,-8.7386 v -0.01 c 0,0 0.37097,-0.0976 0.40866,-0.107 v -0.01 c 0,1.3e-4 -1.7425,-0.83282 -3.0944,-4.1162 -1.352,-3.2834 -2.059,-3.9898 -5.3424,-3.9898 0,0 -0.0589,-0.004 -0.1752,0 z" />
        <path
           id="path7040"
           d="m 353.96,606.92 -0.3664,-0.0598 c 0,-1.2e-4 -6.4317,0.15888 -9.3452,3.4365 -2.9134,3.2777 -7.4734,15.668 -7.4734,19.492 0,3.8238 6.3357,11.911 6.7436,13.838 0.5686,2.6858 83.533,21.657 135.07,23.851 -1.3844,-8.7381 -2.5658,-25.625 -3.4253,-40.637 l -0.1751,0.759 c 0,0 -37.142,-3.6386 -65.549,-8.0087 -27.698,-4.2612 -54.165,-12.27 -55.477,-12.67 z" />
      </g>
      <path
         id="path3289"
         fill="#333333"
         d="m 1085.7,514.45 c -14.317,2.6396 -30.383,5.6091 -34.224,6.1014 -6.6411,0.85101 -10.74,4.1001 -11.444,7.347 -2.731,7.9531 -2.7194,7.8463 -5.8096,17.117 -3.0902,9.2706 -9.0088,18.803 -18.022,20.863 -0.023,0.005 -0.488,0.10602 -0.5352,0.11676 l -0.399,1.7322 c -0.3783,1.313 -0.7298,1.7224 -1.9753,2.0727 l -14.00302,3.2502 c -2.3209,34.039 8.00712,59.38 27.21802,61.53 0.2544,0.3689 17.559,3.8837 31.023,2.4912 17.395,1.0808 34.198,-28.185 37.504,-65.325 2.102,-23.62 -1.767,-44.755 -9.332,-57.297 z" />
      <path
         id="path3185"
         fill="#575757"
         d="m 1085.7,514.45 c -14.317,2.6396 -30.383,5.6091 -34.224,6.1014 -3.6484,0.46753 -6.5228,1.6651 -8.4952,3.1821 -5.5872,11.524 -9.6638,26.498 -11.123,43.011 l -0.034,1.1354 c -1.2395,13.927 -0.2299,26.947 2.2142,37.896 0.083,0.37146 0.1665,0.7428 0.2529,1.1093 0.02,0.0837 0.039,0.16962 0.058,0.25305 4.2583,17.464 12.648,29.184 23.218,29.845 7.1174,0.44556 14.134,-4.1909 20.182,-12.378 0.2327,-0.31488 0.4711,-0.638 0.7007,-0.96338 0.1628,-0.23047 0.3253,-0.4649 0.4867,-0.70062 0.065,-0.0962 0.1294,-0.19488 0.1946,-0.29193 0.2265,-0.33551 0.4477,-0.67609 0.6713,-1.0217 0.1554,-0.24017 0.3134,-0.48492 0.4671,-0.72986 0.067,-0.10712 0.1378,-0.21314 0.2043,-0.32117 0.151,-0.24359 0.2983,-0.49133 0.4478,-0.7395 0.067,-0.11237 0.1373,-0.22742 0.2042,-0.3407 7.0114,-11.866 12.218,-28.781 13.906,-47.75 2.102,-23.62 -1.767,-44.755 -9.332,-57.297 z" />
      <path
         id="path3183"
         stroke-width="2.919"
         fill="#ffffff"
         d="m 1085.6,571.98 a 21.749207,43.258312 0 1 1 -43.48,-2.5171 21.749207,43.258312 0 1 1 43.48,2.5171 z" />
      <path
         id="path3871"
         stroke-width="3.119"
         fill="#b3b3b3"
         d="m 1084.5,571.75 a 19.732353,41.755675 0 1 1 -39.448,-2.4296 19.732353,41.755675 0 1 1 39.448,2.4296 z" />
    </g>
    <path
       id="path4167"
       fill="#333333"
       d="m 1112.4,509.94 c -0.8088,0.004 -1.8728,0.10849 -3.2892,0.30164 -2.4399,0.33273 -12.578,2.1996 -23.452,4.2038 4.4258,7.339 7.5829,17.62 9.02,29.621 l 20.358,1.1977 c 0,0 2.5712,-5.016 2.4425,-6.4322 -0.5151,-5.6654 -1.1542,-21.637 -1.9269,-25.243 -0.5793,-2.7039 -0.7264,-3.6612 -3.1527,-3.649 z" />
    <path
       id="path2393"
       fill-rule="evenodd"
       fill="#cccccc"
       d="m 1135,529.75 c -0.058,0.33411 -0.1167,0.66827 -0.1752,1.0023 1.0243,0.31641 3.3203,1.0164 3.8341,1.1191 0.6438,0.12872 2.7024,0.90344 0.6422,1.5472 -1.0596,0.33106 -3.1718,0.8656 -5.1866,1.3429 -0.062,0.0147 -0.1231,0.0341 -0.1849,0.0486 -1.8344,0.43237 -3.5555,0.80353 -4.2816,0.92444 -1.545,0.25757 -3.9956,0.77081 -4.7682,3.9899 -0.2223,0.92584 -0.5525,2.2847 -0.9052,3.7756 -0.8732,3.6936 -1.8918,8.2985 -1.8001,9.8576 0.1287,2.1888 2.8347,8.1313 3.2211,8.9039 0.3863,0.77258 1.0311,2.0646 4.3788,1.4208 3.3478,-0.6438 15.837,-3.0975 17.253,-3.4838 1.4164,-0.38629 1.7192,-0.92511 3.0069,-3.114 1.2874,-2.1889 3.3961,-6.1768 3.435,-9.3516 0.035,-2.754 -2.5785,-9.809 -2.5786,-9.809 l -0.049,-0.01 -0.097,-0.2141 c -0.2072,0.41809 -0.4475,0.90497 -0.4475,0.90497 -2.8042,-0.48511 -5.5353,-2.844 -5.8388,-4.6126 0,0 0.3241,-0.64087 0.8174,-1.6056 -3.5472,-1.7574 -8.6287,-2.4471 -10.276,-2.6371 z" />
    <g
       fill="#76705a"
       id="g3286">
      <path
         id="path2397"
         d="m 1090.2,410.61 c 0,0 0.096,2.7728 0.8452,3.1941 1.3354,0.75076 2.6035,0.3042 4.6758,0.13571 2.9561,-0.24039 22.414,-1.5858 24.159,-1.7286 1.7446,-0.14273 2.6793,-1.2214 2.667,-3.7723 l -0.135,-0.1336 -32.212,2.3047 z" />
      <path
         id="path2403"
         d="m 811.35,612.69 0.2747,2.4941 c 0.15314,1.0287 1.0959,1.287 2.008,0.95923 l 99.736,-23.157 50.795,-11.794 49.118,-11.396 c 1.2456,-0.35034 1.6004,-0.75623 1.9789,-2.0692 l 0.4133,-1.7964 -204.32,46.76 z" />
    </g>
    <path
       id="path3194"
       fill-rule="evenodd"
       fill="#b3b3b3"
       d="m 1139.3,502.65 c -0.1562,2.5156 -0.2998,4.4772 -0.399,5.0407 -0.1127,0.56329 -0.2214,1.1293 -0.3309,1.6932 2.6985,0.35886 5.76,0.54156 8.359,1.5959 2.5557,1.3065 4.1285,3.251 4.4667,5.6343 0.3379,2.3834 -0.4044,5.0902 -1.2068,6.5101 -2.5492,4.5113 -5.7511,10.87 -5.7511,10.87 0.3035,1.7686 3.0346,4.1274 5.8388,4.6126 0,0 3.8724,-7.8677 6.1792,-11.95 1.7297,-3.0611 2.6685,-7.1162 2.0629,-11.385 -0.6053,-4.2692 -3.395,-8.9109 -8.6703,-10.685 -2.7676,-0.9306 -6.9706,-1.868 -10.548,-1.9364 z" />
    <path
       id="path8112"
       fill="#b4b4b4"
       d="m 828.52,385.79 c 0,0 -90.719,7.4851 -125.95,12.329 -23.352,3.2108 -49.795,9.9127 -64.974,14.061 l -3.2307,0.8855 c -5.811,1.6178 -9.2933,2.6761 -9.2933,2.6761 -37.111,13.01 -89.315,43.969 -101.73,52.402 -11.42,7.7578 -40.958,29.504 -40.958,29.505 l -0.1752,0.0584 c -0.65323,1.7612 -2.4041,4.4551 -4.885,7.7848 -0.12793,0.93762 -0.26361,1.8749 -0.40869,2.8026 l 0.1751,-0.0584 c 0,0 12.662,-9.3139 24.62,-17.934 5.4164,-3.898 10.825,-7.8106 16.339,-11.57 12.414,-8.4327 64.618,-39.392 101.73,-52.402 0,0 3.482,-1.0582 9.2932,-2.676 l 3.2307,-0.8856 c 12.334,-3.3708 32.099,-8.4305 51.604,-11.93 1.5004,-0.2692 3.002,-0.52914 4.4958,-0.77844 2.9876,-0.49872 5.9558,-0.95126 8.8747,-1.3527 35.23,-4.8442 125.95,-12.329 125.95,-12.329 l 186.74999,-14.013 125.21,-9.4002 0.1071,-0.01 0.4087,-0.5352 c 0.8148,-1.211 1.7505,-3.7102 1.2826,-7.7547 l -308.45999,21.125 z" />
    <g
       fill-rule="evenodd"
       id="g3359">
      <g
         fill="none"
         id="g3292">
        <path
           id="path3202"
           d="m 825.26,442.8 2.6469,78.606 c 0,0 -0.8078,59.475 -1.0898,66.171 -0.30176,7.3201 -0.95404,23.544 -4.8266,22.576 m -5.5088,-235.39 c 1.8612,-0.31824 6.1044,3.7499 6.7543,7.9146 0.60785,3.8948 2.3355,10.432 -0.62274,13.857 l 2.5433,40.095" />
        <path
           id="path3206"
           fill-opacity="0.536"
           d="m 610.08,627.69 0.0778,-23.141" />
      </g>
      <path
         id="path3257"
         stroke-linejoin="round"
         d="m 632.08,423.68 1.076,-10.485 -11.717,-1.3901 -1.39,10.856 12.031,1.0187 z"
         stroke-linecap="square"
         fill="#918a6f" />
      <path
         id="path3208"
         fill="none"
         d="m 655.9,263.74 -30.331,119.27 -6.1898,43.391 c -4.2658,29.904 -7.9737,82.72 -9.2948,106.94 -0.28784,5.2767 0,55.253 0,55.253 l 7.9778,0.2208 -0.2648,15.622 -7.9434,0.5296" />
      <path
         id="path3242"
         fill="#5d536c"
         d="m 823.1,274.56 c -4.1274,0.15173 -6.2684,2.4867 -4.5542,10.626 0,0 5.5502,25.544 7.5319,36.774 1.9817,11.23 6.8312,43.819 6.8312,43.819 0.80365,3.8872 1.5606,9.5519 9.2446,8.8066 l 55.38,-3.0847 c 6.6243,-0.38422 7.0219,-4.0993 6.5002,-9.9062 -4.548,-25.431 -8.8367,-50.794 -14.976,-76.622 -1.3913,-4.1673 -1.3279,-9.2456 -9.0305,-9.4684 l -55.049,-0.8855 c -0.66516,-0.0569 -1.2884,-0.0801 -1.878,-0.0584 z m 87.035,1.0412 c -7.9828,0.035 -4.671,11.239 -4.671,11.239 -0.22015,0 5.8301,24.556 6.4906,28.96 0.66058,4.4038 5.4006,35.449 7.162,46.018 1.7615,10.569 10.015,7.8104 13.098,7.5902 3.0827,-0.22018 39.741,-2.1998 44.695,-2.5301 4.9543,-0.33029 4.2964,-7.3762 3.4156,-12.991 -0.88068,-5.6148 -10.565,-59.01 -12.436,-68.808 -1.8716,-9.7984 -10.243,-8.5828 -11.784,-8.5828 -1.5413,0 -37.103,-0.55527 -45.58,-0.88553 -0.13238,-0.005 -0.26257,-0.0103 -0.38916,-0.01 z m 76.856,2.209 c -7.0133,0.0329 -4.1064,10.548 -4.1064,10.548 -0.19354,0 4.2462,22.186 4.8265,26.323 0.58044,4.1364 6.0696,33.297 7.6097,43.226 1.4375,9.2117 8.8036,7.3397 11.512,7.1329 2.7084,-0.20682 34.134,-2.2658 38.496,-2.3841 6.0812,-0.16711 4.9324,-6.762 3.766,-12.193 -1.1194,-5.2115 -9.8994,-54.901 -11.629,-64.089 -1.6443,-8.7364 -8.9899,-8.0671 -10.344,-8.0671 -1.3542,0 -32.342,-0.18607 -39.79,-0.49628 -0.11639,-0.005 -0.22937,-5.2e-4 -0.3407,0 z" />
      <path
         id="path3277"
         fill="#333333"
         d="m 1117.3,536.27 c 0.068,0.98602 0.1302,1.8512 0.1947,2.5594 -0.063,-0.69366 -0.1265,-1.5842 -0.1947,-2.5594 z m 6.6172,7.2303 -8.865,1.7614 -20.357,-1.197 c 0.2598,2.1712 0.4602,4.3995 0.6033,6.6756 0.066,0.0265 5.4701,2.1815 9.6144,3.834 l 2.5496,-0.9828 15.2,2.2089 0.019,-0.0778 c -0.3037,-0.93878 -0.5205,-1.786 -0.5547,-2.3646 -0.092,-1.5593 0.9272,-6.1655 1.8002,-9.8576 h -0.01 z" />
      <path
         id="path3293"
         fill="#484537"
         d="m 999.28,573.03 -10.227,2.2576 9.9939,2.1506 c 0.0524,-1.4191 0.13525,-2.8588 0.23352,-4.3108 0.002,-0.0325 -0.002,-0.0649 0,-0.0974 z" />
      <path
         id="path3299"
         fill="#333333"
         d="m 778.51,536.9 c -5.6044,-0.0131 -10.723,1.581 -14.733,2.1701 -8.1116,1.1915 -22.075,2.8807 -35.888,19.462 6.9732,-4.142 14.439,-6.4069 22.06,-6.4031 1.4213,8.5e-4 2.8517,0.0819 4.2817,0.24335 26.507,2.9932 45.656,33.092 47.634,71.018 l 2.1117,2.6371 c 0.61609,0.29138 0.93707,1.0898 2.3257,0.0292 1.52,-1.15471 3.6978,-2.8738 3.6978,-3.2794 0,-0.60126 -2.8456,-8.4499 -3.0457,-9.00121 l 0.6812,-0.0974 c 0,0 5.9067,-7.2272 5.9067,-12.95199 0,-5.72501 1.0289,-18.09401 -9.2543,-45.366 -8.358,-14.997 -17.586,-18.44101 -25.778,-18.46001 z" />
      <path
         id="path3873"
         fill="#ffffff"
         d="m 1064.4,541.36 c -7.2637,0.32245 -14.118,12.312 -15.502,27.403 -1.4286,15.578 3.5154,28.594 11.035,29.047 2.1335,0.1286 3.3789,-0.5033 6.2085,-2.4814 2.8296,-1.9782 13.195,-11.957 13.195,-26.245 0,-18.405 -6.8542,-23.394 -8.3998,-25.045 -1.5455,-1.6508 -3.2926,-2.5164 -5.827,-2.6692 -0.235,-0.0142 -0.4761,-0.0201 -0.7103,-0.01 z" />
      <path
         id="path3880"
         fill="#878787"
         d="m 1064,535.62 c -8.1215,-0.0693 -15.874,14.67 -17.419,33.29 -1.5693,18.916 3.8643,34.715 12.125,35.266 5.4879,0.36578 10.853,-6.0868 14.295,-16.008 l 0.01,-0.2239 c -2.7341,3.8987 -5.6051,6.4811 -6.8993,7.3859 -2.8296,1.9782 -4.075,2.61 -6.2085,2.4814 -7.5195,-0.45343 -12.464,-13.469 -11.035,-29.047 1.3839,-15.091 8.2379,-27.08 15.502,-27.403 0.2343,-0.0104 0.4753,-0.004 0.7103,0.01 2.5344,0.15283 4.2833,1.0156 5.829,2.6664 0.6628,0.70789 2.3043,2.0374 3.9604,4.7681 v -0.0486 c -2.1195,-7.7322 -5.8575,-12.809 -10.48,-13.118 -0.129,-0.009 -0.2603,-0.0184 -0.3893,-0.0195 z" />
      <path
         id="path3885"
         fill="#5d536c"
         d="m 702.7,278.16 -0.3504,3.0847 41.201,0.2336 16.096,90.23 -67.788,2.2689 -0.3226,2.2342 68.44,-2.3165 0.7589,0.0584 1.7711,-0.0584 -17.681,-94.985 -42.126,-0.7493 z" />
      <g
         stroke-linejoin="round"
         stroke-linecap="square"
         id="g3305">
        <path
           id="path3207"
           fill="#d5e5ff"
           d="m 749,284.8 28.238,0.7024 c 1.3447,0.17676 3.14,-0.67621 2.5322,3.9634 l -11.009,61.763 c -0.57269,2.2676 -2.0092,3.4684 -3.7433,3.4129 l -3.1854,-0.1875 -12.833,-69.654 z" />
        <path
           id="path2426"
           fill="#ffffff"
           d="m 623.62,260.52 c 0,0 1.328,2.5898 4.8475,2.5898 3.5194,0 4.3826,-2.5898 4.3826,-2.5898 0,0 136.26,2.3906 239.05,5.0467 102.79,2.6562 239.26,4.5155 239.26,4.5155 0.8374,0.61975 0.3549,1.2395 0,1.8593 l -228.36,-3.7186 -254.73,-4.7811 -206.38,2.1249 c -4.4038,-0.0183 -13.334,-0.34659 -14.05,0.13733 -0.10254,-0.85883 -0.0273,-2.5279 -0.0273,-2.5279 l 216.01,-2.6562 z" />
      </g>
      <path
         id="path8022"
         fill="#6d6f84"
         d="m 748.39,281.38 0.6325,3.4546 0.0195,-0.0292 28.201,0.7006 c 1.3447,0.17676 3.1379,-0.67905 2.5301,3.9606 l -11.016,61.763 c -0.57257,2.2676 -2.0026,3.471 -3.7368,3.4156 l -3.1893,-0.1873 3.0627,16.928 44.845,-2.2343 -5.5894,-31.137 c -3.2227,0.57077 -5.8728,1.7444 -7.8238,4.8266 -1.2703,3.7105 -3.4498,9.264 -3.4545,9.2834 -0.0213,0.0861 -0.60584,0.0577 -1.8002,0 -1.6305,-0.0589 -3.1315,-0.15228 -2.6664,-3.075 l 8.8262,-49.551 -2.0922,-11.658 c -0.65222,-2.0898 -1.3772,-5.7399 -6.7144,-5.8094 l -40.034,-0.652 z" />
      <g
         stroke-linejoin="round"
         stroke-linecap="square"
         id="g3321">
        <path
           id="path3229"
           fill="#5d536c"
           d="m 643.21,377.81 c -7.876,0.20548 -11.011,-8.7362 -8.4056,-16.443 l 18.869,-77.285 c 0.37787,-0.99558 1.0774,-6.1221 7.6386,-6.0816 l 37.479,0.1651 -11.351,98.356 -44.23,1.288 z" />
        <path
           id="path3233"
           fill="#d5e5ff"
           d="m 657.99,283.46 c -0.41894,0.56918 -0.57922,1.5655 -0.7298,2.3355 l -16.484,66.609 11.599,0.8174 c 1.2726,-2.5972 3.4044,-5.3216 6.8799,-5.3132 0.11218,2.7e-4 0.22571,0.004 0.34058,0.01 5.9166,0.3114 28.415,0.93417 28.415,0.93417 l 0.0194,0.545 7.1621,-65.101 -0.0974,0.0973 -37.105,-0.9342 z m 44.033,0.9926 -0.0486,0.0779 -6.5392,57.52 9.9354,-52.363 c 0.40485,-1.9777 1.2183,-5.1226 -3.3475,-5.2353 z" />
        <g
           fill="#6d6f84"
           id="g3312">
          <path
             id="path3241"
             d="m 659.25,347.91 c -3.4755,-0.008 -5.6073,2.716 -6.8799,5.3132 l -11.599,-0.8174 -2.6664,10.772 c -1.309,6.7527 -0.34735,11.495 5.5857,11.833 l 41.493,-0.7123 2.8414,-24.9 -0.0194,-0.545 c 0,0 -22.498,-0.62277 -28.415,-0.93417 -0.11487,-0.006 -0.22839,-0.009 -0.34058,-0.01 z" />
          <path
             id="path3245"
             d="m 661.67,280.97 c -1.4915,0.0673 -2.7883,0.8201 -3.6802,2.4912 l 0.0505,-1e-4 37.056,0.9342 0.0974,-0.0973 0.3503,-3.1723 c -11.291,0.039 -22.584,-0.23325 -33.874,-0.1557 z" />
        </g>
        <path
           id="path3249"
           fill="#d5e5ff"
           d="m 804.08,338.27 c 0,0 -6.2044,0.0401 -7.7554,4.5702 -1.2704,3.7105 -3.4501,9.2675 -3.4548,9.2869 -0.0213,0.0861 -0.61005,0.0561 -1.8044,-0.002 -1.6305,-0.0589 -3.123,-0.15247 -2.6578,-3.0752 l 8.8218,-49.549 6.8506,38.769 z" />
        <path
           id="rect3264"
           fill="#5d536c"
           d="m 659.98,384.13 -2.0096,-14.807 c -0.88861,-7.0204 3.3254,-13.296 9.4486,-14.071 l 9.2511,-1.1711 c 6.1231,-0.77512 11.768,4.2526 12.657,11.273 l 3.4595,27.328 c 0.88873,7.0203 -3.3254,13.296 -9.4485,14.071 l -9.251,1.1711 c -6.1232,0.77508 -11.768,-4.2527 -12.657,-11.273 l -1.0565,-8.3456 -0.1235,-0.9752" />
        <path
           id="path3267"
           fill="#c6c6c6"
           d="m 661.9,386.78 c 0.0513,0.44064 0.0257,0.45294 0.0793,0.89313 0.50128,4.1168 1.118,8.2115 2.1365,12.228 1.9411,4.419 7.2961,5.4971 11.496,5.1852 4.3034,-0.5419 9.7241,-0.14758 12.446,-4.3612 2.9385,-4.182 1.6147,-9.6986 0.86114,-14.44 -1.1287,-8.1228 -1.4939,-16.437 -3.6151,-24.368 -1.7739,-3.6141 -5.7795,-6.0455 -9.5931,-5.3673 -4.4356,1.2073 -9.9188,-0.0395 -13.381,3.6654 -3.0778,3.1289 -3.1516,8.0696 -2.214,12.246 0.51856,3.25 1.0106,11.023 1.3727,11.023" />
        <path
           id="path3427"
           fill="#575757"
           d="m 749.95,552.13 c -7.6217,-0.004 -15.087,2.2611 -22.06,6.4031 -2.7366,3.285 -5.4667,7.1496 -8.145,11.716 -14.052,28.993 -18.151,43.253 -22.907,54.251 -1.2e-4,0 -1.3767,4.6902 -2.929,5.8289 l -0.4866,0.1265 c 1.3159,3.4351 2.462,7.1876 2.462,9.0012 0,3.523 -1.3227,13.652 -8.3687,17.175 -0.16785,0.0839 -0.36639,0.17535 -0.5741,0.2627 l 0.6908,1.5181 c 3.4633,35.289 22.02,62.654 47.225,65.5 31.281,3.5324 61.01,-32.032 66.356,-79.376 5.3465,-47.344 -15.7,-88.631 -46.982,-92.163 -1.43,-0.1615 -2.8604,-0.24255 -4.2817,-0.24335 z m -71.368,67.923 c -0.23157,0.0218 -0.46356,0.0414 -0.70062,0.0682 0.2381,-0.0269 0.46808,-0.0462 0.70062,-0.0682 z m 6.4905,0.3698 c 0.14203,0.0408 0.27856,0.0898 0.41852,0.13623 -0.13995,-0.0464 -0.27637,-0.0954 -0.41852,-0.13623 z m 1.9949,0.8077 c 0.18176,0.0955 0.36652,0.19379 0.54498,0.30158 -0.17828,-0.10779 -0.3634,-0.20606 -0.54498,-0.30158 z m 0.545,0.3016 c 0.20331,0.12286 0.40393,0.25006 0.60333,0.38922 -0.20007,-0.13983 -0.39935,-0.26587 -0.60333,-0.38922 z m 1.3527,0.9634 c 0.16364,0.1355 0.32507,0.27991 0.48651,0.42816 -0.16162,-0.14856 -0.32257,-0.29248 -0.48651,-0.42816 z m 0.4865,0.4282 c 0.19928,0.18286 0.39746,0.37109 0.59357,0.5741 -0.19501,-0.20178 -0.39551,-0.39215 -0.59357,-0.5741 z" />
        <path
           id="path6895"
           fill-opacity="0.536"
           fill="#b2b2b2"
           d="m 693.47,650.14 c -0.0659,0.138 -0.13501,0.2721 -0.20435,0.40881 0.0688,-0.13605 0.13892,-0.27154 0.20435,-0.40881 z" />
        <path
           id="path6893"
           fill="#333333"
           d="m 686.94,656.89 c -5.1309,2.157 -22.245,5.3174 -42.184,8.0574 4.1916,21.58 14.311,39.243 28.278,48.363 v 0.0195 c 11.394,7.7317 25.161,10.527 36.676,11.298 9.6678,0.64734 23.314,-0.0451 30.234,-0.48663 -1.6896,0.035 -3.3869,-0.0412 -5.0894,-0.23352 -25.205,-2.8462 -43.762,-30.211 -47.225,-65.5 l -0.6908,-1.5181 z" />
        <path
           id="path3432"
           fill-opacity="0.536"
           fill="#b2b2b2"
           d="m 744.36,723.79 c -0.2467,0.0334 -0.49249,0.0685 -0.73956,0.0973 0.40027,-0.03 0.75897,-0.0584 0.75897,-0.0584 l -0.0194,-0.0389 z" />
      </g>
      <path
         id="path3436"
         stroke-width="2.033"
         fill="#ffffff"
         d="M 781.93,635.2 A 32.147412,60.638663 0 1 1 717.637,636.11345 32.147412,60.638663 0 1 1 781.93,635.2 Z" />
      <path
         id="path3446"
         stroke-width="2.129"
         fill="#b3b3b3"
         d="M 781.41,634.7 A 30.347861,58.577662 0 1 1 720.716,635.58251 30.347861,58.577662 0 1 1 781.41,634.7 Z" />
      <path
         id="path3440"
         fill="#ffffff"
         d="m 747.97,595 c -10.664,1.2339 -19.533,18.666 -20.03,39.824 -0.51239,21.841 8.0982,39.428 19.218,39.246 3.155,-0.0514 4.9246,-1.0657 8.8894,-4.1255 3.965,-3.0598 18.211,-18.072 16.752,-37.963 -1.8802,-25.623 -12.484,-31.828 -14.929,-33.959 -2.4448,-2.131 -5.1058,-3.1473 -8.8537,-3.0862 -0.34753,0.006 -0.70325,0.0234 -1.0471,0.0632 z" />
      <path
         id="path3719"
         fill="url(#linearGradient3751)"
         d="m 759.01,632.58 c -1.8092,3.7654 -2.3586,3.8473 -3.2159,4.6266 -0.97138,0.88306 -3.0507,-1.201 -4.9428,0.44842 -3.4438,3.0024 -6.3615,-1.0708 -9.5405,-2.4836 -3.179,-1.4129 -3.1771,0.0857 -5.1198,0.7038 -1.9427,0.61816 -2.0221,0.87982 -4.2232,-0.78265 -0.50671,-0.38269 -0.74628,-2.5776 -1.6875,-5.0938 -1.3272,13.262 0.53058,27.094 8.5312,37.75 3.6182,5.02 11.217,5.7445 15.438,1.0312 5.5675,-4.5678 9.9207,-10.462 12.781,-17 -0.31842,0.10547 -0.65179,0.21612 -1,0.28125 -6.8762,-0.0767 -7.6502,-9.0267 -7.75,-14.25 0.20129,-2.4144 0.20557,-2.5098 0.72961,-5.2313 z"
         style="fill:url(#linearGradient3751)" />
      <path
         id="path3442"
         stroke-width="2.237"
         fill="#b3b3b3"
         d="M 771.55,636.12 A 5.1205142,13.474458 0 1 1 761.312,635.46467 5.1205142,13.474458 0 1 1 771.55,636.12 Z" />
      <path
         id="path3444"
         fill="#878787"
         d="m 747.23,586.75 c -12.222,0.0729 -22.539,21.638 -23.033,48.14 -0.49457,26.502 9.0209,47.95 21.243,47.877 7.8862,-0.0469 14.977,-9.0408 19.151,-22.537 -3.3776,5.0052 -6.873,8.432 -8.5439,9.7214 -3.965,3.0598 -5.7294,4.0649 -8.8845,4.1163 -11.12,0.18127 -19.731,-17.404 -19.219,-39.246 0.4964,-21.159 9.3624,-38.586 20.027,-39.82 0.34393,-0.0397 0.70343,-0.0624 1.0509,-0.0681 3.748,-0.0612 6.4105,0.96344 8.8553,3.0944 1.0068,0.87756 3.3995,2.4401 5.9944,5.7706 -3.867,-10.457 -9.8364,-17.089 -16.64,-17.049 z m 16.738,17 -0.0292,0.1459 c 0.01,0.0127 0.0194,0.0262 0.0292,0.0389 v -0.18481 z" />
      <path
         id="path3462"
         fill="#cccccc"
         d="m 681.25,619.91 c -5.0306,-0.041 -11.421,1.8079 -20.377,2.9193 -13.723,1.7028 -55.71,5.1769 -55.71,5.1769 l -11.006,0.8757 c -37.872,2.6423 -85.439,-0.43787 -85.439,-0.43787 0,0 -4.3958,3.9676 -6.5977,6.1695 -2.2019,2.2019 -3.0898,14.528 -2.209,21.574 0.8808,7.046 4.4082,13.156 4.4082,13.156 l 0.8736,0.7001 c 9e-5,0 65.625,2.0007 99.094,-0.64166 33.469,-2.6423 76.184,-9.2539 83.23,-12.777 7.046,-3.523 8.3688,-13.652 8.3687,-17.175 0,-3.523 -4.3087,-14.375 -5.8387,-15.959 -2.5493,-2.6389 -5.3549,-3.553 -8.7969,-3.581 z" />
      <g
         stroke-linejoin="round"
         stroke-linecap="square"
         fill="#333333"
         id="g3332">
        <path
           id="path8082"
           d="m 446.9,616.31 c -0.23157,0.022 -0.46353,0.0414 -0.70062,0.0681 0.23813,-0.0268 0.46811,-0.0461 0.70062,-0.0681 z" />
        <path
           id="path8080"
           d="m 453.39,616.68 c 0.142,0.0409 0.27853,0.0898 0.4184,0.13617 -0.13986,-0.0464 -0.2764,-0.0954 -0.4184,-0.13617 z" />
      </g>
      <path
         id="path3468"
         fill="#999999"
         d="m 486.76,584.35 c -0.33029,0 -0.67209,0.0684 -1.0024,0.23352 -1.3211,0.66058 -5.9953,3.516 -8.4173,5.3326 -2.4221,1.8165 -3.7949,4.521 -3.6298,7.8238 0.16516,3.3029 2.9092,71.89 6.4322,75.523 3.523,3.6331 8.7031,5.0087 12.612,3.3572 3.4727,-1.4673 10.522,-5.8149 12.125,-6.8117 l -0.5644,-0.4574 c 0,0 -3.5274,-6.1104 -4.4082,-13.156 -0.8808,-7.0461 0.007,-19.372 2.209,-21.574 2.1498,-2.1497 6.2814,-5.8822 6.4809,-6.0624 l 0.01,-0.1071 c 0,0 -2.5268,-5.2265 -4.3984,-11.337 -1.8716,-6.1102 -3.367,-12.777 -3.367,-12.777 0,0 -2.6421,-0.27179 -3.6881,-3.6296 -1.0458,-3.3578 0.88556,-7.8141 0.88556,-7.8141 0,0 -0.27731,-1.4319 -1.158,-2.2576 -0.8808,-0.82574 -6.434,-4.5164 -7.4248,-5.1769 -0.7432,-0.49542 -1.7047,-1.1092 -2.6955,-1.1092 z" />
      <path
         id="path8062"
         stroke-linejoin="round"
         d="m 380.78,653.47 c 4.7886,18.859 14.285,34.142 26.945,42.408 v 0.0195 c 11.394,7.7318 25.161,10.527 36.676,11.298 9.6677,0.6474 23.314,-0.045 30.234,-0.48657 18.734,-0.38757 36.45,-14.471 48.13,-36.248 -10.547,-0.19495 -17.633,-0.42822 -17.633,-0.42822 l -0.253,-0.2238 c -1.603,0.99676 -8.6523,5.3444 -12.125,6.8117 -3.9084,1.6515 -9.0885,0.27594 -12.612,-3.3572 -0.53922,-0.55609 -1.0607,-2.6477 -1.557,-5.7803 -29.425,-1.2524 -69.077,-7.9753 -97.807,-14.013 z"
         stroke-linecap="square"
         fill="#333333" />
      <path
         id="path3474"
         fill="#e2e3db"
         d="m 574.61,590.61 c -0.29498,-8.5e-4 -0.58722,0.005 -0.87573,0.01 -0.30774,0.005 -0.61517,0.0181 -0.9148,0.0292 -7.7454,0.2868 -65.968,1.9224 -74.803,2.17 0.003,0.0147 0.0195,0.0681 0.0195,0.0681 0,0 -1.9314,4.4562 -0.88556,7.8141 1.046,3.3578 3.6881,3.6296 3.6881,3.6296 0,0 0.01,0.038 0.01,0.0389 0.0938,-0.004 63.909,-2.5082 72.38,-2.822 3.6144,-0.13379 7.766,0.34961 11.113,1.9852 3.3469,1.6356 6.0801,4.1365 7.7848,9.4781 2.0297,6.3594 2.952,14.094 3.6005,22.985 1.0723,3.6306 12.412,11.177 10.879,-0.79791 -0.67474,-9.2484 -1.4652,-17.219 -4.1065,-25.496 -2.5293,-7.9251 -7.7335,-13.204 -13.37,-15.959 -4.9545,-2.4211 -10.092,-3.1212 -14.519,-3.1334 z" />
      <path
         id="path3486"
         fill="#bababa"
         d="m 542.06,499.15 c -19.374,0.0655 -35.167,13.699 -36.959,31.402 -1.8108,0 -4.2876,0.40546 -4.2876,2.5975 0,2.4988 1.7222,3.0562 4.2,3.0562 1.2652,18.578 17.814,33.61 38.029,34.02 21.038,0.42639 38.117,-15.143 38.117,-34.759 0,-19.617 -17.078,-35.88 -38.117,-36.307 -0.3288,-0.007 -0.65607,-0.0109 -0.98285,-0.01 z" />
      <path
         id="path3488"
         stroke-width="3.691"
         fill="#454545"
         d="m 573.43,535.24 a 32.326135,31.039812 0 1 1 -64.637,-1.3492 32.326135,31.039812 0 1 1 64.637,1.3492 z" />
      <path
         id="path3490"
         stroke-width="4.09"
         fill="#d7e3f4"
         d="m 566.95,535.45 a 28.204662,28.978845 0 1 1 -56.396,-1.2596 28.204662,28.978845 0 1 1 56.396,1.2596 z" />
      <path
         id="path3505"
         stroke-width="5.63"
         fill="#b3b3b3"
         d="M 602.84,471.37 A 21.863165,19.724659 0 1 1 559.124,470.51258 21.863165,19.724659 0 1 1 602.84,471.37 Z" />
      <path
         id="path3499"
         stroke-width="6.101"
         fill="#454545"
         d="M 600.33,471.5 A 19.831684,18.517374 0 1 1 560.676,470.6951 19.831684,18.517374 0 1 1 600.33,471.5 Z" />
      <path
         id="path3501"
         fill="url(#radialGradient3786)"
         d="m 595.7,472.96 c -0.79285,8.7677 -8.0505,15.777 -16.807,15.581 -9.2861,-0.20743 -16.823,-8.1192 -16.823,-17.66 0,-9.5411 7.5366,-17.116 16.823,-16.909 8.5543,0.19107 15.624,6.92 16.685,15.438"
         style="fill:url(#radialGradient3786)" />
      <path
         id="path3512"
         fill="#5d536c"
         d="m 454.72,363.7 37.984,-86.397 c 3.5338,-6.7695 9.9,-10.441 18.928,-11.202 l 118.97,-0.2575 c 9.913,0.0233 10.666,5.8984 9.142,13.262 l -24.335,88.972 c -3.5001,9.2323 -9.1289,12.196 -15.709,12.361 l -138.29,-3.0902 c -5.4248,-0.0119 -8.9603,-6.7042 -6.6955,-13.648 z" />
      <path
         id="path3235"
         stroke-linejoin="round"
         d="m 674.98,379.91 c -1.7615,0.44037 0.0558,-0.0767 -0.0785,-0.042 -3.4129,0.88074 -36.001,10.303 -36.001,10.303 -2.5173,0.70248 -4.3234,1.6607 -5.537,3.075 -1.2135,1.4143 -1.6826,3.1634 -1.8197,5.0018 l -2.7928,27.987 c -0.087,0.56888 0.14685,1.1392 0.60803,1.4833 0.46112,0.34412 1.0745,0.40579 1.5951,0.16049 0.52045,-0.2453 0.86322,-0.75772 0.8913,-1.3324 l 2.8026,-28.026 c 0.003,-0.0129 0.007,-0.0259 0.01,-0.0389 0.11114,-1.4899 0.40698,-2.438 1.0704,-3.2112 0.66351,-0.77322 1.8367,-1.493 4.0189,-2.1019 h 0.01 l 36,-10.303 c 0.77368,-0.19577 0.94391,-0.83475 0.82849,-1.6244 -0.11523,-0.7897 -0.80896,-1.3644 -1.6063,-1.3307 z"
         stroke-linecap="square"
         fill="#ffffff" />
      <path
         id="path3514"
         fill="#6d6f84"
         d="m 460.29,362.07 36.016,-81.937 c 3.3508,-6.42 9.3872,-9.9021 17.947,-10.624 l 112.81,-0.2442 c 9.3995,0.0221 10.114,5.5939 8.6683,12.578 l -23.075,84.379 c -3.3187,8.7556 -8.6559,11.567 -14.895,11.723 l -131.12,-2.9307 c -5.1438,-0.0112 -8.4962,-6.3581 -6.3487,-12.944 z" />
      <path
         id="path3518"
         fill="#d5e5ff"
         d="m 603.42,348.98 9.1555,-63.649 -40.17,-2.1798 c -4.4601,0.19043 -6.2224,3.3485 -6.5394,8.0963 l -13.299,54.619 50.852,3.1139 z" />
      <path
         id="path3524"
         fill="#5d536c"
         d="m 478.33,267.01 c 15.606,-0.38919 10.457,5.9052 9.6883,10.789 l -22.79,52.625 -14.422,32.918 c -5.9746,11.885 -11.45,13.283 -16.844,12.991 l -66.057,-3.523 c -7.5464,0.51675 -6.966,-4.7407 -3.413,-12.11 l 43.928,-81.69 c 4.1654,-7.2192 8.794,-9.574 13.542,-10.679 l 56.368,-1.3211 z" />
      <path
         id="path7919"
         fill="#6d6f84"
         d="m 480.23,268.85 c -0.44022,-0.001 -0.90112,0.007 -1.3818,0.0195 l -53.754,1.2748 c -4.5273,1.0674 -8.9411,3.3423 -12.913,10.315 l -41.892,78.9 c -3.3881,7.1179 -3.9362,12.196 3.26,11.697 l 62.989,3.4059 c 2.6399,0.14444 5.3035,-0.14154 8.0378,-2.0046 2.0266,-1.9701 4.0929,-4.8708 6.2279,-9.118 l 14.421,-32.92 22.79,-52.626 c 0.27658,-1.7568 1.1222,-3.6946 1.3624,-5.4397 l -0.01,0.0292 c -0.40039,-2.0391 -2.5344,-3.5164 -9.1374,-3.5324 z" />
      <path
         id="path3534"
         fill="#d5e5ff"
         d="m 419.25,280.44 c -3.562,0.012 -6.853,0.47101 -9.02,2.277 l -40.307,75.912 c -3.388,7.118 -3.936,12.196 3.26,11.697 l 10.413,0.564 0.019,-0.029 42.155,-90.148 c -2.15,-0.125 -4.382,-0.28 -6.52,-0.27301 z m 10.909,0.506 -41.464,90.217 25.018,1.353 c 4.298,-17.861 18.093,-30.945 34.439,-30.945 3.657,0 7.185,0.651 10.509,1.868 l 0.175,-0.01 6.024,-13.74 20.241,-46.748 z m 17.993,65.724 c -0.81198,0 -1.619,0.039 -2.414,0.117 -0.24799,0.024 -0.49298,0.056 -0.73898,0.087 -0.95902,0.12302 -1.904,0.29501 -2.832,0.526 -0.83801,0.20801 -1.663,0.466 -2.472,0.759 l 4.019,18.936 5.411,-0.885 7.619,-17.993 c -3.077,-0.80701 -6.685,-1.547 -8.592,-1.547 z m -11.619,2.88 c -2.681,1.396 -5.14,3.256 -7.308,5.498 -4.018,4.155 -7.026,9.616 -8.534,15.804 l 19.685,-3.212 z" />
      <path
         id="path3551"
         fill="#ffffff"
         d="m 422.89,493.72 c -3.0699,31.423 -22.931,55.359 -44.333,53.428 -21.402,-1.9308 -36.28,-29 -33.21,-60.423 3.0699,-31.423 22.931,-55.359 44.333,-53.428 21.402,1.9308 36.28,29 33.21,60.423 z" />
      <path
         id="path3553"
         fill="#b3b3b3"
         d="m 418.18,493.74 c -2.8843,29.918 -21.545,52.708 -41.654,50.869 -20.109,-1.8384 -34.088,-27.612 -31.203,-57.53 2.8844,-29.918 21.545,-52.708 41.654,-50.869 20.109,1.8383 34.088,27.612 31.203,57.53 z" />
      <path
         id="path3555"
         fill="#878787"
         d="m 396.47,445.58 c -18.442,0.3566 -35.021,19.44 -37.688,44.13 -2.7988,25.905 10.771,48.222 30.283,49.813 1.9635,0.16022 3.908,0.10059 5.8289,-0.15564 l 0.039,-0.01 c 12.035,-8.2552 21.287,-25.287 23.248,-45.619 1.8067,-18.74 -3.0064,-35.852 -11.794,-46.476 -2.2822,-0.84787 -4.6822,-1.392 -7.1816,-1.5959 -0.91458,-0.0746 -1.8274,-0.10516 -2.7344,-0.0876 z" />
      <path
         id="path3557"
         fill="#ffffff"
         d="m 414.12,492.76 c -2.071,21.09 -15.47,37.154 -29.907,35.858 -14.438,-1.2958 -24.475,-19.464 -22.404,-40.554 2.071,-21.09 15.47,-37.154 29.907,-35.858 14.438,1.2958 24.475,19.464 22.404,40.554 z" />
      <path
         id="path3559"
         fill="#b3b3b3"
         d="m 382.83,489.74 c -0.67255,7.0445 -5.0234,12.41 -9.7117,11.978 -4.6883,-0.43283 -7.9476,-6.5014 -7.2751,-13.546 0.67246,-7.0444 5.0234,-12.41 9.7116,-11.978 4.6884,0.43277 7.9476,6.5014 7.2752,13.546 z" />
      <path
         id="path3575"
         fill="#e2e3db"
         d="m 339.19,573.42 c -1.2032,0.0717 -2.7296,1.4384 -2.929,4.4763 -0.2468,3.7553 2.3628,5.3229 3.7075,5.5662 -0.13354,0.13617 2.8299,1.3805 14.256,4.0189 10.42,2.3975 24.604,4.9002 39.8,6.7534 29.901,3.6465 51.72,6.5692 79.882,8.398 l 0.0195,-0.0584 c -0.11392,-2.5497 -0.19156,-4.3858 -0.21414,-4.8364 -0.10413,-2.0827 0.40494,-3.9249 1.4013,-5.4591 -21.544,-1.4058 -41.642,-3.9616 -62.858,-6.5472 l -0.1145,-0.0564 c -23.648,4.4716 -40.628,-2.0719 -49.956,-7.3897 l -0.0486,0.0389 c -11.795,-1.7906 -22.187,-4.7487 -22.187,-4.7487 -0.2233,-0.11627 -0.48135,-0.17224 -0.75903,-0.15576 z" />
      <path
         id="path3581"
         fill="#999999"
         d="m 332.11,563.68 c -0.024,0.002 -0.0454,0.004 -0.0682,0.01 -1.4567,0.36415 -6.5586,1.63481 -6.5586,1.63481 v 0.01 c -3.9831,1.2875 -5.2808,5.8322 -5.0991,8.7386 0.18213,2.9134 2.5523,66.099 2.7344,69.013 0.18213,2.9136 2.7349,6.7325 6.5588,6.0041 3.8239,-0.72833 9.8286,-1.4554 12.378,-1.8196 2.2208,-0.31732 2.7828,-2.2897 2.8902,-2.7928 -0.88959,-0.36108 -1.3887,-0.64893 -1.4306,-0.84668 -0.40793,-1.9269 -6.7436,-10.014 -6.7436,-13.838 0,-3.824 4.56,-16.214 7.4734,-19.492 2.9135,-3.2776 9.3905,-3.4351 9.3905,-3.435 l -11.56,-22.479 -0.0195,-0.0778 c -1.5584,-0.50293 -2.1503,-0.78729 -2.0922,-0.84662 -1.3446,-0.24329 -3.9543,-1.8109 -3.7075,-5.5662 0.20996,-3.1965 1.8878,-4.532 3.1139,-4.4665 l -2.4327,-4.2915 c -1.7492,-2.5455 -3.8407,-5.3212 -4.7488,-5.459 -0.0272,-0.004 -0.0538,-0.002 -0.0778,0 z" />
      <path
         id="path3587"
         fill="none"
         d="m 314.24,563.28 c 0,0 0.90131,6.8242 6.116,9.8501" />
      <path
         id="path3591"
         fill="#cccccc"
         d="m 321.07,591.93 c 0,0 -1.9364,0.25488 -4.4471,5.9847 -2.5109,5.7297 -4.6298,13.461 -4.7586,15.521 -0.12875,2.0601 3.9852,12.811 5.9165,14.743 1.8538,1.8538 4.5363,4.6435 4.7586,4.8753 l 0.1557,-0.2628 c -0.43201,-10.949 -1.0745,-27.687 -1.5862,-40.832 z m 1.4694,41.124 -0.0584,0.0973 0.1946,0.0486 c 0,0 -0.12689,-0.13623 -0.13623,-0.14594 z" />
    </g>
    <path
       id="path3621"
       fill="#ffffff"
       d="m 816.73,435.22 c -1.5201,0 -2.8322,1.3449 -3.3961,3.2599 l 0.652,-0.1167 c -1.1904,0.34662 -2.3741,0.70099 -3.1334,0.83685 -4.6809,0.65546 -7.804,1.0771 -12.524,1.372 -1.5783,0.0942 -3.1035,0.44544 -3.1918,2.024 -0.0883,1.5787 0.83582,2.241 2.3939,2.5106 5.2183,-0.0999 10.588,0.25687 15.784,-0.23352 0.37817,0.0433 0.79199,0.0478 1.2164,0.0292 0.61408,0.66574 1.3756,1.0607 2.1992,1.0607 2.0355,0 10.023,-2.5913 10.023,-5.5565 0.12952,-0.41397 0.1745,-0.86343 0.12653,-1.3234 -0.14081,-1.3472 -1.1284,-2.424 -2.4036,-2.715 -1.8519,-1.1989 -6.8638,-1.1482 -7.746,-1.1482 z" />
    <path
       id="path4289"
       fill-rule="evenodd"
       fill="#333333"
       d="m 1095.3,550.74 c 0.1471,2.3088 0.2302,4.6723 0.2531,7.0745 0.9188,0.40662 2.3855,1.0021 13.701,5.6051 7.8532,3.1238 16.218,6.4373 18.294,7.1815 4.1475,1.4869 11.94,3.2009 24.25,4.0579 3.094,-2.6764 3.0167,-6.3746 0.8757,-6.695 -12.078,-0.84082 -19.639,-2.6948 -23.792,-4.1552 -2.0804,0.22333 -2.8616,-0.44208 -3.2696,-1.0802 l -0.1947,-0.0681 c -3.6647,-1.4261 -9.6044,-3.7468 -15.034,-5.9067 -7.7964,-3.1012 -14.979,-5.9721 -15.083,-6.0138 z" />
    <path
       id="path4324"
       fill="#6a6a6a"
       d="m 1134.8,530.76 c -0.2336,1.3362 -0.4663,2.6753 -0.7103,4.0093 2.0149,-0.4773 4.1271,-1.0118 5.1866,-1.3429 2.0602,-0.6438 0,-1.4185 -0.6422,-1.5472 -0.5138,-0.10272 -2.8098,-0.80273 -3.8341,-1.1191 z" />
    <path
       id="path6924"
       fill="#918a6f"
       d="m 811.34,612.7 c 2.0734,-4.6865 -0.0334,0.22333 -1.9864,-0.88043 l -2.4022,1.9508 c 0.19958,0.54968 3.0285,8.348 3.0457,8.9915 0.81354,-0.88116 1.3134,-9.5381 1.343,-10.062 z" />
    <g
       fill="#b3b3b3"
       id="g3367">
      <path
         id="path3878"
         fill-rule="evenodd"
         stroke-width="3.211"
         d="m 1078.2,571.09 a 3.4688535,9.6565773 0 1 1 -6.936,-0.42841 3.4688535,9.6565773 0 1 1 6.936,0.42841 z" />
      <path
         id="path7092"
         d="m 317.69,557.1 c 1.078,0.35822 2.2423,2.0598 2.5008,3.9217 0.19864,1.4305 0.58475,3.8872 2.817,5.8984 0.73834,-0.82013 1.3027,-1.208 2.4768,-1.5876 v -0.01 c 0,0 0.37097,-0.0976 0.40866,-0.107 v -0.01 c 0,1.2e-4 -1.7425,-0.83282 -3.0944,-4.1162 -1.3182,-3.2014 -2.0312,-3.9542 -5.1088,-3.9898 z" />
    </g>
    <g
       fill-rule="evenodd"
       id="g3371">
      <path
         id="path7121"
         fill="#ababab"
         d="m 312.28,615.71 c 1.0778,3.8972 3.9697,10.937 5.498,12.466 1.8538,1.8538 4.5363,4.6435 4.7586,4.8753 l 0.1557,-0.2628 c -0.10944,-2.7737 -0.26807,-6.9799 -0.39896,-10.344 -4.5024,-2.4546 -7.7328,-4.7031 -10.013,-6.7339 z m 10.256,17.341 -0.0584,0.0973 0.1946,0.0486 c 0,0 -0.12689,-0.13623 -0.13623,-0.14594 z m 14.392,-4.7975 c -0.1004,0.59772 -0.15573,1.1206 -0.15573,1.5376 0,3.8238 6.3357,11.911 6.7436,13.838 0.5686,2.6858 83.533,21.657 135.07,23.851 -0.55423,-3.4984 -1.0754,-8.331 -1.557,-13.799 -30.83,-2.8428 -105.77,-14.836 -140.1,-25.427 z m 358.87,12.903 c -73.221,16.164 -159.49,14.456 -196.05,13.478 0.0445,0.53876 0.0942,1.0645 0.15573,1.557 0.8808,7.046 4.4082,13.156 4.4082,13.156 l 0.8758,0.7007 c 0,-1.2e-4 65.623,2 99.092,-0.64233 33.469,-2.64233 76.184,-9.2539 83.23,-12.777 6.1216,-3.0609 7.9235,-11.103 8.2909,-15.472 z" />
      <path
         id="rect3641"
         fill="none"
         d="m 334.77,340.47 c -0.1872,-1.985 0.55283,-4.6956 1.38,-4.7736 l 4.7028,-0.4435 c 0.82706,-0.078 1.4399,1.4872 1.8308,3.4423 0.52484,2.6242 2.9402,27.307 2.9402,27.307 0.18729,1.985 -0.32785,3.6458 -1.155,3.7238 l -3.4361,0.3948" />
    </g>
    <path
       id="path4239"
       opacity="0.627"
       fill="#bbbfb0"
       d="m 1110.2,504.74 c -0.3259,0.0114 -0.666,0.0393 -1.0217,0.0875 -5.6908,0.77255 -52.146,9.9504 -58.97,10.821 -6.671,0.85107 -11.048,6.6788 -11.755,9.9257 -2.4753,7.1769 -2.2858,9.8999 -3.182,16.416 2.0221,-6.0477 2.4432,-7.2443 4.7975,-14.1 0.7041,-3.2469 4.8026,-6.496 11.444,-7.347 6.7938,-0.87054 52.02,-9.5326 57.686,-10.305 5.6654,-0.77255 5.6694,-0.25769 6.4419,3.3474 0.7272,3.3928 1.3407,17.635 1.8394,24.036 0.085,-0.34497 0.1263,-0.6441 0.1071,-0.85626 -0.5175,-5.6655 0.6397,-21.374 -0.1363,-24.98 -0.7275,-3.3799 -2.3594,-7.216 -7.2498,-7.0453 z" />
    <g
       fill-rule="evenodd"
       id="g3377">
      <path
         id="path6915"
         fill="none"
         d="m 827.9,521.78 c -10e-4,-0.0371 -0.13135,-0.43835 -0.46704,-0.36511 l -92.173,15.57 c -12.374,0.55243 -14.761,9.4278 -17.438,18.061 l -14.947,41.727 c -10.476,21.969 -8.8051,18.112 -26.595,21.175 -7.4102,1.2757 -42.383,6.3348 -66.2,6.2278" />
      <path
         id="path7900"
         fill="#6d6f84"
         d="m 877.53,278.24 -59.398,0.156 c -0.29602,1.492 -0.21802,3.508 0.30102,6.189 l 0.01,-0.059 24.522,0.419 c 2.503,-0.20001 3.194,1.13 2.638,3.523 l -16.806,50.222 c 2.0081,12.892 4.116,27.081 4.116,27.081 0.39801,1.923 0.78497,4.28 2.005,6.082 1.102,0.233 2.625,0.323 5.002,0.24301 l 54.445,-2.899 c 8.327,-0.55399 7.78,-3.869 7.259,-9.332 -1.138,-6.008 -2.285,-12.059 -3.454,-18.139 l -2.696,0.039 c -1.963,0.045 -2.106,-1.183 -2.024,-2.569 l 0.934,-16.582 h 0.02 c -2.425,-11.872 -5.046,-23.782 -8.028,-35.616 -1.076,-4.232 -1.164,-8.548 -8.846,-8.758 z m -51.049,46.057 c 0.11401,0.67502 0.245,1.424 0.37,2.18 -0.12799,-0.77298 -0.25397,-1.492 -0.37,-2.18 z m 119.66,17.283 c -17.21,0.028 -30.011,0.17297 -30.196,0.17499 1.2,7.723 2.391,15.339 3.114,19.696 l 1.333,4.252 c 2.427,1.753 6.013,1.624 9.333,1.518 3.079,-0.098 39.637,-2.073 44.578,-2.384 4.941,-0.311 4.284,-6.939 3.406,-12.222 -0.21802,-1.311 -0.97803,-5.405 -2.025,-10.938 -7.46,-0.06 -14.922,-0.094 -21.924,-0.097 -2.614,-0.001 -5.161,-0.004 -7.619,0 z m 46.437,0.321 -0.01,0.029 c 1.15,6.42 2.205,12.431 2.753,15.969 0.28497,1.824 0.802,3.208 1.47,4.262 5.045,-0.328 40.755,-2.413 44.945,-2.355 6.0601,0.086 6.12,-3.289 5.3101,-7.23 l -0.03,-0.02 c -4,-4.605 -10.67,-8.626 -21.74,-9.478 -7.94,-0.61002 -19.56,-0.95599 -32.699,-1.177 h 9.8e-4 z" />
      <path
         id="path3201"
         stroke-linejoin="round"
         d="m 907.65,278.96 c -1.0368,0.0123 -1.886,0.21045 -2.569,0.53522 h -0.01 c -0.80713,3.2454 0.39899,7.3372 0.39899,7.3372 -0.22015,0 5.8301,24.556 6.4906,28.96 0.39148,2.6099 2.2042,14.463 3.9898,25.962 0.21069,-0.002 16.897,-0.18533 37.815,-0.17514 7.0015,0.003 14.463,0.0371 21.924,0.0973 -3.1704,-16.766 -8.9797,-46.871 -10.383,-53.803 -1.8665,-9.2193 -10.208,-8.0768 -11.746,-8.0768 -1.5371,0 -36.999,-0.51639 -45.454,-0.82715 -0.15613,-0.006 -0.3092,-0.0115 -0.4574,-0.01 z m 74.949,2.2479 c -0.83215,3.0839 0.29199,7.1426 0.29199,7.1426 -0.19354,0 4.2462,22.186 4.8265,26.323 0.3736,2.6624 2.7769,15.661 4.8558,27.257 l 0.01,-0.0292 c 13.13401,0.22098 24.75501,0.56662 32.69601,1.1775 11.077,0.85208 17.738,4.8727 21.739,9.4781 l 0.029,0.0194 c -0.2158,-1.043 -0.4961,-2.1225 -0.7396,-3.1918 -1.1162,-4.9035 -10.186,-51.649 -11.911,-60.294 -1.64,-8.22 -6.7943,-7.2788 -8.1449,-7.2788 -1.1186,0 -29.60703,-0.32391 -43.65403,-0.60333 z m -164.15,3.3183 -0.01,0.0584 c 0.0383,0.19766 0.0736,0.38852 0.1167,0.5936 0,0 5.5502,25.544 7.5319,36.774 0.67248,3.8101 1.6838,10.117 2.715,16.738 l 22.343,0.5081 c 0.29425,-0.007 8.1501,-51.12 7.9667,-51.26 0.55676,-2.3926 -1.9877,-3.1934 -4.4906,-2.9931 l -36.173,-0.4184 z m 72.632,21.936 -2.7877,32.734 c -0.0826,1.3865 0.0608,2.6146 2.024,2.569 l 7.8587,-0.0389 c -1.2197,-6.3444 -2.4611,-12.725 -3.7659,-19.112 l -3.3292,-16.152 z m 155.99,51.018 c -0.032,0.0755 -0.06,0.15128 -0.097,0.22382 0.037,-0.0734 0.065,-0.14734 0.097,-0.22382 z m -2.2673,1.9462 c -0.082,0.0269 -0.1562,0.0537 -0.2432,0.0779 0.083,-0.0234 0.1641,-0.052 0.2432,-0.0779 z"
         stroke-linecap="square"
         fill="#d5e5ff" />
    </g>
    <path
       id="path7959"
       fill="#d5e5ff"
       d="m 494.81,284.35 -34.516,77.732 c -0.34878,1.0696 -0.55808,2.1317 -0.63251,3.1626 l 53.813,-7.3178 16.865,-66.476 c 0.97266,-3.5877 -0.11572,-6.0303 -5.4797,-6.0977 l -30.05,-1.0032 z" />
    <g
       fill-rule="evenodd"
       id="g3389">
      <path
         id="path7946"
         fill="#6d6f84"
         d="m 466.46,348.05 -2.2965,5.2256 h 0.0291 c 4.9006,4.158 8.5578,10.243 10.51,17.341 0,0 0.3082,1.9249 0.63251,4.6028 l 7.2302,0.1654 c -0.28729,-2.7973 -0.5838,-5.6148 -0.5838,-5.6148 -2.95,-9.1782 -8.4752,-16.843 -15.521,-21.72 z" />
      <path
         id="path3209"
         stroke-linejoin="round"
         d="m 736.95,284.62 -14.421,64.848 c -6e-5,0 22.673,0.4379 26.196,0.4379 3.3807,0 6.7584,1.4234 7.6096,3.4837 l -12.193,-68.633 -7.1913,-0.1362 z"
         stroke-linecap="square"
         fill="#d5e5ff" />
      <path
         id="path8094"
         fill="#a1a29c"
         d="m 336.25,578.43 c 0.0208,3.3715 2.4382,4.7996 3.7173,5.031 -0.13354,0.13617 2.8299,1.3805 14.256,4.0189 10.42,2.3975 24.604,4.9002 39.8,6.7534 29.901,3.6465 51.72,6.5692 79.882,8.398 l 0.0195,-0.0584 c -0.11093,-2.483 -0.17963,-4.2009 -0.20435,-4.7098 -1.1078,-0.10742 -2.269,-0.216 -3.5032,-0.32117 l -0.0195,0.0584 c -28.163,-1.8288 -49.981,-4.7514 -79.882,-8.3979 -15.196,-1.8533 -29.38,-4.3558 -39.8,-6.7534 -11.426,-2.6384 -14.39,-3.8827 -14.256,-4.0189 -0.003,-4.9e-4 -0.007,5.5e-4 -0.01,0 z" />
      <path
         id="path2484"
         stroke-linejoin="round"
         d="m 674.99,379.91 c -0.0289,0.007 -0.0218,0.003 -0.0486,0.01 0.0267,0.0824 0.0455,0.1647 0.0584,0.253 0.11536,0.78973 -0.0535,1.4293 -0.82715,1.62509 l -35.995,10.305 h -0.01 c -2.1822,0.60898 -3.3555,1.32871 -4.0189,2.1019 -0.66345,0.77322 -0.95935,1.7213 -1.0704,3.2113 -0.003,0.013 -0.006,0.026 -0.01,0.0389 l -2.8025,28.026 c -0.0281,0.57465 -0.37482,1.0878 -0.89526,1.3331 -0.17725,0.0836 -0.36548,0.12299 -0.55469,0.13623 0.098,0.30035 0.29224,0.56317 0.55469,0.75903 0.46124,0.34411 1.0657,0.41073 1.5862,0.16544 0.52045,-0.24539 0.86706,-0.75849 0.89526,-1.3332 l 2.8025,-28.026 c 0.003,-0.0129 0.007,-0.0259 0.01,-0.0389 0.11102,-1.4899 0.40692,-2.438 1.0704,-3.21121 0.66339,-0.77321 1.8367,-1.493 4.0189,-2.1019 h 0.01 l 36.005,-10.305 c 0.77368,-0.1958 0.9425,-0.83539 0.82715,-1.6251 -0.1153,-0.78969 -0.80829,-1.3571 -1.6056,-1.32339 z"
         stroke-linecap="square"
         fill="#5d536c" />
      <path
         id="path3605"
         fill="#cbcbcb"
         d="m 341.76,393.34 c -0.003,-0.74088 -0.006,-1.4818 -0.0104,-2.2228 -0.0323,-5.3528 -0.11197,-10.802 -0.28226,-15.132 -0.0851,-2.1647 -0.19238,-4.0457 -0.33078,-5.5175 -0.0692,-0.7359 -0.15143,-1.3732 -0.24332,-1.9073 -0.0918,-0.53412 -0.1535,-0.92014 -0.40869,-1.4305 -1.638,-3.2759 -7.1789,-13.366 -7.1789,-13.366 -0.27869,-0.51666 -0.82416,-0.8327 -1.411,-0.81741 -0.55124,0.0137 -1.0541,0.31799 -1.3221,0.79996 -0.26798,0.48196 -0.26108,1.0697 0.0182,1.5452 0,0 5.6585,10.326 7.1108,13.23 -0.062,-0.12405 0.0562,0.16519 0.12656,0.57416 0.0703,0.40897 0.13977,0.97751 0.20432,1.664 0.12915,1.373 0.23727,3.2195 0.32117,5.3521 0.16766,4.2652 0.25006,11.758 0.28214,17.093 m -0.017,13.452 c -0.0238,3.3175 0.0399,1.7989 0.0399,1.7989 -0.0107,0.55872 0.27878,1.0803 0.75845,1.3667 0.4798,0.28644 1.0763,0.29392 1.563,0.0195 0.48676,-0.27441 0.78918,-0.78851 0.79254,-1.3473 0,0 -0.0641,1.452 -0.0404,-1.8348" />
      <path
         id="path3259"
         fill="#ababab"
         d="m 1153.4,546.74 c -0.42,1.1132 -2.3064,1.2942 -2.3064,1.2942 0,0 -22.507,4.4958 -25.155,4.4958 h -3.7367 c -0.027,0.32373 -0.042,0.61035 -0.029,0.82715 0.1288,2.1888 2.8347,8.1313 3.2211,8.9039 0.3864,0.77258 1.0312,2.0646 4.3789,1.4208 3.3478,-0.6438 15.837,-3.0975 17.253,-3.4838 1.4163,-0.38629 1.7192,-0.92511 3.0068,-3.114 1.2875,-2.1889 3.3962,-6.1768 3.4351,-9.3516 0,-0.28503 -0.021,-0.62787 -0.068,-0.99255 z" />
      <path
         id="path3753"
         fill="url(#linearGradient3755)"
         d="m 1070.1,569.45 c -1.1467,2.3509 -1.495,2.402 -2.0384,2.8887 -0.6156,0.55133 -1.9336,-0.74988 -3.1329,0.27991 -2.1829,1.8746 -4.0324,-0.66852 -6.0474,-1.5507 -2.0149,-0.88208 -2.0138,0.0535 -3.2451,0.43945 -1.2316,0.38592 -1.2817,0.54932 -2.6769,-0.48865 -0.3214,-0.23895 -1.5328,-1.2561 -2.1294,-2.8271 -0.8413,8.2799 -0.017,17.622 5.0543,24.276 2.2935,3.1342 8.5227,2.5269 11.198,-0.41583 3.529,-2.8518 6.2884,-6.5316 8.1016,-10.614 -0.2019,0.0658 -0.4132,0.13495 -0.6339,0.1756 -4.3584,-0.0479 -4.849,-5.6358 -4.9124,-8.897 0.1276,-1.5074 0.1302,-1.567 0.4624,-3.2662 z"
         style="fill:url(#linearGradient3755)" />
      <path
         id="path3790"
         fill="url(#linearGradient3792)"
         d="m 383.97,485 c 1.2371,3.9901 1.7685,4.1518 2.5021,5.0485 0.83127,1.016 3.1939,-0.74042 4.8234,1.1688 2.966,3.4752 6.4498,-0.12564 9.8017,-1.0567 3.3519,-0.93106 3.1301,0.551 4.9611,1.4475 1.831,0.89652 1.8711,1.167 4.2924,-0.15445 0.55737,-0.3042 1.1164,-2.4401 2.4168,-4.791 0.79422,13.517 -4.4536,26.729 -13.979,36.089 -4.3157,4.4347 -11.938,4.0363 -15.422,-1.2454 -9.1409,4.3378 -22.547,-12.342 -20.48,-32.555 -0.64801,1.6289 1.513,-1.4047 1.7223,1.049 0.41538,4.8713 1.5758,7.5298 3.1588,9.829 1.4097,2.0475 4.6467,4.1703 8.871,2.7044 3.4511,-1.1976 6.4194,-7.0998 7.2847,-12.252 0.15515,-2.4178 0.16495,-2.5128 0.0459,-5.2817 h 6e-5 z"
         style="fill:url(#linearGradient3792)" />
      <path
         id="path3841"
         fill="url(#radialGradient3843)"
         d="m 591.85,474.26 c -0.55017,5.9716 -5.5867,10.745 -11.664,10.612 -6.4442,-0.14127 -11.674,-5.5299 -11.674,-12.028 0,-6.4983 5.2301,-11.658 11.674,-11.516 5.9363,0.13016 10.842,4.7131 11.579,10.514"
         style="fill:url(#radialGradient3843)" />
    </g>
    <g
       stroke-width="3.9"
       fill="#ffffff"
       fill-opacity="0.617"
       id="g3393">
      <path
         id="path3853"
         opacity="0.607"
         filter="url(#filter3863)"
         d="M 584.61,458.37 A 13.766061,10.328239 0 1 1 566.531,473.949 13.766061,10.328239 0 1 1 584.61,458.37 Z" />
      <path
         id="path3867"
         opacity="0.926"
         filter="url(#filter3863)"
         d="M 553,517.05 A 24.817235,21.442481 0 1 1 520.408,549.394 24.817235,21.442481 0 1 1 553,517.05 Z" />
    </g>
    <g
       fill="#76705a"
       id="g3399">
      <path
         id="path3893"
         d="m 1087.3,392.18 c 0,0 0.096,2.7728 0.8452,3.1941 1.3354,0.75076 2.6035,0.3042 4.6758,0.13571 2.9561,-0.24039 22.414,-1.5858 24.159,-1.7286 1.7446,-0.14273 2.6793,-1.2214 2.667,-3.7723 l -0.135,-0.1336 -32.212,2.3047 z" />
      <path
         id="path3895"
         d="m 1087.9,401.52 c 0,0 0.096,2.7728 0.8452,3.1941 1.3354,0.75073 2.6035,0.3042 4.6758,0.13571 2.9561,-0.24039 22.414,-1.5858 24.159,-1.7286 1.7446,-0.14273 2.6793,-1.2214 2.667,-3.7723 l -0.135,-0.1336 -32.212,2.3047 z" />
      <path
         id="path3897"
         d="m 1091.5,418.66 c 0,0 0.096,2.7728 0.8452,3.1941 1.3354,0.75076 2.6035,0.3042 4.6758,0.13571 2.9561,-0.24039 22.414,-1.5858 24.159,-1.7286 1.7446,-0.14276 2.6793,-1.2214 2.667,-3.7723 l -0.135,-0.1336 -32.212,2.3047 z" />
      <path
         id="path3899"
         d="m 1092,428 c 0,0 0.096,2.7728 0.8452,3.1941 1.3354,0.75076 2.6035,0.3042 4.6758,0.13571 2.9561,-0.24039 22.414,-1.5858 24.159,-1.7286 1.7446,-0.14273 2.6793,-1.2214 2.667,-3.7723 l -0.135,-0.1336 -32.212,2.3047 z" />
    </g>
    <path
       id="path3917"
       opacity="0.668"
       d="m 590.45,477.44 a 4.0784969,3.0599768 0 1 1 -5.3562,4.6157 4.0784969,3.0599768 0 1 1 5.3562,-4.6157 z"
       fill-opacity="0.617"
       filter="url(#filter3863)"
       stroke-width="3.9"
       fill="#ffffff" />
  </g>
</svg>
