<?xml version="1.0" encoding="UTF-8" standalone="no"?>
<svg
   width="115"
   height="115"
   version="1.1"
   id="svg500"
   sodipodi:docname="bulb_light_lamp_electric.svg"
   inkscape:version="1.2.2 (b0a8486541, 2022-12-01)"
   inkscape:export-filename="bulb_light_lamp_electric.png"
   inkscape:export-xdpi="96"
   inkscape:export-ydpi="96"
   xmlns:inkscape="http://www.inkscape.org/namespaces/inkscape"
   xmlns:sodipodi="http://sodipodi.sourceforge.net/DTD/sodipodi-0.dtd"
   xmlns="http://www.w3.org/2000/svg"
   xmlns:svg="http://www.w3.org/2000/svg">
  <sodipodi:namedview
     id="namedview502"
     pagecolor="#ffffff"
     bordercolor="#666666"
     borderopacity="1.0"
     inkscape:showpageshadow="2"
     inkscape:pageopacity="0.0"
     inkscape:pagecheckerboard="0"
     inkscape:deskcolor="#d1d1d1"
     showgrid="false"
     inkscape:zoom="2.8037717"
     inkscape:cx="87.025631"
     inkscape:cy="67.76586"
     inkscape:window-width="1864"
     inkscape:window-height="1011"
     inkscape:window-x="0"
     inkscape:window-y="0"
     inkscape:window-maximized="1"
     inkscape:current-layer="svg500" />
  <defs
     id="defs429">
    <filter
       id="filter3554"
       y="-0.52444247"
       width="1.1783238"
       height="2.0488849"
       x="-0.089161899">
      <feGaussianBlur
         id="feGaussianBlur3556"
         stdDeviation="3.629039" />
    </filter>
    <filter
       id="filter3550"
       y="-0.51291028"
       width="1.1585472"
       height="2.0258206"
       x="-0.079273608">
      <feGaussianBlur
         id="feGaussianBlur3552"
         stdDeviation="3.629039" />
    </filter>
    <filter
       id="filter3304"
       y="-0.40618714"
       width="1.8317582"
       height="1.8123743"
       x="-0.41587908">
      <feGaussianBlur
         id="feGaussianBlur3306"
         stdDeviation="2.631606" />
    </filter>
    <filter
       id="filter3546"
       y="-0.53217179"
       width="1.1590358"
       height="2.0643436"
       x="-0.079517885">
      <feGaussianBlur
         id="feGaussianBlur3548"
         stdDeviation="3.629039" />
    </filter>
    <filter
       id="filter3538"
       y="-0.39806392"
       width="1.1342746"
       height="1.7961278"
       x="-0.067137313">
      <feGaussianBlur
         id="feGaussianBlur3540"
         stdDeviation="3.629039" />
    </filter>
    <filter
       id="filter3534"
       y="-0.46931341"
       width="1.1338345"
       height="1.9386268"
       x="-0.066917263">
      <feGaussianBlur
         id="feGaussianBlur3536"
         stdDeviation="3.629039" />
    </filter>
    <filter
       id="filter3308"
       y="-0.40477341"
       width="2.1070953"
       height="1.8095468"
       x="-0.55354766">
      <feGaussianBlur
         id="feGaussianBlur3310"
         stdDeviation="2.631606" />
    </filter>
    <filter
       id="filter3558"
       y="-0.1636967"
       width="1.1953033"
       height="1.3273934"
       x="-0.097651653">
      <feGaussianBlur
         id="feGaussianBlur3560"
         stdDeviation="3.629039" />
    </filter>
    <filter
       id="filter3300"
       y="-0.39619175"
       width="1.9291104"
       height="1.7923835"
       x="-0.4645552">
      <feGaussianBlur
         id="feGaussianBlur3302"
         stdDeviation="2.631606" />
    </filter>
    <filter
       id="filter3296"
       y="-0.43190721"
       width="2.1821151"
       height="1.8638144"
       x="-0.59105753">
      <feGaussianBlur
         id="feGaussianBlur3298"
         stdDeviation="2.631606" />
    </filter>
    <filter
       id="filter3562"
       x="-0.047238589"
       y="-0.11603038"
       width="1.0944772"
       height="1.2320608">
      <feGaussianBlur
         id="feGaussianBlur3564"
         stdDeviation="3.629039" />
    </filter>
    <filter
       id="filter3578"
       x="-0.053340823"
       y="-0.11299276"
       width="1.1066816"
       height="1.2259855">
      <feGaussianBlur
         id="feGaussianBlur3580"
         stdDeviation="3.629039" />
    </filter>
    <filter
       id="filter3570"
       y="-0.36980388"
       width="1.1004682"
       height="1.7396078"
       x="-0.050234113">
      <feGaussianBlur
         id="feGaussianBlur3572"
         stdDeviation="3.629039" />
    </filter>
    <filter
       id="filter3566"
       y="-0.37117229"
       width="1.1059686"
       height="1.7423446"
       x="-0.052984325">
      <feGaussianBlur
         id="feGaussianBlur3568"
         stdDeviation="3.629039" />
    </filter>
    <filter
       id="filter3574"
       y="-0.83117231"
       width="1.0960699"
       height="2.6623446"
       x="-0.048034958">
      <feGaussianBlur
         id="feGaussianBlur3576"
         stdDeviation="3.629039" />
    </filter>
    <filter
       id="filter3530"
       y="-0.6919504"
       width="1.2811082"
       height="2.3839008"
       x="-0.14055412">
      <feGaussianBlur
         id="feGaussianBlur3532"
         stdDeviation="3.629039" />
    </filter>
    <filter
       id="filter3498"
       y="-0.59341478"
       width="1.0688845"
       height="2.1868296"
       x="-0.034442227">
      <feGaussianBlur
         id="feGaussianBlur3500"
         stdDeviation="3.629039" />
    </filter>
    <filter
       id="filter3502"
       y="-0.70202272"
       width="1.0700078"
       height="2.4040454"
       x="-0.035003912">
      <feGaussianBlur
         id="feGaussianBlur3504"
         stdDeviation="3.629039" />
    </filter>
    <filter
       id="filter3494"
       y="-3.3410735"
       width="1.064321"
       height="7.6815636"
       x="-0.032256361">
      <feGaussianBlur
         id="feGaussianBlur3496"
         stdDeviation="3.629039" />
    </filter>
    <filter
       id="filter3542"
       y="-0.38606179"
       width="1.120386"
       height="1.7721236"
       x="-0.060192985">
      <feGaussianBlur
         id="feGaussianBlur3544"
         stdDeviation="3.629039" />
    </filter>
    <filter
       id="filter3526"
       y="-1.1118407"
       width="1.2181186"
       height="3.2236815"
       x="-0.1090593">
      <feGaussianBlur
         id="feGaussianBlur3528"
         stdDeviation="3.629039" />
    </filter>
    <filter
       id="filter3171"
       x="-0.093645786"
       y="-0.071626644"
       width="1.1872916"
       height="1.1432533">
      <feGaussianBlur
         id="feGaussianBlur3173"
         stdDeviation="24.270561" />
    </filter>
    <filter
       id="filter3522"
       y="-0.94218466"
       width="1.2191743"
       height="2.8843693"
       x="-0.10958713">
      <feGaussianBlur
         id="feGaussianBlur3524"
         stdDeviation="3.629039" />
    </filter>
    <filter
       id="filter3518"
       y="-1.1122501"
       width="1.4827702"
       height="3.2245002"
       x="-0.24138508">
      <feGaussianBlur
         id="feGaussianBlur3520"
         stdDeviation="3.629039" />
    </filter>
    <filter
       id="filter3506"
       y="-0.70147976"
       width="1.0675217"
       height="2.4029595"
       x="-0.033760866">
      <feGaussianBlur
         id="feGaussianBlur3508"
         stdDeviation="3.629039" />
    </filter>
    <filter
       id="filter3514"
       y="-1.9569683"
       width="1.0680827"
       height="4.9160614"
       x="-0.033547353">
      <feGaussianBlur
         id="feGaussianBlur3516"
         stdDeviation="3.629039" />
    </filter>
    <filter
       id="filter3510"
       y="-0.60880433"
       width="1.0669616"
       height="2.2176087"
       x="-0.033480794">
      <feGaussianBlur
         id="feGaussianBlur3512"
         stdDeviation="3.629039" />
    </filter>
    <linearGradient
       id="linearGradient3582"
       y2="370.92303"
       x2="682.60144"
       y1="370.92303"
       x1="460.75772"
       gradientTransform="scale(0.58224967,1.7174763)"
       gradientUnits="userSpaceOnUse">
      <stop
         id="stop3578"
         stop-color="#f8f8f8"
         stop-opacity=".195"
         offset="0" />
      <stop
         id="stop3584"
         stop-color="#f8f8f8"
         stop-opacity=".447"
         offset=".69912" />
      <stop
         id="stop3580"
         stop-color="#f8f8f8"
         stop-opacity=".239"
         offset="1" />
    </linearGradient>
    <linearGradient
       id="linearGradient3573"
       y2="1010.3319"
       y1="1010.3319"
       gradientTransform="scale(1.0590646,0.94422951)"
       x1="175.46402"
       x2="452.85422"
       gradientUnits="userSpaceOnUse">
      <stop
         id="stop3221"
         stop-color="#7e7d7e"
         offset="0" />
      <stop
         id="stop3227"
         stop-color="#7e7d7e"
         offset=".79646" />
      <stop
         id="stop3223"
         stop-color="#505050"
         offset="1" />
    </linearGradient>
    <linearGradient
       id="linearGradient3554"
       y2="2816.7554"
       x2="275.89938"
       y1="2816.7554"
       x1="65.292801"
       gradientTransform="scale(2.8126869,0.35553193)"
       gradientUnits="userSpaceOnUse">
      <stop
         id="stop3306"
         stop-color="#f3f0ed"
         stop-opacity=".119"
         offset="0" />
      <stop
         id="stop3312"
         stop-color="#f3f0ed"
         stop-opacity=".498"
         offset=".5" />
      <stop
         id="stop3308"
         stop-color="#f3f0ed"
         stop-opacity="0"
         offset="1" />
    </linearGradient>
    <linearGradient
       id="linearGradient3271"
       y2="317.79224"
       x2="798.45966"
       y1="317.79224"
       x1="702.88525"
       gradientTransform="scale(0.43903535,2.2777209)"
       gradientUnits="userSpaceOnUse">
      <stop
         id="stop3267"
         stop-color="#9c938b"
         offset="0" />
      <stop
         id="stop3273"
         stop-color="#9c938b"
         offset=".15044" />
      <stop
         id="stop3275"
         stop-color="#eceae9"
         offset=".25570" />
      <stop
         id="stop3277"
         stop-color="#eceae9"
         offset=".71677" />
      <stop
         id="stop3269"
         stop-color="#766c64"
         offset="1" />
    </linearGradient>
    <linearGradient
       id="linearGradient3257"
       y2="653.88464"
       x2="419.2298"
       y1="502.59097"
       x1="419.2298"
       gradientTransform="scale(0.79592462,1.2564004)"
       gradientUnits="userSpaceOnUse">
      <stop
         id="stop3253"
         stop-color="#686562"
         offset="0" />
      <stop
         id="stop3259"
         stop-color="#53504d"
         offset=".18772" />
      <stop
         id="stop3261"
         stop-color="#8f8c88"
         offset=".30992" />
      <stop
         id="stop3255"
         stop-color="#bebcba"
         offset="1" />
    </linearGradient>
    <linearGradient
       id="linearGradient3593"
       y2="2097.3569"
       x2="179.25961"
       y1="2019.4891"
       x1="179.25961"
       gradientTransform="scale(1.8729328,0.53392199)"
       gradientUnits="userSpaceOnUse">
      <stop
         id="stop3589"
         stop-color="#020202"
         offset="0" />
      <stop
         id="stop3595"
         stop-color="#020202"
         offset=".93438" />
      <stop
         id="stop3597"
         stop-color="#9e9c9a"
         offset=".96867" />
      <stop
         id="stop3591"
         stop-color="#b5a183"
         offset="1" />
    </linearGradient>
  </defs>
  <g
     fill-rule="evenodd"
     id="g498"
     transform="matrix(0.09877389,0,0,0.09877389,24.305259,2.0585033)">
    <g
       id="layer3">
      <path
         id="path2169"
         d="m 459.66,828.06 c 0,0 6.541,3.2717 18.455,-3.8495 15.437,-9.2275 35.348,-46.966 35.836,-57.744 2.054,-45.379 8.2195,-91.421 20.796,-122.06 28.534,-69.506 124.74,-174.16 124.73,-330.94 -0.007,-144.53 -142.54,-311.85 -309.53,-313.09 -271.41,-2.0516 -346.95,220.82 -349.52,328.9 -1.964,82.573 43.496,172.7 107.02,280.49 63.518,107.79 30.061,119.98 49.687,167.95 13.831,33.804 30.371,48.4 30.371,48.4 l 272.16,1.9443 z"
         stroke="#666666"
         stroke-width="0.731"
         fill="#b3b3b3" />
      <path
         id="path2170"
         d="m 470.5,826.77 c 14.646,-8.9286 33.149,-63.114 33.088,-73.498 -0.25244,-43.677 7.7569,-87.992 19.625,-117.48 26.928,-66.9 117.72,-167.63 117.71,-318.53 -0.006,-139.11 -134.52,-300.15 -292.11,-301.35 -256.13,-1.9747 -327.42,212.54 -329.85,316.56 -1.8534,79.476 41.048,166.22 100.99,269.97 59.943,103.75 28.369,115.48 46.89,161.65 13.053,32.536 27.93,59.241 27.93,59.241 0,0 264.42,10.321 275.72,3.43 z"
         filter="url(#filter3171)"
         stroke-width="0.953"
         fill="#ffffff" />
    </g>
    <g
       id="layer2"
       externalResourcesRequired="false">
      <path
         id="path2562"
         d="m 459.66,828.06 c 0,0 6.541,3.2717 18.455,-3.8495 15.437,-9.2275 35.348,-46.966 35.836,-57.744 2.054,-45.379 8.2195,-91.421 20.796,-122.06 28.534,-69.506 124.74,-174.16 124.73,-330.94 -0.007,-144.53 -142.54,-311.85 -309.53,-313.09 -271.41,-2.0516 -346.95,220.82 -349.52,328.9 -1.964,82.573 43.496,172.7 107.02,280.49 63.518,107.79 30.061,119.98 49.687,167.95 13.831,33.804 30.371,48.4 30.371,48.4 l 272.16,1.9443 z"
         stroke="#666666"
         stroke-width="0.731"
         fill="#ffff00" />
      <g
         fill="none"
         id="g447">
        <g
           stroke-width="7.31"
           stroke-linecap="round"
           stroke="#333333"
           id="g437">
          <path
             id="path3297"
             d="m 277.39,672.53 c 0,0 4.4706,-39.49 5.5882,-51.784 1.1177,-12.294 0,-19.373 0,-29.059 0,-9.6863 4.4706,-4.8431 0.37256,-20.863 -4.09804,-16.0199 -33.529,-92.765 -40.608,-106.92 -7.0784,-14.157 -33.902,-77.863 -40.235,-92.02 -6.3333,-14.157 -18.255,-39.49 -18.255,-39.49" />
          <path
             id="path3299"
             d="m 385.06,657.25 c 0,-3.7255 0,-40.98 -1.4902,-47.314 -1.4902,-6.3333 -6.3333,-10.804 -6.3333,-10.804 0,0 4.4706,-14.529 4.098,-17.137 -0.37256,-2.6078 -3.3529,-9.3138 -0.37256,-21.98 2.9804,-12.667 24.588,-65.196 31.294,-80.471 6.7059,-15.274 26.078,-76.373 33.53,-92.392 7.4509,-16.02 20.49,-53.274 20.49,-53.274" />
        </g>
        <g
           stroke="#000000"
           id="g445">
          <g
             stroke-width="0.731"
             id="g442">
            <path
               id="path2288"
               d="m 358.71,450.75 c 0,0 7.8537,-28.47 13.253,-49.577 5.3994,-21.107 22.58,-61.848 21.598,-71.174 -0.98169,-9.3263 -8.8354,-14.726 -10.799,-3.9269 -1.9634,10.799 11.29,18.162 11.781,4.4177 0.49084,-13.744 0,-33.378 0,-33.378" />
            <path
               id="path2290"
               d="m 308.15,456.64 c -0.98169,-2.4544 -7.8537,-22.089 -11.29,-42.705 -3.436,-20.616 -11.29,-43.196 -16.689,-55.958 -5.3995,-12.762 -7.3629,-18.162 -11.29,-29.942 -3.9269,-11.781 1.9634,-15.217 6.872,-3.436 4.9086,11.781 -1.4726,22.58 -6.872,9.3264 -5.3995,-13.253 -10.308,-29.942 -10.308,-29.942" />
            <path
               id="path2292"
               d="m 184.45,333.43 c 0,0 10.799,-7.8537 28.961,-8.8354 18.162,-0.98169 20.125,-0.98169 38.287,-0.49084 18.162,0.49084 11.781,1.4726 30.433,0 18.653,-1.4725 28.47,-2.9451 53.013,1.4726 24.543,4.4177 26.506,11.781 45.159,9.3263 18.653,-2.4543 20.616,-5.8903 40.25,-6.872 19.634,-0.98169 40.25,2.4543 43.686,4.4177 3.436,1.9634 3.9269,2.9451 3.9269,2.9451" />
          </g>
          <path
             id="path8972"
             stroke-width="0.31"
             d="m 186.11,335.87 c 0,0 -3.2099,-4.9683 -1.5373,-3.4824 1.6726,1.486 2.3745,2.9395 2.3745,2.9395 m 0.1381,-0.0848 c 0,0 -3.08,-5.0189 -1.4074,-3.533 1.6726,1.4859 2.275,3.0028 2.275,3.0028 m 0.1414,-0.0792 c 0,0 -2.877,-5.1386 -1.265,-3.5868 1.612,1.5518 2.179,3.0788 2.179,3.0788 m 0.1438,-0.0749 c 0,0 -2.7203,-5.2232 -1.156,-3.6234 1.5643,1.5998 2.1624,3.0992 2.1624,3.0992 m 0.0615,-0.0292 c 0,0 -2.5522,-5.3073 -1.0397,-3.6584 1.5124,1.6489 2.0624,3.1666 2.0624,3.1666 m 0.1461,-0.0703 c 0,0 -2.4661,-5.3575 -1.01,-3.6586 1.456,1.6989 1.9546,3.2342 1.9546,3.2342 m 0.1484,-0.0652 c 0,0 -2.372,-5.3903 -0.91598,-3.6914 1.4561,1.6989 1.8614,3.2821 1.8614,3.2821 m 0.1506,-0.06 c 0,0 -2.1793,-5.471 -0.78445,-3.7215 1.3949,1.7495 1.8386,3.3016 1.8386,3.3016 m 0.1506,-0.06 c 0,0 -2.0822,-5.5248 -0.75354,-3.7245 1.3286,1.8003 1.7141,3.3679 1.7141,3.3679 m 0.1527,-0.0543 c 0,0 -1.9736,-5.5485 -0.64499,-3.7482 1.3286,1.8004 1.7141,3.3679 1.7141,3.3679 m 0.1527,-0.0543 c 0,0 -1.8659,-5.5905 -0.60892,-3.7395 1.25698,1.851 1.5807,3.4324 1.5807,3.4324 m 0.1548,-0.0483 c 0,0 -1.7545,-5.6215 -0.49753,-3.7705 1.25697,1.851 1.5808,3.4324 1.5808,3.4324 m 0.1547,-0.0483 c 0,0 -1.6387,-5.6571 -0.45892,-3.756 1.17978,1.9011 1.4383,3.4945 1.4383,3.4945 m 0.1566,-0.0419 c 0,0 -1.5218,-5.6889 -0.34204,-3.7878 1.17976,1.9011 1.4382,3.4945 1.4382,3.4945 m 0.1566,-0.0419 c 0,0 -1.4001,-5.7241 -0.30316,-3.774 1.097,1.9501 1.2866,3.5531 1.2866,3.5531 m 0.1582,-0.0351 c 0,0 -1.2758,-5.749 -0.17883,-3.799 1.0969,1.9501 1.2866,3.5531 1.2866,3.5531 m 0.1583,-0.0351 c 0,0 -1.1494,-5.7909 -0.14108,-3.7936 1.0084,1.9973 1.126,3.6072 1.126,3.6072 m 0.1597,-0.028 c 0,0 -1.0166,-5.8004 -0.008,-3.8031 1.00836,1.9973 1.126,3.6072 1.126,3.6072 m 0.1597,-0.028 c 0,0 -1.0166,-5.8004 -0.008,-3.8031 1.0084,1.9973 0.99262,3.6443 0.99262,3.6443 m 0.1608,-0.0205 c 0,0 -0.74493,-5.8415 0.16916,-3.7993 0.91406,2.0421 0.95642,3.6558 0.95642,3.6558 m 0.1608,-0.0206 c 0,0 -0.74493,-5.8415 0.16913,-3.7993 0.91409,2.0422 0.95645,3.6558 0.95645,3.6558 m 0.1608,-0.0205 c 0,0 -0.60361,-5.8586 0.21072,-3.7747 0.81433,2.0839 0.77866,3.6978 0.77866,3.6978 m 0.1616,-0.0127 c 0,0 -0.46179,-5.8707 0.35254,-3.7867 0.81433,2.0839 0.77866,3.6978 0.77866,3.6978 m 0.1616,-0.0128 c 0,0 -0.46176,-5.8706 0.35254,-3.7867 0.81433,2.0839 0.69693,3.7131 0.69693,3.7131 m 0.1619,-0.008 c 0,0 -0.29694,-5.8818 0.45868,-3.7757 0.75562,2.1061 0.67471,3.7185 0.67471,3.7185 m 0.1619,-0.008 c 0,0 -0.29694,-5.8819 0.45868,-3.7757 0.75562,2.1061 0.67468,3.7184 0.67468,3.7184 m 0.1619,-0.008 c 0,0 -0.29694,-5.8818 0.45868,-3.7757 0.75562,2.1062 0.67468,3.7185 0.67468,3.7185 m 0.1619,-0.008 c 0,0 -0.29694,-5.8818 0.45871,-3.7757 0.75562,2.1061 0.67468,3.7184 0.67468,3.7184 m 0.1619,-0.008 c 0,0 -0.29697,-5.8818 0.45865,-3.7756 0.75562,2.1061 0.67468,3.7184 0.67468,3.7184 m 0.1619,-0.008 c 0,0 -0.29694,-5.8818 0.45868,-3.7757 0.75562,2.1062 0.67468,3.7185 0.67468,3.7185 m 0.1619,-0.008 c 0,0 -0.29694,-5.8818 0.45868,-3.7757 0.75562,2.1061 0.67468,3.7184 0.67468,3.7184 m 0.1619,-0.008 c 0,0 -0.29694,-5.8818 0.45868,-3.7756 0.75565,2.1061 0.67471,3.7184 0.67471,3.7184 m 0.1619,-0.008 c 0,0 -0.23554,-5.8888 0.47583,-3.7673 0.71133,2.1214 0.59671,3.7316 0.59671,3.7316 m 0.162,-0.005 c 0,0 -0.1738,-5.8866 0.53754,-3.7651 0.71136,2.1214 0.59674,3.7316 0.59674,3.7316 m 0.162,-0.005 c 0,0 -0.17377,-5.8866 0.53757,-3.7651 0.71136,2.1214 0.59671,3.7316 0.59671,3.7316 m 0.162,-0.005 c 0,0 -0.1738,-5.8866 0.53757,-3.7651 0.71136,2.1214 0.59671,3.7316 0.59671,3.7316 m 0.162,-0.005 c 0,0 -0.1738,-5.8865 0.53757,-3.7651 0.71136,2.1214 0.59671,3.7316 0.59671,3.7316 m 0.162,-0.005 c 0,0 -0.1738,-5.8865 0.53757,-3.7651 0.71133,2.1214 0.59671,3.7316 0.59671,3.7316 m 0.162,-0.005 c 0,0 -0.0731,-5.9047 0.56512,-3.7602 0.63824,2.1446 0.46851,3.7499 0.46851,3.7499 m 0.1621,7e-4 c 0,0 0.028,-5.889 0.66626,-3.7444 0.63824,2.1445 0.46848,3.7499 0.46848,3.7499 m 0.1621,8e-4 c 0,0 0.0281,-5.8891 0.66629,-3.7445 0.63824,2.1445 0.46851,3.7499 0.46851,3.7499 m 0.1621,8e-4 c 0,0 0.0281,-5.8891 0.66629,-3.7445 0.63824,2.1446 0.46848,3.7499 0.46848,3.7499 m 0.1621,8e-4 c 0,0 0.0281,-5.889 0.66629,-3.7445 0.63824,2.1446 0.46848,3.7499 0.46848,3.7499 m 0.1621,7e-4 c 0,0 0.0281,-5.889 0.66629,-3.7445 0.63824,2.1446 0.46848,3.7499 0.46848,3.7499 m 0.1621,7e-4 c 0,0 0.0281,-5.889 0.66626,-3.7444 0.63824,2.1445 0.41119,3.7563 0.41119,3.7563 m 0.162,0.004 c 0,0 0.14252,-5.8876 0.73895,-3.731 0.5965,2.1567 0.39557,3.7585 0.39557,3.7585 m 0.162,0.004 c 0,0 0.14252,-5.8876 0.73895,-3.731 0.59644,2.1566 0.39551,3.7584 0.39551,3.7584 m 0.1621,0.004 c 0,0 0.14246,-5.8876 0.73895,-3.731 0.59644,2.1566 0.39551,3.7584 0.39551,3.7584 m 0.162,0.004 c 0,0 0.14252,-5.8876 0.73895,-3.731 0.5965,2.1567 0.39557,3.7584 0.39557,3.7584 m 0.162,0.004 c 0,0 0.14252,-5.8876 0.73895,-3.731 0.59644,2.1567 0.39551,3.7584 0.39551,3.7584 m 0.1621,0.004 c 0,0 0.14252,-5.8876 0.73895,-3.731 0.59644,2.1567 0.39551,3.7585 0.39551,3.7585 m 0.162,0.004 c 0,0 0.14252,-5.8876 0.73901,-3.731 0.59644,2.1566 0.39551,3.7584 0.39551,3.7584 m 0.162,0.004 c 0,0 0.14252,-5.8876 0.73895,-3.731 0.5965,2.1566 0.39551,3.7584 0.39551,3.7584 m 0.1621,0.004 c 0,0 0.17419,-5.8887 0.74744,-3.7258 0.57318,2.163 0.35504,3.7624 0.35504,3.7624 m 0.162,0.006 c 0,0 0.20581,-5.8857 0.77905,-3.7228 0.57318,2.1629 0.35504,3.7624 0.35504,3.7624 m 0.162,0.006 c 0,0 0.20581,-5.8857 0.77899,-3.7228 0.57324,2.1629 0.3551,3.7624 0.3551,3.7624 m 0.162,0.006 c 0,0 0.20587,-5.8857 0.77905,-3.7228 0.57324,2.1629 0.3551,3.7624 0.3551,3.7624 m 0.162,0.006 c 0,0 0.20581,-5.8857 0.77905,-3.7228 0.57324,2.1629 0.30267,3.7668 0.30267,3.7668 m 0.1619,0.008 c 0,0 0.31006,-5.8811 0.84491,-3.7084 0.53479,2.1727 0.28833,3.7682 0.28833,3.7682 m 0.1619,0.009 c 0,0 0.31006,-5.8811 0.84491,-3.7084 0.53479,2.1727 0.28833,3.7681 0.28833,3.7681 m 0.1619,0.009 c 0,0 0.31006,-5.8811 0.84485,-3.7084 0.53485,2.1727 0.26257,3.7684 0.26257,3.7684 m 0.1618,0.01 c 0,0 0.36145,-5.8779 0.8772,-3.7007 0.51575,2.1772 0.25537,3.7704 0.25537,3.7704 m 0.1618,0.01 c 0,0 0.36145,-5.8779 0.87726,-3.7007 0.51575,2.1772 0.25537,3.7704 0.25537,3.7704 m 0.1618,0.01 c 0,0 0.36145,-5.8779 0.8772,-3.7007 0.51581,2.1772 0.25537,3.7703 0.25537,3.7703 m 0.1618,0.01 c 0,0 0.36145,-5.8779 0.87726,-3.7007 0.51575,2.1772 0.38623,3.7682 0.38623,3.7682 m 0.162,0.003 c 0,0 0.10034,-5.8879 0.71216,-3.7358 0.61182,2.1521 0.42242,3.7552 0.42242,3.7552 m 0.162,0.003 c 0,0 0.10034,-5.8879 0.71216,-3.7358 0.61182,2.1521 0.55804,3.7364 0.55804,3.7364 m 0.162,-0.005 c 0,0 -0.1712,-5.8865 0.53925,-3.7648 0.71039,2.1217 0.59503,3.7318 0.59503,3.7318 m 0.162,-0.005 c 0,0 -0.1712,-5.8865 0.53918,-3.7648 0.71039,2.1217 0.68457,3.7275 0.68457,3.7275 m 0.1618,-0.01 c 0,0 -0.35022,-5.8788 0.42444,-3.7796 0.77466,2.0992 0.70831,3.7122 0.70831,3.7122 m 0.1619,-0.01 c 0,0 -0.35022,-5.8788 0.42444,-3.7797 0.77466,2.0992 0.70837,3.7122 0.70837,3.7122 m 0.1618,-0.01 c 0,0 -0.35022,-5.8788 0.42444,-3.7796 0.77466,2.0992 0.70831,3.7122 0.70831,3.7122 m 0.1619,-0.01 c 0,0 -0.39478,-5.8745 0.41168,-3.7874 0.80652,2.0872 0.76471,3.701 0.76471,3.701 m 0.1617,-0.0121 c 0,0 -0.43958,-5.8729 0.36694,-3.7857 0.80646,2.0872 0.76471,3.701 0.76471,3.701 m 0.1617,-0.0121 c 0,0 -0.43958,-5.8729 0.36694,-3.7857 0.80646,2.0872 0.76471,3.701 0.76471,3.701 m 0.1616,-0.0121 c 0,0 -0.43951,-5.8729 0.36694,-3.7857 0.80652,2.0872 0.76471,3.701 0.76471,3.701 m 0.1617,-0.0121 c 0,0 -0.43958,-5.8729 0.36694,-3.7857 0.80646,2.0872 0.77881,3.6984 0.77881,3.6984 m 0.1616,-0.0129 c 0,0 -0.46796,-5.8706 0.34863,-3.7874 0.81659,2.0832 0.78259,3.6972 0.78259,3.6972 m 0.1616,-0.0129 c 0,0 -0.46796,-5.8707 0.34863,-3.7874 0.81653,2.0832 0.78259,3.6972 0.78259,3.6972 m 0.1616,-0.0129 c 0,0 -0.46796,-5.8706 0.34863,-3.7874 0.81659,2.0832 0.78259,3.6972 0.78259,3.6972 m 0.1616,-0.0129 c 0,0 -0.46796,-5.8707 0.34863,-3.7874 0.81653,2.0832 0.78259,3.6973 0.78259,3.6973 m 0.1616,-0.0129 c 0,0 -0.4679,-5.8707 0.34863,-3.7874 0.81659,2.0832 0.78259,3.6972 0.78259,3.6972 m 0.1616,-0.0129 c 0,0 -0.46796,-5.8706 0.34863,-3.7874 0.81653,2.0832 0.78259,3.6972 0.78259,3.6972 m 0.1616,-0.0129 c 0,0 -0.4679,-5.8707 0.34863,-3.7874 0.81659,2.0832 0.78259,3.6973 0.78259,3.6973 m 0.1616,-0.0129 c 0,0 -0.46796,-5.8707 0.34863,-3.7874 0.81653,2.0832 0.78259,3.6972 0.78259,3.6972 m 0.1616,-0.0129 c 0,0 -0.46796,-5.8707 0.34863,-3.7874 0.81659,2.0833 0.78259,3.6973 0.78259,3.6973 m 0.1616,-0.0129 c 0,0 -0.40405,-5.8884 0.36633,-3.7877 0.77039,2.1007 0.70081,3.7135 0.70081,3.7135 m 0.1619,-0.009 c 0,0 -0.33832,-5.8795 0.43213,-3.7788 0.77039,2.1008 0.70081,3.7135 0.70081,3.7135 m 0.1618,-0.009 c 0,0 -0.33826,-5.8795 0.43213,-3.7787 0.77039,2.1007 0.70081,3.7135 0.70081,3.7135 m 0.1619,-0.009 c 0,0 -0.33832,-5.8794 0.43207,-3.7787 0.77039,2.1007 0.70081,3.7135 0.70081,3.7135 m 0.1619,-0.009 c 0,0 -0.33832,-5.8795 0.43207,-3.7788 0.77039,2.1008 0.70081,3.7136 0.70081,3.7136 m 0.0883,-0.004 c 0,0 -0.19092,-5.8862 0.52661,-3.7668 0.71753,2.1194 0.6076,3.73 0.6076,3.73 m 0.162,-0.005 c 0,0 -0.19098,-5.8862 0.52655,-3.7667 0.71759,2.1194 0.6076,3.73 0.6076,3.73 m 0.162,-0.005 c 0,0 -0.12897,-5.8922 0.54376,-3.7581 0.67267,2.1341 0.52881,3.7419 0.52881,3.7419 m 0.162,-0.002 c 0,0 -0.0668,-5.8888 0.60596,-3.7548 0.67267,2.1341 0.52881,3.7419 0.52881,3.7419 m 0.1621,-0.002 c 0,0 0.002,-5.9016 0.62463,-3.7524 0.62268,2.1492 0.44122,3.7533 0.44122,3.7533 m 0.1621,0.002 c 0,0 0.0709,-5.8888 0.69354,-3.7396 0.62262,2.1492 0.44116,3.7533 0.44116,3.7533 m 0.1621,0.002 c 0,0 0.0709,-5.8888 0.69348,-3.7396 0.62268,2.1492 0.36835,3.7564 0.36835,3.7564 m 0.162,0.006 c 0,0 0.21643,-5.8852 0.78571,-3.7213 0.56934,2.1639 0.34833,3.763 0.34833,3.763 m 0.162,0.006 c 0,0 0.21643,-5.8852 0.78577,-3.7213 0.56928,2.1639 0.34827,3.7631 0.34827,3.7631 m 0.162,0.006 c 0,0 0.29047,-5.885 0.80524,-3.7075 0.51483,2.1776 0.25372,3.7706 0.25372,3.7706 m 0.1618,0.01 c 0,0 0.36408,-5.8779 0.87891,-3.7004 0.51483,2.1775 0.25372,3.7706 0.25372,3.7706 m 0.1618,0.01 c 0,0 0.36408,-5.8779 0.87891,-3.7004 0.51483,2.1776 0.18072,3.774 0.18072,3.774 m 0.1615,0.014 c 0,0 0.50879,-5.8672 0.96979,-3.6777 0.461,2.1895 0.16077,3.7757 0.16077,3.7757 m 0.1615,0.014 c 0,0 0.50879,-5.8672 0.96979,-3.6776 0.461,2.1895 0.16077,3.7757 0.16077,3.7757 m 0.1615,0.014 c 0,0 0.57831,-5.8674 0.98779,-3.6676 0.40942,2.1998 0.072,3.7784 0.072,3.7784 m 0.1611,0.0178 c 0,0 0.64648,-5.8536 1.056,-3.6538 0.40942,2.1998 0.072,3.7784 0.072,3.7784 m 0.1611,0.0178 c 0,0 0.64654,-5.8536 1.056,-3.6539 0.40942,2.1998 0.072,3.7784 0.072,3.7784 m 0.1611,0.0178 c 0,0 0.71057,-5.8466 1.0718,-3.6384 0.36121,2.2082 -0.0107,3.7791 -0.0107,3.7791 m 0.1607,0.0214 c 0,0 0.77454,-5.8381 1.1357,-3.6299 0.36121,2.2082 -0.0107,3.7792 -0.0107,3.7792 m 0.1607,0.0213 c 0,0 0.77448,-5.8381 1.1356,-3.6299 0.36121,2.2082 -0.0107,3.7791 -0.0107,3.7791 m 0.1607,0.0213 c 0,0 0.83282,-5.8303 1.1498,-3.6153 0.31696,2.215 -0.0863,3.7781 -0.0863,3.7781 m 0.1603,0.0245 c 0,0 0.89105,-5.8214 1.208,-3.6064 0.31696,2.215 -0.0863,3.7781 -0.0863,3.7781 m 0.1603,0.0246 c 0,0 0.89105,-5.8215 1.208,-3.6065 0.31702,2.215 -0.0863,3.7782 -0.0863,3.7782 m 0.1603,0.0245 c 0,0 0.94421,-5.8184 1.2213,-3.5981 0.2771,2.2203 -0.15424,3.776 -0.15424,3.776 m 0.1598,0.0274 c 0,0 0.9956,-5.8045 1.2727,-3.5842 0.27704,2.2204 -0.15424,3.7761 -0.15424,3.7761 m 0.1598,0.0274 c 0,0 0.9956,-5.8046 1.2727,-3.5842 0.27704,2.2203 -0.15424,3.776 -0.15424,3.776 m 0.1597,0.0274 c 0,0 0.99567,-5.8045 1.2728,-3.5842 0.27704,2.2204 -0.22876,3.7678 -0.22876,3.7678 m 0.159,0.0314 c 0,0 1.1426,-5.7771 1.3632,-3.5505 0.22064,2.2266 -0.25,3.7708 -0.25,3.7708 m 0.1591,0.0314 c 0,0 1.1426,-5.7772 1.3632,-3.5505 0.22058,2.2266 -0.25006,3.7707 -0.25006,3.7707 m 0.1591,0.0315 c 0,0 1.1426,-5.7772 1.3632,-3.5506 0.22058,2.2266 -0.25006,3.7708 -0.25006,3.7708 m 0.1591,0.0314 c 0,0 1.2457,-5.7607 1.3873,-3.5276 0.14166,2.233 -0.3833,3.7595 -0.3833,3.7595 m 0.1578,0.037 c 0,0 1.3464,-5.7331 1.488,-3.5001 0.14172,2.233 -0.3833,3.7595 -0.3833,3.7595 m 0.1578,0.037 c 0,0 1.3464,-5.7331 1.4881,-3.5001 0.14166,2.233 -0.38336,3.7595 -0.38336,3.7595 m 0.1578,0.0371 c 0,0 1.4485,-5.7163 1.5119,-3.4797 0.0635,2.2366 -0.51465,3.7438 -0.51465,3.7438 m 0.1564,0.0425 c 0,0 1.5461,-5.6824 1.6096,-3.4459 0.0634,2.2366 -0.51465,3.7438 -0.51465,3.7438 m 0.1564,0.0425 c 0,0 1.5461,-5.6825 1.6096,-3.4459 0.0635,2.2366 -0.51465,3.7438 -0.51465,3.7438 m 0.0635,0.0175 c 0,0 1.731,-5.629 1.7213,-3.3915 -0.01,2.2375 -0.63666,3.725 -0.63666,3.725 m 0.1549,0.0476 c 0,0 1.731,-5.629 1.7214,-3.3915 -0.01,2.2376 -0.63672,3.725 -0.63672,3.725 m 0.155,0.0477 c 0,0 1.8142,-5.6198 1.7422,-3.3834 -0.0719,2.2364 -0.74011,3.7059 -0.74011,3.7059 m 0.1536,0.0519 c 0,0 1.887,-5.5787 1.8151,-3.3424 -0.072,2.2364 -0.74017,3.7059 -0.74017,3.7059 m 0.1536,0.0519 c 0,0 1.887,-5.5787 1.8151,-3.3423 -0.072,2.2364 -0.79663,3.6898 -0.79663,3.6898 m 0.1525,0.055 c 0,0 1.9977,-5.5401 1.8813,-3.3055 -0.11646,2.2346 -0.81378,3.6905 -0.81378,3.6905 m 0.1525,0.055 c 0,0 1.9977,-5.5401 1.8813,-3.3055 -0.11646,2.2346 -0.82983,3.6849 -0.82983,3.6849 m 0.1522,0.0558 c 0,0 2.0297,-5.5284 1.9003,-3.2946 -0.12933,2.2338 -0.83508,3.6857 -0.83508,3.6857 m 0.1522,0.0558 c 0,0 2.0297,-5.5284 1.9004,-3.2946 -0.12933,2.2338 -0.83508,3.6857 -0.83508,3.6857 m 0.1522,0.0558 c 0,0 2.0297,-5.5284 1.9003,-3.2946 -0.12933,2.2339 -0.83502,3.6857 -0.83502,3.6857 m 0.1522,0.0559 c 0,0 2.0297,-5.5284 1.9003,-3.2946 -0.12933,2.2338 -0.76148,3.7037 -0.76148,3.7037 m 0.1536,0.0519 c 0,0 1.8874,-5.5784 1.8153,-3.3421 -0.0721,2.2364 -0.74042,3.7058 -0.74042,3.7058 m 0.1536,0.0519 c 0,0 1.7687,-5.5925 1.7858,-3.3551 0.0172,2.2373 -0.59198,3.7321 -0.59198,3.7321 m 0.1555,0.0458 c 0,0 1.6634,-5.649 1.6805,-3.4117 0.0172,2.2374 -0.59204,3.7322 -0.59204,3.7322 m 0.1555,0.0458 c 0,0 1.5026,-5.6782 1.6434,-3.4454 0.14093,2.2328 -0.38452,3.759 -0.38452,3.759 m 0.1578,0.0371 c 0,0 1.3481,-5.732 1.4891,-3.4992 0.14087,2.2328 -0.38458,3.759 -0.38458,3.759 m 0.2993,0.0629 c 0,0 1.0669,-5.7916 1.3166,-3.5681 0.24976,2.2235 -0.0981,3.7887 -0.0981,3.7887 m 0.1603,0.0237 c 0,0 0.86249,-5.8255 1.1903,-3.6122 0.32776,2.2133 0.0386,3.7862 0.0386,3.7862 m 0.1611,0.0179 c 0,0 0.65124,-5.8528 1.0588,-3.6528 0.40765,2.2 0.17639,3.7798 0.17639,3.7798 m 0.1617,0.0121 c 0,0 0.43787,-5.8727 0.92529,-3.689 0.48743,2.1838 0.31244,3.77 0.31244,3.77 m 0.162,0.006 c 0,0 0.22668,-5.8847 0.79224,-3.7198 0.56549,2.1649 0.44458,3.7574 0.44458,3.7574 m 0.1621,6e-4 c 0,0 0.0213,-5.889 0.66199,-3.7452 0.64068,2.1438 0.57092,3.7429 0.57092,3.7429 m 0.162,-0.005 c 0,0 -0.17517,-5.8865 0.53668,-3.7652 0.71185,2.1212 0.5976,3.7314 0.5976,3.7314 m 0.2545,-0.0141 c 0,0 -0.36066,-5.878 0.41772,-3.7803 0.77838,2.0978 0.7149,3.7108 0.7149,3.7108 m 0.1618,-0.01 c 0,0 -0.44696,-5.8694 0.39288,-3.7954 0.83984,2.0739 0.82391,3.6881 0.82391,3.6881 m 0.1614,-0.0146 c 0,0 -0.61249,-5.846 0.28363,-3.7957 0.89618,2.0503 0.92432,3.6644 0.92432,3.6644 m 0.161,-0.0191 c 0,0 -0.69354,-5.8482 0.20258,-3.798 0.89612,2.0503 0.99121,3.648 0.99121,3.648 m 0.1605,-0.0228 c 0,0 -0.82935,-5.8305 0.1142,-3.8016 0.9436,2.0289 1.0093,3.6418 1.0093,3.6418 m 0.1605,-0.0228 c 0,0 -0.82935,-5.8306 0.1142,-3.8017 0.9436,2.0289 1.0093,3.6419 1.0093,3.6419 m 0.1605,-0.0228 c 0,0 -0.89215,-5.8152 0.0956,-3.8074 0.98767,2.0078 1.0886,3.6189 1.0886,3.6189 m 0.16,-0.0263 c 0,0 -0.95666,-5.811 0.0311,-3.8033 0.98773,2.0078 1.0886,3.6189 1.0886,3.6189 m 0.16,-0.0263 c 0,0 -0.9566,-5.811 0.0311,-3.8033 0.98773,2.0078 1.1507,3.5978 1.1507,3.5978 m 0.1594,-0.0298 c 0,0 -1.0842,-5.7886 -0.0526,-3.803 1.0317,1.9855 1.168,3.5941 1.168,3.5941 m 0.1593,-0.0299 c 0,0 -1.0842,-5.7886 -0.0525,-3.803 1.0316,1.9855 1.2269,3.5754 1.2269,3.5754 m 0.1587,-0.0331 c 0,0 -1.2048,-5.7647 -0.13196,-3.8011 1.0729,1.9636 1.2427,3.569 1.2427,3.569 m 0.1587,-0.0332 c 0,0 -1.2048,-5.7647 -0.1319,-3.8011 1.0728,1.9636 1.3109,3.543 1.3109,3.543 m 0.1578,-0.037 c 0,0 -1.3457,-5.7334 -0.22504,-3.7967 1.1206,1.9367 1.3298,3.5374 1.3298,3.5374 m 0.1578,-0.037 c 0,0 -1.3456,-5.7333 -0.22504,-3.7966 1.1207,1.9366 1.3298,3.5374 1.3298,3.5374 m 0.1578,-0.037 c 0,0 -1.3457,-5.7333 -0.2251,-3.7967 1.1207,1.9367 1.3298,3.5374 1.3298,3.5374 m 0.1949,-0.046 c 0,0 -1.42,-5.7156 -0.27429,-3.7935 1.1457,1.922 1.3757,3.5199 1.3757,3.5199 m 0.1573,-0.0391 c 0,0 -1.42,-5.7156 -0.27429,-3.7936 1.1457,1.9221 1.3757,3.52 1.3757,3.52 m 0.1573,-0.0391 c 0,0 -1.42,-5.7156 -0.27429,-3.7935 1.14571,1.9221 1.3757,3.5199 1.3757,3.5199 m 0.1573,-0.0391 c 0,0 -1.3671,-5.7325 -0.25775,-3.7893 1.1093,1.9432 1.3091,3.545 1.3091,3.545 m 0.158,-0.0361 c 0,0 -1.3122,-5.741 -0.20288,-3.7978 1.1092,1.9431 1.3091,3.545 1.3091,3.545 m 0.1581,-0.0361 c 0,0 -1.3122,-5.741 -0.20294,-3.7978 1.10926,1.9432 1.3091,3.545 1.3091,3.545 m 0.158,-0.0361 c 0,0 -1.2248,-5.7753 -0.17712,-3.7982 1.04768,1.9771 1.1971,3.5845 1.1971,3.5845 m 0.1591,-0.0311 c 0,0 -1.1312,-5.7795 -0.0835,-3.8024 1.04771,1.9771 1.1971,3.5845 1.1971,3.5845 m 0.1591,-0.0311 c 0,0 -1.0544,-5.7963 -0.0598,-3.792 0.99463,2.0043 1.1011,3.6151 1.1011,3.6151 m 0.1599,-0.0269 c 0,0 -0.97668,-5.8076 0.0179,-3.8033 0.99463,2.0043 1.1011,3.6151 1.1011,3.6151 m 0.0786,-0.0107 c 0,0 -0.81305,-5.8328 0.12482,-3.8013 0.93787,2.0315 0.99908,3.6446 0.99908,3.6446 m 0.1605,-0.0223 c 0,0 -0.81299,-5.8328 0.12488,-3.8013 0.93787,2.0315 0.99908,3.6446 0.99908,3.6446 m 0.08,-0.008 c 0,0 -0.65082,-5.8531 0.23035,-3.7964 0.8811,2.0568 0.89746,3.671 0.89746,3.671 m 0.1611,-0.0179 c 0,0 -0.65082,-5.8531 0.23035,-3.7964 0.8811,2.0568 0.89752,3.671 0.89752,3.671 m 0.1611,-0.0179 c 0,0 -0.5744,-5.8626 0.25269,-3.7834 0.82703,2.079 0.80121,3.6932 0.80121,3.6932 m 0.1616,-0.0137 c 0,0 -0.49762,-5.8681 0.32947,-3.7891 0.82709,2.0791 0.80127,3.6932 0.80127,3.6932 m 0.1615,-0.0137 c 0,0 -0.42877,-5.8877 0.34863,-3.7896 0.77734,2.0982 0.71314,3.7112 0.71314,3.7112 m 0.1618,-0.01 c 0,0 -0.35779,-5.8784 0.41956,-3.7802 0.7774,2.0982 0.71314,3.7112 0.71314,3.7112 m 0.1618,-0.01 c 0,0 -0.35779,-5.8784 0.41956,-3.7802 0.7774,2.0982 0.7132,3.7112 0.7132,3.7112 m 0.1618,-0.01 c 0,0 -0.28589,-5.8869 0.43976,-3.7703 0.72559,2.1166 0.62183,3.7275 0.62183,3.7275 m 0.162,-0.006 c 0,0 -0.21338,-5.8853 0.51221,-3.7687 0.72565,2.1166 0.62183,3.7275 0.62183,3.7275 m 0.162,-0.006 c 0,0 -0.21344,-5.8853 0.51221,-3.7687 0.72559,2.1166 0.62183,3.7275 0.62183,3.7275 m 0.162,-0.006 c 0,0 -0.13776,-5.8873 0.53326,-3.7528 0.67096,2.1346 0.52576,3.7424 0.52576,3.7424 m 0.1621,-0.002 c 0,0 -0.062,-5.8888 0.60895,-3.7543 0.67096,2.1346 0.52582,3.7424 0.52582,3.7424 m 0.1621,-0.002 c 0,0 -0.0621,-5.8888 0.60889,-3.7543 0.67096,2.1346 0.45654,3.7432 0.45654,3.7432 m 0.1621,0.002 c 0,0 0.0765,-5.8887 0.69708,-3.739 0.62054,2.1498 0.43762,3.7537 0.43762,3.7537 m 0.1621,0.002 c 0,0 0.0765,-5.8887 0.69702,-3.739 0.6206,2.1498 0.43768,3.7537 0.43768,3.7537 m 0.162,0.002 c 0,0 0.0765,-5.8887 0.69708,-3.739 0.6206,2.1498 0.37341,3.7581 0.37341,3.7581 m 0.162,0.006 c 0,0 0.20471,-5.8857 0.77832,-3.7229 0.57367,2.1628 0.35584,3.7623 0.35584,3.7623 m 0.162,0.006 c 0,0 0.20465,-5.8857 0.77832,-3.7229 0.57367,2.1628 0.35584,3.7623 0.35584,3.7623 m 0.162,0.006 c 0,0 0.26526,-5.8946 0.79462,-3.7206 0.52936,2.1741 0.27893,3.7689 0.27893,3.7689 m 0.1619,0.009 c 0,0 0.32477,-5.8802 0.85413,-3.7062 0.52936,2.1741 0.27893,3.7689 0.27893,3.7689 m 0.1619,0.009 c 0,0 0.32483,-5.8802 0.85419,-3.7062 0.52936,2.1741 0.27887,3.7689 0.27887,3.7689 m 0.1619,0.009 c 0,0 0.3822,-5.8805 0.8692,-3.6966 0.487,2.184 0.20557,3.7736 0.20557,3.7736 m 0.1617,0.0121 c 0,0 0.43909,-5.8729 0.92609,-3.6889 0.48694,2.1839 0.20557,3.7736 0.20557,3.7736 m 0.1616,0.0121 c 0,0 0.43909,-5.8729 0.92609,-3.689 0.487,2.184 0.15015,3.771 0.15015,3.771 m 0.1614,0.0151 c 0,0 0.54962,-5.8636 0.99542,-3.6708 0.44574,2.1927 0.13446,3.7767 0.13446,3.7767 m 0.1614,0.0151 c 0,0 0.54962,-5.8636 0.99542,-3.6708 0.44574,2.1927 0.13446,3.7767 0.13446,3.7767 m 0.1614,0.0151 c 0,0 0.60498,-5.8656 1.0098,-3.665 0.40485,2.2006 0.0641,3.7786 0.0641,3.7786 m 0.1611,0.0181 c 0,0 0.65869,-5.8524 1.0635,-3.6517 0.40491,2.2006 0.0642,3.7786 0.0642,3.7786 m 0.1611,0.0182 c 0,0 0.65875,-5.8524 1.0636,-3.6517 0.40485,2.2007 0.008,3.7754 0.008,3.7754 m 0.1607,0.0212 c 0,0 0.7691,-5.8388 1.1323,-3.6309 0.36322,2.2079 -0.007,3.7791 -0.007,3.7791 m 0.1608,0.0212 c 0,0 0.7691,-5.8388 1.1323,-3.6309 0.36322,2.2079 -0.007,3.7791 -0.007,3.7791 m 0.1031,0.0131 c 0,0 0.88434,-5.8224 1.2039,-3.6078 0.31952,2.2147 -0.0819,3.7783 -0.0819,3.7783 m 0.1603,0.0244 c 0,0 0.88434,-5.8225 1.2039,-3.6078 0.31952,2.2147 -0.0819,3.7783 -0.0819,3.7783 m 0.1602,0.0244 c 0,0 0.94727,-5.8151 1.2191,-3.5941 0.27191,2.221 -0.16309,3.7756 -0.16309,3.7756 m 0.1597,0.0278 c 0,0 1.0093,-5.8021 1.2811,-3.5811 0.27185,2.221 -0.16315,3.7756 -0.16315,3.7756 m 0.1597,0.0278 c 0,0 1.0804,-5.7895 1.2977,-3.5625 0.21728,2.2269 -0.25574,3.7704 -0.25574,3.7704 m 0.159,0.0317 c 0,0 1.1514,-5.7755 1.3686,-3.5485 0.21722,2.2269 -0.34283,3.757 -0.34283,3.757 m 0.158,0.0364 c 0,0 1.3234,-5.7385 1.474,-3.506 0.15064,2.2324 -0.36822,3.761 -0.36822,3.761 m 0.158,0.0364 c 0,0 1.439,-5.7216 1.5013,-3.4851 0.0624,2.2365 -0.51642,3.7434 -0.51642,3.7434 m 0.1564,0.0426 c 0,0 1.7248,-5.6662 1.6559,-3.4302 -0.0688,2.236 -0.73486,3.7062 -0.73486,3.7062 m 0.1536,0.0518 c 0,0 2.0884,-5.5482 1.8623,-3.3224 -0.22601,2.2258 -1.1898,3.5552 -1.1898,3.5552 m 0.1446,0.0732 c 0,0 2.8478,-5.1694 2.306,-2.9985 -0.54175,2.1709 -1.5047,3.4665 -1.5047,3.4665 m 0.1392,0.0831 c 0,0 3.1373,-4.9974 2.5006,-2.8525 -0.63684,2.1448 -1.6558,3.3967 -1.6558,3.3967 m 0.1353,0.0892 c 0,0 3.3654,-4.8354 2.6205,-2.7258 -0.74487,2.1097 -1.9696,3.2104 -1.9696,3.2104 m 0.1248,0.1035 c 0,0 3.9224,-4.4139 2.9158,-2.4161 -1.0065,1.9979 -2.5897,2.6967 -2.5897,2.6967" />
        </g>
      </g>
    </g>
    <g
       id="layer6">
      <path
         id="path3312"
         d="m 248.23,1081 c 0,0 13.572,16.286 21.715,23.072 8.143,6.7858 2.6771,7.1052 18.629,12.044 15.952,4.9382 26.18,8.3141 45.18,7.7095 19.039,-0.6055 22.084,-4.3379 34.802,-7.0708 12.718,-2.7327 16.069,-3.8606 16.069,-3.8606 l 38.679,-38.679 -175.07,6.7858 z"
         stroke="#000000"
         stroke-width="0.731"
         fill="url(#linearGradient3593)"
         style="fill:url(#linearGradient3593)" />
      <path
         id="path2167"
         fill="url(#linearGradient3573)"
         d="m 479.58,826.06 c 0,0 -2.4862,1.786 -8.7349,4.3972 -1.6891,0.70581 -1.623,11.563 -1.5386,19.859 0.0698,6.6853 8.14,10.678 8.14,21.314 0,10.637 -9.0309,6.2704 -10.965,13.039 -1.9339,6.7687 0.15839,11.838 0.15839,11.838 0,0 9.3413,5.1105 10.308,12.846 0.96698,7.7356 -8.7671,9.1068 -11.668,14.909 -2.9009,5.8019 2.485,15.747 2.485,15.747 0,0 8.767,-0.797 8.5971,10.285 -0.13348,8.7015 -11.709,9.5111 -12.676,15.313 -0.96698,5.8018 -1.6502,13.204 8.4039,15.342 2.0099,0.42749 6.3876,2.7362 2.8481,12.33 -2.8792,7.804 -12.272,6.6928 -12.272,13.462 0,6.7687 -0.0528,9.7985 4.782,11.732 4.8348,1.934 9.5586,6.032 2.6782,13.227 -6.5344,6.8332 -38.476,41.044 -48.412,43.706 -18.182,4.8721 -58.932,6.5873 -88.908,6.5873 -29.976,0 -75.199,1.4624 -90.215,-2.561 -3.8429,-1.0297 -37.02,-31.898 -40.378,-38.221 -4.4667,-8.411 -0.91898,-14.472 -1.8811,-20.699 -0.901,-5.831 -3.5575,-1.3482 -8.3511,-5.3448 -8.9432,-7.4563 -0.74423,-15.665 3.1236,-17.598 3.8678,-1.934 6.6748,-13.45 -0.094,-20.219 -6.7687,-6.7687 -9.7914,-11.687 -4.0198,-17.224 11.365,-10.902 7.6533,-16.28 1.8516,-23.049 -5.8018,-6.7687 -5.7371,-9.8263 -3.3812,-15.419 2.3559,-5.5922 10.149,0.66528 8.216,-14.089 -2.0011,-15.274 -3.1036,-4.224 -7.8529,-14.762 -3.3712,-7.4802 2.6021,-46.701 2.6021,-46.701 l -2.2738,-3.3052 -1.424,-14.153 -2.9009,-2.9009 c 0,0 140.69,-7.0116 160.99,-5.0776 20.306,1.9338 134.69,5.3879 132.76,5.3879 z"
         style="fill:url(#linearGradient3573)" />
      <g
         fill="#646460"
         id="g457">
        <path
           id="path3175"
           filter="url(#filter3578)"
           d="m 305.74,829.66 c 0,0 -4.7636,-0.68054 -4.0831,6.1246 0.68054,6.8052 2.7221,14.291 2.7221,14.291 0,0 -6.1246,-9.5272 -2.7221,4.0831 3.4026,13.61 5.4442,13.61 0,16.332 -5.4441,2.7222 12.93,14.971 12.93,14.971 0,0 -87.106,8.8468 -98.675,8.8468 -11.569,0 89.148,5.444 97.314,4.7636 8.1663,-0.68054 -2.0415,2.7222 -5.4441,4.7637 -3.4026,2.0416 23.138,4.083 39.47,2.0416 16.332,-2.0416 6.1246,-6.1248 -3.4026,-6.8052 -9.5272,-0.68054 11.569,-0.68054 29.262,-2.0414 17.694,-1.3611 -14.971,-8.1662 -25.179,-9.5273 -10.208,-1.3611 -25.179,-4.7637 -6.8052,-4.7637 18.3738,0 25.179,2.722 25.179,-2.722 0,-5.4442 2.7221,-24.499 0,-26.54 -2.722,-2.0416 4.0831,0.68054 -0.68051,-6.8052 -4.76361,-7.48574 -22.457,-7.4857 -22.457,-7.4857 0,0 18.374,-4.0831 33.345,-6.1246 14.971,-2.0416 -71.454,-2.7221 -70.774,-3.4026 z" />
        <path
           id="path3177"
           filter="url(#filter3574)"
           d="m 209.1,918.13 c 0,0 40.831,2.0415 69.413,-0.68054 28.582,-2.72204 44.914,-4.0831 66.01,-2.722 21.096,1.3609 19.735,0.68042 38.109,-0.68054 18.374,-1.36096 1.361,-6.8052 -21.777,-5.4442 -23.138,1.3611 -46.956,-1.361 -66.01,2.0416 -19.054,3.4026 -36.748,2.7221 -49.678,2.7221 -12.93,0 -36.748,5.4441 -36.067,4.7636 z" />
        <path
           id="path3179"
           filter="url(#filter3570)"
           d="m 216.59,937.18 c 2.7221,0 37.428,-4.7636 61.927,-5.4442 24.499,-0.68048 38.789,-6.8052 59.886,-4.7636 21.096,2.0416 27.901,2.722 43.553,4.0831 15.652,1.361 6.1247,-0.68054 -9.5272,2.722 -15.652,3.4026 -38.109,8.1662 -31.304,8.1662 6.8052,0 29.943,-0.68054 19.054,2.0416 -10.888,2.722 -16.332,6.1246 -39.47,6.1246 -23.138,0 -53.08,-2.722 -31.304,-4.7636 21.776,-2.0416 63.288,-1.361 38.109,-4.0831 -25.179,-2.722 -51.719,-2.722 -66.691,-2.0415 -14.971,0.68048 -44.914,0 -44.234,-2.0416 z" />
        <path
           id="path3181"
           filter="url(#filter3566)"
           d="m 227.48,975.97 c 0,0 46.275,0 63.288,-1.361 17.013,-1.361 18.374,-6.8052 37.428,-6.1246 19.054,0.68048 39.47,-2.0416 51.039,0.68048 11.569,2.722 21.096,2.0416 0.68051,3.4026 -20.416,1.361 -37.428,3.4026 -34.026,5.4442 3.4026,2.0414 20.416,4.083 15.652,7.4857 -4.7636,3.4025 -3.4026,3.4025 -28.582,4.083 -25.179,0.68054 -63.969,4.0832 -44.914,-0.68048 19.054,-4.7636 64.649,-8.1662 30.623,-8.1662 -34.026,0 -85.065,-3.4025 -91.189,-4.7636 z" />
        <path
           id="path3183"
           filter="url(#filter3562)"
           d="m 219.31,1014.8 c 4.0831,0 53.761,0 64.649,-0.6806 10.888,-0.6805 18.374,-6.805 40.15,-6.805 21.776,0 23.138,0.6805 40.831,3.4026 17.694,2.722 31.304,1.361 36.748,1.361 5.4441,0 0,-3.4026 -21.096,3.4026 -6.3704,2.055 -10.276,8.9156 -7.007,17.185 0.94229,2.3835 4.7903,3.0557 7.0491,5.5912 2.8807,3.2336 6.1042,6.5702 7.815,9.9574 7.7064,15.258 -12.238,33.219 -27.582,33.416 -26.408,0.3405 -42.114,0.6318 -63.438,0.7481 -1.4533,0.01 -23.059,-15.6401 -16.568,-30.773 1.5939,-3.7163 4.8777,-9.4965 7.5538,-12.783 1.9802,-2.4321 3.5114,-2.4522 4.3854,-4.7176 2.7546,-7.1401 -0.0904,-12.982 -1.355,-13.18 -21.777,-3.4026 -73.496,-5.4442 -72.135,-6.1247 z" />
      </g>
      <g
         fill="#f3f0ed"
         id="g461">
        <path
           id="path3186"
           filter="url(#filter3558)"
           d="m 337.72,837.15 c 19.054,0 50.358,-6.8052 66.01,-1.361 15.652,5.4442 20.416,-1.361 22.457,2.722 2.0416,4.0831 -0.68051,10.888 -3.4026,12.249 -2.72209,1.361 4.7636,13.61 4.0831,22.457 -0.68051,8.8466 -31.984,14.291 -58.524,13.61 -26.54,-0.6806 -31.984,-1.3611 -14.291,-6.1246 17.694,-4.7637 18.374,-8.8467 17.694,-17.013 -0.68051,-8.1662 -8.1662,-8.8467 -7.4857,-11.569 0.68051,-2.7221 8.8467,0.68048 4.0831,-6.1246 -4.7636,-6.8052 -29.262,-8.8467 -30.623,-8.8467 z" />
        <path
           id="path3188"
           filter="url(#filter3554)"
           d="m 347.25,897.71 c 0,0 29.943,-3.4026 48.317,0 18.374,3.4025 42.873,0 14.291,6.8052 -28.582,6.8052 -54.441,8.8467 -73.496,8.1662 -19.054,-0.68054 -12.249,-0.68054 10.208,-5.4442 22.457,-4.7636 12.93,-8.1662 5.4441,-8.1662 -7.4857,0 -2.7221,-0.68054 -4.7636,-1.361 z" />
      </g>
      <path
         id="path3190"
         filter="url(#filter3550)"
         fill="#5b5a58"
         d="m 343.16,937.18 c 0,0 26.54,-3.4026 52.4,0.68048 25.86,4.08308 55.122,5.4442 4.7636,8.8467 -50.358,3.4026 -82.343,6.1246 -82.343,6.1246 0,0 22.457,0 38.109,-6.8052 15.652,-6.8051 -11.569,-6.8051 -12.93,-8.8467 z" />
      <path
         id="path3192"
         filter="url(#filter3546)"
         fill="#f3f0ed"
         d="m 347.93,979.38 c 0,0 21.776,-2.0415 47.636,-1.361 25.86,0.68054 79.62,-3.4026 35.387,4.083 -44.234,7.4857 -69.413,8.8467 -84.384,10.888 -14.971,2.0416 -8.1662,0.68048 8.8467,-5.4442 17.0129,-6.12468 -7.4857,-6.1247 -7.4857,-8.1662 z" />
      <g
         fill="#938a85"
         id="g468">
        <path
           id="path3205"
           filter="url(#filter3542)"
           d="m 197.76,893.51 c 0,0 32.146,-0.97412 74.034,1.9482 41.887,2.9225 104.23,3.8965 48.706,9.7413 -55.525,5.8447 -117.87,10.715 -117.87,10.715 l -4.8706,-22.405 z" />
        <path
           id="path3207"
           filter="url(#filter3538)"
           d="m 195.82,939.29 c 4.8706,-0.97418 37.991,-4.8707 81.827,0 43.836,4.8706 69.163,8.7672 24.353,10.715 -44.81,1.9483 -101.31,8.7672 -101.31,8.7672 l -4.8706,-19.482 z" />
        <path
           id="path3209"
           filter="url(#filter3534)"
           d="m 197.76,977.28 c 0,0 27.276,8.7672 68.189,5.8448 40.913,-2.9224 66.241,-1.9483 61.37,-0.97418 -4.8706,0.97418 -23.379,14.612 -59.422,13.638 -36.043,-0.97406 -70.137,0 -70.137,0 v -18.508 z" />
      </g>
      <g
         fill="#f3f0ed"
         id="g474">
        <path
           id="path3274"
           filter="url(#filter3530)"
           d="m 359.26,915.95 c 7.6579,0 31.726,-6.5639 53.606,-4.376 21.88,2.188 -3.282,10.94 -28.444,12.034 -25.162,1.0941 -24.068,-6.5639 -25.162,-7.658 z" />
        <path
           id="path3276"
           filter="url(#filter3526)"
           d="m 354.89,960.8 c 6.5639,0 16.41,-2.188 38.29,-3.282 21.88,-1.0939 41.572,-1.0939 41.572,-1.0939 0,0 -17.504,6.564 -41.572,7.658 -24.068,1.094 -36.102,-3.282 -38.29,-3.282 z" />
        <path
           id="path3278"
           filter="url(#filter3522)"
           d="m 352.7,1001.3 c 4.376,0 2.188,-4.376 32.82,-5.47 30.632,-1.0939 45.948,2.1881 45.948,2.1881 0,0 7.658,1.0939 -27.35,5.4699 -35.008,4.376 -50.324,-3.282 -51.418,-2.188 z" />
        <path
           id="path3280"
           filter="url(#filter3518)"
           d="m 371.3,1022.1 c 6.564,0 9.846,-2.188 27.35,-2.188 17.504,0 3.282,4.376 3.282,4.376 0,0 -2.188,2.1879 -17.504,3.282 -15.316,1.094 -10.94,-3.282 -13.128,-5.47 z" />
      </g>
      <path
         id="path3282"
         d="m 201.26,1036.2 c 0,0 91.775,2.5122 129.6,2.5122 37.824,0 134.51,-7.2532 134.51,-7.2532"
         stroke-opacity="0.533"
         filter="url(#filter3514)"
         stroke="url(#linearGradient3554)"
         stroke-width="11"
         fill="none"
         style="stroke:url(#linearGradient3554)" />
      <g
         fill="#e3dcd4"
         fill-opacity="0.257"
         id="g481">
        <path
           id="path2254"
           filter="url(#filter3296)"
           d="m 466.87,883.58 c 0,0 1.2238,-4.839 -7.5978,1.2682 -8.8216,6.1072 8.143,11.536 8.143,11.536 l -0.5452,-12.804 z" />
        <path
           id="path2256"
           filter="url(#filter3300)"
           d="m 463.7,924.57 c 0,0 -8.5045,-3.0758 -9.1831,3.71 -0.67859,6.7859 13.572,11.536 13.572,11.536 l -4.3886,-15.246 z" />
        <path
           id="path2258"
           filter="url(#filter3304)"
           d="m 461.99,963.56 c 0,0 -9.5001,-3.3929 -11.536,3.3929 -2.0357,6.7858 15.018,11.308 15.018,11.308 l -3.4819,-14.701 z" />
        <path
           id="path2260"
           filter="url(#filter3308)"
           d="m 460.13,1003.3 c 0,0 -4.9338,-3.7544 -6.2909,3.0315 -1.3572,6.7858 11.308,11.536 11.308,11.536 l -5.0169,-14.567 z" />
      </g>
      <path
         id="path3197"
         filter="url(#filter3510)"
         fill="#5b5a58"
         d="m 199.52,891.5 c 0,0 110.22,-4.0521 140.2,-6.4833 29.985,-2.4313 119.94,-0.81049 119.94,-0.81049 0,0 -76.178,13.777 -115.89,13.777 -39.71,0 -144.25,-5.6728 -144.25,-6.4832 z" />
      <g
         fill="#64625c"
         id="g487">
        <path
           id="path3199"
           filter="url(#filter3506)"
           d="m 201.95,936.08 c 0,0 107.78,-8.9146 140.2,-8.9146 32.416,0 123.18,-1.6208 117.51,-0.81036 -5.6729,0.81036 -32.416,9.7249 -84.282,11.346 -51.866,1.6208 -175.05,0.81042 -173.43,-1.6208 z" />
        <path
           id="path3201"
           filter="url(#filter3502)"
           d="m 207.62,975.79 c 0,0 85.903,-5.6728 121.56,-6.4833 35.658,-0.81036 127.23,-4.0519 127.23,-4.0519 0,0 -12.967,8.9144 -59.97,10.535 -47.004,1.6209 -191.26,3.2416 -188.82,0 z" />
        <path
           id="path3203"
           filter="url(#filter3498)"
           d="m 205.19,1017.9 c 0,0 97.249,-5.6728 132.1,-8.9145 34.848,-3.2416 120.75,-4.8624 120.75,-4.8624 0,0 -8.9145,2.4312 -57.539,8.9144 -48.6245,6.4832 -197.74,6.4832 -195.31,4.8624 z" />
      </g>
      <path
         id="path3272"
         d="m 196.26,843.75 c 0,0 87.52,-3.282 125.81,-2.1879 38.29,1.0939 147.69,3.2819 147.69,3.2819"
         filter="url(#filter3494)"
         stroke="#4b4b48"
         stroke-width="6"
         fill="none" />
    </g>
    <g
       id="layer8">
      <path
         id="path2267"
         fill="#96948f"
         d="m 311.94,468.57 c -0.77069,0.008 0.50171,89.549 -0.3103,89.598 0.003,1.7396 0.0221,6.2574 0.0229,7.2874 0.01,12.906 -26.966,19.035 -31.457,17.476 -10.299,-3.5757 -10.679,11.379 -11.148,23.69 -0.65546,17.219 8.7278,57.259 6.465,64.147 -0.13342,0.40619 -0.24023,0.73114 -0.36554,1.0966 2.5901,-1.7062 5.1193,-4.3617 7.2417,-8.4296 8.2622,-15.836 10.338,-13.07 2.7642,-32.348 -7.5736,-19.278 -14.458,-34.43 4.8202,-38.562 19.278,-4.131 21.339,-12.401 40.618,-8.2697 19.278,4.1311 41.989,2.0851 46.808,25.494 4.8196,23.409 -2.7401,38.543 4.145,50.936 2.516,4.5286 8.0422,5.1672 10.841,8.6422 -0.8999,-4.9536 -1.7582,-9.4513 -2.1017,-13.57 -1.6945,-20.317 7.9977,-65.081 2.6957,-72.371 -5.3021,-7.2904 -13.236,1.6947 -30.474,-4.5918 -9.3397,-3.4059 -9.6969,-6.1456 -9.3206,-12.519 -1.1821,-0.21484 1.3178,-103.3 -4.001,-103.18 -13.128,0.29608 -7.4722,102.6 -17.507,100.92 -7.1478,-1.1989 -14.704,-95.494 -19.736,-95.443 z" />
      <path
         id="path3263"
         fill="url(#linearGradient3271)"
         d="m 327.39,609.73 c -23.414,0.57318 -16.105,39.916 -18.139,64.057 -1.7728,21.049 0.50348,122.68 1.622,152.84 12.453,0.56067 26.504,0.53186 39.612,0 -0.14368,-27.466 -0.7016,-131.12 -1.3021,-150.13 -0.68854,-21.799 4.135,-66.066 -20.651,-66.747 -0.38733,-0.0106 -0.77057,-0.0317 -1.1422,-0.0226 z"
         style="fill:url(#linearGradient3271)" />
      <path
         id="path3243"
         fill="url(#linearGradient3257)"
         d="m 322.64,627.23 c -3.2085,0.10724 -5.9633,1.4693 -8.5666,4.5461 -7.5736,8.9506 -9.6543,13.08 -16.539,15.146 -6.8851,2.0656 -6.8812,8.9468 -20.651,20.651 -0.35998,0.30597 -0.7049,0.62726 -1.0508,0.93665 -0.0222,0.4765 -0.0583,0.90002 -0.11426,1.2793 -0.0253,0.17163 -0.0587,0.3291 -0.0914,0.47974 -0.0371,0.18072 -0.0655,0.35425 -0.1142,0.50256 -0.42798,1.3027 -0.79535,2.3351 -1.1422,3.2668 -0.0952,0.25574 -0.20746,0.54218 -0.297,0.77667 -0.46747,1.2341 -0.86334,2.2256 -1.1879,3.1297 -0.15326,0.42682 -0.28534,0.83441 -0.41119,1.2565 -0.12585,0.42206 -0.24133,0.86359 -0.34265,1.325 -0.10132,0.46143 -0.19452,0.96295 -0.27417,1.5078 -0.0796,0.54486 -0.14478,1.1323 -0.20557,1.8048 0.68121,-0.49872 0.41632,2.629 -0.34265,8.2012 -0.0821,5.2905 -0.0914,12.849 -0.0914,24.375 0,13.918 -2.1354,76.487 3.084,105.11 0.0537,0.29456 0.18512,0.56812 0.38837,0.84522 3.0166,1.8392 6.6973,2.4448 11.148,1.5078 11.766,-2.4775 -13.074,-182.46 33.056,-152.85 20.892,13.408 21.273,-5.413 33.718,-6.1909 33.049,-2.0656 27.557,123.23 31,156.96 0.0532,0.521 0.42181,2.0592 0.98236,3.975 5.9765,-1.0958 10.167,-2.4262 11.582,-3.975 0.0394,-0.66455 0.0798,-1.2998 0.1142,-2.0102 0.0623,-1.2891 0.15564,-2.6813 0.27417,-4.1348 -0.57324,-23.357 -0.99262,-113.43 -1.5991,-126.17 -0.27368,-5.7472 -1.0043,-10.927 -1.8048,-15.694 -0.39734,-2.3664 -0.79327,-4.6436 -1.1879,-6.8077 -0.0383,-0.0334 -0.0758,-0.0579 -0.1142,-0.0914 -21.344,-18.59 -9.639,-15.826 -24.786,-22.022 -15.147,-6.1966 -2.068,1.3663 -19.281,-7.5844 -11.296,-5.8738 -19.026,-10.256 -25.152,-10.052 z"
         style="fill:url(#linearGradient3257)" />
      <path
         id="path3283"
         d="m 351.7,447.99 c -12.643,-0.043 -39.317,2.6816 -49.755,2.1017 -11.93,-0.66272 -16.787,7.1935 -6.5564,14.072 0.14056,0.0945 0.2912,0.18518 0.43408,0.27411 4.6819,1.253 9.3447,2.185 13.752,2.5814 1.1526,-0.11121 1.8961,-0.22846 1.8961,-0.22846 v 0.36554 c 0.40576,0.0222 0.81036,0.0564 1.2108,0.0685 18.286,0.55408 23.664,5.1063 39.772,1.4849 0.0901,-0.62299 0.17792,-1.0884 0.297,-1.3021 4.5659,-8.1944 15.836,-1.215 21.702,-10.486 3.3804,-5.3423 -8.2537,-7.5217 -18.276,-8.7266 -1.1457,-0.13776 -2.6714,-0.19946 -4.4775,-0.20563 z"
         stroke="#000000"
         stroke-width="0.731"
         fill="#2c2e2d" />
      <path
         id="path3314"
         d="m 274.3,822.64 c 0,-28.74 -3.0796,-95.73 -3.0796,-109.48 0,-41.527 -0.072,-31.975 4.2915,-45.097 2.2629,-6.8049 -7.1295,-46.346 -6.474,-63.357 0.46869,-12.162 0.854,-26.944 11.154,-23.411 4.4906,1.5401 31.469,-4.5116 31.459,-17.261 -0.0106,-13.776 -0.19415,-97.476 -0.19415,-97.476 0,0 -9.4065,1.845 -16.068,-2.5792 -10.231,-6.7953 -5.3758,-14.556 6.5544,-13.901 11.93,0.65472 45.055,-2.9802 54.221,-1.8916 10.022,1.1903 21.678,3.3463 18.297,8.6238 -5.8663,9.1583 -17.152,2.2683 -21.718,10.363 -2.1641,3.8367 0.66534,78.112 0.74316,89.969 0.0804,12.248 -3.4645,15.573 9.0045,20.065 17.239,6.2103 25.193,-2.6518 30.495,4.5502 5.3023,7.202 -4.3928,51.42 -2.6982,71.492 0.75531,8.9465 4.0169,19.549 4.6797,33.298 0.66278,13.749 1.754,127.62 1.754,135.11 0,7.4822 -122.42,3.9536 -122.42,0.98498 z"
         stroke="#808080"
         stroke-width="0.727"
         fill="url(#linearGradient3582)"
         style="fill:url(#linearGradient3582)" />
      <path
         id="path3285"
         fill="#96948f"
         d="m 311.94,468.57 c -0.77069,0.008 0.50171,89.549 -0.3103,89.598 0.003,1.7396 0.0221,6.2574 0.0229,7.2874 0.01,12.906 -26.966,19.035 -31.457,17.476 -10.299,-3.5757 -10.679,11.379 -11.148,23.69 -0.65546,17.219 8.7278,57.259 6.465,64.147 -0.13342,0.40619 -0.24023,0.73114 -0.36554,1.0966 2.5901,-1.7062 5.1193,-4.3617 7.2417,-8.4296 8.2622,-15.836 10.338,-13.07 2.7642,-32.348 -7.5736,-19.278 -14.458,-34.43 4.8202,-38.562 19.278,-4.131 21.339,-12.401 40.618,-8.2697 19.278,4.1311 41.989,2.0851 46.808,25.494 4.8196,23.409 -2.7401,38.543 4.145,50.936 2.516,4.5286 8.0422,5.1672 10.841,8.6422 -0.8999,-4.9536 -1.7582,-9.4513 -2.1017,-13.57 -1.6945,-20.317 7.9977,-65.081 2.6957,-72.371 -5.3021,-7.2904 -13.236,1.6947 -30.474,-4.5918 -9.3397,-3.4059 -9.6969,-6.1456 -9.3206,-12.519 -1.1821,-0.21484 1.3178,-103.3 -4.001,-103.18 -13.128,0.29608 -7.4722,102.6 -17.507,100.92 -7.1478,-1.1989 -14.704,-95.494 -19.736,-95.443 z" />
    </g>
  </g>
</svg>
